<?xml version="1.0" standalone="yes"?>
<svg xmlns="http://www.w3.org/2000/svg" width="1000" height="1000">
<path style="fill:#ffffff; stroke:none;" d="M0 0L0 1000L1000 1000L1000 0L0 0z"/>
<path style="fill:#f39fad; stroke:none;" d="M205 68L206 69L205 68z"/>
<path style="fill:#63a630; stroke:none;" d="M482 304C480.182 281.745 466.556 260.914 459.671 240C448.81 207.011 440.987 172.296 421.251 143C392.061 99.6716 334.011 76.3386 284 72.9105C263.774 71.524 243.236 69.958 223 69.0394C217.498 68.7896 206.946 65.754 202.742 70.5139C197.737 76.1817 201.904 90.4822 203.2 97C208.05 121.402 209.337 146.648 218.601 170C224.064 183.771 230.768 197.085 239.63 209C284.874 269.832 355.289 279.109 425 289.131C443.585 291.803 463.582 306.275 482 304z"/>
<path style="fill:#f39fad; stroke:none;" d="M214 68L214 69L217 69L214 68M227 69L228 70L227 69M235 70L236 71L235 70M244 71L245 72L244 71M280.667 72.3333L281.333 72.6667L280.667 72.3333M294 73L295 74L294 73M302 74L303 75L302 74M308 75L309 76L308 75M333 81L334 82L333 81M341 84L342 85L341 84M201 87L202 88L201 87M202 93L203 94L202 93M359 93L360 94L359 93M364 96L365 97L364 96M203 98L204 99L203 98M372 101L373 102L372 101M390 113L391 114L390 113M206 115L207 116L206 115M399 120L400 121L399 120M208 129L209 130L208 129M209 135L210 136L209 135M556 140L557 141L556 140z"/>
<path style="fill:#814735; stroke:none;" d="M482 304L461 300L457 356C462.992 356 483.104 359.141 486.57 353.682C490.566 347.39 490.821 337.122 493.025 330C498.097 313.613 504.149 297.593 511.309 282C530.583 240.024 559.686 210.41 594.856 181.655C602.165 175.679 597.754 161.774 593.532 155.004C587.388 145.152 567.51 136.196 556 141.089C543.675 146.328 532.034 159.394 523.089 169C504.528 188.934 490.247 213.069 479.579 238C476.225 245.838 470.224 256.357 469.988 265C469.653 277.246 480.297 291.363 482 304z"/>
<path style="fill:#f39fad; stroke:none;" d="M564 140L564 141L568 141L564 140M571.667 141.333L572.333 141.667L571.667 141.333M553 142L554 143L553 142M575 142L576 143L575 142M578 143L579 144L578 143M550 144L551 145L550 144M581 144L582 145L581 144M549 145L550 146L549 145M583 145L584 146L583 145M546 147L547 148L546 147M586 147L587 148L586 147M545 148L546 149L545 148M587 148L588 149L587 148M425 150L426 151L425 150M541 151L542 152L541 151M540 152L541 153L540 152M539 153L540 154L539 153M592 153L593 154L592 153M538 154L539 155L538 154M593 154L594 155L593 154M594 156L595 157L594 156M214 157L215 158L214 157M595 158L596 159L595 158M531 160L532 161L531 160M596 160L597 161L596 160M530 161L531 162L530 161M529 162L530 163L529 162M528 163L529 164L528 163M597.333 163.667L597.667 164.333L597.333 163.667M598 168L598 172L599 172L598 168M218 169L219 170L218 169M436 172L437 173L436 172M519 173L520 174L519 173M220 174L221 175L220 174M518 174L519 175L518 174M517 175L518 176L517 175M516 176L517 177L516 176M598 176L598 179L599 179L598 176M514 179L515 180L514 179M513 180L514 181L513 180M596 180L597 181L596 180M223 181L224 182L223 181M440 181L441 182L440 181M512 181L513 182L512 181M593 182L594 183L593 182M224 183L225 184L224 183M510 184L511 185L510 184M590 184L591 185L590 184M225 185L226 186L225 185M509 185L510 186L509 185M589 185L590 186L589 185M226 187L227 188L226 187M508 187L509 188L508 187M586 187L587 188L586 187M507 188L508 189L507 188M583 189L584 190L583 189M582 190L583 191L582 190M505 191L506 192L505 191M504 192L505 193L504 192M578 193L579 194L578 193M577 194L578 195L577 194M502 195L503 196L502 195M576 195L577 196L576 195M231 196L232 197L231 196M446 197L447 198L446 197M500 198L501 199L500 198M571 199L572 200L571 199M499 200L500 201L499 200M570 200L571 201L570 200M498 201L499 202L498 201M569 201L570 202L569 201M568 202L569 203L568 202M497 203L498 204L497 203M567 203L568 204L567 203M449 206L450 207L449 206M495 206L496 207L495 206M239 208L240 209L239 208M494 208L495 209L494 208M450 209L451 210L450 209M492 211L493 212L492 211M242 212L243 213L242 212M451 212L452 213L451 212M491 213L492 214L491 213M490 215L491 216L490 215M554 216L555 217L554 216M246 217L247 218L246 217M489 217L490 218L489 217M553 217L554 218L553 217M552 218L553 219L552 218M551 219L552 220L551 219M487 220L488 221L487 220M454 222L455 223L454 222M486 222L487 223L486 222M485 224L486 225L485 224M547 224L548 225L547 224M546 225L547 226L546 225M484 226L485 227L484 226M456 229L457 230L456 229M483 229L484 230L483 229M543 229L544 230L543 229M542 230L543 231L542 230M482 231L483 232L482 231M481 233L482 234L481 233M539 234L540 235L539 234M480 235L481 236L480 235M265 236L266 237L265 236M458 236L459 237L458 236M479.333 237.667L479.667 238.333L479.333 237.667M537 237L538 238L537 237M536 238L537 239L536 238M459 239L460 240L459 239M478 240L479 241L478 240M534 241L535 242L534 241M477 242L478 243L477 242M275 244L276 245L275 244M532 244L533 245L532 244M461 245L462 246L461 245M476 245L477 246L476 245M531 245L532 246L531 245M279 247L280 248L279 247M475 247L476 248L475 247M530 247L531 248L530 247M474 250L475 251L474 250M528 250L529 251L528 250M287 252L288 253L287 252M464 253L465 254L464 253M473 253L474 254L473 253M526 253L527 254L526 253M292 255L293 256L292 255M472.333 255.667L472.667 256.333L472.333 255.667M525 255L526 256L525 255M582 255L582 256L599 256L582 255M554 256L554 257L563 257L554 256z"/>
<path style="fill:#ed3153; stroke:none;" d="M457 356C457 342.955 457.605 329.95 459.155 317C459.662 312.763 462.505 304.273 459.968 300.499C455.068 293.211 435.995 291.054 428 289.754C401.906 285.512 375.879 282.867 350 276.989C339.776 274.667 325.291 266.825 315 269.443C231.299 290.74 169.126 349.97 145.427 433C123.6 509.472 128.418 596.34 147.13 673C165.438 748.01 204.364 818.343 259 873C286.75 900.761 316.591 924.969 357 928.83C381.611 931.182 409.584 929.464 433 921.305C453.32 914.224 472.007 901.761 493 896.749C516.196 891.211 543.807 913.845 565 920.996C610.855 936.47 666.691 933.052 706 903.525C822.951 815.676 875.814 658.005 866.089 516C861.492 448.869 845.4 377.816 794.996 329.039C756.827 292.103 700.717 269.845 649 260.095C618.625 254.368 587.63 256.233 557 256.985C548.944 257.183 528.896 255.144 522.634 260.603C518.066 264.586 515.385 272.653 512.756 278C504.717 294.351 498.406 311.614 493.025 329C491.104 335.209 490.387 351.297 484.697 354.972C478.748 358.814 463.982 356 457 356z"/>
<path style="fill:#f39fad; stroke:none;" d="M614 256L614 257L621 257L614 256M539 257L539 258L547 258L539 257M627 257L627 258L632 258L627 257M467 258L467 259L472 259L467 258M523 258L524 259L523 258M526 258L526 259L532 259L526 258M637 258L637 259L641 259L637 258M299 259L300 260L299 259z"/>
<path style="fill:#ed3153; stroke:none;" d="M467 259L469 265L470 265L471 259L467 259z"/>
<path style="fill:#f39fad; stroke:none;" d="M645 259L645 260L648 260L645 259z"/>
<path style="fill:#814735; stroke:none;" d="M467 260L468 261L467 260z"/>
<path style="fill:#f39fad; stroke:none;" d="M651.667 260.333L652.333 260.667L651.667 260.333M654.667 261.333L655.333 261.667L654.667 261.333M658.667 262.333L659.333 262.667L658.667 262.333M662.667 263.333L663.333 263.667L662.667 263.333M310 264L311 265L310 264M666.667 264.333L667.333 264.667L666.667 264.333M670.667 265.333L671.333 265.667L670.667 265.333M315 266L316 267L315 266M673.667 266.333L674.333 266.667L673.667 266.333M677.667 267.333L678.333 267.667L677.667 267.333M317.667 268.333L318.333 268.667L317.667 268.333z"/>
<path style="fill:#814735; stroke:none;" d="M320 268L321 269L320 268z"/>
<path style="fill:#f39fad; stroke:none;" d="M680.667 268.333L681.333 268.667L680.667 268.333M314 269L315 270L314 269z"/>
<path style="fill:#814735; stroke:none;" d="M323 269L324 270L323 269z"/>
<path style="fill:#f39fad; stroke:none;" d="M684.667 269.333L685.333 269.667L684.667 269.333M311 270L312 271L311 270z"/>
<path style="fill:#814735; stroke:none;" d="M326 270L327 271L326 270z"/>
<path style="fill:#f39fad; stroke:none;" d="M687.667 270.333L688.333 270.667L687.667 270.333M307.667 271.333L308.333 271.667L307.667 271.333z"/>
<path style="fill:#814735; stroke:none;" d="M329 271L330 272L329 271z"/>
<path style="fill:#f39fad; stroke:none;" d="M690.667 271.333L691.333 271.667L690.667 271.333M304.667 272.333L305.333 272.667L304.667 272.333z"/>
<path style="fill:#814735; stroke:none;" d="M332 272L333 273L332 272z"/>
<path style="fill:#f39fad; stroke:none;" d="M693.667 272.333L694.333 272.667L693.667 272.333M301.667 273.333L302.333 273.667L301.667 273.333z"/>
<path style="fill:#814735; stroke:none;" d="M336 273L337 274L336 273z"/>
<path style="fill:#f39fad; stroke:none;" d="M696.667 273.333L697.333 273.667L696.667 273.333M298.667 274.333L299.333 274.667L298.667 274.333z"/>
<path style="fill:#814735; stroke:none;" d="M340 274L341 275L340 274z"/>
<path style="fill:#f39fad; stroke:none;" d="M699.667 274.333L700.333 274.667L699.667 274.333M296 275L297 276L296 275z"/>
<path style="fill:#814735; stroke:none;" d="M344 275L345 276L344 275z"/>
<path style="fill:#f39fad; stroke:none;" d="M702.667 275.333L703.333 275.667L702.667 275.333M293 276L294 277L293 276z"/>
<path style="fill:#814735; stroke:none;" d="M347.667 276.333L348.333 276.667L347.667 276.333z"/>
<path style="fill:#f39fad; stroke:none;" d="M705 276L706 277L705 276M290 277L291 278L290 277z"/>
<path style="fill:#814735; stroke:none;" d="M352 277L353 278L352 277z"/>
<path style="fill:#f39fad; stroke:none;" d="M708 277L709 278L708 277M287.667 278.333L288.333 278.667L287.667 278.333z"/>
<path style="fill:#814735; stroke:none;" d="M356.667 278.333L357.333 278.667L356.667 278.333z"/>
<path style="fill:#f39fad; stroke:none;" d="M710.667 278.333L711.333 278.667L710.667 278.333M285 279L286 280L285 279z"/>
<path style="fill:#814735; stroke:none;" d="M361.667 279.333L362.333 279.667L361.667 279.333z"/>
<path style="fill:#f39fad; stroke:none;" d="M713 279L714 280L713 279M282 280L283 281L282 280z"/>
<path style="fill:#814735; stroke:none;" d="M366.667 280.333L367.333 280.667L366.667 280.333z"/>
<path style="fill:#f39fad; stroke:none;" d="M716 280L717 281L716 280M280 281L281 282L280 281z"/>
<path style="fill:#814735; stroke:none;" d="M371.667 281.333L372.333 281.667L371.667 281.333z"/>
<path style="fill:#f39fad; stroke:none;" d="M718 281L719 282L718 281M277.667 282.333L278.333 282.667L277.667 282.333z"/>
<path style="fill:#814735; stroke:none;" d="M376.667 282.333L377.333 282.667L376.667 282.333z"/>
<path style="fill:#f39fad; stroke:none;" d="M720.667 282.333L721.333 282.667L720.667 282.333M275 283L276 284L275 283z"/>
<path style="fill:#814735; stroke:none;" d="M382.667 283.333L383.333 283.667L382.667 283.333z"/>
<path style="fill:#f39fad; stroke:none;" d="M723 283L724 284L723 283M273 284L274 285L273 284z"/>
<path style="fill:#814735; stroke:none;" d="M388.667 284.333L389.333 284.667L388.667 284.333z"/>
<path style="fill:#f39fad; stroke:none;" d="M725 284L726 285L725 284M271 285L272 286L271 285z"/>
<path style="fill:#814735; stroke:none;" d="M394.667 285.333L395.333 285.667L394.667 285.333z"/>
<path style="fill:#f39fad; stroke:none;" d="M727.667 285.333L728.333 285.667L727.667 285.333M268 286L269 287L268 286z"/>
<path style="fill:#814735; stroke:none;" d="M401.667 286.333L402.333 286.667L401.667 286.333z"/>
<path style="fill:#f39fad; stroke:none;" d="M730 286L731 287L730 286M266 287L267 288L266 287z"/>
<path style="fill:#814735; stroke:none;" d="M408 287L408 288L411 288L408 287z"/>
<path style="fill:#f39fad; stroke:none;" d="M732 287L733 288L732 287M264 288L265 289L264 288z"/>
<path style="fill:#814735; stroke:none;" d="M418 288L418 289L421 289L418 288z"/>
<path style="fill:#f39fad; stroke:none;" d="M734 288L735 289L734 288M262 289L263 290L262 289z"/>
<path style="fill:#814735; stroke:none;" d="M426.667 289.333L427.333 289.667L426.667 289.333z"/>
<path style="fill:#f39fad; stroke:none;" d="M736 289L737 290L736 289M260 290L261 291L260 290z"/>
<path style="fill:#814735; stroke:none;" d="M432 290L433 291L432 290z"/>
<path style="fill:#f39fad; stroke:none;" d="M738 290L739 291L738 290M258 291L259 292L258 291z"/>
<path style="fill:#814735; stroke:none;" d="M437 291L438 292L437 291z"/>
<path style="fill:#f39fad; stroke:none;" d="M740 291L741 292L740 291M256 292L257 293L256 292z"/>
<path style="fill:#814735; stroke:none;" d="M441 292L442 293L441 292z"/>
<path style="fill:#f39fad; stroke:none;" d="M742 292L743 293L742 292M254 293L255 294L254 293z"/>
<path style="fill:#814735; stroke:none;" d="M444 293L445 294L444 293z"/>
<path style="fill:#f39fad; stroke:none;" d="M744 293L745 294L744 293M252 294L253 295L252 294z"/>
<path style="fill:#814735; stroke:none;" d="M447 294L448 295L447 294z"/>
<path style="fill:#f39fad; stroke:none;" d="M746 294L747 295L746 294M250 295L251 296L250 295M748 295L749 296L748 295M248 296L249 297L248 296z"/>
<path style="fill:#814735; stroke:none;" d="M452 296L453 297L452 296z"/>
<path style="fill:#f39fad; stroke:none;" d="M750 296L751 297L750 296M246 297L247 298L246 297M244 298L245 299L244 298z"/>
<path style="fill:#814735; stroke:none;" d="M457 298L458 299L457 298z"/>
<path style="fill:#f39fad; stroke:none;" d="M753 298L754 299L753 298M243 299L244 300L243 299M755 299L756 300L755 299M241 300L242 301L241 300M757 300L758 301L757 300M238 302L239 303L238 302M760 302L761 303L760 302M762 303L763 304L762 303M235 304L236 305L235 304M763 304L764 305L763 304M233 305L234 306L233 305M765 305L766 306L765 305M232 306L233 307L232 306M766 306L767 307L766 306M768 307L769 308L768 307M229 308L230 309L229 308M769 308L770 309L769 308M226 310L227 311L226 310M772 310L773 311L772 310M225 311L226 312L225 311M775 312L776 313L775 312M222 313L223 314L222 313M776 313L777 314L776 313M221 314L222 315L221 314M218 316L219 317L218 316M780 316L781 317L780 316M217 317L218 318L217 317M781 317L782 318L781 317M214 319L215 320L214 319M784 319L785 320L784 319M213 320L214 321L213 320M785 320L786 321L785 320M212 321L213 322L212 321M786 321L787 322L786 321M211 322L212 323L211 322M787 322L788 323L787 322M210 323L211 324L210 323M788 323L789 324L788 323M209 324L210 325L209 324M789 324L790 325L789 324M198 335L199 336L198 335M197 336L198 337L197 336M801 336L802 337L801 336M196 337L197 338L196 337M802 337L803 338L802 337M195 338L196 339L195 338M803 338L804 339L803 338M804 339L805 340L804 339M191 343L192 344L191 343M190 344L191 345L190 344M808 344L809 345L808 344M189 345L190 346L189 345M809 345L810 346L809 345M187 348L188 349L187 348M811 348L812 349L811 348M186 349L187 350L186 349M812 349L813 350L812 349M184 352L185 353L184 352M814 352L815 353L814 352M183 353L184 354L183 353M815 353L816 354L815 353M181 356L182 357L181 356M817 356L818 357L817 356M179 359L180 360L179 359M819 359L820 360L819 359M178 360L179 361L178 360M820 360L821 361L820 360M177 362L178 363L177 362M821 362L822 363L821 362M176 363L177 364L176 363M822 363L823 364L822 363M175 365L176 366L175 365M823 365L824 366L823 365M173 368L174 369L173 368M825 368L826 369L825 368M171 371L172 372L171 371M827 371L828 372L827 371M170 373L171 374L170 373M828 373L829 374L828 373M169 375L170 376L169 375M829 375L830 376L829 375M168 377L169 378L168 377M830 377L831 378L830 377M166 380L167 381L166 380M832 380L833 381L832 380M165 382L166 383L165 382M833 382L834 383L833 382M164 384L165 385L164 384M834 384L835 385L834 384M163 386L164 387L163 386M835 386L836 387L835 386M162 388L163 389L162 388M836 388L837 389L836 388M161 390L162 391L161 390M837 390L838 391L837 390M160 392L161 393L160 392M838 392L839 393L838 392M159 395L160 396L159 395M839 395L840 396L839 395M158 397L159 398L158 397M840 397L841 398L840 397M157 399L158 400L157 399M841 399L842 400L841 399M156 401L157 402L156 401M842 401L843 402L842 401M155 404L156 405L155 404M843 404L844 405L843 404M154 406L155 407L154 406M844 406L845 407L844 406M153 409L154 410L153 409M845 409L846 410L845 409M152 411L153 412L152 411M846 411L847 412L846 411M151 414L152 415L151 414M847 414L848 415L847 414M150 417L151 418L150 417M848 417L849 418L848 417M149.333 419.667L149.667 420.333L149.333 419.667M849 420L850 421L849 420M148.333 422.667L148.667 423.333L148.333 422.667M850.333 422.667L850.667 423.333L850.333 422.667M147.333 425.667L147.667 426.333L147.333 425.667M851.333 425.667L851.667 426.333L851.333 425.667M146 429L147 430L146 429M852 429L853 430L852 429M145 432L146 433L145 432M853.333 432.667L853.667 433.333L853.333 432.667M144.333 435.667L144.667 436.333L144.333 435.667M854.333 435.667L854.667 436.333L854.333 435.667M143.333 439.667L143.667 440.333L143.333 439.667M855.333 439.667L855.667 440.333L855.333 439.667M142 443L143 444L142 443M856.333 443.667L856.667 444.333L856.333 443.667M141.333 446.667L141.667 447.333L141.333 446.667M857.333 447.667L857.667 448.333L857.333 447.667M140.333 451.667L140.667 452.333L140.333 451.667M858.333 451.667L858.667 452.333L858.333 451.667M139.333 455.667L139.667 456.333L139.333 455.667M859 455L859 458L860 458L859 455M138 460L138 463L139 463L138 460M860 460L860 463L861 463L860 460M137 465L137 468L138 468L137 465M861 466L861 469L862 469L861 466M136 471L136 474L137 474L136 471M862 472L862 475L863 475L862 472M135 477L135 481L136 481L135 477M863 478L863 482L864 482L863 478M134 485L134 489L135 489L134 485M864 486L864 491L865 491L864 486M133 495L133 503L134 503L133 495M865 496L865 501L866 501L865 496M866 510L866 520L867 520L866 510M132 512L132 522L133 522L132 512M132 567L132 577L133 577L132 567M866 567L866 578L867 578L866 567M133 585L133 591L134 591L133 585M865 585L865 592L866 592L865 585M134 597L134 602L135 602L134 597M864 597L864 603L865 603L864 597M135 607L135 611L136 611L135 607M863 607L863 611L864 611L863 607M136 615L136 619L137 619L136 615M862 615L862 619L863 619L862 615M137 623L137 626L138 626L137 623M861 623L861 626L862 626L861 623M138 629L138 632L139 632L138 629M860 629L860 632L861 632L860 629M139 635L139 638L140 638L139 635M859 636L859 639L860 639L859 636M140 641L140 644L141 644L140 641M858 641L858 644L859 644L858 641M141 646L141 649L142 649L141 646M857 646L857 649L858 649L857 646M142.333 652.667L142.667 653.333L142.333 652.667M856.333 652.667L856.667 653.333L856.333 652.667M143.333 657.667L143.667 658.333L143.333 657.667M855.333 657.667L855.667 658.333L855.333 657.667M144.333 661.667L144.667 662.333L144.333 661.667M854.333 661.667L854.667 662.333L854.333 661.667M145 665L145 668L146 668L145 665M853 665L853 668L854 668L853 665M146.333 670.667L146.667 671.333L146.333 670.667M852.333 670.667L852.667 671.333L852.333 670.667M147.333 674.667L147.667 675.333L147.333 674.667M851.333 674.667L851.667 675.333L851.333 674.667M148.333 678.667L148.667 679.333L148.333 678.667M850 678L851 679L850 678M149.333 681.667L149.667 682.333L149.333 681.667M849.333 681.667L849.667 682.333L849.333 681.667M150.333 685.667L150.667 686.333L150.333 685.667M848.333 685.667L848.667 686.333L848.333 685.667M151 689L152 690L151 689M847 689L848 690L847 689M152.333 692.667L152.667 693.333L152.333 692.667M846.333 692.667L846.667 693.333L846.333 692.667M153.333 695.667L153.667 696.333L153.333 695.667M845.333 695.667L845.667 696.333L845.333 695.667M844.333 698.667L844.667 699.333L844.333 698.667M154 699L155 700L154 699M155 702L156 703L155 702M843 702L844 703L843 702M156 705L157 706L156 705M842 705L843 706L842 705M157 708L158 709L157 708M841 708L842 709L841 708M158 711L159 712L158 711M840 711L841 712L840 711M839.333 713.667L839.667 714.333L839.333 713.667M159 714L160 715L159 714M160.333 716.667L160.667 717.333L160.333 716.667M838.333 716.667L838.667 717.333L838.333 716.667M161.333 719.667L161.667 720.333L161.333 719.667M837 719L838 720L837 719M162 722L163 723L162 722M836 722L837 723L836 722M835.333 724.667L835.667 725.333L835.333 724.667M163 725L164 726L163 725M164 727L165 728L164 727M834 727L835 728L834 727M833.333 729.667L833.667 730.333L833.333 729.667M165 730L166 731L165 730M166 732L167 733L166 732M832 732L833 733L832 732M831.333 734.667L831.667 735.333L831.333 734.667M167 735L168 736L167 735M168 737L169 738L168 737M830 737L831 738L830 737M829 739L830 740L829 739M169 740L170 741L169 740M170 742L171 743L170 742M828 742L829 743L828 742M171 744L172 745L171 744M827 744L828 745L827 744M172 746L173 747L172 746M826 746L827 747L826 746M173.333 748.667L173.667 749.333L173.333 748.667M825 748L826 749L825 748M174 751L175 752L174 751M824 751L825 752L824 751M175 753L176 754L175 753M823 753L824 754L823 753M176 755L177 756L176 755M822 755L823 756L822 755M177 757L178 758L177 757M821 757L822 758L821 757M178 759L179 760L178 759M820 759L821 760L820 759M179 761L180 762L179 761M819 761L820 762L819 761M180 763L181 764L180 763M818 763L819 764L818 763M181 765L182 766L181 765M817 765L818 766L817 765M182 767L183 768L182 767M816 767L817 768L816 767M183 769L184 770L183 769M815 769L816 770L815 769M184 771L185 772L184 771M814 771L815 772L814 771M185 773L186 774L185 773M813 773L814 774L813 773M186 775L187 776L186 775M811 776L812 777L811 776M188 778L189 779L188 778M810 778L811 779L810 778M189 780L190 781L189 780M809 780L810 781L809 780M190 782L191 783L190 782M808 782L809 783L808 782M191 784L192 785L191 784M806 785L807 786L806 785M193 787L194 788L193 787M805 787L806 788L805 787M194 789L195 790L194 789M803 790L804 791L803 790M196 792L197 793L196 792M802 792L803 793L802 792M197 794L198 795L197 794M800 795L801 796L800 795M199 797L200 798L199 797M799 797L800 798L799 797M200 799L201 800L200 799M201 800L202 801L201 800M797 800L798 801L797 800M202 802L203 803L202 802M203 803L204 804L203 803M795 803L796 804L795 803M204 805L205 806L204 805M793 806L794 807L793 806M206 808L207 809L206 808M791 809L792 810L791 809M208 811L209 812L208 811M789 812L790 813L789 812M210 814L211 815L210 814M211 815L212 816L211 815M787 815L788 816L787 815M212 817L213 818L212 817M213 818L214 819L213 818M785 818L786 819L785 818M784 819L785 820L784 819M215 821L216 822L215 821M216 822L217 823L216 822M782 822L783 823L782 822M218 825L219 826L218 825M780 825L781 826L780 825M779 826L780 827L779 826M220 828L221 829L220 828M221 829L222 830L221 829M777 829L778 830L777 829M776 830L777 831L776 830M224 833L225 834L224 833M774 833L775 834L774 833M225 834L226 835L225 834M773 834L774 835L773 834M772 835L773 836L772 835M228 838L229 839L228 838M770 838L771 839L770 838M229 839L230 840L229 839M769 839L770 840L769 839M232 843L233 844L232 843M766 843L767 844L766 843M233 844L234 845L233 844M765 844L766 845L765 844M234 845L235 846L234 845M237 849L238 850L237 849M761 849L762 850L761 849M238 850L239 851L238 850M760 850L761 851L760 850M239 851L240 852L239 851M759 851L760 852L759 851M240 852L241 853L240 852M243 856L244 857L243 856M244 857L245 858L244 857M754 857L755 858L754 857M245 858L246 859L245 858M753 858L754 859L753 858M246 859L247 860L246 859M752 859L753 860L752 859M247 860L248 861L247 860M751 860L752 861L751 860M248 861L249 862L248 861M750 861L751 862L750 861M249 862L250 863L249 862M749 862L750 863L749 862M741 871L742 872L741 871M740 872L741 873L740 872M739 873L740 874L739 873M738 874L739 875L738 874M737 875L738 876L737 875M736 876L737 877L736 876M735 877L736 878L735 877M273 886L274 887L273 886M274 887L275 888L274 887M724 887L725 888L724 887M275 888L276 889L275 888M723 888L724 889L723 888M276 889L277 890L276 889M722 889L723 890L722 889M277 890L278 891L277 890M721 890L722 891L721 890M278 891L279 892L278 891M720 891L721 892L720 891M282 894L283 895L282 894M283 895L284 896L283 895M715 895L716 896L715 895M284 896L285 897L284 896M493 896L493 897L496 897L493 896M503 896L503 897L506 897L503 896M714 896L715 897L714 896M285 897L286 898L285 897M490.667 897.333L491.333 897.667L490.667 897.333M508.667 897.333L509.333 897.667L508.667 897.333M713 897L714 898L713 897M486.667 898.333L487.333 898.667L486.667 898.333M511.667 898.333L512.333 898.667L511.667 898.333M483.667 899.333L484.333 899.667L483.667 899.333M514.667 899.333L515.333 899.667L514.667 899.333M289 900L290 901L289 900M481 900L482 901L481 900M517.667 900.333L518.333 900.667L517.667 900.333M709 900L710 901L709 900M290 901L291 902L290 901M478 901L479 902L478 901M520 901L521 902L520 901M708 901L709 902L708 901M476 902L477 903L476 902M522 902L523 903L522 902M293 903L294 904L293 903M474 903L475 904L474 903M525 903L526 904L525 903M294 904L295 905L294 904M471 904L472 905L471 904M527 904L528 905L527 904M704 904L705 905L704 904M469 905L470 906L469 905M529 905L530 906L529 905M703 905L704 906L703 905M297 906L298 907L297 906M467 906L468 907L467 906M531 906L532 907L531 906M701 906L702 907L701 906M298 907L299 908L298 907M465 907L466 908L465 907M533 907L534 908L533 907M700 907L701 908L700 907M463 908L464 909L463 908M535 908L536 909L535 908M301 909L302 910L301 909M460 909L461 910L460 909M537 909L538 910L537 909M697 909L698 910L697 909M303 910L304 911L303 910M458 910L459 911L458 910M540 910L541 911L540 910M695 910L696 911L695 910M304 911L305 912L304 911M456 911L457 912L456 911M542 911L543 912L542 911M694 911L695 912L694 911M306 912L307 913L306 912M454 912L455 913L454 912M544 912L545 913L544 912M692 912L693 913L692 912M452 913L453 914L452 913M546 913L547 914L546 913M690 913L691 914L690 913M309 914L310 915L309 914M450 914L451 915L450 914M548 914L549 915L548 914M689 914L690 915L689 914M311 915L312 916L311 915M447.667 915.333L448.333 915.667L447.667 915.333M550 915L551 916L550 915M687 915L688 916L687 915M313 916L314 917L313 916M445 916L446 917L445 916M552.667 916.333L553.333 916.667L552.667 916.333M685 916L686 917L685 916M315 917L316 918L315 917M443 917L444 918L443 917M555 917L556 918L555 917M683 917L684 918L683 917M317 918L318 919L317 918M440 918L441 919L440 918M557.667 918.333L558.333 918.667L557.667 918.333M681 918L682 919L681 918M319 919L320 920L319 919M437.667 919.333L438.333 919.667L437.667 919.333M560 919L561 920L560 919M679 919L680 920L679 919M322 920L323 921L322 920M435 920L436 921L435 920M563 920L564 921L563 920M676 920L677 921L676 920M324 921L325 922L324 921M432 921L433 922L432 921M566 921L567 922L566 921M674 921L675 922L674 921M327 922L328 923L327 922M429.667 922.333L430.333 922.667L429.667 922.333M569 922L570 923L569 922M671 922L672 923L671 922M329.667 923.333L330.333 923.667L329.667 923.333M425.667 923.333L426.333 923.667L425.667 923.333M572.667 923.333L573.333 923.667L572.667 923.333M668 923L669 924L668 923M333 924L334 925L333 924M421.667 924.333L422.333 924.667L421.667 924.333M576.667 924.333L577.333 924.667L576.667 924.333M664.667 924.333L665.333 924.667L664.667 924.333M336.667 925.333L337.333 925.667L336.667 925.333M418 925L419 926L418 925M580.667 925.333L581.333 925.667L580.667 925.333M661.667 925.333L662.333 925.667L661.667 925.333M340 926L340 927L343 927L340 926M412 926L412 927L416 927L412 926M584.667 926.333L585.333 926.667L584.667 926.333M656.667 926.333L657.333 926.667L656.667 926.333M345 927L345 928L348 928L345 927M405 927L405 928L409 928L405 927M589 927L589 928L592 928L589 927M651 927L651 928L654 928L651 927M351 928L351 929L355 929L351 928M396 928L396 929L401 929L396 928M598 928L598 929L603 929L598 928M644 928L644 929L648 929L644 928M361 929L361 930L386 930L361 929M613 929L613 930L637 930L613 929z"/>
</svg>
