<?xml version="1.0" standalone="yes"?>
<svg xmlns="http://www.w3.org/2000/svg" width="1000" height="1000">
<path style="fill:#ffffff; stroke:none;" d="M0 0L0 1000L1000 1000L1000 0L0 0z"/>
<path style="fill:#373635; stroke:none;" d="M235 66L198 121L264 132L284 80L235 66z"/>
<path style="fill:#f9ab45; stroke:none;" d="M238 66L239 67L238 66z"/>
<path style="fill:#fceba3; stroke:none;" d="M239 66L240 67L239 66z"/>
<path style="fill:#f9ab45; stroke:none;" d="M234 67L235 68L234 67M242 67L243 68L242 67z"/>
<path style="fill:#fceba3; stroke:none;" d="M243 67L244 68L243 67M233 68L234 69L233 68z"/>
<path style="fill:#f9ab45; stroke:none;" d="M245 68L246 69L245 68z"/>
<path style="fill:#fceba3; stroke:none;" d="M246 68L247 69L246 68z"/>
<path style="fill:#f9ab45; stroke:none;" d="M249 69L250 70L249 69z"/>
<path style="fill:#fceba3; stroke:none;" d="M250 69L251 70L250 69z"/>
<path style="fill:#f9ab45; stroke:none;" d="M232 70L233 71L232 70M252 70L253 71L252 70z"/>
<path style="fill:#fceba3; stroke:none;" d="M253 70L254 71L253 70M231 71L232 72L231 71z"/>
<path style="fill:#f9ab45; stroke:none;" d="M255.667 71.3333L256.333 71.6667L255.667 71.3333M259 72L260 73L259 72z"/>
<path style="fill:#fceba3; stroke:none;" d="M260 72L261 73L260 72z"/>
<path style="fill:#f9ab45; stroke:none;" d="M230 73L231 74L230 73M262 73L263 74L262 73z"/>
<path style="fill:#fceba3; stroke:none;" d="M263 73L264 74L263 73M229 74L230 75L229 74z"/>
<path style="fill:#f9ab45; stroke:none;" d="M266 74L267 75L266 74M269 75L270 76L269 75z"/>
<path style="fill:#fceba3; stroke:none;" d="M270 75L271 76L270 75z"/>
<path style="fill:#f9ab45; stroke:none;" d="M228 76L229 77L228 76M272.667 76.3333L273.333 76.6667L272.667 76.3333z"/>
<path style="fill:#fceba3; stroke:none;" d="M227 77L228 78L227 77z"/>
<path style="fill:#f9ab45; stroke:none;" d="M276 77L277 78L276 77z"/>
<path style="fill:#fceba3; stroke:none;" d="M277 77L278 78L277 77z"/>
<path style="fill:#f9ab45; stroke:none;" d="M279 78L280 79L279 78z"/>
<path style="fill:#fceba3; stroke:none;" d="M280 78L281 79L280 78z"/>
<path style="fill:#f9ab45; stroke:none;" d="M226 79L227 80L226 79M283 79L284 80L283 79z"/>
<path style="fill:#fceba3; stroke:none;" d="M225 80L226 81L225 80z"/>
<path style="fill:#f9ab45; stroke:none;" d="M284 80L285 81L284 80M283 82L284 83L283 82M223 83L224 84L223 83z"/>
<path style="fill:#fceba3; stroke:none;" d="M222 84L223 85L222 84z"/>
<path style="fill:#f9ab45; stroke:none;" d="M282 84L283 85L282 84z"/>
<path style="fill:#fceba3; stroke:none;" d="M282 85L283 86L282 85z"/>
<path style="fill:#f9ab45; stroke:none;" d="M221 86L222 87L221 86M281 86L282 87L281 86z"/>
<path style="fill:#fceba3; stroke:none;" d="M281 87L282 88L281 87z"/>
<path style="fill:#f9ab45; stroke:none;" d="M219 89L220 90L219 89z"/>
<path style="fill:#fceba3; stroke:none;" d="M280 89L281 90L280 89M218 90L219 91L218 90z"/>
<path style="fill:#f9ab45; stroke:none;" d="M279 91L280 92L279 91M217 92L218 93L217 92z"/>
<path style="fill:#fceba3; stroke:none;" d="M216 93L217 94L216 93z"/>
<path style="fill:#f9ab45; stroke:none;" d="M278 93L279 94L278 93z"/>
<path style="fill:#fceba3; stroke:none;" d="M278 94L279 95L278 94z"/>
<path style="fill:#f9ab45; stroke:none;" d="M215 95L216 96L215 95M214 96L215 97L214 96z"/>
<path style="fill:#fceba3; stroke:none;" d="M277 96L278 97L277 96z"/>
<path style="fill:#f9ab45; stroke:none;" d="M276 98L277 99L276 98M212 99L213 100L212 99z"/>
<path style="fill:#fceba3; stroke:none;" d="M211 100L212 101L211 100z"/>
<path style="fill:#f9ab45; stroke:none;" d="M275 100L276 101L275 100z"/>
<path style="fill:#fceba3; stroke:none;" d="M275 101L276 102L275 101z"/>
<path style="fill:#f9ab45; stroke:none;" d="M210 102L211 103L210 102z"/>
<path style="fill:#fceba3; stroke:none;" d="M209 103L210 104L209 103z"/>
<path style="fill:#f9ab45; stroke:none;" d="M274 103L275 104L274 103M208 105L209 106L208 105M273 105L274 106L273 105z"/>
<path style="fill:#fceba3; stroke:none;" d="M207 106L208 107L207 106M273 106L274 107L273 106z"/>
<path style="fill:#f9ab45; stroke:none;" d="M272 108L273 109L272 108M205 109L206 110L205 109z"/>
<path style="fill:#fceba3; stroke:none;" d="M204 110L205 111L204 110z"/>
<path style="fill:#f9ab45; stroke:none;" d="M271 110L272 111L271 110z"/>
<path style="fill:#fceba3; stroke:none;" d="M271 111L272 112L271 111z"/>
<path style="fill:#f9ab45; stroke:none;" d="M203 112L204 113L203 112z"/>
<path style="fill:#fceba3; stroke:none;" d="M202 113L203 114L202 113z"/>
<path style="fill:#f9ab45; stroke:none;" d="M270 113L271 114L270 113M201 115L202 116L201 115z"/>
<path style="fill:#fceba3; stroke:none;" d="M200 116L201 117L200 116z"/>
<path style="fill:#f9ab45; stroke:none;" d="M269 116L270 117L269 116M268 118L269 119L268 118M198 119L199 120L198 119z"/>
<path style="fill:#fceba3; stroke:none;" d="M268 119L269 120L268 119M197 120L198 121L197 120z"/>
<path style="fill:#ffe006; stroke:none;" d="M197 121C186.823 139.261 171.19 154.148 160.478 172C150.852 188.044 145.611 209.022 140.884 227C130.949 264.787 128 303.096 128 342C128 509.551 211.698 669.039 352 761.996C399.167 793.247 451.351 815.747 506 830.116C608.573 857.084 725.944 848.78 825 811.424C849.185 802.303 872.052 790.828 894 777.192C899.983 773.475 913.938 766.726 914.812 758.985C918.361 727.557 882.436 717.466 859 719.089C826.202 721.361 794.111 729.511 761 730.961C688.705 734.127 611.703 717.775 546 687.691C370.471 607.321 256.453 436.136 248.039 244C247.107 222.706 246.862 198.96 250.804 178C253.725 162.469 260.708 147.518 263 132C241.157 131.062 218.041 126.915 197 121z"/>
<path style="fill:#f9ab45; stroke:none;" d="M198.667 121.333L199.333 121.667L198.667 121.333M267 121L268 122L267 121z"/>
<path style="fill:#fceba3; stroke:none;" d="M196 122L197 123L196 122z"/>
<path style="fill:#f9ab45; stroke:none;" d="M202 122L202 123L205 123L202 122M207.667 123.333L208.333 123.667L207.667 123.333M211 124L211 125L214 125L211 124M266 124L267 125L266 124z"/>
<path style="fill:#fceba3; stroke:none;" d="M194 125L195 126L194 125z"/>
<path style="fill:#f9ab45; stroke:none;" d="M217.667 125.333L218.333 125.667L217.667 125.333z"/>
<path style="fill:#fceba3; stroke:none;" d="M193 126L194 127L193 126z"/>
<path style="fill:#f9ab45; stroke:none;" d="M222.667 126.333L223.333 126.667L222.667 126.333M227 127L227 128L230 128L227 127M265 127L266 128L265 127z"/>
<path style="fill:#fceba3; stroke:none;" d="M192 128L193 129L192 128z"/>
<path style="fill:#f9ab45; stroke:none;" d="M233 128L233 129L236 129L233 128z"/>
<path style="fill:#fceba3; stroke:none;" d="M191 129L192 130L191 129z"/>
<path style="fill:#f9ab45; stroke:none;" d="M239 129L239 130L242 130L239 129M247 130L247 131L252 131L247 130M264 130L265 131L264 130M257 131L257 132L262 132L257 131z"/>
<path style="fill:#fceba3; stroke:none;" d="M189 132L190 133L189 132M263.333 132.667L263.667 133.333L263.333 132.667M188 133L189 134L188 133M187 135L188 136L187 135M262 135L263 136L262 135M186 136L187 137L186 136M261 138L262 139L261 138M184 139L185 140L184 139M183 140L184 141L183 140M260.333 141.667L260.667 142.333L260.333 141.667M181 143L182 144L181 143M259.333 144.667L259.667 145.333L259.333 144.667M179 146L180 147L179 146M178 147L179 148L178 147M258 148L259 149L258 148M176 150L177 151L176 150M257 151L258 152L257 151M174 153L175 154L174 153M173 154L174 155L173 154M256.333 154.667L256.667 155.333L256.333 154.667M171 157L172 158L171 157M170 158L171 159L170 158M255 158L256 159L255 158M168 161L169 162L168 161M167 162L168 163L167 162M254 162L255 163L254 162M165 165L166 166L165 165M253.333 165.667L253.667 166.333L253.333 165.667M164 166L165 167L164 166M252.333 169.667L252.667 170.333L252.333 169.667M161 170L162 171L161 170M159 173L160 174L159 173M251 174L252 175L251 174M158 175L159 176L158 175z"/>
<path style="fill:#f9ab45; stroke:none;" d="M157 177C144.966 202.745 129.648 226.704 118.427 253C96.0815 305.37 83.967 360.378 80.0895 417C77.8279 450.025 82.1308 484.479 87.5864 517C120.146 711.082 270.484 866.627 459 916.265C573.597 946.44 709.893 933.301 816 880.247C862.582 856.956 915.842 819.4 916 762C908.307 764.975 901.95 771.513 895 775.946C880.839 784.979 866.19 793.044 851 800.219C806.436 821.269 756.719 833.312 708 839.718C643.737 848.169 578.291 847.12 515 832.116C344.003 791.576 199.016 658.542 149.424 489C128.64 417.943 123.257 344.378 132.155 271C134.816 249.06 140.374 226.942 147.355 206C149.959 198.188 158.406 185.024 157 177z"/>
<path style="fill:#fceba3; stroke:none;" d="M156 178L157 179L156 178M250 179L250 185L251 185L250 179M155 180L156 181L155 180M153 183L154 184L153 183M152 185L153 186L152 185M150 188L151 189L150 188M149 190L150 191L149 190M249 191L249 197L250 197L249 191M148 192L149 193L148 192M146 195L147 196L146 195M145 197L146 198L145 197M144 199L145 200L144 199M143 201L144 202L143 201M140 206L141 207L140 206M139 208L140 209L139 208M248 208L248 228L249 228L248 208M138 210L139 211L138 210M137 212L138 213L137 212M136 214L137 215L136 214M135 216L136 217L135 216M134 218L135 219L134 218M133 220L134 221L133 220M132 222L133 223L132 222M131 224L132 225L131 224M130 226L131 227L130 226M129 228L130 229L129 228M128 230L129 231L128 230M127 232L128 233L127 232M248 234L248 249L249 249L248 234M124 239L125 240L124 239M123 241L124 242L123 241M122 243L123 244L122 243M121 246L122 247L121 246M120 248L121 249L120 248M119 250L120 251L119 250M117 255L118 256L117 255M116 257L117 258L116 257M115 260L116 261L115 260M249 260L249 267L250 267L249 260M114 262L115 263L114 262M113 265L114 266L113 265M112 267L113 268L112 267M111 270L112 271L111 270M110 272L111 273L110 272M250 274L250 279L251 279L250 274M109 275L110 276L109 275M108 278L109 279L108 278M107 281L108 282L107 281M106 283L107 284L106 283M251 284L251 288L252 288L251 284M105 286L106 287L105 286M104 289L105 290L104 289M103 292L104 293L103 292M252 293L252 297L253 297L252 293M102 295L103 296L102 295M101 298L102 299L101 298M253 300L253 303L254 303L253 300M100.333 301.667L100.667 302.333L100.333 301.667M99 305L100 306L99 305M254 307L254 310L255 310L254 307M98 308L99 309L98 308M97.3333 311.667L97.6667 312.333L97.3333 311.667M255 313L255 316L256 316L255 313M96 315L97 316L96 315M95.3333 318.667L95.6667 319.333L95.3333 318.667M256.333 319.667L256.667 320.333L256.333 319.667M94.3333 322.667L94.6667 323.333L94.3333 322.667M257 324L257 327L258 327L257 324M93.3333 326.667L93.6667 327.333L93.3333 326.667M258 329L258 332L259 332L258 329M92.3333 330.667L92.6667 331.333L92.3333 330.667M91.3333 334.667L91.6667 335.333L91.3333 334.667M259.333 334.667L259.667 335.333L259.333 334.667M90.3333 338.667L90.6667 339.333L90.3333 338.667M260.333 339.667L260.667 340.333L260.333 339.667M89.3333 343.667L89.6667 344.333L89.3333 343.667M261.333 343.667L261.667 344.333L261.333 343.667M262.333 347.667L262.667 348.333L262.333 347.667M88.3333 348.667L88.6667 349.333L88.3333 348.667M263.333 351.667L263.667 352.333L263.333 351.667M87.3333 353.667L87.6667 354.333L87.3333 353.667M264.333 355.667L264.667 356.333L264.333 355.667M86.3333 358.667L86.6667 359.333L86.3333 358.667M265.333 359.667L265.667 360.333L265.333 359.667M266 363L267 364L266 363M85.3333 364.667L85.6667 365.333L85.3333 364.667M267.333 366.667L267.667 367.333L267.333 366.667M84 370L84 373L85 373L84 370M268 370L269 371L268 370M269.333 373.667L269.667 374.333L269.333 373.667M270.333 376.667L270.667 377.333L270.333 376.667M83 377L83 380L84 380L83 377M271 380L272 381L271 380M272 383L273 384L272 383M82 385L82 388L83 388L82 385M273.333 386.667L273.667 387.333L273.333 386.667M274 389L275 390L274 389M275 392L276 393L275 392M81 394L81 399L82 399L81 394M276 395L277 396L276 395M277 398L278 399L277 398M278.333 400.667L278.667 401.333L278.333 400.667M279.333 403.667L279.667 404.333L279.333 403.667M280 406L281 407L280 406M80 407L80 414L81 414L80 407M281 409L282 410L281 409M282 411L283 412L282 411M283 414L284 415L283 414M284 416L285 417L284 416M285 419L286 420L285 419M286 421L287 422L286 421M287 424L288 425L287 424M288 426L289 427L288 426M289 428L290 429L289 428M290 430L291 431L290 430M291 433L292 434L291 433M292 435L293 436L292 435M293 437L294 438L293 437M294 439L295 440L294 439M295 442L296 443L295 442M296 444L297 445L296 444M297 446L298 447L297 446M298 448L299 449L298 448M80 450L80 458L81 458L80 450M299 450L300 451L299 450M300 452L301 453L300 452M301 454L302 455L301 454M302 456L303 457L302 456M303 458L304 459L303 458M304 460L305 461L304 460M306 463L307 464L306 463M307 465L308 466L307 465M81 467L81 472L82 472L81 467M308 467L309 468L308 467M309 469L310 470L309 469M310 471L311 472L310 471M311 473L312 474L311 473M313 476L314 477L313 476M314 478L315 479L314 478M82 479L82 483L83 483L82 479M315 480L316 481L315 480M316 481L317 482L316 481M317 483L318 484L317 483M318 485L319 486L318 485M320 488L321 489L320 488M83 489L83 492L84 492L83 489M321 490L322 491L321 490M323 493L324 494L323 493M324 495L325 496L324 495M325 496L326 497L325 496M84 497L84 500L85 500L84 497M326 498L327 499L326 498M328 501L329 502L328 501M85.3333 504.667L85.6667 505.333L85.3333 504.667M330 504L331 505L330 504M331 506L332 507L331 506M332 507L333 508L332 507M86 510L86 513L87 513L86 510M334 510L335 511L334 510M336 513L337 514L336 513M87 516L87 519L88 519L87 516M338 516L339 517L338 516M339 517L340 518L339 517M341 520L342 521L341 520M88.3333 522.667L88.6667 523.333L88.3333 522.667M343 523L344 524L343 523M344 524L345 525L344 524M89.3333 527.667L89.6667 528.333L89.3333 527.667M346 527L347 528L346 527M347 528L348 529L347 528M349 531L350 532L349 531M90.3333 532.667L90.6667 533.333L90.3333 532.667M350 532L351 533L350 532M352 535L353 536L352 535M353 536L354 537L353 536M91.3333 537.667L91.6667 538.333L91.3333 537.667M356 540L357 541L356 540M92.3333 541.667L92.6667 542.333L92.3333 541.667M357 541L358 542L357 541M360 545L361 546L360 545M93 546L94 547L93 546M361 546L362 547L361 546M94 550L95 551L94 550M364 550L365 551L364 550M365 551L366 552L365 551M95 554L96 555L95 554M369 556L370 557L369 556M370 557L371 558L370 557M96 558L97 559L96 558M371 558L372 559L371 558M372 559L373 560L372 559M97.3333 561.667L97.6667 562.333L97.3333 561.667M376 564L377 565L376 564M98.3333 565.667L98.6667 566.333L98.3333 565.667M377 565L378 566L377 565M378 566L379 567L378 566M379 567L380 568L379 567M380 568L381 569L380 568M99 569L100 570L99 569M381 569L382 570L381 569M382 570L383 571L382 570M100 572L101 573L100 572M101.333 575.667L101.667 576.333L101.333 575.667M102 579L103 580L102 579M103 582L104 583L103 582M104 585L105 586L104 585M105 588L106 589L105 588M106 591L107 592L106 591M107 594L108 595L107 594M407 595L408 596L407 595M408 596L409 597L408 596M108 597L109 598L108 597M409 597L410 598L409 597M410 598L411 599L410 598M109.333 599.667L109.667 600.333L109.333 599.667M411 599L412 600L411 599M412 600L413 601L412 600M110 602L111 603L110 602M111 605L112 606L111 605M418 605L419 606L418 605M419 606L420 607L419 606M112 607L113 608L112 607M420 607L421 608L420 607M113 610L114 611L113 610M425 611L426 612L425 611M114 612L115 613L114 612M426 612L427 613L426 612M427 613L428 614L427 613M115 615L116 616L115 615M431 616L432 617L431 616M432 617L433 618L432 617M116 618L117 619L116 618M117 620L118 621L117 620M436 620L437 621L436 620M437 621L438 622L437 621M118 622L119 623L118 622M438 622L439 623L438 622M441 624L442 625L441 624M119 625L120 626L119 625M442 625L443 626L442 625M120 627L121 628L120 627M445 627L446 628L445 627M446 628L447 629L446 628M450 631L451 632L450 631M122 632L123 633L122 632M451 632L452 633L451 632M453 633L454 634L453 633M123 634L124 635L123 634M454 634L455 635L454 634M124 636L125 637L124 636M457 636L458 637L457 636M458 637L459 638L458 637M461 639L462 640L461 639M126 641L127 642L126 641M464 641L465 642L464 641M465 642L466 643L465 642M127 643L128 644L127 643M467 643L468 644L467 643M468 644L469 645L468 644M128 645L129 646L128 645M470 645L471 646L470 645M471 646L472 647L471 646M129 647L130 648L129 647M473 647L474 648L473 647M474 648L475 649L474 648M130 649L131 650L130 649M476 649L477 650L476 649M477 650L478 651L477 650M131 651L132 652L131 651M479 651L480 652L479 651M132 653L133 654L132 653M482 653L483 654L482 653M133 655L134 656L133 655M485 655L486 656L485 655M487 656L488 657L487 656M134 657L135 658L134 657M490 658L491 659L490 658M135 659L136 660L135 659M492 659L493 660L492 659M493 660L494 661L493 660M136 661L137 662L136 661M495 661L496 662L495 661M137 663L138 664L137 663M498 663L499 664L498 663M500 664L501 665L500 664M138 665L139 666L138 665M502 665L503 666L502 665M504 666L505 667L504 666M140 668L141 669L140 668M507 668L508 669L507 668M509 669L510 670L509 669M141 670L142 671L141 670M511 670L512 671L511 670M513 671L514 672L513 671M142 672L143 673L142 672M515 672L516 673L515 672M143 674L144 675L143 674M518 674L519 675L518 674M520 675L521 676L520 675M144 676L145 677L144 676M522 676L523 677L522 676z"/>
<path style="fill:#ffe006; stroke:none;" d="M145 677L146 678L145 677z"/>
<path style="fill:#fceba3; stroke:none;" d="M524 677L525 678L524 677M526 678L527 679L526 678M146 679L147 680L146 679M528 679L529 680L528 679M530 680L531 681L530 680M147 681L148 682L147 681M532 681L533 682L532 681M537 683L538 684L537 683M149 684L150 685L149 684M539 684L540 685L539 684M541 685L542 686L541 685M150 686L151 687L150 686M543 686L544 687L543 686M545 687L546 688L545 687M151 688L152 689L151 688M547 688L548 689L547 688M550 689L551 690L550 689M552 690L553 691L552 690M153 691L154 692L153 691M555 691L556 692L555 691M557 692L558 693L557 692M154 693L155 694L154 693M559.667 693.333L560.333 693.667L559.667 693.333M155 694L156 695L155 694M562 694L563 695L562 694M564.667 695.333L565.333 695.667L564.667 695.333M156 696L157 697L156 696M567 696L568 697L567 696M570 697L571 698L570 697M572 698L573 699L572 698M158 699L159 700L158 699M575 699L576 700L575 699M577 700L578 701L577 700M580 701L581 702L580 701M160 702L161 703L160 702M583 702L584 703L583 702M586 703L587 704L586 703M161 704L162 705L161 704M589 704L590 705L589 704M162 705L163 706L162 705M592 705L593 706L592 705M595 706L596 707L595 706M598 707L599 708L598 707M164 708L165 709L164 708M601 708L602 709L601 708M604.667 709.333L605.333 709.667L604.667 709.333M607.667 710.333L608.333 710.667L607.667 710.333M166 711L167 712L166 711M611.667 711.333L612.333 711.667L611.667 711.333M615 712L616 713L615 712M618.667 713.333L619.333 713.667L618.667 713.333M168 714L169 715L168 714M622.667 714.333L623.333 714.667L622.667 714.333M626.667 715.333L627.333 715.667L626.667 715.333M630.667 716.333L631.333 716.667L630.667 716.333M170 717L171 718L170 717M634.667 717.333L635.333 717.667L634.667 717.333M171 718L172 719L171 718M638 718L638 719L641 719L638 718M861 718L861 719L869 719L861 718M875 718L875 719L879 719L875 718M643.667 719.333L644.333 719.667L643.667 719.333M853 719L853 720L856 720L853 719M882.667 719.333L883.333 719.667L882.667 719.333M648.667 720.333L649.333 720.667L648.667 720.333M848.667 720.333L849.333 720.667L848.667 720.333M886 720L887 721L886 720M173 721L174 722L173 721M653.667 721.333L654.333 721.667L653.667 721.333M843.667 721.333L844.333 721.667L843.667 721.333M888.667 721.333L889.333 721.667L888.667 721.333M658 722L658 723L661 723L658 722M838.667 722.333L839.333 722.667L838.667 722.333M891 722L892 723L891 722M664 723L664 724L667 724L664 723M832 723L832 724L835 724L832 723M892 723L893 724L892 723M175 724L176 725L175 724M670 724L670 725L673 725L670 724M826 724L826 725L829 725L826 724M894 724L895 725L894 724M176 725L177 726L176 725M676 725L676 726L679 726L676 725M819 725L819 726L822 726L819 725M896 725L897 726L896 725M682 726L682 727L685 727L682 726M812 726L812 727L816 727L812 726M690 727L690 728L694 728L690 727M804 727L804 728L808 728L804 727M178 728L179 729L178 728M699 728L699 729L705 729L699 728M794 728L794 729L800 729L794 728M900 728L901 729L900 728M711 729L711 730L718 730L711 729M779 729L779 730L786 730L779 729M901 729L902 730L901 729M729 730L729 731L766 731C756.202 726.889 739.649 730 729 730M902 730L903 731L902 730M180 731L181 732L180 731M903 731L904 732L903 731M181 732L182 733L181 732M904 732L905 733L904 732M182 733L183 734L182 733M184 736L185 737L184 736M907 736L908 737L907 736M185 737L186 738L185 737M908 738L909 739L908 738M187 740L188 741L187 740M188 741L189 742L188 741M189 742L190 743L189 742M911 744L912 745L911 744M192 746L193 747L192 746M912 746L913 747L912 746M193 747L194 748L193 747M913.333 749.667L913.667 750.333L913.333 749.667M196 751L197 752L196 751M197 752L198 753L197 752M198 753L199 754L198 753M914.333 753.667L914.667 754.333L914.333 753.667M202 758L203 759L202 758M203 759L204 760L203 759M915 759L915 762L916 762L915 759M204 760L205 761L204 760M205 761L206 762L205 761M209 766L210 767L209 766M210 767L211 768L210 767M211 768L212 769L211 768M212 769L213 770L212 769M213 770L214 771L213 770z"/>
<path style="fill:#ffe006; stroke:none;" d="M915 770L916 771L915 770z"/>
<path style="fill:#fceba3; stroke:none;" d="M214 771L215 772L214 771M915 771L915 775L916 775L915 771M215 772L216 773L215 772M914 779L914 782L915 782L914 779M913.333 784.667L913.667 785.333L913.333 784.667M912 788L913 789L912 788M911 791L912 792L911 791M910 794L911 795L910 794M239 796L240 797L239 796M240 797L241 798L240 797M909 797L910 798L909 797M241 798L242 799L241 798M242 799L243 800L242 799M908 799L909 800L908 799M243 800L244 801L243 800M244 801L245 802L244 801M907 801L908 802L907 801M245 802L246 803L245 802M906 803L907 804L906 803M905 805L906 806L905 805M250 806L251 807L250 806M251 807L252 808L251 807M904 807L905 808L904 807M252 808L253 809L252 808M253 809L254 810L253 809M903 809L904 810L903 809M902 810L903 811L902 810M257 812L258 813L257 812M901 812L902 813L901 812M258 813L259 814L258 813M259 814L260 815L259 814M260 815L261 816L260 815M899 815L900 816L899 815M898 816L899 817L898 816M264 818L265 819L264 818M265 819L266 820L265 819M895 820L896 821L895 820M894 821L895 822L894 821M269 822L270 823L269 822M893 822L894 823L893 822M270 823L271 824L270 823M892 823L893 824L892 823M891 824L892 825L891 824M273 825L274 826L273 825M274 826L275 827L274 826M278 829L279 830L278 829M279 830L280 831L279 830M282 832L283 833L282 832M283 833L284 834L283 833M286 835L287 836L286 835M287 836L288 837L287 836M289 837L290 838L289 837M290 838L291 839L290 838M876 839L877 840L876 839M293 840L294 841L293 840M875 840L876 841L875 840M874 841L875 842L874 841M296 842L297 843L296 842M873 842L874 843L873 842M297 843L298 844L297 843M299 844L300 845L299 844M300 845L301 846L300 845M869 845L870 846L869 845M302 846L303 847L302 846M868 846L869 847L868 846M303 847L304 848L303 847M867 847L868 848L867 847M306 849L307 850L306 849M864 849L865 850L864 849M308 850L309 851L308 850M863 850L864 851L863 850M309 851L310 852L309 851M311 852L312 853L311 852M312 853L313 854L312 853M859 853L860 854L859 853M314 854L315 855L314 854M858 854L859 855L858 854M317 856L318 857L317 856M855 856L856 857L855 856M319 857L320 858L319 857M852 858L853 859L852 858M322 859L323 860L322 859M851 859L852 860L851 859M324 860L325 861L324 860M849 860L850 861L849 860M326 861L327 862L326 861M848 861L849 862L848 861M846 862L847 863L846 862M329 863L330 864L329 863M845 863L846 864L845 863M331 864L332 865L331 864M843 864L844 865L843 864M334 866L335 867L334 866M840 866L841 867L840 866M336 867L337 868L336 867M838 867L839 868L838 867M338 868L339 869L338 868M835 869L836 870L835 869M341 870L342 871L341 870M343 871L344 872L343 871M832 871L833 872L832 871M345 872L346 873L345 872M830 872L831 873L830 872M347 873L348 874L347 873M828 873L829 874L828 873M349 874L350 875L349 874M351 875L352 876L351 875M825 875L826 876L825 875M353 876L354 877L353 876M823 876L824 877L823 876M355 877L356 878L355 877M821 877L822 878L821 877M357 878L358 879L357 878M819 878L820 879L819 878M359 879L360 880L359 879M817 879L818 880L817 879M815 880L816 881L815 880M813 881L814 882L813 881z"/>
<path style="fill:#ffe006; stroke:none;" d="M365 882L366 883L365 882z"/>
<path style="fill:#fceba3; stroke:none;" d="M811 882L812 883L811 882M367 883L368 884L367 883M809 883L810 884L809 883M369 884L370 885L369 884M807 884L808 885L807 884M371 885L372 886L371 885M805 885L806 886L805 885M373 886L374 887L373 886M803 886L804 887L803 886M375 887L376 888L375 887M800 887L801 888L800 887M378 888L379 889L378 888M798 888L799 889L798 888M380 889L381 890L380 889M796 889L797 890L796 889M382 890L383 891L382 890M385 891L386 892L385 891M791 891L792 892L791 891M387 892L388 893L387 892M789 892L790 893L789 892M389 893L390 894L389 893M786 893L787 894L786 893M392 894L393 895L392 894M784 894L785 895L784 894M394 895L395 896L394 895M781 895L782 896L781 895M397 896L398 897L397 896M779 896L780 897L779 896M399 897L400 898L399 897M776 897L777 898L776 897M402 898L403 899L402 898M774 898L775 899L774 898M404.667 899.333L405.333 899.667L404.667 899.333M771 899L772 900L771 899M407 900L408 901L407 900M768 900L769 901L768 900M410 901L411 902L410 901M765 901L766 902L765 901M413 902L414 903L413 902M762 902L763 903L762 902M416 903L417 904L416 903z"/>
<path style="fill:#ffe006; stroke:none;" d="M758 903L759 904L758 903z"/>
<path style="fill:#fceba3; stroke:none;" d="M759 903L760 904L759 903M419 904L420 905L419 904z"/>
<path style="fill:#ffe006; stroke:none;" d="M755 904L756 905L755 904z"/>
<path style="fill:#fceba3; stroke:none;" d="M756 904L757 905L756 904M422 905L423 906L422 905z"/>
<path style="fill:#ffe006; stroke:none;" d="M752 905L753 906L752 905z"/>
<path style="fill:#fceba3; stroke:none;" d="M753 905L754 906L753 905M425 906L426 907L425 906M749.667 906.333L750.333 906.667L749.667 906.333M428 907L429 908L428 907M746 907L747 908L746 907M431 908L432 909L431 908M743 908L744 909L743 908M434 909L435 910L434 909z"/>
<path style="fill:#ffe006; stroke:none;" d="M739 909L740 910L739 909z"/>
<path style="fill:#fceba3; stroke:none;" d="M740 909L741 910L740 909M437 910L438 911L437 910z"/>
<path style="fill:#ffe006; stroke:none;" d="M735 910L736 911L735 910z"/>
<path style="fill:#fceba3; stroke:none;" d="M736 910L737 911L736 910M440.667 911.333L441.333 911.667L440.667 911.333z"/>
<path style="fill:#ffe006; stroke:none;" d="M731 911L732 912L731 911z"/>
<path style="fill:#fceba3; stroke:none;" d="M732 911L733 912L732 911M444 912L445 913L444 912M728.667 912.333L729.333 912.667L728.667 912.333M447.667 913.333L448.333 913.667L447.667 913.333z"/>
<path style="fill:#ffe006; stroke:none;" d="M724 913L725 914L724 913z"/>
<path style="fill:#fceba3; stroke:none;" d="M725 913L726 914L725 913M451.667 914.333L452.333 914.667L451.667 914.333z"/>
<path style="fill:#ffe006; stroke:none;" d="M720 914L721 915L720 914z"/>
<path style="fill:#fceba3; stroke:none;" d="M721 914L722 915L721 914M455.667 915.333L456.333 915.667L455.667 915.333z"/>
<path style="fill:#ffe006; stroke:none;" d="M716 915L717 916L716 915z"/>
<path style="fill:#fceba3; stroke:none;" d="M717 915L718 916L717 915M459 916L460 917L459 916z"/>
<path style="fill:#ffe006; stroke:none;" d="M711 916L712 917L711 916z"/>
<path style="fill:#fceba3; stroke:none;" d="M712.667 916.333L713.333 916.667L712.667 916.333M463.667 917.333L464.333 917.667L463.667 917.333M707.667 917.333L708.333 917.667L707.667 917.333M467.667 918.333L468.333 918.667L467.667 918.333z"/>
<path style="fill:#ffe006; stroke:none;" d="M702 918L703 919L702 918z"/>
<path style="fill:#fceba3; stroke:none;" d="M703.667 918.333L704.333 918.667L703.667 918.333M471.667 919.333L472.333 919.667L471.667 919.333M698.667 919.333L699.333 919.667L698.667 919.333M476.667 920.333L477.333 920.667L476.667 920.333z"/>
<path style="fill:#ffe006; stroke:none;" d="M692 920L693 921L692 920z"/>
<path style="fill:#fceba3; stroke:none;" d="M693.667 920.333L694.333 920.667L693.667 920.333M481.667 921.333L482.333 921.667L481.667 921.333z"/>
<path style="fill:#ffe006; stroke:none;" d="M687 921L688 922L687 921z"/>
<path style="fill:#fceba3; stroke:none;" d="M688.667 921.333L689.333 921.667L688.667 921.333M486.667 922.333L487.333 922.667L486.667 922.333z"/>
<path style="fill:#ffe006; stroke:none;" d="M681 922L682 923L681 922z"/>
<path style="fill:#fceba3; stroke:none;" d="M682.667 922.333L683.333 922.667L682.667 922.333M491.667 923.333L492.333 923.667L491.667 923.333z"/>
<path style="fill:#ffe006; stroke:none;" d="M675 923L676 924L675 923z"/>
<path style="fill:#fceba3; stroke:none;" d="M676.667 923.333L677.333 923.667L676.667 923.333M496 924L496 925L499 925L496 924z"/>
<path style="fill:#ffe006; stroke:none;" d="M668.667 924.333L669.333 924.667L668.667 924.333z"/>
<path style="fill:#fceba3; stroke:none;" d="M670.667 924.333L671.333 924.667L670.667 924.333M503.667 925.333L504.333 925.667L503.667 925.333z"/>
<path style="fill:#ffe006; stroke:none;" d="M661 925L662 926L661 925z"/>
<path style="fill:#fceba3; stroke:none;" d="M662 925L662 926L665 926L662 925M509 926L509 927L512 927L509 926z"/>
<path style="fill:#ffe006; stroke:none;" d="M653.667 926.333L654.333 926.667L653.667 926.333z"/>
<path style="fill:#fceba3; stroke:none;" d="M655.667 926.333L656.333 926.667L655.667 926.333M517 927L517 928L520 928L517 927z"/>
<path style="fill:#ffe006; stroke:none;" d="M645 927L646 928L645 927z"/>
<path style="fill:#fceba3; stroke:none;" d="M646 927L646 928L650 928L646 927M525 928L525 929L529 929L525 928z"/>
<path style="fill:#ffe006; stroke:none;" d="M635.667 928.333L636.333 928.667L635.667 928.333z"/>
<path style="fill:#fceba3; stroke:none;" d="M637 928L637 929L641 929L637 928M535 929L535 930L539 930L535 929z"/>
<path style="fill:#ffe006; stroke:none;" d="M623.667 929.333L624.333 929.667L623.667 929.333z"/>
<path style="fill:#fceba3; stroke:none;" d="M625 929L625 930L630 930L625 929M546 930L546 931L554 931L546 930z"/>
<path style="fill:#ffe006; stroke:none;" d="M608 930L608 931L611 931L608 930z"/>
<path style="fill:#fceba3; stroke:none;" d="M611 930L611 931L616 931L611 930M570 931L570 932L599 932L570 931z"/>
</svg>
