<?xml version="1.0" standalone="yes"?>
<svg xmlns="http://www.w3.org/2000/svg" width="1000" height="1000">
<path style="fill:#ffffff; stroke:none;" d="M0 0L0 1000L1000 1000L1000 0L0 0z"/>
<path style="fill:#eae921; stroke:none;" d="M475 102L476 103L475 102z"/>
<path style="fill:#58a258; stroke:none;" d="M476 102L476 103L485 103L476 102M472 103L473 104L472 103z"/>
<path style="fill:#2b8b3d; stroke:none;" d="M399 223C365.814 216.835 315.614 230.339 295 259C340.327 258.995 384.034 266.034 423 291.345C434.377 298.735 445.063 306.833 455 316.089C460.758 321.453 465.885 329.612 473 333C473.005 291.501 462.567 249.343 420 231C428.037 202.466 441.577 177.39 465 158.461C477.255 148.557 505.423 142.109 505.87 124C506.246 108.765 486.328 98.8053 473 103.738C466.792 106.036 460.711 112.535 456 117.039C425.851 145.866 406.909 182.218 399 223z"/>
<path style="fill:#58a258; stroke:none;" d="M487.667 103.333L488.333 103.667L487.667 103.333M490 104L491 105L490 104z"/>
<path style="fill:#eae921; stroke:none;" d="M491 104L492 105L491 104z"/>
<path style="fill:#58a258; stroke:none;" d="M469 105L470 106L469 105M493 105L494 106L493 105M468 106L469 107L468 106z"/>
<path style="fill:#eae921; stroke:none;" d="M495 106L496 107L495 106z"/>
<path style="fill:#58a258; stroke:none;" d="M467 107L468 108L467 107M496 107L497 108L496 107z"/>
<path style="fill:#eae921; stroke:none;" d="M498 108L499 109L498 108M464 109L465 110L464 109z"/>
<path style="fill:#58a258; stroke:none;" d="M499 109L500 110L499 109M463 110L464 111L463 110M500 110L501 111L500 110M462 111L463 112L462 111M501 111L502 112L501 111M461 112L462 113L461 112z"/>
<path style="fill:#eae921; stroke:none;" d="M502 112L503 113L502 112z"/>
<path style="fill:#58a258; stroke:none;" d="M503 114L504 115L503 114z"/>
<path style="fill:#eae921; stroke:none;" d="M457 115L458 116L457 115z"/>
<path style="fill:#58a258; stroke:none;" d="M456 116L457 117L456 116M504 116L505 117L504 116M455 117L456 118L455 117M454 118L455 119L454 118M505.333 118.667L505.667 119.333L505.333 118.667M453 119L454 120L453 119M452 120L453 121L452 120M451 121L452 122L451 121M450 122L451 123L450 122M449 123L450 124L449 123M448 124L449 125L448 124M447 125L448 126L447 125M446 126L447 127L446 126M445 127L446 128L445 127M505.333 127.667L505.667 128.333L505.333 127.667z"/>
<path style="fill:#eae921; stroke:none;" d="M444 128L445 129L444 128z"/>
<path style="fill:#58a258; stroke:none;" d="M442 131L443 132L442 131M504 131L505 132L504 131M441 132L442 133L441 132M440 133L441 134L440 133M503 133L504 134L503 133M439 134L440 135L439 134z"/>
<path style="fill:#eae921; stroke:none;" d="M438 135L439 136L438 135M502 135L503 136L502 135z"/>
<path style="fill:#58a258; stroke:none;" d="M501 136L502 137L501 136M437 137L438 138L437 137M436 138L437 139L436 138M499 138L500 139L499 138M435 139L436 140L435 139M497 139L498 140L497 139M494 140L495 141L494 140z"/>
<path style="fill:#eae921; stroke:none;" d="M495 140L496 141L495 140z"/>
<path style="fill:#58a258; stroke:none;" d="M492 141L493 142L492 141M433 142L434 143L433 142M490 142L491 143L490 142M432 143L433 144L432 143M488 143L489 144L488 143M486 144L487 145L486 144M431 145L432 146L431 145M484 145L485 146L484 145M430 146L431 147L430 146M482 146L483 147L482 146z"/>
<path style="fill:#eae921; stroke:none;" d="M429 147L430 148L429 147z"/>
<path style="fill:#58a258; stroke:none;" d="M480 147L481 148L480 147z"/>
<path style="fill:#eae921; stroke:none;" d="M479 148L480 149L479 148z"/>
<path style="fill:#58a258; stroke:none;" d="M428 149L429 150L428 149M477 149L478 150L477 149z"/>
<path style="fill:#eae921; stroke:none;" d="M427 150L428 151L427 150M476 150L477 151L476 150z"/>
<path style="fill:#58a258; stroke:none;" d="M474 151L475 152L474 151M426 152L427 153L426 152M471 153L472 154L471 153M424 155L425 156L424 155M468 155L469 156L468 155M467 156L468 157L467 156M423 157L424 158L423 157M422 158L423 159L422 158M464 158L465 159L464 158M463 159L464 160L463 159M421 160L422 161L421 160M462 160L463 161L462 160M420 162L421 163L420 162M419 164L420 165L419 164M457 164L458 165L457 164M418 165L419 166L418 165M456 165L457 166L456 165M455 166L456 167L455 166M417 167L418 168L417 167M454 167L455 168L454 167M453 168L454 169L453 168M416 169L417 170L416 169M452 169L453 170L452 169z"/>
<path style="fill:#eae921; stroke:none;" d="M415 171L416 172L415 171z"/>
<path style="fill:#58a258; stroke:none;" d="M415 172L416 173L415 172z"/>
<path style="fill:#eae921; stroke:none;" d="M414 173L415 174L414 173M449 173L450 174L449 173z"/>
<path style="fill:#58a258; stroke:none;" d="M414 174L415 175L414 174M448 174L449 175L448 174z"/>
<path style="fill:#eae921; stroke:none;" d="M413 175L414 176L413 175z"/>
<path style="fill:#58a258; stroke:none;" d="M447 175L448 176L447 175M413 176L414 177L413 176M446 176L447 177L446 176M445 177L446 178L445 177M412 178L413 179L412 178z"/>
<path style="fill:#eae921; stroke:none;" d="M444 179L445 180L444 179z"/>
<path style="fill:#58a258; stroke:none;" d="M411 180L412 181L411 180M443 180L444 181L443 180M442 181L443 182L442 181M410.333 182.667L410.667 183.333L410.333 182.667M441 183L442 184L441 183M440 184L441 185L440 184M409 185L410 186L409 185M408.333 187.667L408.667 188.333L408.333 187.667M438 187L439 188L438 187z"/>
<path style="fill:#eae921; stroke:none;" d="M437 189L438 190L437 189z"/>
<path style="fill:#58a258; stroke:none;" d="M407 190L408 191L407 190M436 190L437 191L436 190M435 192L436 193L435 192M406 193L407 194L406 193z"/>
<path style="fill:#eae921; stroke:none;" d="M434 194L435 195L434 194z"/>
<path style="fill:#58a258; stroke:none;" d="M433 195L434 196L433 195M520.667 195.333L521.333 195.667L520.667 195.333z"/>
<path style="fill:#2b8b3d; stroke:none;" d="M534 426C547.339 415.244 557.871 401.571 572 391.428C613.907 361.345 660.292 351 711 351C705.57 343.451 696.789 338.526 689 333.684C665.589 319.13 635.56 309.21 608 316C596.162 273.892 582.053 240.28 550 209.015C545.092 204.227 538.769 197.632 532 195.723C517.85 191.733 499.902 202.556 501.094 218C502.298 233.6 521.902 237.444 533 245.029C552.373 258.268 566.955 276.059 577.244 297C580.321 303.264 586.021 313.782 585.357 320.957C584.906 325.835 577.515 328.354 574 330.746C565.603 336.462 557.999 343.895 551.899 352C534.997 374.456 532.845 399.098 534 426z"/>
<path style="fill:#58a258; stroke:none;" d="M531 195L531 196L534 196L531 195M405 196L406 197L405 196M516.667 196.333L517.333 196.667L516.667 196.333M432 197L433 198L432 197M514 197L515 198L514 197M536 197L537 198L536 197M512 198L513 199L512 198M537 198L538 199L537 198M404 199L405 200L404 199M431 199L432 200L431 199M510 199L511 200L510 199M538 199L539 200L538 199M509 200L510 201L509 200M430 201L431 202L430 201M541 201L542 202L541 201M403.333 202.667L403.667 203.333L403.333 202.667z"/>
<path style="fill:#eae921; stroke:none;" d="M506 202L507 203L506 202z"/>
<path style="fill:#58a258; stroke:none;" d="M542 202L543 203L542 202M429 203L430 204L429 203z"/>
<path style="fill:#eae921; stroke:none;" d="M505 203L506 204L505 203z"/>
<path style="fill:#58a258; stroke:none;" d="M543 203L544 204L543 203z"/>
<path style="fill:#eae921; stroke:none;" d="M402 205L403 206L402 205z"/>
<path style="fill:#58a258; stroke:none;" d="M428 205L429 206L428 205z"/>
<path style="fill:#eae921; stroke:none;" d="M546 205L547 206L546 205z"/>
<path style="fill:#58a258; stroke:none;" d="M402.333 206.667L402.667 207.333L402.333 206.667M503 206L504 207L503 206M547 206L548 207L547 206M502 207L503 208L502 207M548 207L549 208L548 207M427 208L428 209L427 208M549 208L550 209L549 208z"/>
<path style="fill:#eae921; stroke:none;" d="M401 209L402 210L401 209z"/>
<path style="fill:#58a258; stroke:none;" d="M501.333 209.667L501.667 210.333L501.333 209.667M550 209L551 210L550 209M401.333 210.667L401.667 211.333L401.333 210.667M426 210L427 211L426 210M551 210L552 211L551 210M552 211L553 212L552 211z"/>
<path style="fill:#eae921; stroke:none;" d="M500 212L501 213L500 212z"/>
<path style="fill:#58a258; stroke:none;" d="M553 212L554 213L553 212M425 213L426 214L425 213M500 213L500 219L501 219L500 213M554 213L555 214L554 213M400.333 214.667L400.667 215.333L400.333 214.667M555 214L556 215L555 214M424.333 215.667L424.667 216.333L424.333 215.667M556 215L557 216L556 215M557 216L558 217L557 216M558 217L559 218L558 217z"/>
<path style="fill:#eae921; stroke:none;" d="M399 218L400 219L399 218z"/>
<path style="fill:#58a258; stroke:none;" d="M423.333 218.667L423.667 219.333L423.333 218.667M559 218L560 219L559 218M399.333 219.667L399.667 220.333L399.333 219.667M560 219L561 220L560 219M561 220L562 221L561 220z"/>
<path style="fill:#eae921; stroke:none;" d="M369 221L370 222L369 221z"/>
<path style="fill:#58a258; stroke:none;" d="M370 221L370 222L374 222L370 221M388 221L388 222L392 222L388 221z"/>
<path style="fill:#eae921; stroke:none;" d="M392 221L393 222L392 221z"/>
<path style="fill:#58a258; stroke:none;" d="M422.333 221.667L422.667 222.333L422.333 221.667M501.333 221.667L501.667 222.333L501.333 221.667M562 221L563 222L562 221z"/>
<path style="fill:#eae921; stroke:none;" d="M363 222L364 223L363 222z"/>
<path style="fill:#58a258; stroke:none;" d="M364.667 222.333L365.333 222.667L364.667 222.333M396.667 222.333L397.333 222.667L396.667 222.333M563 222L564 223L563 222M359 223L359 224L362 224L359 223z"/>
<path style="fill:#eae921; stroke:none;" d="M564 223L565 224L564 223z"/>
<path style="fill:#58a258; stroke:none;" d="M355.667 224.333L356.333 224.667L355.667 224.333M502 224L503 225L502 224z"/>
<path style="fill:#eae921; stroke:none;" d="M351 225L352 226L351 225z"/>
<path style="fill:#58a258; stroke:none;" d="M352 225L353 226L352 225M421.333 225.667L421.667 226.333L421.333 225.667M348.667 226.333L349.333 226.667L348.667 226.333M503 226L504 227L503 226M566 226L567 227L566 226M345.667 227.333L346.333 227.667L345.667 227.333M567 227L568 228L567 227z"/>
<path style="fill:#eae921; stroke:none;" d="M342 228L343 229L342 228z"/>
<path style="fill:#58a258; stroke:none;" d="M343 228L344 229L343 228M504 228L505 229L504 228M568 228L569 229L568 228M340 229L341 230L340 229M420.333 229.667L420.667 230.333L420.333 229.667M505 229L506 230L505 229M338 230L339 231L338 230z"/>
<path style="fill:#eae921; stroke:none;" d="M335 231L336 232L335 231z"/>
<path style="fill:#58a258; stroke:none;" d="M336 231L337 232L336 231M421 231L422 232L421 231M507 231L508 232L507 231M570 231L571 232L570 231M333 232L334 233L333 232M423 232L424 233L423 232z"/>
<path style="fill:#eae921; stroke:none;" d="M509 232L510 233L509 232z"/>
<path style="fill:#58a258; stroke:none;" d="M510 232L511 233L510 232M571 232L572 233L571 232M331 233L332 234L331 233M512 233L513 234L512 233M572 233L573 234L572 233M329 234L330 235L329 234M426 234L427 235L426 234M514 234L515 235L514 234M327 235L328 236L327 235M428 235L429 236L428 235z"/>
<path style="fill:#eae921; stroke:none;" d="M516 235L517 236L516 235z"/>
<path style="fill:#58a258; stroke:none;" d="M517 235L518 236L517 235M573 235L574 236L573 235M325 236L326 237L325 236z"/>
<path style="fill:#eae921; stroke:none;" d="M518 236L519 237L518 236z"/>
<path style="fill:#58a258; stroke:none;" d="M519 236L520 237L519 236M574 236L575 237L574 236z"/>
<path style="fill:#eae921; stroke:none;" d="M323 237L324 238L323 237z"/>
<path style="fill:#58a258; stroke:none;" d="M431 237L432 238L431 237M520 237L521 238L520 237z"/>
<path style="fill:#eae921; stroke:none;" d="M575 237L576 238L575 237z"/>
<path style="fill:#58a258; stroke:none;" d="M321 238L322 239L321 238M522 238L523 239L522 238z"/>
<path style="fill:#eae921; stroke:none;" d="M318 239L319 240L318 239z"/>
<path style="fill:#e5282f; stroke:none;" d="M319 239L320 240L319 239z"/>
<path style="fill:#58a258; stroke:none;" d="M434 239L435 240L434 239M524 239L525 240L524 239M576 239L577 240L576 239z"/>
<path style="fill:#eae921; stroke:none;" d="M316 240L317 241L316 240z"/>
<path style="fill:#e5282f; stroke:none;" d="M317 240L318 241L317 240z"/>
<path style="fill:#58a258; stroke:none;" d="M435 240L436 241L435 240z"/>
<path style="fill:#eae921; stroke:none;" d="M525 240L526 241L525 240z"/>
<path style="fill:#58a258; stroke:none;" d="M577 240L578 241L577 240z"/>
<path style="fill:#eae921; stroke:none;" d="M314 241L315 242L314 241z"/>
<path style="fill:#e5282f; stroke:none;" d="M315.667 241.333L316.333 241.667L315.667 241.333z"/>
<path style="fill:#58a258; stroke:none;" d="M527 241L528 242L527 241z"/>
<path style="fill:#e5282f; stroke:none;" d="M312 244L315 242L312 244z"/>
<path style="fill:#eae921; stroke:none;" d="M438 242L439 243L438 242z"/>
<path style="fill:#58a258; stroke:none;" d="M529 242L530 243L529 242M578 242L579 243L578 242M439 243L440 244L439 243M579 243L580 244L579 243z"/>
<path style="fill:#eae921; stroke:none;" d="M310 244L311 245L310 244z"/>
<path style="fill:#e5282f; stroke:none;" d="M311 244L312 245L311 244z"/>
<path style="fill:#58a258; stroke:none;" d="M440 244L441 245L440 244M532 244L533 245L532 244z"/>
<path style="fill:#e5282f; stroke:none;" d="M309.667 245.333L310.333 245.667L309.667 245.333z"/>
<path style="fill:#eae921; stroke:none;" d="M533 245L534 246L533 245z"/>
<path style="fill:#58a258; stroke:none;" d="M580 245L581 246L580 245z"/>
<path style="fill:#eae921; stroke:none;" d="M307 246L306 248L307 246z"/>
<path style="fill:#e5282f; stroke:none;" d="M308 246L309 247L308 246z"/>
<path style="fill:#58a258; stroke:none;" d="M535 246L536 247L535 246z"/>
<path style="fill:#eae921; stroke:none;" d="M581 246L582 247L581 246z"/>
<path style="fill:#e5282f; stroke:none;" d="M307 247L308 248L307 247z"/>
<path style="fill:#58a258; stroke:none;" d="M536 247L537 248L536 247z"/>
<path style="fill:#e5282f; stroke:none;" d="M305.667 248.333L306.333 248.667L305.667 248.333z"/>
<path style="fill:#58a258; stroke:none;" d="M582 248L583 249L582 248z"/>
<path style="fill:#e5282f; stroke:none;" d="M304 249L305 250L304 249z"/>
<path style="fill:#58a258; stroke:none;" d="M539 249L540 250L539 249z"/>
<path style="fill:#e5282f; stroke:none;" d="M303 250L304 251L303 250z"/>
<path style="fill:#58a258; stroke:none;" d="M540 250L541 251L540 250M583 250L584 251L583 250z"/>
<path style="fill:#e5282f; stroke:none;" d="M302 251L303 252L302 251z"/>
<path style="fill:#eae921; stroke:none;" d="M448 251L449 252L448 251M541 251L542 252L541 251z"/>
<path style="fill:#58a258; stroke:none;" d="M584 251L585 252L584 251M301 252L302 253L301 252M544 253L545 254L544 253M585 253L586 254L585 253z"/>
<path style="fill:#eae921; stroke:none;" d="M298 254L299 255L298 254z"/>
<path style="fill:#58a258; stroke:none;" d="M545 254L546 255L545 254z"/>
<path style="fill:#eae921; stroke:none;" d="M297 255L298 256L297 255z"/>
<path style="fill:#e5282f; stroke:none;" d="M451 255L452 256L451 255z"/>
<path style="fill:#58a258; stroke:none;" d="M546 255L547 256L546 255M586 255L587 256L586 255z"/>
<path style="fill:#eae921; stroke:none;" d="M296 256L297 257L296 256z"/>
<path style="fill:#e5282f; stroke:none;" d="M452 256L453 257L452 256z"/>
<path style="fill:#58a258; stroke:none;" d="M547 256L548 257L547 256z"/>
<path style="fill:#eae921; stroke:none;" d="M587 256L588 257L587 256M295 257L296 258L295 257z"/>
<path style="fill:#e5282f; stroke:none;" d="M453 257L454 258L453 257z"/>
<path style="fill:#58a258; stroke:none;" d="M548 257L549 258L548 257z"/>
<path style="fill:#eae921; stroke:none;" d="M294 258L295 259L294 258z"/>
<path style="fill:#e5282f; stroke:none;" d="M305 258.424C287.066 260.75 278.782 275.903 270.15 291C251.36 323.864 240.683 360.612 231.116 397C212.33 468.45 202.976 542.153 181.72 613C169.784 652.782 153.656 696.088 124.91 727C107.814 745.385 87.6333 757.357 65 767.691C54.574 772.452 42.9025 775.56 33.0008 781.363C21.5909 788.051 27.9774 797.419 39 797.96C48.1486 798.409 56.9276 796.437 66 796.039C98.697 794.608 130.053 790.293 161 778.947C283.099 734.18 372.235 612.241 424.691 498C442.148 459.982 458.115 420.162 466.4 379C468.977 366.197 474.875 347.984 471.683 335C468.638 322.616 449.585 309.865 440 302.425C411.766 280.509 378.074 267.09 343 261.247C331.181 259.278 316.902 256.881 305 258.424z"/>
<path style="fill:#eae921; stroke:none;" d="M454 258L455 259L454 258M549 258L550 259L549 258z"/>
<path style="fill:#58a258; stroke:none;" d="M588 258L589 259L588 258z"/>
<path style="fill:#eae921; stroke:none;" d="M550 259L551 260L550 259z"/>
<path style="fill:#e5282f; stroke:none;" d="M455 260L456 261L455 260z"/>
<path style="fill:#eae921; stroke:none;" d="M551 260L552 261L551 260z"/>
<path style="fill:#58a258; stroke:none;" d="M589 260L590 261L589 260z"/>
<path style="fill:#e5282f; stroke:none;" d="M456 261L457 262L456 261z"/>
<path style="fill:#eae921; stroke:none;" d="M552 261L553 262L552 261M457 262L458 263L457 262M553 262L554 263L553 262z"/>
<path style="fill:#58a258; stroke:none;" d="M590 262L591 263L590 262M457 263L458 264L457 263z"/>
<path style="fill:#eae921; stroke:none;" d="M554 263L555 264L554 263z"/>
<path style="fill:#58a258; stroke:none;" d="M458 264L459 265L458 264z"/>
<path style="fill:#eae921; stroke:none;" d="M555 264L556 265L555 264z"/>
<path style="fill:#58a258; stroke:none;" d="M591 264L592 265L591 264z"/>
<path style="fill:#eae921; stroke:none;" d="M556 265L557 266L556 265M287 266L288 267L287 266z"/>
<path style="fill:#e5282f; stroke:none;" d="M459 266L460 267L459 266z"/>
<path style="fill:#58a258; stroke:none;" d="M557 266L558 267L557 266z"/>
<path style="fill:#eae921; stroke:none;" d="M592 266L593 267L592 266M460 267L461 268L460 267z"/>
<path style="fill:#58a258; stroke:none;" d="M558 267L559 268L558 267M592 267L593 268L592 267M460 268L461 269L460 268M559 268L560 269L559 268z"/>
<path style="fill:#eae921; stroke:none;" d="M593 268L594 269L593 268z"/>
<path style="fill:#58a258; stroke:none;" d="M461 269L462 270L461 269M560 269L561 270L560 269M593 269L594 270L593 269M462 271L463 272L462 271z"/>
<path style="fill:#eae921; stroke:none;" d="M561 271L562 272L561 271z"/>
<path style="fill:#58a258; stroke:none;" d="M594 271L595 272L594 271z"/>
<path style="fill:#eae921; stroke:none;" d="M282 272L283 273L282 272z"/>
<path style="fill:#58a258; stroke:none;" d="M562 272L563 273L562 272M463 273L464 274L463 273M563 273L564 274L563 273M595 273L596 274L595 273M464 275L465 276L464 275z"/>
<path style="fill:#eae921; stroke:none;" d="M564 275L565 276L564 275M596 275L597 276L596 275z"/>
<path style="fill:#58a258; stroke:none;" d="M565 276L566 277L565 276M596 276L597 277L596 276z"/>
<path style="fill:#eae921; stroke:none;" d="M465 277L466 278L465 277z"/>
<path style="fill:#58a258; stroke:none;" d="M465 278L466 279L465 278z"/>
<path style="fill:#eae921; stroke:none;" d="M566 278L567 279L566 278z"/>
<path style="fill:#58a258; stroke:none;" d="M597 278L598 279L597 278z"/>
<path style="fill:#eae921; stroke:none;" d="M277 279L278 280L277 279z"/>
<path style="fill:#58a258; stroke:none;" d="M567 279L568 280L567 279M466 280L467 281L466 280z"/>
<path style="fill:#eae921; stroke:none;" d="M598 280L599 281L598 280M568 281L569 282L568 281z"/>
<path style="fill:#58a258; stroke:none;" d="M598 281L599 282L598 281z"/>
<path style="fill:#eae921; stroke:none;" d="M275 282L276 283L275 282M467 282L468 283L467 282z"/>
<path style="fill:#58a258; stroke:none;" d="M569 282L570 283L569 282M467 283L468 284L467 283M599.333 283.667L599.667 284.333L599.333 283.667M570 284L571 285L570 284M468.333 285.667L468.667 286.333L468.333 285.667M571 285L572 286L571 285M600.333 286.667L600.667 287.333L600.333 286.667M572 287L573 288L572 287M469.333 288.667L469.667 289.333L469.333 288.667M573 289L574 290L573 289M601.333 289.667L601.667 290.333L601.333 289.667z"/>
<path style="fill:#eae921; stroke:none;" d="M470 291L471 292L470 291z"/>
<path style="fill:#58a258; stroke:none;" d="M574 291L575 292L574 291z"/>
<path style="fill:#eae921; stroke:none;" d="M269 292L270 293L269 292z"/>
<path style="fill:#58a258; stroke:none;" d="M470.333 292.667L470.667 293.333L470.333 292.667z"/>
<path style="fill:#eae921; stroke:none;" d="M602 292L603 293L602 292z"/>
<path style="fill:#58a258; stroke:none;" d="M575 293L576 294L575 293M602 293L603 294L602 293z"/>
<path style="fill:#eae921; stroke:none;" d="M471 295L472 296L471 295z"/>
<path style="fill:#58a258; stroke:none;" d="M576 295L577 296L576 295M471.333 296.667L471.667 297.333L471.333 296.667M603.333 296.667L603.667 297.333L603.333 296.667M577 297L578 298L577 297M578 299L579 300L578 299z"/>
<path style="fill:#eae921; stroke:none;" d="M604 299L605 300L604 299M472 300L473 301L472 300z"/>
<path style="fill:#58a258; stroke:none;" d="M604 300L605 301L604 300M472 301L472 304L473 304L472 301M579.333 301.667L579.667 302.333L579.333 301.667z"/>
<path style="fill:#eae921; stroke:none;" d="M605 303L606 304L605 303z"/>
<path style="fill:#58a258; stroke:none;" d="M580 304L581 305L580 304M605.333 304.667L605.667 305.333L605.333 304.667z"/>
<path style="fill:#eae921; stroke:none;" d="M262 305L263 306L262 305M473 307L474 308L473 307z"/>
<path style="fill:#58a258; stroke:none;" d="M581 307L582 308L581 307M473 308L473 315L474 315L473 308M606 308L606 311L607 311L606 308M582.333 309.667L582.667 310.333L582.333 309.667M583.333 312.667L583.667 313.333L583.333 312.667M607.333 313.667L607.667 314.333L607.333 313.667z"/>
<path style="fill:#eae921; stroke:none;" d="M619 313L620 314L619 313z"/>
<path style="fill:#58a258; stroke:none;" d="M620 313L620 314L629 314L620 313z"/>
<path style="fill:#eae921; stroke:none;" d="M629 313L629 314L633 314L629 313M258 314L259 315L258 314M611 314L612 315L611 314z"/>
<path style="fill:#58a258; stroke:none;" d="M612 314L612 315L616 315L612 314M636 314L636 315L640 315L636 314z"/>
<path style="fill:#eae921; stroke:none;" d="M640 314L641 315L640 314z"/>
<path style="fill:#58a258; stroke:none;" d="M608.667 315.333L609.333 315.667L608.667 315.333M643.667 315.333L644.333 315.667L643.667 315.333z"/>
<path style="fill:#eae921; stroke:none;" d="M257 316L258 317L257 316z"/>
<path style="fill:#58a258; stroke:none;" d="M584 316L585 317L584 316M648.667 316.333L649.333 316.667L648.667 316.333z"/>
<path style="fill:#eae921; stroke:none;" d="M584 317L585 318L584 317z"/>
<path style="fill:#58a258; stroke:none;" d="M652 317L653 318L652 317z"/>
<path style="fill:#eae921; stroke:none;" d="M653 317L654 318L653 317z"/>
<path style="fill:#58a258; stroke:none;" d="M655.667 318.333L656.333 318.667L655.667 318.333M585.333 319.667L585.667 320.333L585.333 319.667M658.667 319.333L659.333 319.667L658.667 319.333M661.667 320.333L662.333 320.667L661.667 320.333z"/>
<path style="fill:#eae921; stroke:none;" d="M255 321L256 322L255 321z"/>
<path style="fill:#58a258; stroke:none;" d="M664 321L665 322L664 321M473 322L473 328L474 328L473 322M666 322L667 323L666 322z"/>
<path style="fill:#eae921; stroke:none;" d="M667 322L668 323L667 322M254 323L255 324L254 323z"/>
<path style="fill:#58a258; stroke:none;" d="M669 323L670 324L669 323M584 324L585 325L584 324M671 324L672 325L671 324z"/>
<path style="fill:#eae921; stroke:none;" d="M672 324L673 325L672 324z"/>
<path style="fill:#58a258; stroke:none;" d="M582 325L583 326L582 325z"/>
<path style="fill:#eae921; stroke:none;" d="M674 325L675 326L674 325z"/>
<path style="fill:#58a258; stroke:none;" d="M580 326L581 327L580 326M676 326L677 327L676 326z"/>
<path style="fill:#eae921; stroke:none;" d="M677 326L678 327L677 326z"/>
<path style="fill:#58a258; stroke:none;" d="M579 327L580 328L579 327z"/>
<path style="fill:#eae921; stroke:none;" d="M678 327L678 328L698 339C693.175 333.162 685.227 329.082 678 327M252 328L253 329L252 328M473 328L474 329L473 328z"/>
<path style="fill:#58a258; stroke:none;" d="M577 328L578 329L577 328M679 328L680 329L679 328z"/>
<path style="fill:#eae921; stroke:none;" d="M575 329L576 330L575 329z"/>
<path style="fill:#58a258; stroke:none;" d="M681 329L682 330L681 329M574 330L575 331L574 330M683 330L684 331L683 330z"/>
<path style="fill:#eae921; stroke:none;" d="M251 331L252 332L251 331M572 331L573 332L572 331z"/>
<path style="fill:#58a258; stroke:none;" d="M685 331L686 332L685 331M571 332L572 333L571 332M472.333 333.667L472.667 334.333L472.333 333.667M570 333L571 334L570 333M688 333L689 334L688 333M690 334L691 335L690 334z"/>
<path style="fill:#eae921; stroke:none;" d="M472 335L472 338L473 338L472 335M567 335L568 336L567 335z"/>
<path style="fill:#58a258; stroke:none;" d="M691 335L692 336L691 335z"/>
<path style="fill:#eae921; stroke:none;" d="M249 336L250 337L249 336z"/>
<path style="fill:#58a258; stroke:none;" d="M566 336L567 337L566 336M693 336L694 337L693 336M565 337L566 338L565 337M564 338L565 339L564 338M696 338L697 339L696 338z"/>
<path style="fill:#eae921; stroke:none;" d="M248 339L249 340L248 339z"/>
<path style="fill:#58a258; stroke:none;" d="M563 339L564 340L563 339z"/>
<path style="fill:#eae921; stroke:none;" d="M698 339L698 340L702 342L698 339z"/>
<path style="fill:#58a258; stroke:none;" d="M562 340L563 341L562 340M699 340L700 341L699 340M561 341L562 342L561 341M700 341L701 342L700 341z"/>
<path style="fill:#eae921; stroke:none;" d="M702 342L703 343L702 342z"/>
<path style="fill:#58a258; stroke:none;" d="M703 343L704 344L703 343M704 344L705 345L704 344M557 345L558 346L557 345M556 346L557 347L556 346z"/>
<path style="fill:#eae921; stroke:none;" d="M707 346L708 347L707 346M245 347L246 348L245 347M471.333 347.667L471.667 348.333L471.333 347.667z"/>
<path style="fill:#58a258; stroke:none;" d="M555 347L556 348L555 347z"/>
<path style="fill:#eae921; stroke:none;" d="M708 347L709 348L708 347M554 348L555 349L554 348M709 348L710 349L709 348M710 349L711 350L710 349M711 350C698.594 354.535 680.413 351.328 667 353.222C628.3 358.687 592.471 374.595 562 399C553.438 405.857 539.704 415.991 534.722 426C531.619 432.236 536.052 446.209 536.917 453C540.597 481.907 550.331 509.566 559.667 537C586.948 617.172 634.711 694.933 690.917 758C718.621 789.086 749.356 818.581 785 840.611C817.307 860.579 851.604 876.08 889 883.611C902.269 886.283 915.756 886.182 929 888.389C941.112 890.408 955.747 894.593 968 892.778C972.521 892.108 979.134 890.084 980.417 885C982.603 876.334 964.757 871.332 959 869C932.464 858.25 906.509 846.557 886 826C868.412 808.371 856.11 786.378 845.75 764C821.641 711.924 809.666 654.995 798.389 599C781.638 515.821 769.481 415.442 711 350z"/>
<path style="fill:#58a258; stroke:none;" d="M552 351L553 352L552 351M680 351L680 352L685 352L680 351M711 351L712 352L711 351M551 352L552 353L551 352M670 352L670 353L674 353L670 352z"/>
<path style="fill:#eae921; stroke:none;" d="M550 353L551 354L550 353z"/>
<path style="fill:#58a258; stroke:none;" d="M663 353L663 354L666 354L663 353M657 354L657 355L660 355L657 354z"/>
<path style="fill:#eae921; stroke:none;" d="M470.333 355.667L470.667 356.333L470.333 355.667z"/>
<path style="fill:#58a258; stroke:none;" d="M549 355L550 356L549 355M652.667 355.333L653.333 355.667L652.667 355.333z"/>
<path style="fill:#eae921; stroke:none;" d="M222 575C226.796 573.413 226.708 568.468 227.6 564C229.655 553.712 231.378 543.352 233.08 533C240.168 489.889 246.622 447.024 258.86 405C262.319 393.122 267.421 381.736 271.333 370C272.326 367.022 275.833 360.488 273.179 357.662C269.494 353.738 264.385 364.814 263.154 367C256.279 379.202 251.848 392.591 248 406C232.324 460.626 229.086 518.935 222 575M548 356L549 357L548 356z"/>
<path style="fill:#58a258; stroke:none;" d="M648.667 356.333L649.333 356.667L648.667 356.333M643.667 357.333L644.333 357.667L643.667 357.333M547 358L548 359L547 358M640 358L641 359L640 358M636.667 359.333L637.333 359.667L636.667 359.333z"/>
<path style="fill:#eae921; stroke:none;" d="M241 360L242 361L241 360z"/>
<path style="fill:#58a258; stroke:none;" d="M546 360L547 361L546 360M633.667 360.333L634.333 360.667L633.667 360.333z"/>
<path style="fill:#eae921; stroke:none;" d="M545 361L546 362L545 361z"/>
<path style="fill:#58a258; stroke:none;" d="M630 361L631 362L630 361z"/>
<path style="fill:#eae921; stroke:none;" d="M469 362L470 363L469 362z"/>
<path style="fill:#58a258; stroke:none;" d="M627 362L628 363L627 362z"/>
<path style="fill:#eae921; stroke:none;" d="M240 363L241 364L240 363z"/>
<path style="fill:#58a258; stroke:none;" d="M544 363L545 364L544 363M624 363L625 364L624 363M621 364L622 365L621 364M543 365L544 366L543 365M619 365L620 366L619 365z"/>
<path style="fill:#eae921; stroke:none;" d="M239 366L240 367L239 366z"/>
<path style="fill:#58a258; stroke:none;" d="M616 366L617 367L616 366M542 367L543 368L542 367M614 367L615 368L614 367z"/>
<path style="fill:#eae921; stroke:none;" d="M468 368L469 369L468 368z"/>
<path style="fill:#58a258; stroke:none;" d="M611 368L612 369L611 368z"/>
<path style="fill:#eae921; stroke:none;" d="M238 369L239 370L238 369z"/>
<path style="fill:#58a258; stroke:none;" d="M541 369L542 370L541 369M609 369L610 370L609 369M607 370L608 371L607 370z"/>
<path style="fill:#eae921; stroke:none;" d="M540 371L541 372L540 371z"/>
<path style="fill:#58a258; stroke:none;" d="M605 371L606 372L605 371M540 372L541 373L540 372M603 372L604 373L603 372z"/>
<path style="fill:#eae921; stroke:none;" d="M237 373L238 374L237 373M467 373L468 374L467 373z"/>
<path style="fill:#58a258; stroke:none;" d="M601 373L602 374L601 373M539 374L540 375L539 374M599 374L600 375L599 374M597 375L598 376L597 375z"/>
<path style="fill:#eae921; stroke:none;" d="M236 376L237 377L236 376M538 376L539 377L538 376z"/>
<path style="fill:#58a258; stroke:none;" d="M595 376L596 377L595 376M538 377L539 378L538 377M594 377L595 378L594 377z"/>
<path style="fill:#eae921; stroke:none;" d="M466 378L467 379L466 378z"/>
<path style="fill:#58a258; stroke:none;" d="M592 378L593 379L592 378z"/>
<path style="fill:#eae921; stroke:none;" d="M537 379L538 380L537 379z"/>
<path style="fill:#58a258; stroke:none;" d="M590 379L591 380L590 379z"/>
<path style="fill:#eae921; stroke:none;" d="M235 380L236 381L235 380z"/>
<path style="fill:#58a258; stroke:none;" d="M537 380L538 381L537 380M588 380L589 381L588 380z"/>
<path style="fill:#eae921; stroke:none;" d="M536 382L537 383L536 382z"/>
<path style="fill:#58a258; stroke:none;" d="M585 382L586 383L585 382z"/>
<path style="fill:#eae921; stroke:none;" d="M465 383L466 384L465 383z"/>
<path style="fill:#58a258; stroke:none;" d="M536 383L537 384L536 383M583 383L584 384L583 383M582 384L583 385L582 384M580 385L581 386L580 385M535.333 386.667L535.667 387.333L535.333 386.667M579 386L580 387L579 386z"/>
<path style="fill:#eae921; stroke:none;" d="M233 387L234 388L233 387M464 387L465 388L464 387z"/>
<path style="fill:#58a258; stroke:none;" d="M577 387L578 388L577 387M576 388L577 389L576 388M574 389L575 390L574 389z"/>
<path style="fill:#eae921; stroke:none;" d="M534 390L535 391L534 390M232 391L233 392L232 391M463 391L464 392L463 391z"/>
<path style="fill:#58a258; stroke:none;" d="M534.333 391.667L534.667 392.333L534.333 391.667M571 391L572 392L571 391M570 392L571 393L570 392M567 394L568 395L567 394z"/>
<path style="fill:#eae921; stroke:none;" d="M231 395L232 396L231 395M462 395L463 396L462 395z"/>
<path style="fill:#58a258; stroke:none;" d="M566 395L567 396L566 395M533 396L533 400L534 400L533 396M565 396L566 397L565 396M562 398L563 399L562 398z"/>
<path style="fill:#eae921; stroke:none;" d="M230 399L231 400L230 399M461 399L462 400L461 399z"/>
<path style="fill:#58a258; stroke:none;" d="M561 399L562 400L561 399M560 400L561 401L560 400M556 403L557 404L556 403M555 404L556 405L555 404M554 405L555 406L554 405z"/>
<path style="fill:#eae921; stroke:none;" d="M459 406L460 407L459 406z"/>
<path style="fill:#58a258; stroke:none;" d="M553 406L554 407L553 406z"/>
<path style="fill:#eae921; stroke:none;" d="M532 407L532 413L533 413L532 407z"/>
<path style="fill:#58a258; stroke:none;" d="M552 407L553 408L552 407M551 408L552 409L551 408M458 409L459 410L458 409M550 409L551 410L550 409z"/>
<path style="fill:#eae921; stroke:none;" d="M227 411L228 412L227 411M457 413L458 414L457 413z"/>
<path style="fill:#58a258; stroke:none;" d="M545 414L546 415L545 414z"/>
<path style="fill:#eae921; stroke:none;" d="M226 415L227 416L226 415z"/>
<path style="fill:#58a258; stroke:none;" d="M544 415L545 416L544 415z"/>
<path style="fill:#eae921; stroke:none;" d="M456 416L457 417L456 416z"/>
<path style="fill:#58a258; stroke:none;" d="M543 416L544 417L543 416M541 418L542 419L541 418z"/>
<path style="fill:#eae921; stroke:none;" d="M225 419L226 420L225 419M455 419L456 420L455 419z"/>
<path style="fill:#58a258; stroke:none;" d="M540 419L541 420L540 419M533 420L533 424L534 424L533 420M539 420L540 421L539 420M538 421L539 422L538 421z"/>
<path style="fill:#eae921; stroke:none;" d="M454 422L455 423L454 422z"/>
<path style="fill:#58a258; stroke:none;" d="M537 422L538 423L537 422z"/>
<path style="fill:#eae921; stroke:none;" d="M224 423L225 424L224 423M533 424L534 425L533 424M453 425L454 426L453 425M223 428L224 429L223 428M452 428L453 429L452 428M451 431L452 432L451 431M222 432L223 433L222 432M450 434L451 435L450 434M221.333 436.667L221.667 437.333L221.333 436.667M449 437L450 438L449 437M448 440L449 441L448 440M220 441L221 442L220 441M446 445L447 446L446 445M219 446L220 447L219 446M445 448L446 449L445 448M218.333 450.667L218.667 451.333L218.333 450.667M443 453L444 454L443 453M217 455L218 456L217 455M442 456L443 457L442 456M216 460L217 461L216 460M440 461L441 462L440 461M215 465L216 466L215 465M438 466L439 467L438 466M214 470L215 471L214 470M436 471L437 472L436 471M435 473L436 474L435 473M213 475L214 476L213 475M212 480L213 481L212 480M432 480L433 481L432 480M431 482L432 483L431 482M211 485L212 486L211 485z"/>
<path style="fill:#e5282f; stroke:none;" d="M804 712C802.584 704.658 797.511 697.721 794.258 691C788.686 679.483 783.907 667.19 780.029 655C767.45 615.466 760.832 574.766 753.75 534C751.542 521.289 748.762 508.326 742.323 497C740.522 493.831 736.176 485.989 731.437 489.047C727.061 491.871 731.618 497.948 733.219 501C739.635 513.23 742.896 526.474 745.25 540C753.219 585.783 761.466 631.347 780.694 674C785.103 683.779 793.15 708.615 804 712z"/>
<path style="fill:#eae921; stroke:none;" d="M428 489L429 490L428 489M210 490L211 491L210 490M427 491L428 492L427 491M426 493L427 494L426 493M209.333 494.667L209.667 495.333L209.333 494.667M208 499L209 500L208 499M422 502L423 503L422 502M207 504L208 505L207 504M421 504L422 505L421 504M420 506L421 507L420 506M419 508L420 509L419 508M206 509L207 510L206 509M418 510L419 511L418 510M417 512L418 513L417 512M205 514L206 515L205 514M416 514L417 515L416 514M415 516L416 517L415 516M414 518L415 519L414 518M204 519L205 520L204 519M413 520L414 521L413 520M412 522L413 523L412 522M203.333 523.667L203.667 524.333L203.333 523.667M202 528L203 529L202 528M201 533L202 534L201 533M405 535L406 536L405 535M200.333 537.667L200.667 538.333L200.333 537.667M404 537L405 538L404 537M199 542L200 543L199 542M400 544L401 545L400 544M399 546L400 547L399 546M198 547L199 548L198 547M197 551L198 552L197 551M395 553L396 554L395 553M196 555L197 556L196 555M392 558L393 559L392 558M195 560L196 561L195 560M391 560L392 561L391 560M389 563L390 564L389 563M194 564L195 565L194 564M388 565L389 566L388 565M193 568L194 569L193 568M385 570L386 571L385 570M382 575L383 576L382 575M191 577L192 578L191 577M379 580L380 581L379 580M190 581L191 582L190 581M377 583L378 584L377 583M189 585L190 586L189 585M375 586L376 587L375 586M188 588L189 589L188 588M373 589L374 590L373 589M187 592L188 593L187 592M371 592L372 593L371 592M369 595L370 596L369 595M186 596L187 597L186 596M367 598L368 599L367 598M185 600L186 601L185 600M365 601L366 602L365 601M184 603L185 604L184 603M183 607L184 608L183 607M360 608L361 609L360 608M182 610L183 611L182 610M358 611L359 612L358 611M190 664L192 664C199.773 652.479 207.432 640.437 211.41 627C212.199 624.333 215.812 614.745 210.873 613.921C206.935 613.265 204.843 621.4 203.8 624C199.758 634.073 187.966 653.476 190 664M180 617L181 618L180 617M353 618L354 619L353 618M179 620L180 621L179 620M350 622L351 623L350 622M178 623L179 624L178 623M177 626L178 627L177 626M347 626L348 627L347 626M176 629L177 630L176 629M344 630L345 631L344 630M175 632L176 633L175 632M174 635L175 636L174 635z"/>
<path style="fill:#58a258; stroke:none;" d="M340 635L341 636L340 635z"/>
<path style="fill:#eae921; stroke:none;" d="M173 638L174 639L173 638M337 639L338 640L337 639M171 643L172 644L171 643M333 644L334 645L333 644M170 646L171 647L170 646M329 649L330 650L329 649z"/>
<path style="fill:#58a258; stroke:none;" d="M328 650L329 651L328 650z"/>
<path style="fill:#eae921; stroke:none;" d="M168 651L169 652L168 651M324 655L325 656L324 655M166 656L167 657L166 656M164 661L165 662L164 661M319 661L320 662L319 661M318 662L319 663L318 662M163 663L164 664L163 663M160 670L161 671L160 670M310 671L311 672L310 671M159 672L160 673L159 672M309 672L310 673L309 672M308 673L309 674L308 673M158 674L159 675L158 674M157 676L158 677L157 676M153 684L154 685L153 684M152 686L153 687L152 686M151 688L152 689L151 688M150 690L151 691L150 690M292 690L293 691L292 690M147 695L148 696L147 695M146 697L147 698L146 697M144 700L145 701L144 700M141 705L142 706L141 705M276 705L277 706L276 705M275 706L276 707L275 706M139 708L140 709L139 708M137 711L138 712L137 711M267 713L268 714L267 713M266 714L267 715L266 714M134 715L135 716L134 715M265 715L266 716L265 715M259 720L260 721L259 720M127 724L128 725L127 724M254 724L255 725L254 724M126 725L127 726L126 725M249 728L250 729L249 728M245 731L246 732L245 731M241 734L242 735L241 734M238 736L239 737L238 736M234 739L235 740L234 739M111 740L112 741L111 740M231 741L232 742L231 741M228 743L229 744L228 743M106 744L107 745L106 744M225 745L226 746L225 745M102 747L103 748L102 747M222 747L223 748L222 747M219 749L220 750L219 749z"/>
<path style="fill:#e5282f; stroke:none;" d="M846 789C843.73 783.549 840.786 778.413 838.424 773C836.958 769.639 835.343 766.353 833.862 763C833.002 761.053 824.515 742.344 821.929 753.148C821.191 756.231 823.523 760.314 824.782 763C828.441 770.806 836.036 789.149 846 789z"/>
<path style="fill:#eae921; stroke:none;" d="M96 751L97 752L96 751M91 754L92 755L91 754M211 754L212 755L211 754M209 755L210 756L209 755M84 758L85 759L84 758M82 759L83 760L82 759M202 759L203 760L202 759M200 760L201 761L200 760M198 761L199 762L198 761M76 762L77 763L76 762M74 763L75 764L74 763M69 765L70 766L69 765M67 766L68 767L67 766M65 767L66 768L65 767M63 768L64 769L63 768M58 770L59 771L58 770M180 770L181 771L180 770M178 771L179 772L178 771M53 772L54 773L53 772M176 772L177 773L176 772M51 773L52 774L51 773M46 775L47 776L46 775M169 775L170 776L169 775M167 776L168 777L167 776M41 777L42 778L41 777M164 777L165 778L164 777M39 778L40 779L39 778M159 779L160 780L159 779M156 780L157 781L156 780M153 781L154 782L153 781M150 782L151 783L150 782M147 783L148 784L147 783M28 784L29 785L28 784M144 784L145 785L144 784M27 785L28 786L27 785M140 785L141 786L140 785M133 787L134 788L133 787M129 788L130 789L129 788z"/>
<path style="fill:#58a258; stroke:none;" d="M124 789L125 790L124 789z"/>
<path style="fill:#eae921; stroke:none;" d="M125 789L126 790L125 789M120 790L121 791L120 790M115 791L116 792L115 791M26 792L27 793L26 792M109.667 792.333L110.333 792.667L109.667 792.333M102.667 793.333L103.333 793.667L102.667 793.333M28 794L29 795L28 794M93.6667 794.333L94.3333 794.667L93.6667 794.333z"/>
<path style="fill:#58a258; stroke:none;" d="M79 795L80 796L79 795z"/>
<path style="fill:#eae921; stroke:none;" d="M80 795L80 796L83 796L80 795M61.6667 796.333L62.3333 796.667L61.6667 796.333M34 797L35 798L34 797M52.6667 797.333L53.3333 797.667L52.6667 797.333M38 798L38 799L42 799L38 798z"/>
</svg>
