<?xml version="1.0" standalone="yes"?>
<svg xmlns="http://www.w3.org/2000/svg" width="1000" height="1000">
<path style="fill:#ffffff; stroke:none;" d="M0 0L0 1000L1000 1000L1000 0L0 0z"/>
<path style="fill:#cdbee0; stroke:none;" d="M141.667 59.3333L142.333 59.6667L141.667 59.3333z"/>
<path style="fill:#77b356; stroke:none;" d="M114 326L115 326C115.462 303.623 120.956 277.908 131.258 258C136.916 247.067 146 238.164 159 241.015C178.492 245.291 197.158 279.599 219.985 267.821C226.241 264.593 227.678 256.387 227.961 250C228.489 238.033 224.895 220.019 233.533 210.189C240.009 202.82 252.237 205 261 205L334 205C327.906 196.527 318.116 189.894 310 183.4C291.094 168.27 269.8 150.684 245 147.426C229.324 145.367 211.101 154.807 196 148.03C186.012 143.547 183.807 133.761 182.831 124C180.804 103.724 187.23 62.7407 158 59.1844C153.846 58.6791 149.158 58.7214 145 59.1736C129.748 60.8319 124.005 73.1851 124 87C123.991 109.155 131.66 130.946 130.957 153C130.215 176.251 110.162 189.532 103.721 211C92.5519 248.229 102.328 290.128 114 326z"/>
<path style="fill:#cdbee0; stroke:none;" d="M160.667 59.3333L161.333 59.6667L160.667 59.3333M138 60L139 61L138 60M163 60L164 61L163 60M136 61L137 62L136 61M134 62L135 63L134 62M167 62L168 63L167 62M169 63L170 64L169 63M131 64L132 65L131 64M170 64L171 65L170 64M130 65L131 66L130 65M171 65L172 66L171 65M172 66L173 67L172 66M173 67L174 68L173 67M127 69L128 70L127 69M175 70L176 71L175 70M126 71L127 72L126 71M176 72L177 73L176 72M125 73L126 74L125 73M177 74L178 75L177 74M124.333 76.6667L124.667 77.3333L124.333 76.6667M178 77L179 78L178 77M179 80L180 81L179 80M123 82L123 94L124 94L123 82M180.333 84.6667L180.667 85.3333L180.333 84.6667M181 90L181 93L182 93L181 90M124 101L124 104L125 104L124 101M182 104L182 122L183 122L182 104M125.333 109.667L125.667 110.333L125.333 109.667M126.333 116.667L126.667 117.333L126.333 116.667M127.333 122.667L127.667 123.333L127.333 122.667M128.333 128.667L128.667 129.333L128.333 128.667M183.333 130.667L183.667 131.333L183.333 130.667M184.333 134.667L184.667 135.333L184.333 134.667M129 135L129 138L130 138L129 135M185 137L186 138L185 137M187 141L188 142L187 141M130 146L130 158L131 158L130 146M192 146L193 147L192 146M194 147L195 148L194 147M235 147L235 148L238 148L235 147M245 147L245 148L249 148L245 147M196 148L197 149L196 148M223 148L223 149L226 149L223 148M252 148L253 149L252 148M200.667 149.333L201.333 149.667L200.667 149.333M213 149L213 150L217 150L213 149M255 149L256 150L255 149M258 150L259 151L258 150M260 151L261 152L260 151M263 152L264 153L263 152M265 153L266 154L265 153M267 154L268 155L267 154M274 158L275 159L274 158M276 159L277 160L276 159M281 162L282 163L281 162M129.333 163.667L129.667 164.333L129.333 163.667M284 164L285 165L284 164M287 166L288 167L287 166M128.333 167.667L128.667 168.333L128.333 167.667M291 169L292 170L291 169M127 170L128 171L127 170M294 171L295 172L294 171M298 174L299 175L298 174M124 176L125 177L124 176M302 177L303 178L302 177M303 178L304 179L303 178M121 180L122 181L121 180M120 181L121 182L120 181M307 181L308 182L307 181M119 182L120 183L119 182M308 182L309 183L308 182M118 183L119 184L118 183M312 185L313 186L312 185M313 186L314 187L313 186M115 187L116 188L115 187M318 190L319 191L318 190M112 191L113 192L112 191M319 191L320 192L319 191M111 193L112 194L111 193M109 196L110 197L109 196M325 196L326 197L325 196M326 197L327 198L326 197M108 198L109 199L108 198M327 198L328 199L327 198M106 203L107 204L106 203M105 205L106 206L105 205z"/>
<path style="fill:#76837d; stroke:none;" d="M241 205L241 206L325 206L299 205L241 205z"/>
<path style="fill:#cdbee0; stroke:none;" d="M325 205L346 226L327 206L335 206L325 205z"/>
<path style="fill:#76837d; stroke:none;" d="M237.667 206.333L238.333 206.667L237.667 206.333z"/>
<path style="fill:#754fab; stroke:none;" d="M239.001 206.573C231.59 208.709 229.351 217.143 229.039 224C228.477 236.398 232.829 258.959 220.957 267.297C214.307 271.968 203.657 269.689 197 266.099C180.644 257.278 156.083 224.336 136.761 249.04C114.527 277.467 114.135 320.045 122.373 353C138.256 416.53 169.195 476.514 201.579 533C222.535 569.553 245.572 605.124 270.629 639C290.007 665.199 310.225 690.501 331.715 715C357.874 744.822 386.987 772.11 416 799.089C476.244 855.112 545.279 909.013 626 930.849C661.085 940.34 695.973 941.631 732 940.039C757.379 938.918 783.818 934.698 808 926.645C836.954 917.003 865.211 901.909 885.829 879C917.649 843.646 926.243 797.046 923.089 751C919.279 695.362 902.388 640.897 866.739 597C835.676 558.75 794.478 529.249 748 512.692C715.867 501.246 681.983 496.636 650 484.575C587.375 460.957 530.116 423.944 480 379.845C440.543 345.125 410.23 303.79 377.6 263C366.323 248.903 354.739 234.801 341.999 222C337.245 217.222 332.091 210.073 326 207.028C320.017 204.036 309.573 206 303 206L260 206C253.438 206 245.348 204.742 239.001 206.573z"/>
<path style="fill:#cdbee0; stroke:none;" d="M104 208L105 209L104 208z"/>
<path style="fill:#76837d; stroke:none;" d="M234 208L235 209L234 208M233 209L234 210L233 209z"/>
<path style="fill:#cdbee0; stroke:none;" d="M103 211L104 212L103 211z"/>
<path style="fill:#76837d; stroke:none;" d="M231 212L232 213L231 212M230.333 214.667L230.667 215.333L230.333 214.667z"/>
<path style="fill:#cdbee0; stroke:none;" d="M102 215L103 216L102 215z"/>
<path style="fill:#76837d; stroke:none;" d="M229.333 218.667L229.667 219.333L229.333 218.667z"/>
<path style="fill:#cdbee0; stroke:none;" d="M101.333 219.667L101.667 220.333L101.333 219.667M100 224L100 227L101 227L100 224z"/>
<path style="fill:#76837d; stroke:none;" d="M228 225L228 249L229 249L228 225M349 230L350 231L349 230M350 231L351 232L350 231z"/>
<path style="fill:#cdbee0; stroke:none;" d="M99 232L99 237L100 237L99 232z"/>
<path style="fill:#76837d; stroke:none;" d="M351 232L352 233L351 232z"/>
<path style="fill:#cdbee0; stroke:none;" d="M352 233L353 234L352 233M353 234L354 235L353 234M354 235L355 236L354 235M355 236L356 237L355 236M356 237L357 238L356 237z"/>
<path style="fill:#76837d; stroke:none;" d="M149 240L149 241L157 241L149 240M146 241L147 242L146 241M160.667 241.333L161.333 241.667L160.667 241.333M359 241L360 242L359 241M144 242L145 243L144 242M164 242L165 243L164 242z"/>
<path style="fill:#cdbee0; stroke:none;" d="M360 242L361 243L360 242z"/>
<path style="fill:#76837d; stroke:none;" d="M142 243L143 244L142 243M166 243L167 244L166 243z"/>
<path style="fill:#cdbee0; stroke:none;" d="M361 243L362 244L361 243z"/>
<path style="fill:#76837d; stroke:none;" d="M141 244L142 245L141 244M169 244L170 245L169 244z"/>
<path style="fill:#cdbee0; stroke:none;" d="M362 244L363 245L362 244z"/>
<path style="fill:#76837d; stroke:none;" d="M172 246L173 247L172 246M364 247L365 248L364 247M365 248L366 249L365 248M136 249L137 250L136 249M176 249L177 250L176 249z"/>
<path style="fill:#cdbee0; stroke:none;" d="M366 249L367 250L366 249z"/>
<path style="fill:#76837d; stroke:none;" d="M135 250L136 251L135 250M177 250L178 251L177 250z"/>
<path style="fill:#cdbee0; stroke:none;" d="M367 250L368 251L367 250z"/>
<path style="fill:#76837d; stroke:none;" d="M178 251L179 252L178 251z"/>
<path style="fill:#cdbee0; stroke:none;" d="M368 251L369 252L368 251z"/>
<path style="fill:#76837d; stroke:none;" d="M134 252L135 253L134 252M133 253L134 254L133 253M369 253L370 254L369 253z"/>
<path style="fill:#cdbee0; stroke:none;" d="M99 254L99 260L100 260L99 254z"/>
<path style="fill:#76837d; stroke:none;" d="M227 254L227 257L228 257L227 254M370 254L371 255L370 254M132 255L133 256L132 255z"/>
<path style="fill:#cdbee0; stroke:none;" d="M371 255L372 256L371 255M372 256L373 257L372 256z"/>
<path style="fill:#76837d; stroke:none;" d="M131 257L132 258L131 257M130 259L131 260L130 259M187 259L188 260L187 259M226.333 259.667L226.667 260.333L226.333 259.667M374 259L375 260L374 259M188 260L189 261L188 260z"/>
<path style="fill:#cdbee0; stroke:none;" d="M375 260L376 261L375 260z"/>
<path style="fill:#76837d; stroke:none;" d="M129 261L130 262L129 261M189 261L190 262L189 261z"/>
<path style="fill:#cdbee0; stroke:none;" d="M376 261L377 262L376 261z"/>
<path style="fill:#76837d; stroke:none;" d="M225 262L226 263L225 262z"/>
<path style="fill:#cdbee0; stroke:none;" d="M377 262L378 263L377 262z"/>
<path style="fill:#76837d; stroke:none;" d="M128 263L129 264L128 263M192 263L193 264L192 263M194 264L195 265L194 264M224 264L225 265L224 264M378 264L379 265L378 264M127.333 265.667L127.667 266.333L127.333 265.667M195 265L196 266L195 265M223 265L224 266L223 265z"/>
<path style="fill:#cdbee0; stroke:none;" d="M379 265L380 266L379 265z"/>
<path style="fill:#76837d; stroke:none;" d="M197 266L198 267L197 266M222 266L223 267L222 266z"/>
<path style="fill:#cdbee0; stroke:none;" d="M380 266L381 267L380 266M100 267L100 270L101 270L100 267z"/>
<path style="fill:#76837d; stroke:none;" d="M199.667 267.333L200.333 267.667L199.667 267.333M221 267L222 268L221 267M126 268L127 269L126 268M202 268L202 269L205 269L202 268M219 268L220 269L219 268M208 269L208 270L217 270L208 269M382 269L383 270L382 269z"/>
<path style="fill:#cdbee0; stroke:none;" d="M383 270L384 271L383 270z"/>
<path style="fill:#76837d; stroke:none;" d="M125 271L126 272L125 271z"/>
<path style="fill:#cdbee0; stroke:none;" d="M384 271L385 272L384 271z"/>
<path style="fill:#76837d; stroke:none;" d="M385 273L386 274L385 273z"/>
<path style="fill:#cdbee0; stroke:none;" d="M101 274L101 277L102 277L101 274z"/>
<path style="fill:#76837d; stroke:none;" d="M124.333 274.667L124.667 275.333L124.333 274.667M386 274L387 275L386 274z"/>
<path style="fill:#cdbee0; stroke:none;" d="M387 275L388 276L387 275M388 276L389 277L388 276z"/>
<path style="fill:#76837d; stroke:none;" d="M123.333 277.667L123.667 278.333L123.333 277.667M389 278L390 279L389 278z"/>
<path style="fill:#cdbee0; stroke:none;" d="M390 279L391 280L390 279M391 280L392 281L391 280M102.333 281.667L102.667 282.333L102.333 281.667z"/>
<path style="fill:#76837d; stroke:none;" d="M122.333 281.667L122.667 282.333L122.333 281.667M393 283L394 284L393 283M121 284L121 287L122 287L121 284z"/>
<path style="fill:#cdbee0; stroke:none;" d="M394 284L395 285L394 284M395 285L396 286L395 285M103.333 286.667L103.667 287.333L103.333 286.667z"/>
<path style="fill:#76837d; stroke:none;" d="M396 287L397 288L396 287M397 288L398 289L397 288M120.333 289.667L120.667 290.333L120.333 289.667z"/>
<path style="fill:#cdbee0; stroke:none;" d="M398 289L399 290L398 289M104.333 291.667L104.667 292.333L104.333 291.667z"/>
<path style="fill:#76837d; stroke:none;" d="M400 292L401 293L400 292M119 293L119 296L120 296L119 293z"/>
<path style="fill:#cdbee0; stroke:none;" d="M401 293L402 294L401 293M402 294L403 295L402 294M105.333 296.667L105.667 297.333L105.333 296.667z"/>
<path style="fill:#76837d; stroke:none;" d="M403 296L404 297L403 296z"/>
<path style="fill:#cdbee0; stroke:none;" d="M404 297L405 298L404 297z"/>
<path style="fill:#76837d; stroke:none;" d="M118 298L118 301L119 301L118 298z"/>
<path style="fill:#cdbee0; stroke:none;" d="M405 298L406 299L405 298M106.333 300.667L106.667 301.333L106.333 300.667z"/>
<path style="fill:#76837d; stroke:none;" d="M406 300L407 301L406 300z"/>
<path style="fill:#cdbee0; stroke:none;" d="M407 301L408 302L407 301M408 302L409 303L408 302M107.333 304.667L107.667 305.333L107.333 304.667z"/>
<path style="fill:#76837d; stroke:none;" d="M117 304L117 307L118 307L117 304M409 304L410 305L409 304z"/>
<path style="fill:#cdbee0; stroke:none;" d="M410 305L411 306L410 305M411 306L412 307L411 306M108 308L109 309L108 308z"/>
<path style="fill:#76837d; stroke:none;" d="M413 309L414 310L413 309M116 310L116 314L117 314L116 310z"/>
<path style="fill:#cdbee0; stroke:none;" d="M414 310L415 311L414 310M109.333 311.667L109.667 312.333L109.333 311.667z"/>
<path style="fill:#76837d; stroke:none;" d="M416 313L417 314L416 313z"/>
<path style="fill:#cdbee0; stroke:none;" d="M417 314L418 315L417 314M110 315L111 316L110 315M418 315L419 316L418 315M111 318L112 319L111 318z"/>
<path style="fill:#76837d; stroke:none;" d="M420 318L421 319L420 318z"/>
<path style="fill:#cdbee0; stroke:none;" d="M115.333 319.667L115.667 320.333L115.333 319.667z"/>
<path style="fill:#76837d; stroke:none;" d="M421 319L422 320L421 319z"/>
<path style="fill:#cdbee0; stroke:none;" d="M422 320L423 321L422 320M112 321L113 322L112 321M423 321L424 322L423 321z"/>
<path style="fill:#76837d; stroke:none;" d="M116 323L117 324L116 323z"/>
<path style="fill:#cdbee0; stroke:none;" d="M113 324L114 325L113 324M116 324L116 327L117 327L116 324z"/>
<path style="fill:#76837d; stroke:none;" d="M425 324L426 325L425 324z"/>
<path style="fill:#cdbee0; stroke:none;" d="M426 325L427 326L426 325M114 326L115 327L114 326M427 326L428 327L427 326M428 327L429 328L428 327z"/>
<path style="fill:#76837d; stroke:none;" d="M117 330L118 331L117 330M430 330L431 331L430 330z"/>
<path style="fill:#cdbee0; stroke:none;" d="M117.333 331.667L117.667 332.333L117.333 331.667z"/>
<path style="fill:#76837d; stroke:none;" d="M431 331L432 332L431 331z"/>
<path style="fill:#cdbee0; stroke:none;" d="M432 332L433 333L432 332M433 333L434 334L433 333M434 334L435 335L434 334z"/>
<path style="fill:#76837d; stroke:none;" d="M118 335L119 336L118 335z"/>
<path style="fill:#cdbee0; stroke:none;" d="M435 335L436 336L435 335M118 336L118 339L119 339L118 336z"/>
<path style="fill:#76837d; stroke:none;" d="M438 339L439 340L438 339M439 340L440 341L439 340M119 341L120 342L119 341M440 341L441 342L440 341z"/>
<path style="fill:#cdbee0; stroke:none;" d="M119 342L120 343L119 342z"/>
<path style="fill:#76837d; stroke:none;" d="M441 342L442 343L441 342M442 343L443 344L442 343z"/>
<path style="fill:#cdbee0; stroke:none;" d="M443 344L444 345L443 344z"/>
<path style="fill:#76837d; stroke:none;" d="M120 345L121 346L120 345z"/>
<path style="fill:#cdbee0; stroke:none;" d="M444 345L445 346L444 345M120.333 346.667L120.667 347.333L120.333 346.667M445 346L446 347L445 346M446 347L447 348L446 347M447 348L448 349L447 348z"/>
<path style="fill:#76837d; stroke:none;" d="M121 349L122 350L121 349z"/>
<path style="fill:#cdbee0; stroke:none;" d="M448 349L449 350L448 349M121.333 350.667L121.667 351.333L121.333 350.667M449 350L450 351L449 350M450 351L451 352L450 351M451 352L452 353L451 352z"/>
<path style="fill:#76837d; stroke:none;" d="M122 353L123 354L122 353z"/>
<path style="fill:#cdbee0; stroke:none;" d="M452 353L453 354L452 353M122.333 354.667L122.667 355.333L122.333 354.667z"/>
<path style="fill:#76837d; stroke:none;" d="M123 357L124 358L123 357z"/>
<path style="fill:#cdbee0; stroke:none;" d="M456 357L457 358L456 357M123.333 358.667L123.667 359.333L123.333 358.667M457 358L458 359L457 358M458 359L459 360L458 359M459 360L460 361L459 360z"/>
<path style="fill:#76837d; stroke:none;" d="M124 361L125 362L124 361z"/>
<path style="fill:#cdbee0; stroke:none;" d="M460 361L461 362L460 361M124 362L125 363L124 362M461 362L462 363L461 362M462 363L463 364L462 363z"/>
<path style="fill:#76837d; stroke:none;" d="M125 364L126 365L125 364z"/>
<path style="fill:#cdbee0; stroke:none;" d="M463 364L464 365L463 364M125.333 365.667L125.667 366.333L125.333 365.667M464 365L465 366L464 365M465 366L466 367L465 366M466 367L467 368L466 367z"/>
<path style="fill:#76837d; stroke:none;" d="M126 368L127 369L126 368z"/>
<path style="fill:#cdbee0; stroke:none;" d="M467 368L468 369L467 368M126 369L127 370L126 369M468 369L469 370L468 369z"/>
<path style="fill:#76837d; stroke:none;" d="M469 370L470 371L469 370M127 371L128 372L127 371M470 371L471 372L470 371z"/>
<path style="fill:#cdbee0; stroke:none;" d="M127 372L128 373L127 372z"/>
<path style="fill:#76837d; stroke:none;" d="M471 372L472 373L471 372M472 373L473 374L472 373M128 374L129 375L128 374M473 374L474 375L473 374z"/>
<path style="fill:#cdbee0; stroke:none;" d="M128 375L129 376L128 375M476 376L477 377L476 376z"/>
<path style="fill:#76837d; stroke:none;" d="M129 377L130 378L129 377z"/>
<path style="fill:#cdbee0; stroke:none;" d="M477 377L478 378L477 377M129 378L130 379L129 378M478 378L479 379L478 378M479 379L480 380L479 379z"/>
<path style="fill:#76837d; stroke:none;" d="M130 380L131 381L130 380M480 380L481 381L480 380z"/>
<path style="fill:#cdbee0; stroke:none;" d="M130 381L131 382L130 381z"/>
<path style="fill:#76837d; stroke:none;" d="M481 381L482 382L481 381M131 383L132 384L131 383z"/>
<path style="fill:#cdbee0; stroke:none;" d="M484 383L485 384L484 383M131 384L132 385L131 384M485 384L486 385L485 384M486 385L487 386L486 385z"/>
<path style="fill:#76837d; stroke:none;" d="M132 386L133 387L132 386M487 386L488 387L487 386z"/>
<path style="fill:#cdbee0; stroke:none;" d="M132 387L133 388L132 387z"/>
<path style="fill:#76837d; stroke:none;" d="M488 387L489 388L488 387M133 389L134 390L133 389z"/>
<path style="fill:#cdbee0; stroke:none;" d="M491 389L492 390L491 389M133 390L134 391L133 390M492 390L493 391L492 390z"/>
<path style="fill:#76837d; stroke:none;" d="M493 391L494 392L493 391M134 392L135 393L134 392M494 392L495 393L494 392z"/>
<path style="fill:#cdbee0; stroke:none;" d="M134 393L135 394L134 393M497 394L498 395L497 394M135.333 395.667L135.667 396.333L135.333 395.667M498 395L499 396L498 395z"/>
<path style="fill:#76837d; stroke:none;" d="M499 396L500 397L499 396M136 397L137 398L136 397z"/>
<path style="fill:#cdbee0; stroke:none;" d="M136 398L137 399L136 398M502 398L503 399L502 398M503 399L504 400L503 399z"/>
<path style="fill:#76837d; stroke:none;" d="M137 400L138 401L137 400M504 400L505 401L504 400z"/>
<path style="fill:#cdbee0; stroke:none;" d="M137 401L138 402L137 401M507 402L508 403L507 402M138 403L139 404L138 403M508 403L509 404L508 403M509 404L510 405L509 404z"/>
<path style="fill:#76837d; stroke:none;" d="M139 405L140 406L139 405M510 405L511 406L510 405z"/>
<path style="fill:#cdbee0; stroke:none;" d="M139 406L140 407L139 406M512 406L513 407L512 406M513 407L514 408L513 407z"/>
<path style="fill:#76837d; stroke:none;" d="M140 408L141 409L140 408M514 408L515 409L514 408z"/>
<path style="fill:#cdbee0; stroke:none;" d="M140 409L141 410L140 409M516 409L517 410L516 409z"/>
<path style="fill:#76837d; stroke:none;" d="M141 410L142 411L141 410z"/>
<path style="fill:#cdbee0; stroke:none;" d="M517 410L518 411L517 410M141 411L142 412L141 411z"/>
<path style="fill:#76837d; stroke:none;" d="M518 411L519 412L518 411z"/>
<path style="fill:#cdbee0; stroke:none;" d="M520 412L521 413L520 412M142 413L143 414L142 413M521 413L522 414L521 413z"/>
<path style="fill:#76837d; stroke:none;" d="M522 414L523 415L522 414M143 415L144 416L143 415z"/>
<path style="fill:#cdbee0; stroke:none;" d="M524 415L525 416L524 415M143 416L144 417L143 416M525 416L526 417L525 416M144 418L145 419L144 418M528 418L529 419L528 418z"/>
<path style="fill:#76837d; stroke:none;" d="M529 419L530 420L529 419M145 420L146 421L145 420z"/>
<path style="fill:#cdbee0; stroke:none;" d="M531 420L532 421L531 420M145 421L146 422L145 421M532 421L533 422L532 421z"/>
<path style="fill:#76837d; stroke:none;" d="M533 422L534 423L533 422z"/>
<path style="fill:#cdbee0; stroke:none;" d="M146 423L147 424L146 423M535 423L536 424L535 423z"/>
<path style="fill:#76837d; stroke:none;" d="M536 424L537 425L536 424M147 425L148 426L147 425z"/>
<path style="fill:#cdbee0; stroke:none;" d="M538 425L539 426L538 425M147 426L148 427L147 426z"/>
<path style="fill:#76837d; stroke:none;" d="M539 426L540 427L539 426z"/>
<path style="fill:#cdbee0; stroke:none;" d="M541 427L542 428L541 427M148 428L149 429L148 428z"/>
<path style="fill:#76837d; stroke:none;" d="M542 428L543 429L542 428z"/>
<path style="fill:#cdbee0; stroke:none;" d="M544 429L545 430L544 429M149 430L150 431L149 430z"/>
<path style="fill:#76837d; stroke:none;" d="M545 430L546 431L545 430z"/>
<path style="fill:#cdbee0; stroke:none;" d="M547 431L548 432L547 431z"/>
<path style="fill:#76837d; stroke:none;" d="M150 432L151 433L150 432M548 432L549 433L548 432z"/>
<path style="fill:#cdbee0; stroke:none;" d="M150 433L151 434L150 433M550 433L551 434L550 433z"/>
<path style="fill:#76837d; stroke:none;" d="M151 434L152 435L151 434M551 434L552 435L551 434z"/>
<path style="fill:#cdbee0; stroke:none;" d="M151 435L152 436L151 435M553 435L554 436L553 435z"/>
<path style="fill:#76837d; stroke:none;" d="M554 436L555 437L554 436z"/>
<path style="fill:#cdbee0; stroke:none;" d="M152 437L153 438L152 437M556 437L557 438L556 437M558 438L559 439L558 438M153 439L154 440L153 439z"/>
<path style="fill:#76837d; stroke:none;" d="M559 439L560 440L559 439z"/>
<path style="fill:#cdbee0; stroke:none;" d="M561 440L562 441L561 440z"/>
<path style="fill:#76837d; stroke:none;" d="M154 441L155 442L154 441z"/>
<path style="fill:#cdbee0; stroke:none;" d="M563 441L564 442L563 441M154 442L155 443L154 442z"/>
<path style="fill:#76837d; stroke:none;" d="M564 442L565 443L564 442M155 443L156 444L155 443z"/>
<path style="fill:#cdbee0; stroke:none;" d="M566 443L567 444L566 443M155 444L156 445L155 444M568 444L569 445L568 444z"/>
<path style="fill:#76837d; stroke:none;" d="M569 445L570 446L569 445z"/>
<path style="fill:#cdbee0; stroke:none;" d="M156 446L157 447L156 446M571 446L572 447L571 446M573 447L574 448L573 447M157 448L158 449L157 448z"/>
<path style="fill:#76837d; stroke:none;" d="M574 448L575 449L574 448z"/>
<path style="fill:#cdbee0; stroke:none;" d="M576 449L577 450L576 449M158 450L159 451L158 450M578 450L579 451L578 450z"/>
<path style="fill:#76837d; stroke:none;" d="M579 451L580 452L579 451z"/>
<path style="fill:#cdbee0; stroke:none;" d="M580 451L581 452L580 451z"/>
<path style="fill:#76837d; stroke:none;" d="M159 452L160 453L159 452M581 452L582 453L581 452z"/>
<path style="fill:#cdbee0; stroke:none;" d="M583 453L584 454L583 453z"/>
<path style="fill:#76837d; stroke:none;" d="M160 454L161 455L160 454z"/>
<path style="fill:#cdbee0; stroke:none;" d="M585 454L586 455L585 454M160 455L161 456L160 455M587 455L588 456L587 455z"/>
<path style="fill:#76837d; stroke:none;" d="M161 456L162 457L161 456z"/>
<path style="fill:#cdbee0; stroke:none;" d="M589 456L590 457L589 456M161 457L162 458L161 457z"/>
<path style="fill:#76837d; stroke:none;" d="M590 457L591 458L590 457z"/>
<path style="fill:#cdbee0; stroke:none;" d="M591 457L592 458L591 457z"/>
<path style="fill:#76837d; stroke:none;" d="M162 458L163 459L162 458M592 458L593 459L592 458z"/>
<path style="fill:#cdbee0; stroke:none;" d="M162 459L163 460L162 459z"/>
<path style="fill:#76837d; stroke:none;" d="M594 459L595 460L594 459z"/>
<path style="fill:#cdbee0; stroke:none;" d="M596 460L597 461L596 460M163 461L164 462L163 461M598 461L599 462L598 461M600 462L601 463L600 462M164 463L165 464L164 463M602 463L603 464L602 463M604 464L605 465L604 464M165 465L166 466L165 465M606 465L607 466L606 465M608 466L609 467L608 466M166 467L167 468L166 467M610 467L611 468L610 467M612 468L613 469L612 468M167 469L168 470L167 469M614 469L615 470L614 469z"/>
<path style="fill:#76837d; stroke:none;" d="M616 470L617 471L616 470z"/>
<path style="fill:#cdbee0; stroke:none;" d="M168 471L169 472L168 471z"/>
<path style="fill:#76837d; stroke:none;" d="M618 471L619 472L618 471z"/>
<path style="fill:#cdbee0; stroke:none;" d="M619 471L620 472L619 471z"/>
<path style="fill:#76837d; stroke:none;" d="M620 472L621 473L620 472z"/>
<path style="fill:#cdbee0; stroke:none;" d="M621 472L622 473L621 472M169 473L170 474L169 473M623 473L624 474L623 473M625 474L626 475L625 474M170 475L171 476L170 475z"/>
<path style="fill:#76837d; stroke:none;" d="M627 475L628 476L627 475z"/>
<path style="fill:#cdbee0; stroke:none;" d="M628 475L629 476L628 475z"/>
<path style="fill:#76837d; stroke:none;" d="M629 476L630 477L629 476z"/>
<path style="fill:#cdbee0; stroke:none;" d="M630 476L631 477L630 476M171 477L172 478L171 477M632 477L633 478L632 477z"/>
<path style="fill:#76837d; stroke:none;" d="M634 478L635 479L634 478z"/>
<path style="fill:#cdbee0; stroke:none;" d="M635 478L636 479L635 478M172 479L173 480L172 479M637 479L638 480L637 479z"/>
<path style="fill:#76837d; stroke:none;" d="M639 480L640 481L639 480z"/>
<path style="fill:#cdbee0; stroke:none;" d="M640 480L641 481L640 480M173 481L174 482L173 481M642 481L643 482L642 481z"/>
<path style="fill:#76837d; stroke:none;" d="M644 482L645 483L644 482z"/>
<path style="fill:#cdbee0; stroke:none;" d="M645 482L646 483L645 482M174 483L175 484L174 483M647 483L648 484L647 483z"/>
<path style="fill:#76837d; stroke:none;" d="M649 484L650 485L649 484z"/>
<path style="fill:#cdbee0; stroke:none;" d="M650 484L651 485L650 484M175 485L176 486L175 485z"/>
<path style="fill:#76837d; stroke:none;" d="M652 485L653 486L652 485z"/>
<path style="fill:#cdbee0; stroke:none;" d="M653 485L654 486L653 485M655 486L656 487L655 486M176 487L177 488L176 487M658 487L659 488L658 487M661.667 488.333L662.333 488.667L661.667 488.333M177 489L178 490L177 489M664.667 489.333L665.333 489.667L664.667 489.333M667.667 490.333L668.333 490.667L667.667 490.333M178 491L179 492L178 491z"/>
<path style="fill:#76837d; stroke:none;" d="M670 491L671 492L670 491z"/>
<path style="fill:#cdbee0; stroke:none;" d="M671 491L672 492L671 491z"/>
<path style="fill:#76837d; stroke:none;" d="M179 492L180 493L179 492M673 492L674 493L673 492z"/>
<path style="fill:#cdbee0; stroke:none;" d="M674 492L675 493L674 492M179 493L180 494L179 493z"/>
<path style="fill:#76837d; stroke:none;" d="M676 493L677 494L676 493z"/>
<path style="fill:#cdbee0; stroke:none;" d="M677 493L678 494L677 493z"/>
<path style="fill:#76837d; stroke:none;" d="M180 494L181 495L180 494M679 494L680 495L679 494z"/>
<path style="fill:#cdbee0; stroke:none;" d="M680.667 494.333L681.333 494.667L680.667 494.333M180 495L181 496L180 495z"/>
<path style="fill:#76837d; stroke:none;" d="M683 495L684 496L683 495z"/>
<path style="fill:#cdbee0; stroke:none;" d="M684.667 495.333L685.333 495.667L684.667 495.333z"/>
<path style="fill:#76837d; stroke:none;" d="M181 496L182 497L181 496M687 496L688 497L687 496z"/>
<path style="fill:#cdbee0; stroke:none;" d="M688.667 496.333L689.333 496.667L688.667 496.333z"/>
<path style="fill:#76837d; stroke:none;" d="M691 497L692 498L691 497z"/>
<path style="fill:#cdbee0; stroke:none;" d="M692.667 497.333L693.333 497.667L692.667 497.333z"/>
<path style="fill:#76837d; stroke:none;" d="M182 498L183 499L182 498M696 498L697 499L696 498z"/>
<path style="fill:#cdbee0; stroke:none;" d="M697 498L698 499L697 498z"/>
<path style="fill:#76837d; stroke:none;" d="M700 499L701 500L700 499z"/>
<path style="fill:#cdbee0; stroke:none;" d="M701.667 499.333L702.333 499.667L701.667 499.333M183 500L184 501L183 500z"/>
<path style="fill:#76837d; stroke:none;" d="M704 500L705 501L704 500z"/>
<path style="fill:#cdbee0; stroke:none;" d="M705.667 500.333L706.333 500.667L705.667 500.333z"/>
<path style="fill:#76837d; stroke:none;" d="M709 501L710 502L709 501z"/>
<path style="fill:#cdbee0; stroke:none;" d="M710.667 501.333L711.333 501.667L710.667 501.333M184 502L185 503L184 502z"/>
<path style="fill:#76837d; stroke:none;" d="M713 502L714 503L713 502z"/>
<path style="fill:#cdbee0; stroke:none;" d="M714.667 502.333L715.333 502.667L714.667 502.333z"/>
<path style="fill:#76837d; stroke:none;" d="M718 503L719 504L718 503z"/>
<path style="fill:#cdbee0; stroke:none;" d="M719 503L720 504L719 503M185 504L186 505L185 504z"/>
<path style="fill:#76837d; stroke:none;" d="M721 504L722 505L721 504z"/>
<path style="fill:#cdbee0; stroke:none;" d="M722.667 504.333L723.333 504.667L722.667 504.333z"/>
<path style="fill:#76837d; stroke:none;" d="M725 505L726 506L725 505z"/>
<path style="fill:#cdbee0; stroke:none;" d="M726 505L727 506L726 505M186 506L187 507L186 506z"/>
<path style="fill:#76837d; stroke:none;" d="M728 506L729 507L728 506z"/>
<path style="fill:#cdbee0; stroke:none;" d="M729 506L730 507L729 506z"/>
<path style="fill:#76837d; stroke:none;" d="M187 507L188 508L187 507z"/>
<path style="fill:#cdbee0; stroke:none;" d="M732.667 507.333L733.333 507.667L732.667 507.333M187 508L188 509L187 508z"/>
<path style="fill:#76837d; stroke:none;" d="M735 508L736 509L735 508z"/>
<path style="fill:#cdbee0; stroke:none;" d="M736 508L737 509L736 508z"/>
<path style="fill:#76837d; stroke:none;" d="M188 509L189 510L188 509M738 509L739 510L738 509z"/>
<path style="fill:#cdbee0; stroke:none;" d="M739 509L740 510L739 509z"/>
<path style="fill:#76837d; stroke:none;" d="M741 510L742 511L741 510z"/>
<path style="fill:#cdbee0; stroke:none;" d="M742 510L743 511L742 510z"/>
<path style="fill:#76837d; stroke:none;" d="M189 511L190 512L189 511M744 511L745 512L744 511z"/>
<path style="fill:#cdbee0; stroke:none;" d="M745 511L746 512L745 511z"/>
<path style="fill:#76837d; stroke:none;" d="M747 512L748 513L747 512z"/>
<path style="fill:#cdbee0; stroke:none;" d="M748 512L749 513L748 512M190 513L191 514L190 513M750 513L751 514L750 513z"/>
<path style="fill:#76837d; stroke:none;" d="M752 514L753 515L752 514z"/>
<path style="fill:#cdbee0; stroke:none;" d="M753 514L754 515L753 514M191 515L192 516L191 515M755.667 515.333L756.333 515.667L755.667 515.333z"/>
<path style="fill:#76837d; stroke:none;" d="M757 516L758 517L757 516z"/>
<path style="fill:#cdbee0; stroke:none;" d="M758 516L759 517L758 516M192 517L193 518L192 517z"/>
<path style="fill:#76837d; stroke:none;" d="M760 517L761 518L760 517z"/>
<path style="fill:#cdbee0; stroke:none;" d="M761 517L762 518L761 517z"/>
<path style="fill:#76837d; stroke:none;" d="M193 518L194 519L193 518z"/>
<path style="fill:#cdbee0; stroke:none;" d="M763 518L764 519L763 518M765 519L766 520L765 519M194 520L195 521L194 520M767 520L768 521L767 520M769 521L770 522L769 521M195 522L196 523L195 522z"/>
<path style="fill:#76837d; stroke:none;" d="M771 522L772 523L771 522M773 523L774 524L773 523z"/>
<path style="fill:#cdbee0; stroke:none;" d="M196 524L197 525L196 524z"/>
<path style="fill:#76837d; stroke:none;" d="M775 524L776 525L775 524M197 525L198 526L197 525M777 525L778 526L777 525z"/>
<path style="fill:#cdbee0; stroke:none;" d="M778 525L779 526L778 525M197 526L198 527L197 526z"/>
<path style="fill:#76837d; stroke:none;" d="M779 526L780 527L779 526z"/>
<path style="fill:#cdbee0; stroke:none;" d="M780 526L781 527L780 526z"/>
<path style="fill:#76837d; stroke:none;" d="M198 527L199 528L198 527M781 527L782 528L781 527z"/>
<path style="fill:#cdbee0; stroke:none;" d="M782 527L783 528L782 527z"/>
<path style="fill:#76837d; stroke:none;" d="M783 528L784 529L783 528z"/>
<path style="fill:#cdbee0; stroke:none;" d="M199 529L200 530L199 529M785 529L786 530L785 529M787 530L788 531L787 530M200 531L201 532L200 531M789 531L790 532L789 531z"/>
<path style="fill:#76837d; stroke:none;" d="M201 532L202 533L201 532M790 532L791 533L790 532z"/>
<path style="fill:#cdbee0; stroke:none;" d="M791 532L792 533L791 532z"/>
<path style="fill:#76837d; stroke:none;" d="M792 533L793 534L792 533z"/>
<path style="fill:#cdbee0; stroke:none;" d="M202 534L203 535L202 534M794 534L795 535L794 534M796 535L797 536L796 535M203 536L204 537L203 536z"/>
<path style="fill:#76837d; stroke:none;" d="M797 536L798 537L797 536z"/>
<path style="fill:#cdbee0; stroke:none;" d="M799 537L800 538L799 537M204 538L205 539L204 538M801 538L802 539L801 538z"/>
<path style="fill:#76837d; stroke:none;" d="M205 539L206 540L205 539M802 539L803 540L802 539z"/>
<path style="fill:#cdbee0; stroke:none;" d="M804 540L805 541L804 540M206 541L207 542L206 541z"/>
<path style="fill:#76837d; stroke:none;" d="M805 541L806 542L805 541z"/>
<path style="fill:#cdbee0; stroke:none;" d="M807 542L808 543L807 542M207 543L208 544L207 543z"/>
<path style="fill:#76837d; stroke:none;" d="M808 543L809 544L808 543M208 544L209 545L208 544z"/>
<path style="fill:#cdbee0; stroke:none;" d="M810 544L811 545L810 544z"/>
<path style="fill:#76837d; stroke:none;" d="M811 545L812 546L811 545z"/>
<path style="fill:#cdbee0; stroke:none;" d="M209 546L210 547L209 546M814 547L815 548L814 547M210 548L211 549L210 548z"/>
<path style="fill:#76837d; stroke:none;" d="M815 548L816 549L815 548M211 549L212 550L211 549z"/>
<path style="fill:#cdbee0; stroke:none;" d="M817 549L818 550L817 549M818 550L819 551L818 550M212 551L213 552L212 551z"/>
<path style="fill:#76837d; stroke:none;" d="M819 551L820 552L819 551z"/>
<path style="fill:#cdbee0; stroke:none;" d="M821 552L822 553L821 552M213 553L214 554L213 553M822 553L823 554L822 553z"/>
<path style="fill:#76837d; stroke:none;" d="M214 554L215 555L214 554z"/>
<path style="fill:#cdbee0; stroke:none;" d="M823 554L824 555L823 554z"/>
<path style="fill:#76837d; stroke:none;" d="M824 555L825 556L824 555z"/>
<path style="fill:#cdbee0; stroke:none;" d="M215 556L216 557L215 556M826 556L827 557L826 556M827 557L828 558L827 557M216 558L217 559L216 558z"/>
<path style="fill:#76837d; stroke:none;" d="M828 558L829 559L828 558M217 559L218 560L217 559M829 559L830 560L829 559z"/>
<path style="fill:#cdbee0; stroke:none;" d="M218 561L219 562L218 561M832 561L833 562L832 561z"/>
<path style="fill:#76837d; stroke:none;" d="M219 562L220 563L219 562z"/>
<path style="fill:#cdbee0; stroke:none;" d="M833 562L834 563L833 562M219 563L220 564L219 563M834 563L835 564L834 563M220 564L221 565L220 564z"/>
<path style="fill:#76837d; stroke:none;" d="M835 564L836 565L835 564M836 565L837 566L836 565z"/>
<path style="fill:#cdbee0; stroke:none;" d="M221 566L222 567L221 566z"/>
<path style="fill:#76837d; stroke:none;" d="M222 567L223 568L222 567z"/>
<path style="fill:#cdbee0; stroke:none;" d="M840 568L841 569L840 568M223 569L224 570L223 569M841 569L842 570L841 569M842 570L843 571L842 570M224 571L225 572L224 571M843 571L844 572L843 571z"/>
<path style="fill:#76837d; stroke:none;" d="M225 572L226 573L225 572z"/>
<path style="fill:#cdbee0; stroke:none;" d="M844 572L845 573L844 572M845 573L846 574L845 573M226 574L227 575L226 574M846 574L847 575L846 574z"/>
<path style="fill:#76837d; stroke:none;" d="M227 575L228 576L227 575z"/>
<path style="fill:#cdbee0; stroke:none;" d="M847 575L848 576L847 575M848 576L849 577L848 576M228 577L229 578L228 577M849 577L850 578L849 577M850 578L851 579L850 578M229 579L230 580L229 579M851 579L852 580L851 579M230 580L231 581L230 580M852 580L853 581L852 580M853 581L854 582L853 581M231 582L232 583L231 582M854 582L855 583L854 582z"/>
<path style="fill:#76837d; stroke:none;" d="M232 583L233 584L232 583z"/>
<path style="fill:#cdbee0; stroke:none;" d="M855 583L856 584L855 583M233 585L234 586L233 585z"/>
<path style="fill:#76837d; stroke:none;" d="M234 586L235 587L234 586M857 586L858 587L857 586M858 587L859 588L858 587z"/>
<path style="fill:#cdbee0; stroke:none;" d="M235 588L236 589L235 588M859 588L860 589L859 588z"/>
<path style="fill:#76837d; stroke:none;" d="M236 589L237 590L236 589z"/>
<path style="fill:#cdbee0; stroke:none;" d="M860 589L861 590L860 589M861 590L862 591L861 590M237 591L238 592L237 591M862 591L863 592L862 591z"/>
<path style="fill:#76837d; stroke:none;" d="M238 592L239 593L238 592M863 593L864 594L863 593z"/>
<path style="fill:#cdbee0; stroke:none;" d="M239 594L240 595L239 594z"/>
<path style="fill:#76837d; stroke:none;" d="M864 594L865 595L864 594M240 595L241 596L240 595z"/>
<path style="fill:#cdbee0; stroke:none;" d="M865 595L866 596L865 595M866 596L867 597L866 596M241 597L242 598L241 597z"/>
<path style="fill:#76837d; stroke:none;" d="M242 598L243 599L242 598M868 599L869 600L868 599z"/>
<path style="fill:#cdbee0; stroke:none;" d="M243 600L244 601L243 600M869 600L870 601L869 600z"/>
<path style="fill:#76837d; stroke:none;" d="M244 601L245 602L244 601z"/>
<path style="fill:#cdbee0; stroke:none;" d="M245 603L246 604L245 603z"/>
<path style="fill:#76837d; stroke:none;" d="M871 603L872 604L871 603M246 604L247 605L246 604z"/>
<path style="fill:#cdbee0; stroke:none;" d="M872 604L873 605L872 604M247 606L248 607L247 606z"/>
<path style="fill:#76837d; stroke:none;" d="M873 606L874 607L873 606M248 607L249 608L248 607z"/>
<path style="fill:#cdbee0; stroke:none;" d="M874 607L875 608L874 607M875 608L876 609L875 608M249 609L250 610L249 609M250 610L251 611L250 610z"/>
<path style="fill:#76837d; stroke:none;" d="M876 610L877 611L876 610M251 611L252 612L251 611z"/>
<path style="fill:#cdbee0; stroke:none;" d="M877 611L878 612L877 611M252 613L253 614L252 613z"/>
<path style="fill:#76837d; stroke:none;" d="M878 613L879 614L878 613M253 614L254 615L253 614z"/>
<path style="fill:#cdbee0; stroke:none;" d="M879 614L880 615L879 614M254 616L255 617L254 616z"/>
<path style="fill:#76837d; stroke:none;" d="M880 616L881 617L880 616M255 617L256 618L255 617z"/>
<path style="fill:#cdbee0; stroke:none;" d="M881 617L882 618L881 617M256 619L257 620L256 619z"/>
<path style="fill:#76837d; stroke:none;" d="M882 619L883 620L882 619M257 620L258 621L257 620z"/>
<path style="fill:#cdbee0; stroke:none;" d="M883 620L884 621L883 620M258 622L259 623L258 622M884 622L885 623L884 622M259 623L260 624L259 623z"/>
<path style="fill:#76837d; stroke:none;" d="M885 624L886 625L885 624z"/>
<path style="fill:#cdbee0; stroke:none;" d="M886 625L887 626L886 625M261 626L262 627L261 626z"/>
<path style="fill:#76837d; stroke:none;" d="M262 627L263 628L262 627z"/>
<path style="fill:#cdbee0; stroke:none;" d="M887 627L888 628L887 627M263 629L264 630L263 629z"/>
<path style="fill:#76837d; stroke:none;" d="M888 629L889 630L888 629z"/>
<path style="fill:#cdbee0; stroke:none;" d="M264 630L265 631L264 630M889 630L890 631L889 630z"/>
<path style="fill:#76837d; stroke:none;" d="M265 631L266 632L265 631M889 631L890 632L889 631z"/>
<path style="fill:#cdbee0; stroke:none;" d="M890 632L891 633L890 632M266 633L267 634L266 633z"/>
<path style="fill:#76837d; stroke:none;" d="M267 634L268 635L267 634z"/>
<path style="fill:#cdbee0; stroke:none;" d="M891 634L892 635L891 634M268 636L269 637L268 636M892 636L893 637L892 636M269 637L270 638L269 637z"/>
<path style="fill:#76837d; stroke:none;" d="M270 638L271 639L270 638M893 638L894 639L893 638z"/>
<path style="fill:#cdbee0; stroke:none;" d="M271 640L272 641L271 640z"/>
<path style="fill:#76837d; stroke:none;" d="M894 640L895 641L894 640z"/>
<path style="fill:#cdbee0; stroke:none;" d="M272 641L273 642L272 641z"/>
<path style="fill:#76837d; stroke:none;" d="M273 642L274 643L273 642M895 642L896 643L895 642z"/>
<path style="fill:#cdbee0; stroke:none;" d="M274 644L275 645L274 644z"/>
<path style="fill:#76837d; stroke:none;" d="M896 644L897 645L896 644z"/>
<path style="fill:#cdbee0; stroke:none;" d="M275 645L276 646L275 645z"/>
<path style="fill:#76837d; stroke:none;" d="M897 646L898 647L897 646z"/>
<path style="fill:#cdbee0; stroke:none;" d="M277 648L278 649L277 648M898 648L899 649L898 648z"/>
<path style="fill:#76837d; stroke:none;" d="M278 649L279 650L278 649z"/>
<path style="fill:#cdbee0; stroke:none;" d="M899 650L900 651L899 650M280 652L281 653L280 652M900 652L901 653L900 652z"/>
<path style="fill:#76837d; stroke:none;" d="M281 653L282 654L281 653z"/>
<path style="fill:#cdbee0; stroke:none;" d="M901 654L902 655L901 654z"/>
<path style="fill:#76837d; stroke:none;" d="M901 655L902 656L901 655z"/>
<path style="fill:#cdbee0; stroke:none;" d="M283 656L284 657L283 656M284 657L285 658L284 657M902 657L903 658L902 657z"/>
<path style="fill:#76837d; stroke:none;" d="M285 658L286 659L285 658z"/>
<path style="fill:#cdbee0; stroke:none;" d="M903 659L904 660L903 659M286 660L287 661L286 660z"/>
<path style="fill:#76837d; stroke:none;" d="M903 660L904 661L903 660z"/>
<path style="fill:#cdbee0; stroke:none;" d="M287 661L288 662L287 661z"/>
<path style="fill:#76837d; stroke:none;" d="M288 662L289 663L288 662z"/>
<path style="fill:#cdbee0; stroke:none;" d="M904 662L905 663L904 662M289 664L290 665L289 664M905 664L906 665L905 664M290 665L291 666L290 665z"/>
<path style="fill:#76837d; stroke:none;" d="M905 665L906 666L905 665M291 666L292 667L291 666z"/>
<path style="fill:#cdbee0; stroke:none;" d="M906 667L907 668L906 667M293 669L294 670L293 669M907.333 669.667L907.667 670.333L907.333 669.667M294 670L295 671L294 670z"/>
<path style="fill:#76837d; stroke:none;" d="M295 671L296 672L295 671z"/>
<path style="fill:#cdbee0; stroke:none;" d="M908 672L909 673L908 672z"/>
<path style="fill:#76837d; stroke:none;" d="M908 673L909 674L908 673z"/>
<path style="fill:#cdbee0; stroke:none;" d="M297 674L298 675L297 674M298 675L299 676L298 675M909 675L910 676L909 675z"/>
<path style="fill:#76837d; stroke:none;" d="M299 676L300 677L299 676M909 676L910 677L909 676z"/>
<path style="fill:#cdbee0; stroke:none;" d="M300 678L301 679L300 678M910 678L911 679L910 678M301 679L302 680L301 679z"/>
<path style="fill:#76837d; stroke:none;" d="M910 679L911 680L910 679z"/>
<path style="fill:#cdbee0; stroke:none;" d="M302 680L303 681L302 680z"/>
<path style="fill:#76837d; stroke:none;" d="M303 681L304 682L303 681z"/>
<path style="fill:#cdbee0; stroke:none;" d="M911.333 681.667L911.667 682.333L911.333 681.667M305 684L306 685L305 684M306 685L307 686L306 685M912 685L913 686L912 685z"/>
<path style="fill:#76837d; stroke:none;" d="M307 686L308 687L307 686M912 686L913 687L912 686M308 687L309 688L308 687z"/>
<path style="fill:#cdbee0; stroke:none;" d="M913 688L914 689L913 688M309 689L310 690L309 689z"/>
<path style="fill:#76837d; stroke:none;" d="M913 689L914 690L913 689z"/>
<path style="fill:#cdbee0; stroke:none;" d="M310 690L311 691L310 690M311 691L312 692L311 691M914.333 691.667L914.667 692.333L914.333 691.667z"/>
<path style="fill:#76837d; stroke:none;" d="M312 692L313 693L312 692M914 693L915 694L914 693z"/>
<path style="fill:#cdbee0; stroke:none;" d="M314 695L315 696L314 695M915.333 695.667L915.667 696.333L915.333 695.667M315 696L316 697L315 696M316 697L317 698L316 697z"/>
<path style="fill:#76837d; stroke:none;" d="M915 697L916 698L915 697M317 698L318 699L317 698M318 699L319 700L318 699z"/>
<path style="fill:#cdbee0; stroke:none;" d="M916.333 699.667L916.667 700.333L916.333 699.667z"/>
<path style="fill:#76837d; stroke:none;" d="M916 701L917 702L916 701z"/>
<path style="fill:#cdbee0; stroke:none;" d="M320 702L321 703L320 702M321 703L322 704L321 703M322 704L323 705L322 704M917.333 704.667L917.667 705.333L917.333 704.667z"/>
<path style="fill:#76837d; stroke:none;" d="M323 705L324 706L323 705M324 706L325 707L324 706M917 706L918 707L917 706z"/>
<path style="fill:#cdbee0; stroke:none;" d="M918 708L918 711L919 711L918 708M326 709L327 710L326 709M327 710L328 711L327 710M328 711L329 712L328 711z"/>
<path style="fill:#76837d; stroke:none;" d="M918 711L919 712L918 711z"/>
<path style="fill:#cdbee0; stroke:none;" d="M329 712L330 713L329 712z"/>
<path style="fill:#76837d; stroke:none;" d="M330 713L331 714L330 713M331 714L332 715L331 714z"/>
<path style="fill:#cdbee0; stroke:none;" d="M919.333 714.667L919.667 715.333L919.333 714.667z"/>
<path style="fill:#76837d; stroke:none;" d="M332 715L333 716L332 715M919 716L920 717L919 716z"/>
<path style="fill:#cdbee0; stroke:none;" d="M335 719L336 720L335 719M336 720L337 721L336 720M920.333 720.667L920.667 721.333L920.333 720.667M337 721L338 722L337 721M338 722L339 723L338 722z"/>
<path style="fill:#76837d; stroke:none;" d="M920 722L921 723L920 722z"/>
<path style="fill:#cdbee0; stroke:none;" d="M339 723L340 724L339 723z"/>
<path style="fill:#76837d; stroke:none;" d="M340 724L341 725L340 724M341 725L342 726L341 725M342 726L343 727L342 726z"/>
<path style="fill:#cdbee0; stroke:none;" d="M921 726L921 729L922 729L921 726z"/>
<path style="fill:#76837d; stroke:none;" d="M921.333 729.667L921.667 730.333L921.333 729.667z"/>
<path style="fill:#cdbee0; stroke:none;" d="M345 730L346 731L345 730M346 731L347 732L346 731M347 732L348 733L347 732M348 733L349 734L348 733M349 734L350 735L349 734M922 734L922 738L923 738L922 734M350 735L351 736L350 735M351 736L352 737L351 736M352 737L353 738L352 737M353 738L354 739L353 738z"/>
<path style="fill:#76837d; stroke:none;" d="M922.333 738.667L922.667 739.333L922.333 738.667z"/>
<path style="fill:#cdbee0; stroke:none;" d="M354 739L355 740L354 739M355 740L356 741L355 740M356 741L357 742L356 741M357 742L358 743L357 742M358 743L359 744L358 743M359 744L360 745L359 744M923 744L923 750L924 750L923 744M360 745L361 746L360 745M361 746L362 747L361 746M362 747L363 748L362 747M363 748L364 749L363 748M364 749L365 750L364 749M365 750L366 751L365 750z"/>
<path style="fill:#76837d; stroke:none;" d="M923 750L923 755L924 755L923 750z"/>
<path style="fill:#cdbee0; stroke:none;" d="M366 751L367 752L366 751M367 752L368 753L367 752M368 753L369 754L368 753M369 754L370 755L369 754M370 755L371 756L370 755M371 756L372 757L371 756M372 757L373 758L372 757M373 758L374 759L373 758M374 759L375 760L374 759M375 760L376 761L375 760M376 761L377 762L376 761M377 762L378 763L377 762M378 763L379 764L378 763M379 764L380 765L379 764M380 765L381 766L380 765M924 765L924 776L925 776L924 765M381 766L382 767L381 766M382 767L383 768L382 767M383 768L384 769L383 768M384 769L385 770L384 769M385 770L386 771L385 770M386 771L387 772L386 771M387 772L388 773L387 772M388 773L389 774L388 773M389 774L390 775L389 774z"/>
<path style="fill:#76837d; stroke:none;" d="M397 781L398 782L397 781M398 782L399 783L398 782M399 783L400 784L399 783M400 784L401 785L400 784M923 784L923 787L924 787L923 784M401 785L402 786L401 785M402 786L403 787L402 786z"/>
<path style="fill:#cdbee0; stroke:none;" d="M403 787L404 788L403 787M923 787L923 791L924 791L923 787M404 788L405 789L404 788M405 789L406 790L405 789M406 790L407 791L406 790M407 791L408 792L407 791M408 792L409 793L408 792M409 793L410 794L409 793z"/>
<path style="fill:#76837d; stroke:none;" d="M922.333 794.667L922.667 795.333L922.333 794.667M413 796L414 797L413 796z"/>
<path style="fill:#cdbee0; stroke:none;" d="M922 796L922 800L923 800L922 796z"/>
<path style="fill:#76837d; stroke:none;" d="M414 797L415 798L414 797M415 798L416 799L415 798M416 799L417 800L416 799z"/>
<path style="fill:#cdbee0; stroke:none;" d="M417 800L418 801L417 800M418 801L419 802L418 801M419 802L420 803L419 802z"/>
<path style="fill:#76837d; stroke:none;" d="M921 802L922 803L921 802z"/>
<path style="fill:#cdbee0; stroke:none;" d="M420 803L421 804L420 803M921.333 803.667L921.667 804.333L921.333 803.667M421 804L422 805L421 804z"/>
<path style="fill:#76837d; stroke:none;" d="M425 807L426 808L425 807M920.333 807.667L920.667 808.333L920.333 807.667M426 808L427 809L426 808M427 809L428 810L427 809z"/>
<path style="fill:#cdbee0; stroke:none;" d="M920 809L921 810L920 809M428 810L429 811L428 810M429 811L430 812L429 811M430 812L431 813L430 812z"/>
<path style="fill:#76837d; stroke:none;" d="M919 812L920 813L919 812z"/>
<path style="fill:#cdbee0; stroke:none;" d="M431 813L432 814L431 813M919.333 813.667L919.667 814.333L919.333 813.667z"/>
<path style="fill:#76837d; stroke:none;" d="M434 815L435 816L434 815M435 816L436 817L435 816M918 816L919 817L918 816M436 817L437 818L436 817z"/>
<path style="fill:#cdbee0; stroke:none;" d="M918.333 817.667L918.667 818.333L918.333 817.667M437 818L438 819L437 818M438 819L439 820L438 819M439 820L440 821L439 820z"/>
<path style="fill:#76837d; stroke:none;" d="M917 820L918 821L917 820z"/>
<path style="fill:#cdbee0; stroke:none;" d="M917 821L918 822L917 821z"/>
<path style="fill:#76837d; stroke:none;" d="M442 822L443 823L442 822M443 823L444 824L443 823z"/>
<path style="fill:#cdbee0; stroke:none;" d="M444 824L445 825L444 824z"/>
<path style="fill:#76837d; stroke:none;" d="M916 824L917 825L916 824z"/>
<path style="fill:#cdbee0; stroke:none;" d="M445 825L446 826L445 825M916 825L917 826L916 825M446 826L447 827L446 826z"/>
<path style="fill:#76837d; stroke:none;" d="M915 827L916 828L915 827M449 828L450 829L449 828z"/>
<path style="fill:#cdbee0; stroke:none;" d="M915 828L916 829L915 828z"/>
<path style="fill:#76837d; stroke:none;" d="M450 829L451 830L450 829z"/>
<path style="fill:#cdbee0; stroke:none;" d="M451 830L452 831L451 830M914.333 830.667L914.667 831.333L914.333 830.667M452 831L453 832L452 831z"/>
<path style="fill:#76837d; stroke:none;" d="M455 833L456 834L455 833z"/>
<path style="fill:#cdbee0; stroke:none;" d="M913 833L914 834L913 833z"/>
<path style="fill:#76837d; stroke:none;" d="M456 834L457 835L456 834z"/>
<path style="fill:#cdbee0; stroke:none;" d="M457 835L458 836L457 835z"/>
<path style="fill:#76837d; stroke:none;" d="M912 835L913 836L912 835z"/>
<path style="fill:#cdbee0; stroke:none;" d="M458 836L459 837L458 836M912 836L913 837L912 836z"/>
<path style="fill:#76837d; stroke:none;" d="M461 838L462 839L461 838z"/>
<path style="fill:#cdbee0; stroke:none;" d="M911 838L912 839L911 838M462 839L463 840L462 839M463 840L464 841L463 840z"/>
<path style="fill:#76837d; stroke:none;" d="M910 840L911 841L910 840z"/>
<path style="fill:#cdbee0; stroke:none;" d="M464 841L465 842L464 841M910 841L911 842L910 841z"/>
<path style="fill:#76837d; stroke:none;" d="M466 842L467 843L466 842M909 842L910 843L909 842z"/>
<path style="fill:#cdbee0; stroke:none;" d="M467 843L468 844L467 843M909 843L910 844L909 843M468 844L469 845L468 844M908 845L909 846L908 845z"/>
<path style="fill:#76837d; stroke:none;" d="M471 846L472 847L471 846z"/>
<path style="fill:#cdbee0; stroke:none;" d="M472 847L473 848L472 847M907 847L908 848L907 847M473 848L474 849L473 848M906 849L907 850L906 849z"/>
<path style="fill:#76837d; stroke:none;" d="M476 850L477 851L476 850z"/>
<path style="fill:#cdbee0; stroke:none;" d="M477 851L478 852L477 851M905 851L906 852L905 851M478 852L479 853L478 852z"/>
<path style="fill:#76837d; stroke:none;" d="M904 852L905 853L904 852M480 853L481 854L480 853z"/>
<path style="fill:#cdbee0; stroke:none;" d="M904 853L905 854L904 853M481 854L482 855L481 854z"/>
<path style="fill:#76837d; stroke:none;" d="M903 854L904 855L903 854z"/>
<path style="fill:#cdbee0; stroke:none;" d="M482 855L483 856L482 855z"/>
<path style="fill:#76837d; stroke:none;" d="M484 856L485 857L484 856z"/>
<path style="fill:#cdbee0; stroke:none;" d="M902 856L903 857L902 856M485 857L486 858L485 857M486 858L487 859L486 858M901 858L902 859L901 858z"/>
<path style="fill:#76837d; stroke:none;" d="M900 859L901 860L900 859M489 860L490 861L489 860z"/>
<path style="fill:#cdbee0; stroke:none;" d="M490 861L491 862L490 861M899 861L900 862L899 861M491 862L492 863L491 862z"/>
<path style="fill:#76837d; stroke:none;" d="M898 862L899 863L898 862M493 863L494 864L493 863z"/>
<path style="fill:#cdbee0; stroke:none;" d="M494 864L495 865L494 864M897 864L898 865L897 864M896 865L897 866L896 865M497 866L498 867L497 866z"/>
<path style="fill:#76837d; stroke:none;" d="M895 866L896 867L895 866z"/>
<path style="fill:#cdbee0; stroke:none;" d="M498 867L499 868L498 867z"/>
<path style="fill:#76837d; stroke:none;" d="M500 868L501 869L500 868z"/>
<path style="fill:#cdbee0; stroke:none;" d="M894 868L895 869L894 868M501 869L502 870L501 869z"/>
<path style="fill:#76837d; stroke:none;" d="M893 869L894 870L893 869M503 870L504 871L503 870M892 870L893 871L892 870z"/>
<path style="fill:#cdbee0; stroke:none;" d="M504 871L505 872L504 871M505 872L506 873L505 872M891 872L892 873L891 872M507 873L508 874L507 873M890 873L891 874L890 873M508 874L509 875L508 874z"/>
<path style="fill:#76837d; stroke:none;" d="M509 874L510 875L509 874M889 874L890 875L889 874z"/>
<path style="fill:#cdbee0; stroke:none;" d="M510 875L511 876L510 875z"/>
<path style="fill:#76837d; stroke:none;" d="M888 875L889 876L888 875M512 876L513 877L512 876z"/>
<path style="fill:#cdbee0; stroke:none;" d="M513 877L514 878L513 877z"/>
<path style="fill:#76837d; stroke:none;" d="M515 878L516 879L515 878z"/>
<path style="fill:#cdbee0; stroke:none;" d="M886 878L887 879L886 878M516 879L517 880L516 879M885 879L886 880L885 879z"/>
<path style="fill:#76837d; stroke:none;" d="M518 880L519 881L518 880z"/>
<path style="fill:#cdbee0; stroke:none;" d="M884 880L885 881L884 880M519 881L520 882L519 881M883 881L884 882L883 881z"/>
<path style="fill:#76837d; stroke:none;" d="M521 882L522 883L521 882z"/>
<path style="fill:#cdbee0; stroke:none;" d="M882 882L883 883L882 882M522 883L523 884L522 883M881 883L882 884L881 883z"/>
<path style="fill:#76837d; stroke:none;" d="M524 884L525 885L524 884z"/>
<path style="fill:#cdbee0; stroke:none;" d="M880 884L881 885L880 884M525 885L526 886L525 885M879 885L880 886L879 885M527 886L528 887L527 886M878 886L879 887L878 886z"/>
<path style="fill:#76837d; stroke:none;" d="M529 887L530 888L529 887z"/>
<path style="fill:#cdbee0; stroke:none;" d="M877 887L878 888L877 887M530 888L531 889L530 888M876 888L877 889L876 888z"/>
<path style="fill:#76837d; stroke:none;" d="M532 889L533 890L532 889z"/>
<path style="fill:#cdbee0; stroke:none;" d="M875 889L876 890L875 889M533 890L534 891L533 890M874 890L875 891L874 890M535 891L536 892L535 891z"/>
<path style="fill:#76837d; stroke:none;" d="M872 891L873 892L872 891M537 892L538 893L537 892M871 892L872 893L871 892z"/>
<path style="fill:#cdbee0; stroke:none;" d="M538 893L539 894L538 893M870 893L871 894L870 893M540 894L541 895L540 894M869 894L870 895L869 894M542 895L543 896L542 895z"/>
<path style="fill:#76837d; stroke:none;" d="M544 896L545 897L544 896M866 896L867 897L866 896z"/>
<path style="fill:#cdbee0; stroke:none;" d="M545 897L546 898L545 897z"/>
<path style="fill:#76837d; stroke:none;" d="M546 897L547 898L546 897z"/>
<path style="fill:#cdbee0; stroke:none;" d="M865 897L866 898L865 897M547 898L548 899L547 898M864 898L865 899L864 898M549 899L550 900L549 899z"/>
<path style="fill:#76837d; stroke:none;" d="M862 899L863 900L862 899M551 900L552 901L551 900z"/>
<path style="fill:#cdbee0; stroke:none;" d="M861 900L862 901L861 900z"/>
<path style="fill:#76837d; stroke:none;" d="M553 901L554 902L553 901M859 901L860 902L859 901z"/>
<path style="fill:#cdbee0; stroke:none;" d="M554 902L555 903L554 902z"/>
<path style="fill:#76837d; stroke:none;" d="M555 902L556 903L555 902z"/>
<path style="fill:#cdbee0; stroke:none;" d="M858 902L859 903L858 902M556 903L557 904L556 903z"/>
<path style="fill:#76837d; stroke:none;" d="M557 903L558 904L557 903M856 903L857 904L856 903z"/>
<path style="fill:#cdbee0; stroke:none;" d="M558 904L559 905L558 904M855 904L856 905L855 904M560 905L561 906L560 905z"/>
<path style="fill:#76837d; stroke:none;" d="M853 905L854 906L853 905z"/>
<path style="fill:#cdbee0; stroke:none;" d="M562 906L563 907L562 906M852 906L853 907L852 906M564 907L565 908L564 907z"/>
<path style="fill:#76837d; stroke:none;" d="M850 907L851 908L850 907z"/>
<path style="fill:#cdbee0; stroke:none;" d="M566 908L567 909L566 908z"/>
<path style="fill:#76837d; stroke:none;" d="M567 908L568 909L567 908M848 908L849 909L848 908z"/>
<path style="fill:#cdbee0; stroke:none;" d="M849 908L850 909L849 908M568 909L569 910L568 909z"/>
<path style="fill:#76837d; stroke:none;" d="M569 909L570 910L569 909z"/>
<path style="fill:#cdbee0; stroke:none;" d="M847 909L848 910L847 909M570 910L571 911L570 910z"/>
<path style="fill:#76837d; stroke:none;" d="M571 910L572 911L571 910z"/>
<path style="fill:#cdbee0; stroke:none;" d="M845 910L846 911L845 910z"/>
<path style="fill:#76837d; stroke:none;" d="M573 911L574 912L573 911M843 911L844 912L843 911M575 912L576 913L575 912M841 912L842 913L841 912z"/>
<path style="fill:#cdbee0; stroke:none;" d="M577 913L578 914L577 913z"/>
<path style="fill:#76837d; stroke:none;" d="M839 913L840 914L839 913z"/>
<path style="fill:#cdbee0; stroke:none;" d="M840 913L841 914L840 913M579 914L580 915L579 914z"/>
<path style="fill:#76837d; stroke:none;" d="M837 914L838 915L837 914z"/>
<path style="fill:#cdbee0; stroke:none;" d="M838 914L839 915L838 914M581 915L582 916L581 915z"/>
<path style="fill:#76837d; stroke:none;" d="M582 915L583 916L582 915M835 915L836 916L835 915z"/>
<path style="fill:#cdbee0; stroke:none;" d="M836 915L837 916L836 915M583 916L584 917L583 916z"/>
<path style="fill:#76837d; stroke:none;" d="M584 916L585 917L584 916M833 916L834 917L833 916z"/>
<path style="fill:#cdbee0; stroke:none;" d="M834 916L835 917L834 916M586 917L587 918L586 917z"/>
<path style="fill:#76837d; stroke:none;" d="M831 917L832 918L831 917z"/>
<path style="fill:#cdbee0; stroke:none;" d="M588 918L589 919L588 918z"/>
<path style="fill:#76837d; stroke:none;" d="M589 918L590 919L589 918z"/>
<path style="fill:#cdbee0; stroke:none;" d="M829 918L830 919L829 918M591 919L592 920L591 919z"/>
<path style="fill:#76837d; stroke:none;" d="M826 919L827 920L826 919z"/>
<path style="fill:#cdbee0; stroke:none;" d="M827 919L828 920L827 919M593 920L594 921L593 920z"/>
<path style="fill:#76837d; stroke:none;" d="M594 920L595 921L594 920M824 920L825 921L824 920z"/>
<path style="fill:#cdbee0; stroke:none;" d="M596 921L597 922L596 921z"/>
<path style="fill:#76837d; stroke:none;" d="M821 921L822 922L821 921z"/>
<path style="fill:#cdbee0; stroke:none;" d="M822 921L823 922L822 921M598 922L599 923L598 922z"/>
<path style="fill:#76837d; stroke:none;" d="M599 922L600 923L599 922z"/>
<path style="fill:#cdbee0; stroke:none;" d="M819 922L820 923L819 922M601 923L602 924L601 923z"/>
<path style="fill:#76837d; stroke:none;" d="M602 923L603 924L602 923M816 923L817 924L816 923z"/>
<path style="fill:#cdbee0; stroke:none;" d="M817 923L818 924L817 923M604 924L605 925L604 924z"/>
<path style="fill:#76837d; stroke:none;" d="M605 924L606 925L605 924M813 924L814 925L813 924z"/>
<path style="fill:#cdbee0; stroke:none;" d="M814 924L815 925L814 924M607 925L608 926L607 925z"/>
<path style="fill:#76837d; stroke:none;" d="M608 925L609 926L608 925z"/>
<path style="fill:#cdbee0; stroke:none;" d="M811 925L812 926L811 925M610 926L611 927L610 926z"/>
<path style="fill:#76837d; stroke:none;" d="M611 926L612 927L611 926z"/>
<path style="fill:#cdbee0; stroke:none;" d="M808.667 926.333L809.333 926.667L808.667 926.333M613 927L614 928L613 927z"/>
<path style="fill:#76837d; stroke:none;" d="M614 927L615 928L614 927z"/>
<path style="fill:#cdbee0; stroke:none;" d="M805.667 927.333L806.333 927.667L805.667 927.333M616.667 928.333L617.333 928.667L616.667 928.333z"/>
<path style="fill:#76837d; stroke:none;" d="M801 928L802 929L801 928z"/>
<path style="fill:#cdbee0; stroke:none;" d="M802.667 928.333L803.333 928.667L802.667 928.333M620 929L621 930L620 929z"/>
<path style="fill:#76837d; stroke:none;" d="M621 929L622 930L621 929M797 929L798 930L797 929z"/>
<path style="fill:#cdbee0; stroke:none;" d="M798.667 929.333L799.333 929.667L798.667 929.333M623.667 930.333L624.333 930.667L623.667 930.333z"/>
<path style="fill:#76837d; stroke:none;" d="M793 930L794 931L793 930z"/>
<path style="fill:#cdbee0; stroke:none;" d="M794.667 930.333L795.333 930.667L794.667 930.333M627 931L628 932L627 931z"/>
<path style="fill:#76837d; stroke:none;" d="M628 931L629 932L628 931M789 931L790 932L789 931z"/>
<path style="fill:#cdbee0; stroke:none;" d="M790.667 931.333L791.333 931.667L790.667 931.333M630.667 932.333L631.333 932.667L630.667 932.333z"/>
<path style="fill:#76837d; stroke:none;" d="M632 932L633 933L632 932M785 932L786 933L785 932z"/>
<path style="fill:#cdbee0; stroke:none;" d="M786.667 932.333L787.333 932.667L786.667 932.333M634.667 933.333L635.333 933.667L634.667 933.333z"/>
<path style="fill:#76837d; stroke:none;" d="M636 933L637 934L636 933M781 933L782 934L781 933z"/>
<path style="fill:#cdbee0; stroke:none;" d="M782.667 933.333L783.333 933.667L782.667 933.333M638.667 934.333L639.333 934.667L638.667 934.333z"/>
<path style="fill:#76837d; stroke:none;" d="M640.667 934.333L641.333 934.667L640.667 934.333M776 934L777 935L776 934z"/>
<path style="fill:#cdbee0; stroke:none;" d="M777.667 934.333L778.333 934.667L777.667 934.333M643.667 935.333L644.333 935.667L643.667 935.333z"/>
<path style="fill:#76837d; stroke:none;" d="M645 935L646 936L645 935M771 935L772 936L771 935z"/>
<path style="fill:#cdbee0; stroke:none;" d="M772.667 935.333L773.333 935.667L772.667 935.333M648 936L648 937L651 937L648 936z"/>
<path style="fill:#76837d; stroke:none;" d="M651 936L652 937L651 936M765 936L766 937L765 936z"/>
<path style="fill:#cdbee0; stroke:none;" d="M766 936L766 937L769 937L766 936M654.667 937.333L655.333 937.667L654.667 937.333z"/>
<path style="fill:#76837d; stroke:none;" d="M656.667 937.333L657.333 937.667L656.667 937.333M759 937L760 938L759 937z"/>
<path style="fill:#cdbee0; stroke:none;" d="M760 937L760 938L763 938L760 937M660 938L660 939L663 939L660 938z"/>
<path style="fill:#76837d; stroke:none;" d="M663 938L664 939L663 938M751.667 938.333L752.333 938.667L751.667 938.333z"/>
<path style="fill:#cdbee0; stroke:none;" d="M753 938L753 939L756 939L753 938M667 939L667 940L671 940L667 939z"/>
<path style="fill:#76837d; stroke:none;" d="M671.667 939.333L672.333 939.667L671.667 939.333M741.667 939.333L742.333 939.667L741.667 939.333z"/>
<path style="fill:#cdbee0; stroke:none;" d="M743 939L743 940L747 940L743 939M677 940L677 941L682 941L677 940z"/>
<path style="fill:#76837d; stroke:none;" d="M682 940L682 941L685 941L682 940M727 940L727 941L731 941L727 940z"/>
<path style="fill:#cdbee0; stroke:none;" d="M731 940L731 941L737 941L731 940z"/>
</svg>
