<?xml version="1.0" standalone="yes"?>
<svg xmlns="http://www.w3.org/2000/svg" width="1000" height="1000">
<path style="fill:#010101; stroke:none;" d="M0 0L0 1000L1000 1000L1000 0L0 0z"/>
<path style="fill:#ffffff; stroke:none;" d="M66 100L66 490C77.7511 482.65 87.7139 471.427 98 462.169L159 407.169L339 245.169L450 145.169C465.643 131.09 486.821 117.146 499 100L66 100z"/>
<path style="fill:#bed5c2; stroke:none;" d="M499 100L500 101L499 100z"/>
<path style="fill:#8cb494; stroke:none;" d="M500 100L502 102L500 100z"/>
<path style="fill:#ffffff; stroke:none;" d="M501 100C514.57 118.867 538.514 134.891 556 150.286C590.334 180.514 623.996 211.565 658 242.169L839 405.169C869.897 432.976 899.898 466.261 934 490L934 100L501 100z"/>
<path style="fill:#8cb494; stroke:none;" d="M498 101L495 105L498 101z"/>
<path style="fill:#458551; stroke:none;" d="M68 490L163 490C169.912 490 190.352 486.559 195.397 491.603C199.364 495.571 197 508.731 197 514L197 579L197 838L413 838L413 577L587 577L587 838L804 838L804 490L932 490L901 460.911L831 397.831L607 196.025L528 124.914L509 107.834L500 102.022L490 109.025L469 127.975L389 199.975L167 399.831L105 455.714L68 490z"/>
<path style="fill:#bed5c2; stroke:none;" d="M507 106L508 107L507 106M491 107L492 108L491 107M508 107L509 108L508 107M490 108L491 109L490 108z"/>
<path style="fill:#8cb494; stroke:none;" d="M509 108L510 109L509 108z"/>
<path style="fill:#bed5c2; stroke:none;" d="M489 109L490 110L489 109z"/>
<path style="fill:#8cb494; stroke:none;" d="M510 109L511 110L510 109M488 110L489 111L488 110M487 111L488 112L487 111M486 112L487 113L486 112M485 113L486 114L485 113z"/>
<path style="fill:#bed5c2; stroke:none;" d="M515 113L516 114L515 113M516 114L517 115L516 114M517 115L518 116L517 115M481 116L482 117L481 116z"/>
<path style="fill:#8cb494; stroke:none;" d="M518 116L519 117L518 116z"/>
<path style="fill:#bed5c2; stroke:none;" d="M480 117L481 118L480 117z"/>
<path style="fill:#8cb494; stroke:none;" d="M519 117L520 118L519 117z"/>
<path style="fill:#bed5c2; stroke:none;" d="M479 118L480 119L479 118z"/>
<path style="fill:#8cb494; stroke:none;" d="M520 118L521 119L520 118M478 119L479 120L478 119M477 120L478 121L477 120M476 121L477 122L476 121M475 122L476 123L475 122z"/>
<path style="fill:#bed5c2; stroke:none;" d="M525 122L526 123L525 122M526 123L527 124L526 123M527 124L528 125L527 124M471 125L472 126L471 125z"/>
<path style="fill:#8cb494; stroke:none;" d="M528 125L529 126L528 125z"/>
<path style="fill:#bed5c2; stroke:none;" d="M470 126L471 127L470 126z"/>
<path style="fill:#8cb494; stroke:none;" d="M529 126L530 127L529 126z"/>
<path style="fill:#bed5c2; stroke:none;" d="M469 127L470 128L469 127z"/>
<path style="fill:#8cb494; stroke:none;" d="M530 127L531 128L530 127M468 128L469 129L468 128M467 129L468 130L467 129M466 130L467 131L466 130M465 131L466 132L465 131z"/>
<path style="fill:#bed5c2; stroke:none;" d="M535 131L536 132L535 131M536 132L537 133L536 132M537 133L538 134L537 133M461 134L462 135L461 134z"/>
<path style="fill:#8cb494; stroke:none;" d="M538 134L539 135L538 134z"/>
<path style="fill:#bed5c2; stroke:none;" d="M460 135L461 136L460 135z"/>
<path style="fill:#8cb494; stroke:none;" d="M539 135L540 136L539 135z"/>
<path style="fill:#bed5c2; stroke:none;" d="M459 136L460 137L459 136z"/>
<path style="fill:#8cb494; stroke:none;" d="M540 136L541 137L540 136M458 137L459 138L458 137M541 137L542 138L541 137M457 138L458 139L457 138M456 139L457 140L456 139M455 140L456 141L455 140z"/>
<path style="fill:#bed5c2; stroke:none;" d="M545 140L546 141L545 140M546 141L547 142L546 141M547 142L548 143L547 142M451 143L452 144L451 143z"/>
<path style="fill:#8cb494; stroke:none;" d="M548 143L549 144L548 143z"/>
<path style="fill:#bed5c2; stroke:none;" d="M450 144L451 145L450 144z"/>
<path style="fill:#8cb494; stroke:none;" d="M549 144L550 145L549 144z"/>
<path style="fill:#bed5c2; stroke:none;" d="M449 145L450 146L449 145z"/>
<path style="fill:#8cb494; stroke:none;" d="M550 145L551 146L550 145M448 146L449 147L448 146M551 146L552 147L551 146M447 147L448 148L447 147M446 148L447 149L446 148M445 149L446 150L445 149z"/>
<path style="fill:#bed5c2; stroke:none;" d="M555 149L556 150L555 149M556 150L557 151L556 150M557 151L558 152L557 151M441 152L442 153L441 152z"/>
<path style="fill:#8cb494; stroke:none;" d="M558 152L559 153L558 152z"/>
<path style="fill:#bed5c2; stroke:none;" d="M440 153L441 154L440 153z"/>
<path style="fill:#8cb494; stroke:none;" d="M559 153L560 154L559 153z"/>
<path style="fill:#bed5c2; stroke:none;" d="M439 154L440 155L439 154z"/>
<path style="fill:#8cb494; stroke:none;" d="M560 154L561 155L560 154M438 155L439 156L438 155M561 155L562 156L561 155M437 156L438 157L437 156M436 157L437 158L436 157M435 158L436 159L435 158z"/>
<path style="fill:#bed5c2; stroke:none;" d="M565 158L566 159L565 158M566 159L567 160L566 159M567 160L568 161L567 160M431 161L432 162L431 161z"/>
<path style="fill:#8cb494; stroke:none;" d="M568 161L569 162L568 161z"/>
<path style="fill:#bed5c2; stroke:none;" d="M430 162L431 163L430 162z"/>
<path style="fill:#8cb494; stroke:none;" d="M569 162L570 163L569 162z"/>
<path style="fill:#bed5c2; stroke:none;" d="M429 163L430 164L429 163z"/>
<path style="fill:#8cb494; stroke:none;" d="M570 163L571 164L570 163M428 164L429 165L428 164M571 164L572 165L571 164M427 165L428 166L427 165M426 166L427 167L426 166M425 167L426 168L425 167z"/>
<path style="fill:#bed5c2; stroke:none;" d="M575 167L576 168L575 167M576 168L577 169L576 168M577 169L578 170L577 169M421 170L422 171L421 170z"/>
<path style="fill:#8cb494; stroke:none;" d="M578 170L579 171L578 170z"/>
<path style="fill:#bed5c2; stroke:none;" d="M420 171L421 172L420 171z"/>
<path style="fill:#8cb494; stroke:none;" d="M579 171L580 172L579 171z"/>
<path style="fill:#bed5c2; stroke:none;" d="M419 172L420 173L419 172z"/>
<path style="fill:#8cb494; stroke:none;" d="M580 172L581 173L580 172M418 173L419 174L418 173M581 173L582 174L581 173M417 174L418 175L417 174M416 175L417 176L416 175M415 176L416 177L415 176z"/>
<path style="fill:#bed5c2; stroke:none;" d="M586 177L587 178L586 177M587 178L588 179L587 178M411 179L412 180L411 179z"/>
<path style="fill:#8cb494; stroke:none;" d="M588 179L589 180L588 179z"/>
<path style="fill:#bed5c2; stroke:none;" d="M410 180L411 181L410 180z"/>
<path style="fill:#8cb494; stroke:none;" d="M589 180L590 181L589 180z"/>
<path style="fill:#bed5c2; stroke:none;" d="M409 181L410 182L409 181z"/>
<path style="fill:#8cb494; stroke:none;" d="M590 181L591 182L590 181M408 182L409 183L408 182M591 182L592 183L591 182M407 183L408 184L407 183M406 184L407 185L406 184M405 185L406 186L405 185z"/>
<path style="fill:#bed5c2; stroke:none;" d="M596 186L597 187L596 186M597 187L598 188L597 187M401 188L402 189L401 188z"/>
<path style="fill:#8cb494; stroke:none;" d="M598 188L599 189L598 188z"/>
<path style="fill:#bed5c2; stroke:none;" d="M400 189L401 190L400 189z"/>
<path style="fill:#8cb494; stroke:none;" d="M599 189L600 190L599 189z"/>
<path style="fill:#bed5c2; stroke:none;" d="M399 190L400 191L399 190z"/>
<path style="fill:#8cb494; stroke:none;" d="M600 190L601 191L600 190M398 191L399 192L398 191M601 191L602 192L601 191M397 192L398 193L397 192M396 193L397 194L396 193M395 194L396 195L395 194z"/>
<path style="fill:#bed5c2; stroke:none;" d="M606 195L607 196L606 195M607 196L608 197L607 196M608 197L609 198L608 197M390 198L391 199L390 198z"/>
<path style="fill:#8cb494; stroke:none;" d="M609 198L610 199L609 198z"/>
<path style="fill:#bed5c2; stroke:none;" d="M389 199L390 200L389 199z"/>
<path style="fill:#8cb494; stroke:none;" d="M610 199L611 200L610 199M388 200L389 201L388 200M611 200L612 201L611 200M387 201L388 202L387 201M386 202L387 203L386 202M385 203L386 204L385 203z"/>
<path style="fill:#bed5c2; stroke:none;" d="M616 204L617 205L616 204M617 205L618 206L617 205M618 206L619 207L618 206M380 207L381 208L380 207z"/>
<path style="fill:#8cb494; stroke:none;" d="M619 207L620 208L619 207z"/>
<path style="fill:#bed5c2; stroke:none;" d="M379 208L380 209L379 208z"/>
<path style="fill:#8cb494; stroke:none;" d="M620 208L621 209L620 208M378 209L379 210L378 209M621 209L622 210L621 209M377 210L378 211L377 210M376 211L377 212L376 211M375 212L376 213L375 212z"/>
<path style="fill:#bed5c2; stroke:none;" d="M626 213L627 214L626 213M627 214L628 215L627 214M628 215L629 216L628 215M370 216L371 217L370 216z"/>
<path style="fill:#8cb494; stroke:none;" d="M629 216L630 217L629 216z"/>
<path style="fill:#bed5c2; stroke:none;" d="M369 217L370 218L369 217z"/>
<path style="fill:#8cb494; stroke:none;" d="M630 217L631 218L630 217M368 218L369 219L368 218M631 218L632 219L631 218M367 219L368 220L367 219M366 220L367 221L366 220M365 221L366 222L365 221z"/>
<path style="fill:#bed5c2; stroke:none;" d="M636 222L637 223L636 222M637 223L638 224L637 223M638 224L639 225L638 224M360 225L361 226L360 225z"/>
<path style="fill:#8cb494; stroke:none;" d="M639 225L640 226L639 225z"/>
<path style="fill:#bed5c2; stroke:none;" d="M359 226L360 227L359 226z"/>
<path style="fill:#8cb494; stroke:none;" d="M640 226L641 227L640 226M358 227L359 228L358 227M641 227L642 228L641 227M357 228L358 229L357 228M356 229L357 230L356 229M355 230L356 231L355 230z"/>
<path style="fill:#bed5c2; stroke:none;" d="M646 231L647 232L646 231M647 232L648 233L647 232M648 233L649 234L648 233M350 234L351 235L350 234z"/>
<path style="fill:#8cb494; stroke:none;" d="M649 234L650 235L649 234z"/>
<path style="fill:#bed5c2; stroke:none;" d="M349 235L350 236L349 235z"/>
<path style="fill:#8cb494; stroke:none;" d="M650 235L651 236L650 235M348 236L349 237L348 236M651 236L652 237L651 236M347 237L348 238L347 237M346 238L347 239L346 238M345 239L346 240L345 239z"/>
<path style="fill:#bed5c2; stroke:none;" d="M656 240L657 241L656 240M657 241L658 242L657 241M658 242L659 243L658 242M340 243L341 244L340 243z"/>
<path style="fill:#8cb494; stroke:none;" d="M659 243L660 244L659 243z"/>
<path style="fill:#bed5c2; stroke:none;" d="M339 244L340 245L339 244z"/>
<path style="fill:#8cb494; stroke:none;" d="M660 244L661 245L660 244M338 245L339 246L338 245M661 245L662 246L661 245M337 246L338 247L337 246M336 247L337 248L336 247M335 248L336 249L335 248z"/>
<path style="fill:#bed5c2; stroke:none;" d="M666 249L667 250L666 249M667 250L668 251L667 250M668 251L669 252L668 251M330 252L331 253L330 252z"/>
<path style="fill:#8cb494; stroke:none;" d="M669 252L670 253L669 252z"/>
<path style="fill:#bed5c2; stroke:none;" d="M329 253L330 254L329 253z"/>
<path style="fill:#8cb494; stroke:none;" d="M670 253L671 254L670 253z"/>
<path style="fill:#bed5c2; stroke:none;" d="M328 254L329 255L328 254z"/>
<path style="fill:#8cb494; stroke:none;" d="M671 254L672 255L671 254M327 255L328 256L327 255M672 255L673 256L672 255M326 256L327 257L326 256M325 257L326 258L325 257z"/>
<path style="fill:#bed5c2; stroke:none;" d="M676 258L677 259L676 258M677 259L678 260L677 259M678 260L679 261L678 260M320 261L321 262L320 261z"/>
<path style="fill:#8cb494; stroke:none;" d="M679 261L680 262L679 261z"/>
<path style="fill:#bed5c2; stroke:none;" d="M319 262L320 263L319 262z"/>
<path style="fill:#8cb494; stroke:none;" d="M680 262L681 263L680 262M318 263L319 264L318 263M681 263L682 264L681 263M317 264L318 265L317 264M682 264L683 265L682 264M316 265L317 266L316 265M315 266L316 267L315 266z"/>
<path style="fill:#bed5c2; stroke:none;" d="M686 267L687 268L686 267M687 268L688 269L687 268M688 269L689 270L688 269M310 270L311 271L310 270z"/>
<path style="fill:#8cb494; stroke:none;" d="M689 270L690 271L689 270z"/>
<path style="fill:#bed5c2; stroke:none;" d="M309 271L310 272L309 271z"/>
<path style="fill:#8cb494; stroke:none;" d="M690 271L691 272L690 271M308 272L309 273L308 272M691 272L692 273L691 272M307 273L308 274L307 273M306 274L307 275L306 274M305 275L306 276L305 275z"/>
<path style="fill:#bed5c2; stroke:none;" d="M696 276L697 277L696 276M697 277L698 278L697 277M301 278L302 279L301 278M698 278L699 279L698 278M300 279L301 280L300 279z"/>
<path style="fill:#8cb494; stroke:none;" d="M699 279L700 280L699 279z"/>
<path style="fill:#bed5c2; stroke:none;" d="M299 280L300 281L299 280z"/>
<path style="fill:#8cb494; stroke:none;" d="M700 280L701 281L700 280M298 281L299 282L298 281M701 281L702 282L701 281M297 282L298 283L297 282M296 283L297 284L296 283M295 284L296 285L295 284z"/>
<path style="fill:#bed5c2; stroke:none;" d="M706 285L707 286L706 285M707 286L708 287L707 286M291 287L292 288L291 287M708 287L709 288L708 287M290 288L291 289L290 288z"/>
<path style="fill:#8cb494; stroke:none;" d="M709 288L710 289L709 288z"/>
<path style="fill:#bed5c2; stroke:none;" d="M289 289L290 290L289 289z"/>
<path style="fill:#8cb494; stroke:none;" d="M710 289L711 290L710 289M288 290L289 291L288 290M711 290L712 291L711 290M287 291L288 292L287 291M286 292L287 293L286 292M285 293L286 294L285 293z"/>
<path style="fill:#bed5c2; stroke:none;" d="M716 294L717 295L716 294M717 295L718 296L717 295M281 296L282 297L281 296M718 296L719 297L718 296M280 297L281 298L280 297z"/>
<path style="fill:#8cb494; stroke:none;" d="M719 297L720 298L719 297z"/>
<path style="fill:#bed5c2; stroke:none;" d="M279 298L280 299L279 298z"/>
<path style="fill:#8cb494; stroke:none;" d="M720 298L721 299L720 298M278 299L279 300L278 299M721 299L722 300L721 299M277 300L278 301L277 300M276 301L277 302L276 301M275 302L276 303L275 302z"/>
<path style="fill:#bed5c2; stroke:none;" d="M726 303L727 304L726 303M727 304L728 305L727 304M271 305L272 306L271 305M728 305L729 306L728 305M270 306L271 307L270 306z"/>
<path style="fill:#8cb494; stroke:none;" d="M729 306L730 307L729 306z"/>
<path style="fill:#bed5c2; stroke:none;" d="M269 307L270 308L269 307z"/>
<path style="fill:#8cb494; stroke:none;" d="M730 307L731 308L730 307M268 308L269 309L268 308M731 308L732 309L731 308M267 309L268 310L267 309M266 310L267 311L266 310z"/>
<path style="fill:#bed5c2; stroke:none;" d="M736 312L737 313L736 312M737 313L738 314L737 313M261 314L262 315L261 314M738 314L739 315L738 314M260 315L261 316L260 315z"/>
<path style="fill:#8cb494; stroke:none;" d="M739 315L740 316L739 315z"/>
<path style="fill:#bed5c2; stroke:none;" d="M259 316L260 317L259 316z"/>
<path style="fill:#8cb494; stroke:none;" d="M740 316L741 317L740 316M258 317L259 318L258 317M741 317L742 318L741 317M257 318L258 319L257 318M256 319L257 320L256 319z"/>
<path style="fill:#bed5c2; stroke:none;" d="M746 321L747 322L746 321M747 322L748 323L747 322M748 323L749 324L748 323M250 324L251 325L250 324z"/>
<path style="fill:#8cb494; stroke:none;" d="M749 324L750 325L749 324z"/>
<path style="fill:#bed5c2; stroke:none;" d="M249 325L250 326L249 325z"/>
<path style="fill:#8cb494; stroke:none;" d="M750 325L751 326L750 325M248 326L249 327L248 326M751 326L752 327L751 326M247 327L248 328L247 327M246 328L247 329L246 328M245 329L246 330L245 329z"/>
<path style="fill:#bed5c2; stroke:none;" d="M756 330L757 331L756 330M757 331L758 332L757 331M758 332L759 333L758 332M240 333L241 334L240 333z"/>
<path style="fill:#8cb494; stroke:none;" d="M759 333L760 334L759 333z"/>
<path style="fill:#bed5c2; stroke:none;" d="M239 334L240 335L239 334z"/>
<path style="fill:#8cb494; stroke:none;" d="M760 334L761 335L760 334M238 335L239 336L238 335M761 335L762 336L761 335M237 336L238 337L237 336M236 337L237 338L236 337M235 338L236 339L235 338z"/>
<path style="fill:#bed5c2; stroke:none;" d="M766 339L767 340L766 339M767 340L768 341L767 340M768 341L769 342L768 341M230 342L231 343L230 342z"/>
<path style="fill:#8cb494; stroke:none;" d="M769 342L770 343L769 342z"/>
<path style="fill:#bed5c2; stroke:none;" d="M229 343L230 344L229 343z"/>
<path style="fill:#8cb494; stroke:none;" d="M770 343L771 344L770 343M228 344L229 345L228 344M771 344L772 345L771 344M227 345L228 346L227 345M772 345L773 346L772 345M226 346L227 347L226 346M225 347L226 348L225 347z"/>
<path style="fill:#bed5c2; stroke:none;" d="M777 349L778 350L777 349M778 350L779 351L778 350M220 351L221 352L220 351z"/>
<path style="fill:#8cb494; stroke:none;" d="M779 351L780 352L779 351z"/>
<path style="fill:#bed5c2; stroke:none;" d="M219 352L220 353L219 352z"/>
<path style="fill:#8cb494; stroke:none;" d="M780 352L781 353L780 352z"/>
<path style="fill:#bed5c2; stroke:none;" d="M218 353L219 354L218 353z"/>
<path style="fill:#8cb494; stroke:none;" d="M781 353L782 354L781 353M217 354L218 355L217 354M782 354L783 355L782 354M216 355L217 356L216 355M215 356L216 357L215 356z"/>
<path style="fill:#bed5c2; stroke:none;" d="M787 358L788 359L787 358M788 359L789 360L788 359M210 360L211 361L210 360z"/>
<path style="fill:#8cb494; stroke:none;" d="M789 360L790 361L789 360z"/>
<path style="fill:#bed5c2; stroke:none;" d="M209 361L210 362L209 361z"/>
<path style="fill:#8cb494; stroke:none;" d="M790 361L791 362L790 361z"/>
<path style="fill:#bed5c2; stroke:none;" d="M208 362L209 363L208 362z"/>
<path style="fill:#8cb494; stroke:none;" d="M791 362L792 363L791 362M207 363L208 364L207 363M792 363L793 364L792 363M206 364L207 365L206 364M205 365L206 366L205 365z"/>
<path style="fill:#bed5c2; stroke:none;" d="M797 367L798 368L797 367M798 368L799 369L798 368M200 369L201 370L200 369z"/>
<path style="fill:#8cb494; stroke:none;" d="M799 369L800 370L799 369z"/>
<path style="fill:#bed5c2; stroke:none;" d="M199 370L200 371L199 370z"/>
<path style="fill:#8cb494; stroke:none;" d="M800 370L801 371L800 370z"/>
<path style="fill:#bed5c2; stroke:none;" d="M198 371L199 372L198 371z"/>
<path style="fill:#8cb494; stroke:none;" d="M801 371L802 372L801 371M197 372L198 373L197 372M802 372L803 373L802 372M196 373L197 374L196 373M195 374L196 375L195 374z"/>
<path style="fill:#bed5c2; stroke:none;" d="M807 376L808 377L807 376M808 377L809 378L808 377M190 378L191 379L190 378M809 378L810 379L809 378M189 379L190 380L189 379z"/>
<path style="fill:#8cb494; stroke:none;" d="M810 379L811 380L810 379z"/>
<path style="fill:#bed5c2; stroke:none;" d="M188 380L189 381L188 380z"/>
<path style="fill:#8cb494; stroke:none;" d="M811 380L812 381L811 380M187 381L188 382L187 381M812 381L813 382L812 381M186 382L187 383L186 382M185 383L186 384L185 383z"/>
<path style="fill:#bed5c2; stroke:none;" d="M817 385L818 386L817 385M818 386L819 387L818 386M180 387L181 388L180 387M819 387L820 388L819 387M179 388L180 389L179 388z"/>
<path style="fill:#8cb494; stroke:none;" d="M820 388L821 389L820 388z"/>
<path style="fill:#bed5c2; stroke:none;" d="M178 389L179 390L178 389z"/>
<path style="fill:#8cb494; stroke:none;" d="M821 389L822 390L821 389M177 390L178 391L177 390M822 390L823 391L822 390M176 391L177 392L176 391M175 392L176 393L175 392z"/>
<path style="fill:#bed5c2; stroke:none;" d="M827 394L828 395L827 394M828 395L829 396L828 395M170 396L171 397L170 396M829 396L830 397L829 396M169 397L170 398L169 397z"/>
<path style="fill:#8cb494; stroke:none;" d="M830 397L831 398L830 397z"/>
<path style="fill:#bed5c2; stroke:none;" d="M168 398L169 399L168 398z"/>
<path style="fill:#8cb494; stroke:none;" d="M831 398L832 399L831 398M167 399L168 400L167 399M832 399L833 400L832 399M166 400L167 401L166 400M165 401L166 402L165 401z"/>
<path style="fill:#bed5c2; stroke:none;" d="M837 403L838 404L837 403M838 404L839 405L838 404M160 405L161 406L160 405M839 405L840 406L839 405M159 406L160 407L159 406z"/>
<path style="fill:#8cb494; stroke:none;" d="M840 406L841 407L840 406z"/>
<path style="fill:#bed5c2; stroke:none;" d="M158 407L159 408L158 407z"/>
<path style="fill:#8cb494; stroke:none;" d="M841 407L842 408L841 407M157 408L158 409L157 408M842 408L843 409L842 408M156 409L157 410L156 409M155 410L156 411L155 410z"/>
<path style="fill:#bed5c2; stroke:none;" d="M847 412L848 413L847 412M848 413L849 414L848 413M150 414L151 415L150 414M849 414L850 415L849 414M149 415L150 416L149 415z"/>
<path style="fill:#8cb494; stroke:none;" d="M850 415L851 416L850 415z"/>
<path style="fill:#bed5c2; stroke:none;" d="M148 416L149 417L148 416z"/>
<path style="fill:#8cb494; stroke:none;" d="M851 416L852 417L851 416M147 417L148 418L147 417M852 417L853 418L852 417M146 418L147 419L146 418M145 419L146 420L145 419M144 420L145 421L144 420z"/>
<path style="fill:#bed5c2; stroke:none;" d="M857 421L858 422L857 421M858 422L859 423L858 422M140 423L141 424L140 423M859 423L860 424L859 423M139 424L140 425L139 424z"/>
<path style="fill:#8cb494; stroke:none;" d="M860 424L861 425L860 424z"/>
<path style="fill:#bed5c2; stroke:none;" d="M138 425L139 426L138 425z"/>
<path style="fill:#8cb494; stroke:none;" d="M861 425L862 426L861 425M137 426L138 427L137 426M862 426L863 427L862 426M136 427L137 428L136 427M135 428L136 429L135 428M134 429L135 430L134 429z"/>
<path style="fill:#bed5c2; stroke:none;" d="M867 430L868 431L867 430M868 431L869 432L868 431M130 432L131 433L130 432M869 432L870 433L869 432M129 433L130 434L129 433z"/>
<path style="fill:#8cb494; stroke:none;" d="M870 433L871 434L870 433z"/>
<path style="fill:#bed5c2; stroke:none;" d="M128 434L129 435L128 434z"/>
<path style="fill:#8cb494; stroke:none;" d="M871 434L872 435L871 434M127 435L128 436L127 435M872 435L873 436L872 435M126 436L127 437L126 436M125 437L126 438L125 437M124 438L125 439L124 438z"/>
<path style="fill:#bed5c2; stroke:none;" d="M877 439L878 440L877 439M878 440L879 441L878 440M120 441L121 442L120 441M879 441L880 442L879 441M119 442L120 443L119 442z"/>
<path style="fill:#8cb494; stroke:none;" d="M880 442L881 443L880 442z"/>
<path style="fill:#bed5c2; stroke:none;" d="M118 443L119 444L118 443z"/>
<path style="fill:#8cb494; stroke:none;" d="M881 443L882 444L881 443M117 444L118 445L117 444M882 444L883 445L882 444M116 445L117 446L116 445M115 446L116 447L115 446M114 447L115 448L114 447z"/>
<path style="fill:#bed5c2; stroke:none;" d="M887 448L888 449L887 448M888 449L889 450L888 449M110 450L111 451L110 450M889 450L890 451L889 450M109 451L110 452L109 451z"/>
<path style="fill:#8cb494; stroke:none;" d="M890 451L891 452L890 451z"/>
<path style="fill:#bed5c2; stroke:none;" d="M108 452L109 453L108 452z"/>
<path style="fill:#8cb494; stroke:none;" d="M891 452L892 453L891 452M107 453L108 454L107 453M892 453L893 454L892 453M106 454L107 455L106 454M105 455L106 456L105 455M104 456L105 457L104 456z"/>
<path style="fill:#bed5c2; stroke:none;" d="M897 457L898 458L897 457M898 458L899 459L898 458M899 459L900 460L899 459M99 460L100 461L99 460z"/>
<path style="fill:#8cb494; stroke:none;" d="M900 460L901 461L900 460z"/>
<path style="fill:#bed5c2; stroke:none;" d="M98 461L99 462L98 461z"/>
<path style="fill:#8cb494; stroke:none;" d="M901 461L902 462L901 461M97 462L98 463L97 462M902 462L903 463L902 462M96 463L97 464L96 463M903 463L904 464L903 463M95 464L96 465L95 464M94 465L95 466L94 465z"/>
<path style="fill:#bed5c2; stroke:none;" d="M907 466L908 467L907 466M908 467L909 468L908 467M909 468L910 469L909 468M89 469L90 470L89 469z"/>
<path style="fill:#8cb494; stroke:none;" d="M910 469L911 470L910 469z"/>
<path style="fill:#bed5c2; stroke:none;" d="M88 470L89 471L88 470z"/>
<path style="fill:#8cb494; stroke:none;" d="M911 470L912 471L911 470M87 471L88 472L87 471M912 471L913 472L912 471M86 472L87 473L86 472M913 472L914 473L913 472M85 473L86 474L85 473M84 474L85 475L84 474z"/>
<path style="fill:#bed5c2; stroke:none;" d="M917 475L918 476L917 475M918 476L919 477L918 476M919 477L920 478L919 477M79 478L80 479L79 478z"/>
<path style="fill:#8cb494; stroke:none;" d="M920 478L921 479L920 478z"/>
<path style="fill:#bed5c2; stroke:none;" d="M78 479L79 480L78 479z"/>
<path style="fill:#8cb494; stroke:none;" d="M921 479L922 480L921 479z"/>
<path style="fill:#bed5c2; stroke:none;" d="M77 480L78 481L77 480z"/>
<path style="fill:#8cb494; stroke:none;" d="M922 480L923 481L922 480M76 481L77 482L76 481M923 481L924 482L923 481M75 482L76 483L75 482M74 483L75 484L74 483z"/>
<path style="fill:#bed5c2; stroke:none;" d="M927 484L928 485L927 484M928 485L929 486L928 485M929 486L930 487L929 486M69 487L70 488L69 487z"/>
<path style="fill:#8cb494; stroke:none;" d="M930 487L931 488L930 487z"/>
<path style="fill:#bed5c2; stroke:none;" d="M68 488L69 489L68 488z"/>
<path style="fill:#8cb494; stroke:none;" d="M931 488L932 489L931 488z"/>
<path style="fill:#bed5c2; stroke:none;" d="M67 489L66 491L67 489z"/>
<path style="fill:#8cb494; stroke:none;" d="M804 490L804 491L934 491C926.12 486.444 907.286 490 898 490L804 490M67 490L67 491L196 491L196 838C198.802 831.322 197 821.216 197 814L197 760L197 572L197 512C197 507.474 199.254 494.083 195.397 491.028C189.596 486.434 169.348 490 162 490L67 490z"/>
<path style="fill:#ffffff; stroke:none;" d="M66 491L66 838L196 838L196 491L66 491M804 491L804 838L934 838L934 491L804 491z"/>
<path style="fill:#8cb494; stroke:none;" d="M413 577L413 578L587 578L570 577L535 577L413 577z"/>
<path style="fill:#bed5c2; stroke:none;" d="M413 578L413 838L414 838L414 655L414 602L413 578z"/>
<path style="fill:#ffffff; stroke:none;" d="M414 578L414 838L587 838L587 578L414 578z"/>
</svg>
