<?xml version="1.0" standalone="yes"?>
<svg xmlns="http://www.w3.org/2000/svg" width="1000" height="1000">
<path style="fill:#010101; stroke:none;" d="M0 0L0 1000L1000 1000L1000 0L0 0z"/>
<path style="fill:#ffffff; stroke:none;" d="M141 141L141 473L142 473C142.004 436.822 153.298 398.181 166.989 365C206.983 268.073 289.314 189.264 390 157.974C417.223 149.515 446.319 142 475 142L445 141L377 141L141 141z"/>
<path style="fill:#bdd4c1; stroke:none;" d="M475 141L475 142L479 142L475 141z"/>
<path style="fill:#89b190; stroke:none;" d="M479 141L479 142L485 142L479 141z"/>
<path style="fill:#458551; stroke:none;" d="M485 141.424C461.074 144.566 437.651 145.563 414 151.475C345.89 168.503 284.014 204.549 236.09 256C206.752 287.496 184.164 324.437 167.576 364C96.2368 534.137 173.767 737.067 337 820.741C402.661 854.399 478.255 865.284 551 855.718C717.327 833.848 851.613 687.796 858.961 520C866.461 348.701 751.284 188.653 582 150.349C551.47 143.442 516.334 137.31 485 141.424z"/>
<path style="fill:#89b190; stroke:none;" d="M520 141L520 142L524 142L520 141z"/>
<path style="fill:#bdd4c1; stroke:none;" d="M524 141L524 142L527 142L524 141z"/>
<path style="fill:#ffffff; stroke:none;" d="M527 141L527 142C559.468 142 592.671 151.477 623 162.308C759.531 211.066 859 347.444 859 493L860 493L860 141L527 141z"/>
<path style="fill:#bdd4c1; stroke:none;" d="M463.667 142.333L464.333 142.667L463.667 142.333z"/>
<path style="fill:#89b190; stroke:none;" d="M465 142L465 143L469 143L465 142M532 142L532 143L536 143L532 142z"/>
<path style="fill:#bdd4c1; stroke:none;" d="M536 142L536 143L539 143L536 142M454.667 143.333L455.333 143.667L454.667 143.333z"/>
<path style="fill:#89b190; stroke:none;" d="M456 143L456 144L459 144L456 143M542 143L542 144L545 144L542 143z"/>
<path style="fill:#bdd4c1; stroke:none;" d="M545.667 143.333L546.333 143.667L545.667 143.333M446.667 144.333L447.333 144.667L446.667 144.333z"/>
<path style="fill:#89b190; stroke:none;" d="M448.667 144.333L449.333 144.667L448.667 144.333M550 144L550 145L553 145L550 144z"/>
<path style="fill:#bdd4c1; stroke:none;" d="M553.667 144.333L554.333 144.667L553.667 144.333M440.667 145.333L441.333 145.667L440.667 145.333z"/>
<path style="fill:#89b190; stroke:none;" d="M442.667 145.333L443.333 145.667L442.667 145.333M557.667 145.333L558.333 145.667L557.667 145.333z"/>
<path style="fill:#bdd4c1; stroke:none;" d="M559.667 145.333L560.333 145.667L559.667 145.333M435 146L436 147L435 146z"/>
<path style="fill:#89b190; stroke:none;" d="M436.667 146.333L437.333 146.667L436.667 146.333M563.667 146.333L564.333 146.667L563.667 146.333z"/>
<path style="fill:#bdd4c1; stroke:none;" d="M565 146L566 147L565 146M429.667 147.333L430.333 147.667L429.667 147.333z"/>
<path style="fill:#89b190; stroke:none;" d="M431 147L432 148L431 147M568.667 147.333L569.333 147.667L568.667 147.333z"/>
<path style="fill:#bdd4c1; stroke:none;" d="M570.667 147.333L571.333 147.667L570.667 147.333M425 148L426 149L425 148z"/>
<path style="fill:#89b190; stroke:none;" d="M426.667 148.333L427.333 148.667L426.667 148.333M573.667 148.333L574.333 148.667L573.667 148.333z"/>
<path style="fill:#bdd4c1; stroke:none;" d="M575 148L576 149L575 148M420.667 149.333L421.333 149.667L420.667 149.333z"/>
<path style="fill:#89b190; stroke:none;" d="M422 149L423 150L422 149M578 149L579 150L578 149z"/>
<path style="fill:#bdd4c1; stroke:none;" d="M579.667 149.333L580.333 149.667L579.667 149.333M416 150L417 151L416 150z"/>
<path style="fill:#89b190; stroke:none;" d="M417.667 150.333L418.333 150.667L417.667 150.333M582.667 150.333L583.333 150.667L582.667 150.333z"/>
<path style="fill:#bdd4c1; stroke:none;" d="M584 150L585 151L584 150M412 151L413 152L412 151z"/>
<path style="fill:#89b190; stroke:none;" d="M413 151L414 152L413 151M587 151L588 152L587 151z"/>
<path style="fill:#bdd4c1; stroke:none;" d="M588 151L589 152L588 151M408 152L409 153L408 152z"/>
<path style="fill:#89b190; stroke:none;" d="M409.667 152.333L410.333 152.667L409.667 152.333M591 152L592 153L591 152z"/>
<path style="fill:#bdd4c1; stroke:none;" d="M592 152L593 153L592 152M405 153L406 154L405 153z"/>
<path style="fill:#89b190; stroke:none;" d="M406 153L407 154L406 153M595 153L596 154L595 153z"/>
<path style="fill:#bdd4c1; stroke:none;" d="M596 153L597 154L596 153M401 154L402 155L401 154z"/>
<path style="fill:#89b190; stroke:none;" d="M402 154L403 155L402 154M598 154L599 155L598 154z"/>
<path style="fill:#bdd4c1; stroke:none;" d="M599 154L600 155L599 154M397 155L398 156L397 155z"/>
<path style="fill:#89b190; stroke:none;" d="M398.667 155.333L399.333 155.667L398.667 155.333M602 155L603 156L602 155z"/>
<path style="fill:#bdd4c1; stroke:none;" d="M603 155L604 156L603 155M394 156L395 157L394 156z"/>
<path style="fill:#89b190; stroke:none;" d="M395 156L396 157L395 156M605 156L606 157L605 156z"/>
<path style="fill:#bdd4c1; stroke:none;" d="M606 156L607 157L606 156M391 157L392 158L391 157z"/>
<path style="fill:#89b190; stroke:none;" d="M392 157L393 158L392 157M608 157L609 158L608 157z"/>
<path style="fill:#bdd4c1; stroke:none;" d="M609 157L610 158L609 157M388 158L389 159L388 158z"/>
<path style="fill:#89b190; stroke:none;" d="M389 158L390 159L389 158M611 158L612 159L611 158z"/>
<path style="fill:#bdd4c1; stroke:none;" d="M612 158L613 159L612 158M384 159L385 160L384 159z"/>
<path style="fill:#89b190; stroke:none;" d="M385 159L386 160L385 159M614 159L615 160L614 159z"/>
<path style="fill:#bdd4c1; stroke:none;" d="M615 159L616 160L615 159M381 160L382 161L381 160z"/>
<path style="fill:#89b190; stroke:none;" d="M382 160L383 161L382 160M617 160L618 161L617 160z"/>
<path style="fill:#bdd4c1; stroke:none;" d="M618 160L619 161L618 160z"/>
<path style="fill:#89b190; stroke:none;" d="M379 161L380 162L379 161M620 161L621 162L620 161z"/>
<path style="fill:#bdd4c1; stroke:none;" d="M376 162L377 163L376 162z"/>
<path style="fill:#89b190; stroke:none;" d="M377 162L378 163L377 162M623 162L624 163L623 162z"/>
<path style="fill:#bdd4c1; stroke:none;" d="M373 163L374 164L373 163z"/>
<path style="fill:#89b190; stroke:none;" d="M374 163L375 164L374 163M625 163L626 164L625 163z"/>
<path style="fill:#bdd4c1; stroke:none;" d="M626 163L627 164L626 163z"/>
<path style="fill:#89b190; stroke:none;" d="M371 164L372 165L371 164M628 164L629 165L628 164z"/>
<path style="fill:#bdd4c1; stroke:none;" d="M629 164L630 165L629 164M368 165L369 166L368 165z"/>
<path style="fill:#89b190; stroke:none;" d="M369 165L370 166L369 165z"/>
<path style="fill:#bdd4c1; stroke:none;" d="M631 165L632 166L631 165M365 166L366 167L365 166z"/>
<path style="fill:#89b190; stroke:none;" d="M366 166L367 167L366 166M633 166L634 167L633 166z"/>
<path style="fill:#bdd4c1; stroke:none;" d="M634 166L635 167L634 166M363 167L364 168L363 167z"/>
<path style="fill:#89b190; stroke:none;" d="M364 167L365 168L364 167z"/>
<path style="fill:#bdd4c1; stroke:none;" d="M636 167L637 168L636 167M361 168L362 169L361 168z"/>
<path style="fill:#89b190; stroke:none;" d="M638 168L639 169L638 168z"/>
<path style="fill:#bdd4c1; stroke:none;" d="M639 168L640 169L639 168z"/>
<path style="fill:#89b190; stroke:none;" d="M359 169L360 170L359 169M641 169L642 170L641 169z"/>
<path style="fill:#bdd4c1; stroke:none;" d="M356 170L357 171L356 170z"/>
<path style="fill:#89b190; stroke:none;" d="M357 170L358 171L357 170M643 170L644 171L643 170z"/>
<path style="fill:#bdd4c1; stroke:none;" d="M354 171L355 172L354 171z"/>
<path style="fill:#89b190; stroke:none;" d="M645 171L646 172L645 171z"/>
<path style="fill:#bdd4c1; stroke:none;" d="M646 171L647 172L646 171z"/>
<path style="fill:#89b190; stroke:none;" d="M352 172L353 173L352 172M647 172L648 173L647 172z"/>
<path style="fill:#bdd4c1; stroke:none;" d="M648 172L649 173L648 172z"/>
<path style="fill:#89b190; stroke:none;" d="M350 173L351 174L350 173z"/>
<path style="fill:#bdd4c1; stroke:none;" d="M650 173L651 174L650 173M347 174L348 175L347 174z"/>
<path style="fill:#89b190; stroke:none;" d="M348 174L349 175L348 174z"/>
<path style="fill:#bdd4c1; stroke:none;" d="M652 174L653 175L652 174M345 175L346 176L345 175z"/>
<path style="fill:#89b190; stroke:none;" d="M346 175L347 176L346 175M654 175L655 176L654 175z"/>
<path style="fill:#bdd4c1; stroke:none;" d="M343 176L344 177L343 176z"/>
<path style="fill:#89b190; stroke:none;" d="M344 176L345 177L344 176M656 176L657 177L656 176z"/>
<path style="fill:#bdd4c1; stroke:none;" d="M341 177L342 178L341 177z"/>
<path style="fill:#89b190; stroke:none;" d="M658 177L659 178L658 177z"/>
<path style="fill:#bdd4c1; stroke:none;" d="M339 178L340 179L339 178z"/>
<path style="fill:#89b190; stroke:none;" d="M660 178L661 179L660 178z"/>
<path style="fill:#bdd4c1; stroke:none;" d="M337 179L338 180L337 179z"/>
<path style="fill:#89b190; stroke:none;" d="M662 179L663 180L662 179z"/>
<path style="fill:#bdd4c1; stroke:none;" d="M335 180L336 181L335 180z"/>
<path style="fill:#89b190; stroke:none;" d="M664 180L665 181L664 180z"/>
<path style="fill:#bdd4c1; stroke:none;" d="M333 181L334 182L333 181z"/>
<path style="fill:#89b190; stroke:none;" d="M666 181L667 182L666 181z"/>
<path style="fill:#bdd4c1; stroke:none;" d="M331 182L332 183L331 182z"/>
<path style="fill:#89b190; stroke:none;" d="M668 182L669 183L668 182M330 183L331 184L330 183z"/>
<path style="fill:#bdd4c1; stroke:none;" d="M670 183L671 184L670 183z"/>
<path style="fill:#89b190; stroke:none;" d="M328 184L329 185L328 184z"/>
<path style="fill:#bdd4c1; stroke:none;" d="M672 184L673 185L672 184z"/>
<path style="fill:#89b190; stroke:none;" d="M326 185L327 186L326 185M673 185L674 186L673 185z"/>
<path style="fill:#bdd4c1; stroke:none;" d="M674 185L675 186L674 185M324 186L325 187L324 186z"/>
<path style="fill:#89b190; stroke:none;" d="M675 186L676 187L675 186z"/>
<path style="fill:#bdd4c1; stroke:none;" d="M322 187L323 188L322 187M677 187L678 188L677 187M320 188L321 189L320 188M679 188L680 189L679 188z"/>
<path style="fill:#89b190; stroke:none;" d="M319 189L320 190L319 189M680 189L681 190L680 189z"/>
<path style="fill:#bdd4c1; stroke:none;" d="M317 190L318 191L317 190z"/>
<path style="fill:#89b190; stroke:none;" d="M682 190L683 191L682 190z"/>
<path style="fill:#bdd4c1; stroke:none;" d="M315 191L316 192L315 191M684 191L685 192L684 191z"/>
<path style="fill:#89b190; stroke:none;" d="M314 192L315 193L314 192M685 192L686 193L685 192z"/>
<path style="fill:#bdd4c1; stroke:none;" d="M312 193L313 194L312 193z"/>
<path style="fill:#89b190; stroke:none;" d="M687 193L688 194L687 193M311 194L312 195L311 194z"/>
<path style="fill:#bdd4c1; stroke:none;" d="M689 194L690 195L689 194z"/>
<path style="fill:#89b190; stroke:none;" d="M309 195L310 196L309 195M690 195L691 196L690 195z"/>
<path style="fill:#bdd4c1; stroke:none;" d="M307 196L308 197L307 196M692 196L693 197L692 196z"/>
<path style="fill:#89b190; stroke:none;" d="M306 197L307 198L306 197z"/>
<path style="fill:#bdd4c1; stroke:none;" d="M694 197L695 198L694 197M304 198L305 199L304 198z"/>
<path style="fill:#89b190; stroke:none;" d="M695 198L696 199L695 198M303 199L304 200L303 199z"/>
<path style="fill:#bdd4c1; stroke:none;" d="M697 199L698 200L697 199M301 200L302 201L301 200z"/>
<path style="fill:#89b190; stroke:none;" d="M698 200L699 201L698 200M300 201L301 202L300 201z"/>
<path style="fill:#bdd4c1; stroke:none;" d="M700 201L701 202L700 201M298 202L299 203L298 202z"/>
<path style="fill:#89b190; stroke:none;" d="M701 202L702 203L701 202M297 203L298 204L297 203z"/>
<path style="fill:#bdd4c1; stroke:none;" d="M295 204L296 205L295 204M704 204L705 205L704 204z"/>
<path style="fill:#89b190; stroke:none;" d="M294 205L295 206L294 205M705 205L706 206L705 205z"/>
<path style="fill:#bdd4c1; stroke:none;" d="M292 206L293 207L292 206M707 206L708 207L707 206z"/>
<path style="fill:#89b190; stroke:none;" d="M291 207L292 208L291 207M708 207L709 208L708 207z"/>
<path style="fill:#bdd4c1; stroke:none;" d="M710 208L711 209L710 208M288 209L289 210L288 209z"/>
<path style="fill:#89b190; stroke:none;" d="M711 209L712 210L711 209M287 210L288 211L287 210z"/>
<path style="fill:#bdd4c1; stroke:none;" d="M285 211L286 212L285 211M714 211L715 212L714 211M284 212L285 213L284 212z"/>
<path style="fill:#89b190; stroke:none;" d="M715 212L716 213L715 212M283 213L284 214L283 213M716 213L717 214L716 213z"/>
<path style="fill:#bdd4c1; stroke:none;" d="M281 214L282 215L281 214z"/>
<path style="fill:#89b190; stroke:none;" d="M280 215L281 216L280 215z"/>
<path style="fill:#bdd4c1; stroke:none;" d="M719 215L720 216L719 215z"/>
<path style="fill:#89b190; stroke:none;" d="M279 216L280 217L279 216M720 216L721 217L720 216z"/>
<path style="fill:#bdd4c1; stroke:none;" d="M277 217L278 218L277 217M276 218L277 219L276 218M723 218L724 219L723 218z"/>
<path style="fill:#89b190; stroke:none;" d="M275 219L276 220L275 219M724 219L725 220L724 219M274 220L275 221L274 220z"/>
<path style="fill:#bdd4c1; stroke:none;" d="M271 222L272 223L271 222M728 222L729 223L728 222z"/>
<path style="fill:#89b190; stroke:none;" d="M270 223L271 224L270 223z"/>
<path style="fill:#bdd4c1; stroke:none;" d="M729 223L730 224L729 223z"/>
<path style="fill:#89b190; stroke:none;" d="M269 224L270 225L269 224M730 224L731 225L730 224M731 225L732 226L731 225z"/>
<path style="fill:#bdd4c1; stroke:none;" d="M266 226L267 227L266 226M265 227L266 228L265 227M734 227L735 228L734 227M264 228L265 229L264 228M735 228L736 229L735 228z"/>
<path style="fill:#89b190; stroke:none;" d="M263 229L264 230L263 229M499.667 229.333L500.333 229.667L499.667 229.333M736 229L737 230L736 229M262 230L263 231L262 230M489.667 230.333L490.333 230.667L489.667 230.333z"/>
<path style="fill:#bdd4c1; stroke:none;" d="M491.667 230.333L492.333 230.667L491.667 230.333z"/>
<path style="fill:#ffffff; stroke:none;" d="M493 230.428C480.472 232.222 469.172 236.195 459 243.9C406.423 283.727 444.68 370.786 509 361.572C519.164 360.116 528.43 356.677 537 350.996C592.271 314.358 560.62 220.745 493 230.428z"/>
<path style="fill:#bdd4c1; stroke:none;" d="M507.667 230.333L508.333 230.667L507.667 230.333z"/>
<path style="fill:#89b190; stroke:none;" d="M509.667 230.333L510.333 230.667L509.667 230.333M737 230L738 231L737 230M261 231L262 232L261 231M484 231L485 232L484 231z"/>
<path style="fill:#bdd4c1; stroke:none;" d="M485.667 231.333L486.333 231.667L485.667 231.333M513.667 231.333L514.333 231.667L513.667 231.333z"/>
<path style="fill:#89b190; stroke:none;" d="M515 231L516 232L515 231M738 231L739 232L738 231M260 232L261 233L260 232M480 232L481 233L480 232z"/>
<path style="fill:#bdd4c1; stroke:none;" d="M481 232L482 233L481 232M518 232L519 233L518 232z"/>
<path style="fill:#89b190; stroke:none;" d="M519 232L520 233L519 232M739 232L740 233L739 232M259 233L260 234L259 233M477 233L478 234L477 233z"/>
<path style="fill:#bdd4c1; stroke:none;" d="M478 233L479 234L478 233M521 233L522 234L521 233z"/>
<path style="fill:#89b190; stroke:none;" d="M522 233L523 234L522 233z"/>
<path style="fill:#bdd4c1; stroke:none;" d="M475 234L476 235L475 234M524 234L525 235L524 234z"/>
<path style="fill:#89b190; stroke:none;" d="M525 234L526 235L525 234M472 235L473 236L472 235z"/>
<path style="fill:#bdd4c1; stroke:none;" d="M473 235L474 236L473 235z"/>
<path style="fill:#89b190; stroke:none;" d="M527 235L528 236L527 235M470 236L471 237L470 236M529 236L530 237L529 236z"/>
<path style="fill:#bdd4c1; stroke:none;" d="M744 236L745 237L744 236M254 237L255 238L254 237z"/>
<path style="fill:#89b190; stroke:none;" d="M468 237L469 238L468 237M531 237L532 238L531 237z"/>
<path style="fill:#bdd4c1; stroke:none;" d="M745 237L746 238L745 237M253 238L254 239L253 238M467 238L468 239L467 238z"/>
<path style="fill:#89b190; stroke:none;" d="M533 238L534 239L533 238z"/>
<path style="fill:#bdd4c1; stroke:none;" d="M746 238L747 239L746 238M252 239L253 240L252 239M465 239L466 240L465 239z"/>
<path style="fill:#89b190; stroke:none;" d="M535 239L536 240L535 239z"/>
<path style="fill:#bdd4c1; stroke:none;" d="M747 239L748 240L747 239M251 240L252 241L251 240z"/>
<path style="fill:#89b190; stroke:none;" d="M463 240L464 241L463 240z"/>
<path style="fill:#bdd4c1; stroke:none;" d="M536 240L537 241L536 240z"/>
<path style="fill:#89b190; stroke:none;" d="M748 240L749 241L748 240z"/>
<path style="fill:#bdd4c1; stroke:none;" d="M250 241L251 242L250 241M462 241L463 242L462 241z"/>
<path style="fill:#89b190; stroke:none;" d="M538 241L539 242L538 241M749 241L750 242L749 241z"/>
<path style="fill:#bdd4c1; stroke:none;" d="M249 242L250 243L249 242z"/>
<path style="fill:#89b190; stroke:none;" d="M460 242L461 243L460 242M539 242L540 243L539 242M750 242L751 243L750 242M248 243L249 244L248 243M459 243L460 244L459 243z"/>
<path style="fill:#bdd4c1; stroke:none;" d="M540 243L541 244L540 243z"/>
<path style="fill:#89b190; stroke:none;" d="M751 243L752 244L751 243M247 244L248 245L247 244z"/>
<path style="fill:#bdd4c1; stroke:none;" d="M458 244L459 245L458 244z"/>
<path style="fill:#89b190; stroke:none;" d="M542 244L543 245L542 244M752 244L753 245L752 244M246 245L247 246L246 245M543 245L544 246L543 245M753 245L754 246L753 245M245 246L246 247L245 246M455 246L456 247L455 246M544 246L545 247L544 246M754 246L755 247L754 246M244 247L245 248L244 247M454 247L455 248L454 247M545 247L546 248L545 247M755 247L756 248L755 247M243 248L244 249L243 248M453 248L454 249L453 248z"/>
<path style="fill:#bdd4c1; stroke:none;" d="M546 248L547 249L546 248z"/>
<path style="fill:#89b190; stroke:none;" d="M756 248L757 249L756 248M242 249L243 250L242 249M452 249L453 250L452 249z"/>
<path style="fill:#bdd4c1; stroke:none;" d="M547 249L548 250L547 249z"/>
<path style="fill:#89b190; stroke:none;" d="M757 249L758 250L757 249M241 250L242 251L241 250M451 250L452 251L451 250M548 250L549 251L548 250M758 250L759 251L758 250z"/>
<path style="fill:#bdd4c1; stroke:none;" d="M240 251L241 252L240 251z"/>
<path style="fill:#89b190; stroke:none;" d="M450 251L451 252L450 251M549 251L550 252L549 251M759 251L760 252L759 251z"/>
<path style="fill:#bdd4c1; stroke:none;" d="M239 252L240 253L239 252z"/>
<path style="fill:#89b190; stroke:none;" d="M550 252L551 253L550 252M760 252L761 253L760 252z"/>
<path style="fill:#bdd4c1; stroke:none;" d="M238 253L239 254L238 253z"/>
<path style="fill:#89b190; stroke:none;" d="M761 253L762 254L761 253z"/>
<path style="fill:#bdd4c1; stroke:none;" d="M237 254L238 255L237 254M448 254L449 255L448 254z"/>
<path style="fill:#89b190; stroke:none;" d="M762 254L763 255L762 254z"/>
<path style="fill:#bdd4c1; stroke:none;" d="M447 255L448 256L447 255M552 255L553 256L552 255M763 255L764 256L763 255z"/>
<path style="fill:#89b190; stroke:none;" d="M446 256L447 257L446 256z"/>
<path style="fill:#bdd4c1; stroke:none;" d="M553 256L554 257L553 256M764 256L765 257L764 256z"/>
<path style="fill:#89b190; stroke:none;" d="M554 257L555 258L554 257z"/>
<path style="fill:#bdd4c1; stroke:none;" d="M445 258L446 259L445 258z"/>
<path style="fill:#89b190; stroke:none;" d="M444 259L445 260L444 259z"/>
<path style="fill:#bdd4c1; stroke:none;" d="M555 259L556 260L555 259z"/>
<path style="fill:#89b190; stroke:none;" d="M232 260L233 261L232 260M556 260L557 261L556 260M231 261L232 262L231 261z"/>
<path style="fill:#bdd4c1; stroke:none;" d="M443 261L444 262L443 261z"/>
<path style="fill:#89b190; stroke:none;" d="M768 261L769 262L768 261M230 262L231 263L230 262M557 262L558 263L557 262M769 262L770 263L769 262z"/>
<path style="fill:#bdd4c1; stroke:none;" d="M229 263L230 264L229 263M442 263L443 264L442 263z"/>
<path style="fill:#89b190; stroke:none;" d="M770 263L771 264L770 263z"/>
<path style="fill:#bdd4c1; stroke:none;" d="M228 264L229 265L228 264z"/>
<path style="fill:#89b190; stroke:none;" d="M441 264L442 265L441 264z"/>
<path style="fill:#bdd4c1; stroke:none;" d="M558 264L559 265L558 264M771 264L772 265L771 264M772 265L773 266L772 265z"/>
<path style="fill:#89b190; stroke:none;" d="M440 266L441 267L440 266z"/>
<path style="fill:#bdd4c1; stroke:none;" d="M559 266L560 267L559 266z"/>
<path style="fill:#89b190; stroke:none;" d="M226 267L227 268L226 267z"/>
<path style="fill:#bdd4c1; stroke:none;" d="M440 267L441 268L440 267z"/>
<path style="fill:#89b190; stroke:none;" d="M225 268L226 269L225 268M439 268L440 269L439 268M560 268L561 269L560 268z"/>
<path style="fill:#bdd4c1; stroke:none;" d="M224 269L225 270L224 269M439 269L440 270L439 269z"/>
<path style="fill:#89b190; stroke:none;" d="M775 269L776 270L775 269z"/>
<path style="fill:#bdd4c1; stroke:none;" d="M223 270L224 271L223 270z"/>
<path style="fill:#89b190; stroke:none;" d="M561 270L562 271L561 270M776 270L777 271L776 270z"/>
<path style="fill:#bdd4c1; stroke:none;" d="M438 271L439 272L438 271M561 271L562 272L561 271M777 271L778 272L777 271M778 272L779 273L778 272z"/>
<path style="fill:#89b190; stroke:none;" d="M437 273L438 274L437 273M562 273L563 274L562 273M220 274L221 275L220 274z"/>
<path style="fill:#bdd4c1; stroke:none;" d="M437 274L438 275L437 274z"/>
<path style="fill:#89b190; stroke:none;" d="M779 274L780 275L779 274z"/>
<path style="fill:#bdd4c1; stroke:none;" d="M219 275L220 276L219 275z"/>
<path style="fill:#89b190; stroke:none;" d="M780 275L781 276L780 275z"/>
<path style="fill:#bdd4c1; stroke:none;" d="M218 276L219 277L218 276z"/>
<path style="fill:#89b190; stroke:none;" d="M436 276L437 277L436 276z"/>
<path style="fill:#bdd4c1; stroke:none;" d="M563 276L564 277L563 276M781 276L782 277L781 276M436 277L437 278L436 277M782 277L783 278L782 277z"/>
<path style="fill:#89b190; stroke:none;" d="M217 278L218 279L217 278M216 279L217 280L216 279M564 279L565 280L564 279M783 279L784 280L783 279z"/>
<path style="fill:#bdd4c1; stroke:none;" d="M215 280L216 281L215 280z"/>
<path style="fill:#89b190; stroke:none;" d="M435 280L436 281L435 280z"/>
<path style="fill:#bdd4c1; stroke:none;" d="M564 280L565 281L564 280z"/>
<path style="fill:#89b190; stroke:none;" d="M784 280L785 281L784 280z"/>
<path style="fill:#bdd4c1; stroke:none;" d="M435 281L436 282L435 281M785 281L786 282L785 281z"/>
<path style="fill:#89b190; stroke:none;" d="M213 283L214 284L213 283M565.333 283.667L565.667 284.333L565.333 283.667z"/>
<path style="fill:#bdd4c1; stroke:none;" d="M212 284L213 285L212 284z"/>
<path style="fill:#89b190; stroke:none;" d="M787 284L788 285L787 284M434.333 285.667L434.667 286.333L434.333 285.667z"/>
<path style="fill:#bdd4c1; stroke:none;" d="M565 285L566 286L565 285M788 285L789 286L788 285z"/>
<path style="fill:#89b190; stroke:none;" d="M210 287L211 288L210 287z"/>
<path style="fill:#bdd4c1; stroke:none;" d="M434 287L434 290L435 290L434 287M209 288L210 289L209 288z"/>
<path style="fill:#89b190; stroke:none;" d="M790 288L791 289L790 288M566 289L566 295L567 295L566 289z"/>
<path style="fill:#bdd4c1; stroke:none;" d="M791 289L792 290L791 289z"/>
<path style="fill:#89b190; stroke:none;" d="M207 291L208 292L207 291M792 291L793 292L792 291z"/>
<path style="fill:#bdd4c1; stroke:none;" d="M206 292L207 293L206 292M793 292L794 293L793 292z"/>
<path style="fill:#89b190; stroke:none;" d="M205 294L206 295L205 294z"/>
<path style="fill:#bdd4c1; stroke:none;" d="M204 295L205 296L204 295M566 295L567 296L566 295z"/>
<path style="fill:#89b190; stroke:none;" d="M795 295L796 296L795 295M566 296L566 302L567 302L566 296z"/>
<path style="fill:#bdd4c1; stroke:none;" d="M796 296L797 297L796 296z"/>
<path style="fill:#89b190; stroke:none;" d="M202 298L203 299L202 298M797 298L798 299L797 298z"/>
<path style="fill:#bdd4c1; stroke:none;" d="M798 299L799 300L798 299z"/>
<path style="fill:#89b190; stroke:none;" d="M201 300L202 301L201 300z"/>
<path style="fill:#bdd4c1; stroke:none;" d="M200 301L201 302L200 301z"/>
<path style="fill:#89b190; stroke:none;" d="M799 301L800 302L799 301z"/>
<path style="fill:#bdd4c1; stroke:none;" d="M800 302L801 303L800 302z"/>
<path style="fill:#89b190; stroke:none;" d="M199 303L200 304L199 303z"/>
<path style="fill:#bdd4c1; stroke:none;" d="M434.333 303.667L434.667 304.333L434.333 303.667M198 304L199 305L198 304z"/>
<path style="fill:#89b190; stroke:none;" d="M801 304L802 305L801 304M434.333 305.667L434.667 306.333L434.333 305.667z"/>
<path style="fill:#bdd4c1; stroke:none;" d="M565.333 305.667L565.667 306.333L565.333 305.667M802 305L803 306L802 305z"/>
<path style="fill:#89b190; stroke:none;" d="M197 306L198 307L197 306z"/>
<path style="fill:#bdd4c1; stroke:none;" d="M196 307L197 308L196 307z"/>
<path style="fill:#89b190; stroke:none;" d="M565.333 307.667L565.667 308.333L565.333 307.667M803 307L804 308L803 307z"/>
<path style="fill:#bdd4c1; stroke:none;" d="M804 308L805 309L804 308z"/>
<path style="fill:#89b190; stroke:none;" d="M195 309L196 310L195 309z"/>
<path style="fill:#bdd4c1; stroke:none;" d="M435.333 309.667L435.667 310.333L435.333 309.667M194 310L195 311L194 310z"/>
<path style="fill:#89b190; stroke:none;" d="M805 310L806 311L805 310M435 311L436 312L435 311z"/>
<path style="fill:#bdd4c1; stroke:none;" d="M564 311L565 312L564 311M193 312L194 313L193 312z"/>
<path style="fill:#89b190; stroke:none;" d="M564 312L565 313L564 312M806 312L807 313L806 312z"/>
<path style="fill:#bdd4c1; stroke:none;" d="M436 313L437 314L436 313M807 313L808 314L807 313z"/>
<path style="fill:#89b190; stroke:none;" d="M192 314L193 315L192 314M436.333 314.667L436.667 315.333L436.333 314.667z"/>
<path style="fill:#bdd4c1; stroke:none;" d="M191 315L192 316L191 315M563 315L564 316L563 315z"/>
<path style="fill:#89b190; stroke:none;" d="M808 315L809 316L808 315z"/>
<path style="fill:#bdd4c1; stroke:none;" d="M190 317L191 318L190 317M437 317L438 318L437 317z"/>
<path style="fill:#89b190; stroke:none;" d="M809 317L810 318L809 317M562 318L563 319L562 318z"/>
<path style="fill:#bdd4c1; stroke:none;" d="M810 318L811 319L810 318z"/>
<path style="fill:#89b190; stroke:none;" d="M189 319L190 320L189 319z"/>
<path style="fill:#bdd4c1; stroke:none;" d="M188 320L189 321L188 320z"/>
<path style="fill:#89b190; stroke:none;" d="M438 320L439 321L438 320z"/>
<path style="fill:#bdd4c1; stroke:none;" d="M561 320L562 321L561 320z"/>
<path style="fill:#89b190; stroke:none;" d="M811 320L812 321L811 320M561 321L562 322L561 321z"/>
<path style="fill:#bdd4c1; stroke:none;" d="M187 322L188 323L187 322M439 322L440 323L439 322z"/>
<path style="fill:#89b190; stroke:none;" d="M812 322L813 323L812 322M560 323L561 324L560 323M186 324L187 325L186 324z"/>
<path style="fill:#bdd4c1; stroke:none;" d="M440 324L441 325L440 324z"/>
<path style="fill:#89b190; stroke:none;" d="M813 324L814 325L813 324z"/>
<path style="fill:#bdd4c1; stroke:none;" d="M559 325L560 326L559 325M814 325L815 326L814 325z"/>
<path style="fill:#89b190; stroke:none;" d="M185 326L186 327L185 326z"/>
<path style="fill:#bdd4c1; stroke:none;" d="M441 326L442 327L441 326z"/>
<path style="fill:#89b190; stroke:none;" d="M441 327L442 328L441 327M558 327L559 328L558 327z"/>
<path style="fill:#bdd4c1; stroke:none;" d="M815 327L816 328L815 327z"/>
<path style="fill:#89b190; stroke:none;" d="M184 328L185 329L184 328z"/>
<path style="fill:#bdd4c1; stroke:none;" d="M442 328L443 329L442 328M183 329L184 330L183 329z"/>
<path style="fill:#89b190; stroke:none;" d="M557 329L558 330L557 329z"/>
<path style="fill:#bdd4c1; stroke:none;" d="M816 329L817 330L816 329z"/>
<path style="fill:#89b190; stroke:none;" d="M443 330L444 331L443 330z"/>
<path style="fill:#bdd4c1; stroke:none;" d="M182 331L183 332L182 331z"/>
<path style="fill:#89b190; stroke:none;" d="M556 331L557 332L556 331M817 331L818 332L817 331M444 332L445 333L444 332z"/>
<path style="fill:#bdd4c1; stroke:none;" d="M555 332L556 333L555 332M181 333L182 334L181 333M445 333L446 334L445 333z"/>
<path style="fill:#89b190; stroke:none;" d="M818 333L819 334L818 333M554 334L555 335L554 334z"/>
<path style="fill:#bdd4c1; stroke:none;" d="M180 335L181 336L180 335M553 335L554 336L553 335z"/>
<path style="fill:#89b190; stroke:none;" d="M819 335L820 336L819 335M447 336L448 337L447 336z"/>
<path style="fill:#bdd4c1; stroke:none;" d="M552 336L553 337L552 336M179 337L180 338L179 337M448 337L449 338L448 337z"/>
<path style="fill:#89b190; stroke:none;" d="M820 337L821 338L820 337z"/>
<path style="fill:#bdd4c1; stroke:none;" d="M449 338L450 339L449 338M178 339L179 340L178 339z"/>
<path style="fill:#89b190; stroke:none;" d="M550 339L551 340L550 339M821 339L822 340L821 339M549 340L550 341L549 340z"/>
<path style="fill:#bdd4c1; stroke:none;" d="M177 341L178 342L177 341z"/>
<path style="fill:#89b190; stroke:none;" d="M548 341L549 342L548 341M822 341L823 342L822 341M547 342L548 343L547 342z"/>
<path style="fill:#bdd4c1; stroke:none;" d="M176 343L177 344L176 343z"/>
<path style="fill:#89b190; stroke:none;" d="M546 343L547 344L546 343M823 343L824 344L823 343M545 344L546 345L545 344z"/>
<path style="fill:#bdd4c1; stroke:none;" d="M175 345L176 346L175 345z"/>
<path style="fill:#89b190; stroke:none;" d="M544 345L545 346L544 345M824 345L825 346L824 345z"/>
<path style="fill:#bdd4c1; stroke:none;" d="M457 346L458 347L457 346M174 347L175 348L174 347M458 347L459 348L458 347z"/>
<path style="fill:#89b190; stroke:none;" d="M825 347L826 348L825 347M459 348L460 349L459 348z"/>
<path style="fill:#bdd4c1; stroke:none;" d="M540 348L541 349L540 348M173 349L174 350L173 349z"/>
<path style="fill:#89b190; stroke:none;" d="M460 349L461 350L460 349M539 349L540 350L539 349z"/>
<path style="fill:#bdd4c1; stroke:none;" d="M826 349L827 350L826 349z"/>
<path style="fill:#89b190; stroke:none;" d="M173 350L174 351L173 350z"/>
<path style="fill:#bdd4c1; stroke:none;" d="M462 350L463 351L462 350M537 350L538 351L537 350z"/>
<path style="fill:#89b190; stroke:none;" d="M463 351L464 352L463 351M536 351L537 352L536 351z"/>
<path style="fill:#bdd4c1; stroke:none;" d="M827 351L828 352L827 351z"/>
<path style="fill:#89b190; stroke:none;" d="M172 352L173 353L172 352z"/>
<path style="fill:#bdd4c1; stroke:none;" d="M465 352L466 353L465 352M534 352L535 353L534 352z"/>
<path style="fill:#89b190; stroke:none;" d="M466 353L467 354L466 353M533 353L534 354L533 353z"/>
<path style="fill:#bdd4c1; stroke:none;" d="M828 353L829 354L828 353z"/>
<path style="fill:#89b190; stroke:none;" d="M171 354L172 355L171 354M468 354L469 355L468 354M531 354L532 355L531 354M828 354L829 355L828 354M470 355L471 356L470 355M529 355L530 356L529 355z"/>
<path style="fill:#bdd4c1; stroke:none;" d="M170 356L171 357L170 356z"/>
<path style="fill:#89b190; stroke:none;" d="M472 356L473 357L472 356M527 356L528 357L527 356M829 356L830 357L829 356M474 357L475 358L474 357z"/>
<path style="fill:#bdd4c1; stroke:none;" d="M475 357L476 358L475 357M524 357L525 358L524 357z"/>
<path style="fill:#89b190; stroke:none;" d="M525 357L526 358L525 357z"/>
<path style="fill:#bdd4c1; stroke:none;" d="M169 358L170 359L169 358z"/>
<path style="fill:#89b190; stroke:none;" d="M477 358L478 359L477 358z"/>
<path style="fill:#bdd4c1; stroke:none;" d="M478 358L479 359L478 358z"/>
<path style="fill:#89b190; stroke:none;" d="M522 358L523 359L522 358M830 358L831 359L830 358M169 359L170 360L169 359M480 359L481 360L480 359z"/>
<path style="fill:#bdd4c1; stroke:none;" d="M481 359L482 360L481 359M519 359L520 360L519 359z"/>
<path style="fill:#89b190; stroke:none;" d="M520 359L521 360L520 359M483 360L484 361L483 360z"/>
<path style="fill:#bdd4c1; stroke:none;" d="M484 360L485 361L484 360M515 360L516 361L515 360z"/>
<path style="fill:#89b190; stroke:none;" d="M516 360L517 361L516 360z"/>
<path style="fill:#bdd4c1; stroke:none;" d="M831 360L832 361L831 360z"/>
<path style="fill:#89b190; stroke:none;" d="M168 361L169 362L168 361M487.667 361.333L488.333 361.667L487.667 361.333z"/>
<path style="fill:#bdd4c1; stroke:none;" d="M489 361L490 362L489 361M509.667 361.333L510.333 361.667L509.667 361.333z"/>
<path style="fill:#89b190; stroke:none;" d="M511.667 361.333L512.333 361.667L511.667 361.333M831 361L832 362L831 361M493 362L493 363L506 363L493 362z"/>
<path style="fill:#bdd4c1; stroke:none;" d="M167 363L168 364L167 363z"/>
<path style="fill:#89b190; stroke:none;" d="M832 363L833 364L832 363M167 364L168 365L167 364z"/>
<path style="fill:#bdd4c1; stroke:none;" d="M833 365L834 366L833 365z"/>
<path style="fill:#89b190; stroke:none;" d="M166 366L167 367L166 366z"/>
<path style="fill:#bdd4c1; stroke:none;" d="M165 368L166 369L165 368z"/>
<path style="fill:#89b190; stroke:none;" d="M834 368L835 369L834 368z"/>
<path style="fill:#bdd4c1; stroke:none;" d="M164 370L165 371L164 370M835 370L836 371L835 370z"/>
<path style="fill:#89b190; stroke:none;" d="M164 371L165 372L164 371z"/>
<path style="fill:#bdd4c1; stroke:none;" d="M836 372L837 373L836 372M163 373L164 374L163 373z"/>
<path style="fill:#89b190; stroke:none;" d="M836 373L837 374L836 373M163 374L164 375L163 374z"/>
<path style="fill:#bdd4c1; stroke:none;" d="M837 375L838 376L837 375M162 376L163 377L162 376z"/>
<path style="fill:#89b190; stroke:none;" d="M837 376L838 377L837 376M162 377L163 378L162 377z"/>
<path style="fill:#bdd4c1; stroke:none;" d="M838 378L839 379L838 378M161 379L162 380L161 379z"/>
<path style="fill:#89b190; stroke:none;" d="M838 379L839 380L838 379z"/>
<path style="fill:#bdd4c1; stroke:none;" d="M839 381L840 382L839 381z"/>
<path style="fill:#89b190; stroke:none;" d="M160 382L161 383L160 382M839 382L840 383L839 382z"/>
<path style="fill:#bdd4c1; stroke:none;" d="M159 384L160 385L159 384M840 384L841 385L840 384z"/>
<path style="fill:#89b190; stroke:none;" d="M159 385L160 386L159 385z"/>
<path style="fill:#bdd4c1; stroke:none;" d="M158 387L159 388L158 387z"/>
<path style="fill:#89b190; stroke:none;" d="M494.667 387.333L495.333 387.667L494.667 387.333z"/>
<path style="fill:#bdd4c1; stroke:none;" d="M496 387L496 388L506 388L496 387z"/>
<path style="fill:#89b190; stroke:none;" d="M506 387L506 388L510 388L506 387z"/>
<path style="fill:#bdd4c1; stroke:none;" d="M841 387L842 388L841 387z"/>
<path style="fill:#89b190; stroke:none;" d="M158 388L159 389L158 388M488 388L489 389L488 388z"/>
<path style="fill:#bdd4c1; stroke:none;" d="M489 388L490 389L489 388z"/>
<path style="fill:#ffffff; stroke:none;" d="M490 388.464C464.691 392.936 445.047 410.361 440.261 436C435.71 460.382 439.382 487.387 439.985 512C441.013 553.944 440 596.042 440 638C440 668.013 432.477 705.117 442.699 734C452.354 761.282 483.646 773.716 511 769.246C536.285 765.115 556.78 746.583 561.384 721C565.135 700.161 562 676.174 562 655L562 524L562 464C562 451.722 563.135 438.853 559.251 427C550.054 398.934 518.198 383.481 490 388.464z"/>
<path style="fill:#bdd4c1; stroke:none;" d="M513 388L514 389L513 388z"/>
<path style="fill:#89b190; stroke:none;" d="M514 388L515 389L514 388M841 388L842 389L841 388M484 389L485 390L484 389z"/>
<path style="fill:#bdd4c1; stroke:none;" d="M485 389L486 390L485 389M517 389L518 390L517 389z"/>
<path style="fill:#89b190; stroke:none;" d="M518 389L519 390L518 389M480 390L481 391L480 390z"/>
<path style="fill:#bdd4c1; stroke:none;" d="M481 390L482 391L481 390M520 390L521 391L520 390z"/>
<path style="fill:#89b190; stroke:none;" d="M521 390L522 391L521 390z"/>
<path style="fill:#bdd4c1; stroke:none;" d="M842 390L843 391L842 390z"/>
<path style="fill:#89b190; stroke:none;" d="M157 391L158 392L157 391M477 391L478 392L477 391z"/>
<path style="fill:#bdd4c1; stroke:none;" d="M478 391L479 392L478 391M523 391L524 392L523 391z"/>
<path style="fill:#89b190; stroke:none;" d="M524 391L525 392L524 391M842 391L843 392L842 391M474 392L475 393L474 392z"/>
<path style="fill:#bdd4c1; stroke:none;" d="M475 392L476 393L475 392M526 392L527 393L526 392z"/>
<path style="fill:#89b190; stroke:none;" d="M472 393L473 394L472 393z"/>
<path style="fill:#bdd4c1; stroke:none;" d="M528 393L529 394L528 393M843 393L844 394L843 393M156 394L157 395L156 394z"/>
<path style="fill:#89b190; stroke:none;" d="M470 394L471 395L470 394z"/>
<path style="fill:#bdd4c1; stroke:none;" d="M530 394L531 395L530 394z"/>
<path style="fill:#89b190; stroke:none;" d="M843 394L844 395L843 394M156 395L157 396L156 395M468 395L469 396L468 395M532 395L533 396L532 395z"/>
<path style="fill:#bdd4c1; stroke:none;" d="M467 396L468 397L467 396M844 396L845 397L844 396M155 397L156 398L155 397M465 397L466 398L465 397M535 397L536 398L535 397z"/>
<path style="fill:#89b190; stroke:none;" d="M844 397L845 398L844 397M155 398L156 399L155 398M462 399L463 400L462 399M538 399L539 400L538 399z"/>
<path style="fill:#bdd4c1; stroke:none;" d="M845 399L846 400L845 399M154 400L155 401L154 400M461 400L462 401L461 400M539 400L540 401L539 400z"/>
<path style="fill:#89b190; stroke:none;" d="M845.333 400.667L845.667 401.333L845.333 400.667M154.333 401.667L154.667 402.333L154.333 401.667z"/>
<path style="fill:#bdd4c1; stroke:none;" d="M540 401L541 402L540 401z"/>
<path style="fill:#89b190; stroke:none;" d="M542 402L543 403L542 402M457 403L458 404L457 403M543 403L544 404L543 403z"/>
<path style="fill:#bdd4c1; stroke:none;" d="M846 403L847 404L846 403M153 404L154 405L153 404z"/>
<path style="fill:#89b190; stroke:none;" d="M456 404L457 405L456 404z"/>
<path style="fill:#bdd4c1; stroke:none;" d="M544 404L545 405L544 404z"/>
<path style="fill:#89b190; stroke:none;" d="M846 404L847 405L846 404M153 405L154 406L153 405M455 405L456 406L455 405z"/>
<path style="fill:#bdd4c1; stroke:none;" d="M545 405L546 406L545 405z"/>
<path style="fill:#89b190; stroke:none;" d="M454 406L455 407L454 406z"/>
<path style="fill:#bdd4c1; stroke:none;" d="M546 406L547 407L546 406z"/>
<path style="fill:#89b190; stroke:none;" d="M453 407L454 408L453 407z"/>
<path style="fill:#bdd4c1; stroke:none;" d="M547 407L548 408L547 407M847 407L848 408L847 407M152 408L153 409L152 408M548 408L549 409L548 408z"/>
<path style="fill:#89b190; stroke:none;" d="M847 408L848 409L847 408M152 409L153 410L152 409M549 409L550 410L549 409z"/>
<path style="fill:#bdd4c1; stroke:none;" d="M451 410L452 411L451 410z"/>
<path style="fill:#89b190; stroke:none;" d="M550 410L551 411L550 410z"/>
<path style="fill:#bdd4c1; stroke:none;" d="M151.333 411.667L151.667 412.333L151.333 411.667z"/>
<path style="fill:#89b190; stroke:none;" d="M450 411L451 412L450 411z"/>
<path style="fill:#bdd4c1; stroke:none;" d="M848 411L849 412L848 411z"/>
<path style="fill:#89b190; stroke:none;" d="M848 412L849 413L848 412M151 413L152 414L151 413z"/>
<path style="fill:#bdd4c1; stroke:none;" d="M449 413L450 414L449 413M552 413L553 414L552 413z"/>
<path style="fill:#89b190; stroke:none;" d="M448 414L449 415L448 414M553 414L554 415L553 414z"/>
<path style="fill:#bdd4c1; stroke:none;" d="M849.333 414.667L849.667 415.333L849.333 414.667M150 416L151 417L150 416M447 416L448 417L447 416z"/>
<path style="fill:#89b190; stroke:none;" d="M554 416L555 417L554 416M849 416L850 417L849 416M150 417L151 418L150 417M446 417L447 418L446 417z"/>
<path style="fill:#bdd4c1; stroke:none;" d="M555 418L556 419L555 418z"/>
<path style="fill:#89b190; stroke:none;" d="M445 419L446 420L445 419z"/>
<path style="fill:#bdd4c1; stroke:none;" d="M850 419L851 420L850 419M149 420L150 421L149 420M556 420L557 421L556 420z"/>
<path style="fill:#89b190; stroke:none;" d="M850 420L851 421L850 420M149.333 421.667L149.667 422.333L149.333 421.667M444 421L445 422L444 421M557 421L558 422L557 421z"/>
<path style="fill:#bdd4c1; stroke:none;" d="M557 422L558 423L557 422z"/>
<path style="fill:#89b190; stroke:none;" d="M443 423L444 424L443 423z"/>
<path style="fill:#bdd4c1; stroke:none;" d="M851 423L852 424L851 423M148.333 424.667L148.667 425.333L148.333 424.667M443 424L444 425L443 424M558 424L559 425L558 424z"/>
<path style="fill:#89b190; stroke:none;" d="M851.333 424.667L851.667 425.333L851.333 424.667M148 426L149 427L148 426M442 426L443 427L442 426M559 426L560 427L559 426z"/>
<path style="fill:#bdd4c1; stroke:none;" d="M559 427L560 428L559 427z"/>
<path style="fill:#89b190; stroke:none;" d="M441.333 428.667L441.667 429.333L441.333 428.667z"/>
<path style="fill:#bdd4c1; stroke:none;" d="M852 428L853 429L852 428M147.333 429.667L147.667 430.333L147.333 429.667z"/>
<path style="fill:#89b190; stroke:none;" d="M560.333 429.667L560.667 430.333L560.333 429.667M852.333 429.667L852.667 430.333L852.333 429.667z"/>
<path style="fill:#bdd4c1; stroke:none;" d="M441 430L442 431L441 430z"/>
<path style="fill:#89b190; stroke:none;" d="M147 431L148 432L147 431z"/>
<path style="fill:#bdd4c1; stroke:none;" d="M560 431L561 432L560 431z"/>
<path style="fill:#89b190; stroke:none;" d="M440 432L441 433L440 432z"/>
<path style="fill:#bdd4c1; stroke:none;" d="M440.333 433.667L440.667 434.333L440.333 433.667M853.333 433.667L853.667 434.333L853.333 433.667z"/>
<path style="fill:#89b190; stroke:none;" d="M561.333 434.667L561.667 435.333L561.333 434.667z"/>
<path style="fill:#bdd4c1; stroke:none;" d="M146 435L147 436L146 435z"/>
<path style="fill:#89b190; stroke:none;" d="M853 435L854 436L853 435M146.333 436.667L146.667 437.333L146.333 436.667z"/>
<path style="fill:#bdd4c1; stroke:none;" d="M561.333 436.667L561.667 437.333L561.333 436.667z"/>
<path style="fill:#89b190; stroke:none;" d="M439.333 437.667L439.667 438.333L439.333 437.667z"/>
<path style="fill:#bdd4c1; stroke:none;" d="M439.333 439.667L439.667 440.333L439.333 439.667M854 439L855 440L854 439M145.333 440.667L145.667 441.333L145.333 440.667z"/>
<path style="fill:#89b190; stroke:none;" d="M854.333 440.667L854.667 441.333L854.333 440.667M145.333 442.667L145.667 443.333L145.333 442.667M562 442L562 623L563 623L563 496L563 460L562 442z"/>
<path style="fill:#bdd4c1; stroke:none;" d="M855.333 445.667L855.667 446.333L855.333 445.667M144.333 446.667L144.667 447.333L144.333 446.667z"/>
<path style="fill:#89b190; stroke:none;" d="M855.333 447.667L855.667 448.333L855.333 447.667M144 448L144 451L145 451L144 448z"/>
<path style="fill:#bdd4c1; stroke:none;" d="M856.333 452.667L856.667 453.333L856.333 452.667M143.333 453.667L143.667 454.333L143.333 453.667z"/>
<path style="fill:#89b190; stroke:none;" d="M856.333 454.667L856.667 455.333L856.333 454.667M143 455L143 458L144 458L143 455z"/>
<path style="fill:#bdd4c1; stroke:none;" d="M857 460L857 463L858 463L857 460M142 462L142 465L143 465L142 462z"/>
<path style="fill:#89b190; stroke:none;" d="M857 463L857 466L858 466L857 463M142 465L142 468L143 468L142 465z"/>
<path style="fill:#bdd4c1; stroke:none;" d="M858 470L858 474L859 474L858 470M141 473L141 478L142 478L141 473z"/>
<path style="fill:#89b190; stroke:none;" d="M858 474L858 479L859 479L858 474M141 478L141 483L142 483L141 478z"/>
<path style="fill:#bdd4c1; stroke:none;" d="M859 493L859 512L860 512L859 493M439 506L439 651L440 651L440 550C440 537.532 443.807 517.456 439 506z"/>
<path style="fill:#ffffff; stroke:none;" d="M859 512C859 695.379 693.965 859 511 859L511 860L860 860L860 614L860 543L859 512z"/>
<path style="fill:#89b190; stroke:none;" d="M141 516L141 522L142 522L141 516z"/>
<path style="fill:#bdd4c1; stroke:none;" d="M141 522L141 526L142 526L141 522z"/>
<path style="fill:#89b190; stroke:none;" d="M858 524L858 528L859 528L858 524z"/>
<path style="fill:#ffffff; stroke:none;" d="M141 526L141 860L493 860L493 859C355.59 859 229.169 771.85 172.309 648C161.104 623.594 152.589 597.396 147.611 571C145.048 557.408 146.218 538.436 141 526z"/>
<path style="fill:#bdd4c1; stroke:none;" d="M858 528L858 532L859 532L858 528z"/>
<path style="fill:#89b190; stroke:none;" d="M142 532L142 535L143 535L142 532z"/>
<path style="fill:#bdd4c1; stroke:none;" d="M142 535L142 538L143 538L142 535z"/>
<path style="fill:#89b190; stroke:none;" d="M857 536L857 539L858 539L857 536z"/>
<path style="fill:#bdd4c1; stroke:none;" d="M857 539L857 542L858 542L857 539z"/>
<path style="fill:#89b190; stroke:none;" d="M143 541L143 544L144 544L143 541z"/>
<path style="fill:#bdd4c1; stroke:none;" d="M143.333 544.667L143.667 545.333L143.333 544.667z"/>
<path style="fill:#89b190; stroke:none;" d="M856.333 545.667L856.667 546.333L856.333 545.667z"/>
<path style="fill:#bdd4c1; stroke:none;" d="M856.333 547.667L856.667 548.333L856.333 547.667z"/>
<path style="fill:#89b190; stroke:none;" d="M144.333 549.667L144.667 550.333L144.333 549.667z"/>
<path style="fill:#bdd4c1; stroke:none;" d="M144.333 551.667L144.667 552.333L144.333 551.667z"/>
<path style="fill:#89b190; stroke:none;" d="M855 552L855 555L856 555L855 552z"/>
<path style="fill:#bdd4c1; stroke:none;" d="M855 555L856 556L855 555z"/>
<path style="fill:#89b190; stroke:none;" d="M145.333 556.667L145.667 557.333L145.333 556.667z"/>
<path style="fill:#bdd4c1; stroke:none;" d="M145.333 558.667L145.667 559.333L145.333 558.667z"/>
<path style="fill:#89b190; stroke:none;" d="M854 559L855 560L854 559z"/>
<path style="fill:#bdd4c1; stroke:none;" d="M854.333 560.667L854.667 561.333L854.333 560.667z"/>
<path style="fill:#89b190; stroke:none;" d="M146.333 562.667L146.667 563.333L146.333 562.667z"/>
<path style="fill:#bdd4c1; stroke:none;" d="M146 564L147 565L146 564z"/>
<path style="fill:#89b190; stroke:none;" d="M853.333 564.667L853.667 565.333L853.333 564.667z"/>
<path style="fill:#bdd4c1; stroke:none;" d="M853.333 566.667L853.667 567.333L853.333 566.667z"/>
<path style="fill:#89b190; stroke:none;" d="M147 568L148 569L147 568z"/>
<path style="fill:#bdd4c1; stroke:none;" d="M147.333 569.667L147.667 570.333L147.333 569.667z"/>
<path style="fill:#89b190; stroke:none;" d="M852 570L853 571L852 570z"/>
<path style="fill:#bdd4c1; stroke:none;" d="M852.333 571.667L852.667 572.333L852.333 571.667z"/>
<path style="fill:#89b190; stroke:none;" d="M148.333 573.667L148.667 574.333L148.333 573.667z"/>
<path style="fill:#bdd4c1; stroke:none;" d="M148 575L149 576L148 575z"/>
<path style="fill:#89b190; stroke:none;" d="M851 575L852 576L851 575z"/>
<path style="fill:#bdd4c1; stroke:none;" d="M851 576L852 577L851 576z"/>
<path style="fill:#89b190; stroke:none;" d="M149 578L150 579L149 578z"/>
<path style="fill:#bdd4c1; stroke:none;" d="M149 579L150 580L149 579z"/>
<path style="fill:#89b190; stroke:none;" d="M850.333 579.667L850.667 580.333L850.333 579.667z"/>
<path style="fill:#bdd4c1; stroke:none;" d="M850 581L851 582L850 581z"/>
<path style="fill:#89b190; stroke:none;" d="M150 582L151 583L150 582z"/>
<path style="fill:#bdd4c1; stroke:none;" d="M150.333 583.667L150.667 584.333L150.333 583.667z"/>
<path style="fill:#89b190; stroke:none;" d="M849 584L850 585L849 584z"/>
<path style="fill:#bdd4c1; stroke:none;" d="M849 585L850 586L849 585z"/>
<path style="fill:#89b190; stroke:none;" d="M151.333 586.667L151.667 587.333L151.333 586.667z"/>
<path style="fill:#bdd4c1; stroke:none;" d="M151 588L152 589L151 588z"/>
<path style="fill:#89b190; stroke:none;" d="M848 588L849 589L848 588z"/>
<path style="fill:#bdd4c1; stroke:none;" d="M848 589L849 590L848 589z"/>
<path style="fill:#89b190; stroke:none;" d="M152.333 590.667L152.667 591.333L152.333 590.667M847.333 591.667L847.667 592.333L847.333 591.667z"/>
<path style="fill:#bdd4c1; stroke:none;" d="M152 592L153 593L152 592M847 593L848 594L847 593z"/>
<path style="fill:#89b190; stroke:none;" d="M153 594L154 595L153 594z"/>
<path style="fill:#bdd4c1; stroke:none;" d="M153 595L154 596L153 595z"/>
<path style="fill:#89b190; stroke:none;" d="M846 595L847 596L846 595z"/>
<path style="fill:#bdd4c1; stroke:none;" d="M846.333 596.667L846.667 597.333L846.333 596.667z"/>
<path style="fill:#89b190; stroke:none;" d="M154 598L155 599L154 598z"/>
<path style="fill:#bdd4c1; stroke:none;" d="M154 599L155 600L154 599z"/>
<path style="fill:#89b190; stroke:none;" d="M845 599L846 600L845 599z"/>
<path style="fill:#bdd4c1; stroke:none;" d="M845 600L846 601L845 600z"/>
<path style="fill:#89b190; stroke:none;" d="M155 601L156 602L155 601z"/>
<path style="fill:#bdd4c1; stroke:none;" d="M155 602L156 603L155 602z"/>
<path style="fill:#89b190; stroke:none;" d="M844 602L845 603L844 602z"/>
<path style="fill:#bdd4c1; stroke:none;" d="M844 603L845 604L844 603z"/>
<path style="fill:#89b190; stroke:none;" d="M156 605L157 606L156 605z"/>
<path style="fill:#bdd4c1; stroke:none;" d="M156 606L157 607L156 606z"/>
<path style="fill:#89b190; stroke:none;" d="M843 606L844 607L843 606z"/>
<path style="fill:#bdd4c1; stroke:none;" d="M843 607L844 608L843 607z"/>
<path style="fill:#89b190; stroke:none;" d="M157 608L158 609L157 608z"/>
<path style="fill:#bdd4c1; stroke:none;" d="M157 609L158 610L157 609z"/>
<path style="fill:#89b190; stroke:none;" d="M842 609L843 610L842 609z"/>
<path style="fill:#bdd4c1; stroke:none;" d="M842 610L843 611L842 610z"/>
<path style="fill:#89b190; stroke:none;" d="M158 611L159 612L158 611z"/>
<path style="fill:#bdd4c1; stroke:none;" d="M158 612L159 613L158 612z"/>
<path style="fill:#89b190; stroke:none;" d="M841 612L842 613L841 612z"/>
<path style="fill:#bdd4c1; stroke:none;" d="M841 613L842 614L841 613z"/>
<path style="fill:#89b190; stroke:none;" d="M159 614L160 615L159 614z"/>
<path style="fill:#bdd4c1; stroke:none;" d="M159 615L160 616L159 615z"/>
<path style="fill:#89b190; stroke:none;" d="M840 615L841 616L840 615z"/>
<path style="fill:#bdd4c1; stroke:none;" d="M840 616L841 617L840 616z"/>
<path style="fill:#89b190; stroke:none;" d="M160 617L161 618L160 617z"/>
<path style="fill:#bdd4c1; stroke:none;" d="M160 618L161 619L160 618z"/>
<path style="fill:#89b190; stroke:none;" d="M839 618L840 619L839 618z"/>
<path style="fill:#bdd4c1; stroke:none;" d="M839 619L840 620L839 619z"/>
<path style="fill:#89b190; stroke:none;" d="M161 620L162 621L161 620z"/>
<path style="fill:#bdd4c1; stroke:none;" d="M161 621L162 622L161 621z"/>
<path style="fill:#89b190; stroke:none;" d="M838 621L839 622L838 621M162 623L163 624L162 623z"/>
<path style="fill:#bdd4c1; stroke:none;" d="M837 624L838 625L837 624z"/>
<path style="fill:#89b190; stroke:none;" d="M163 625L164 626L163 625z"/>
<path style="fill:#bdd4c1; stroke:none;" d="M163 626L164 627L163 626z"/>
<path style="fill:#89b190; stroke:none;" d="M836 626L837 627L836 626z"/>
<path style="fill:#bdd4c1; stroke:none;" d="M836 627L837 628L836 627z"/>
<path style="fill:#89b190; stroke:none;" d="M164 628L165 629L164 628z"/>
<path style="fill:#bdd4c1; stroke:none;" d="M164 629L165 630L164 629z"/>
<path style="fill:#89b190; stroke:none;" d="M835 629L836 630L835 629M165 631L166 632L165 631M834 631L835 632L834 631z"/>
<path style="fill:#bdd4c1; stroke:none;" d="M834 632L835 633L834 632z"/>
<path style="fill:#89b190; stroke:none;" d="M166 633L167 634L166 633z"/>
<path style="fill:#bdd4c1; stroke:none;" d="M166 634L167 635L166 634z"/>
<path style="fill:#89b190; stroke:none;" d="M833 634L834 635L833 634M167 636L168 637L167 636M832 636L833 637L832 636z"/>
<path style="fill:#bdd4c1; stroke:none;" d="M832 637L833 638L832 637z"/>
<path style="fill:#89b190; stroke:none;" d="M168 638L169 639L168 638z"/>
<path style="fill:#bdd4c1; stroke:none;" d="M168 639L169 640L168 639z"/>
<path style="fill:#89b190; stroke:none;" d="M831 639L832 640L831 639z"/>
<path style="fill:#bdd4c1; stroke:none;" d="M169 641L170 642L169 641z"/>
<path style="fill:#89b190; stroke:none;" d="M830 641L831 642L830 641M170 643L171 644L170 643M829 643L830 644L829 643z"/>
<path style="fill:#bdd4c1; stroke:none;" d="M829 644L830 645L829 644z"/>
<path style="fill:#89b190; stroke:none;" d="M171 645L172 646L171 645z"/>
<path style="fill:#bdd4c1; stroke:none;" d="M171 646L172 647L171 646M828 646L829 647L828 646M172 648L173 649L172 648z"/>
<path style="fill:#89b190; stroke:none;" d="M827 648L828 649L827 648M173 650L174 651L173 650M826 650L827 651L826 650M174 652L175 653L174 652M825 652L826 653L825 652z"/>
<path style="fill:#bdd4c1; stroke:none;" d="M825 653L826 654L825 653z"/>
<path style="fill:#89b190; stroke:none;" d="M175 654L176 655L175 654M824 654L825 655L824 654z"/>
<path style="fill:#bdd4c1; stroke:none;" d="M824 655L825 656L824 655z"/>
<path style="fill:#89b190; stroke:none;" d="M176 656L177 657L176 656z"/>
<path style="fill:#bdd4c1; stroke:none;" d="M823 657L824 658L823 657z"/>
<path style="fill:#89b190; stroke:none;" d="M177 658L178 659L177 658z"/>
<path style="fill:#bdd4c1; stroke:none;" d="M822 659L823 660L822 659z"/>
<path style="fill:#89b190; stroke:none;" d="M178 660L179 661L178 660z"/>
<path style="fill:#bdd4c1; stroke:none;" d="M821 661L822 662L821 661z"/>
<path style="fill:#89b190; stroke:none;" d="M179 662L180 663L179 662z"/>
<path style="fill:#bdd4c1; stroke:none;" d="M820 663L821 664L820 663z"/>
<path style="fill:#89b190; stroke:none;" d="M180 664L181 665L180 664z"/>
<path style="fill:#bdd4c1; stroke:none;" d="M819 665L820 666L819 665z"/>
<path style="fill:#89b190; stroke:none;" d="M181 666L182 667L181 666z"/>
<path style="fill:#bdd4c1; stroke:none;" d="M818 667L819 668L818 667M182 668L183 669L182 668z"/>
<path style="fill:#89b190; stroke:none;" d="M817 668L818 669L817 668z"/>
<path style="fill:#bdd4c1; stroke:none;" d="M183 670L184 671L183 670z"/>
<path style="fill:#89b190; stroke:none;" d="M816 670L817 671L816 670z"/>
<path style="fill:#bdd4c1; stroke:none;" d="M184 672L185 673L184 672z"/>
<path style="fill:#89b190; stroke:none;" d="M815 672L816 673L815 672z"/>
<path style="fill:#bdd4c1; stroke:none;" d="M185 674L186 675L185 674M814 674L815 675L814 674z"/>
<path style="fill:#89b190; stroke:none;" d="M186 675L187 676L186 675z"/>
<path style="fill:#bdd4c1; stroke:none;" d="M813 676L814 677L813 676z"/>
<path style="fill:#89b190; stroke:none;" d="M187 677L188 678L187 677M812 677L813 678L812 677z"/>
<path style="fill:#bdd4c1; stroke:none;" d="M812 678L813 679L812 678M188 679L189 680L188 679z"/>
<path style="fill:#89b190; stroke:none;" d="M811 679L812 680L811 679z"/>
<path style="fill:#bdd4c1; stroke:none;" d="M189 681L190 682L189 681M810 681L811 682L810 681z"/>
<path style="fill:#89b190; stroke:none;" d="M190 682L191 683L190 682z"/>
<path style="fill:#bdd4c1; stroke:none;" d="M809 683L810 684L809 683z"/>
<path style="fill:#89b190; stroke:none;" d="M191 684L192 685L191 684M808 684L809 685L808 684M562 685L562 709L563 709L562 685z"/>
<path style="fill:#bdd4c1; stroke:none;" d="M192 686L193 687L192 686M807 686L808 687L807 686z"/>
<path style="fill:#89b190; stroke:none;" d="M193 687L194 688L193 687z"/>
<path style="fill:#bdd4c1; stroke:none;" d="M806 688L807 689L806 688z"/>
<path style="fill:#89b190; stroke:none;" d="M194 689L195 690L194 689M805 689L806 690L805 689z"/>
<path style="fill:#bdd4c1; stroke:none;" d="M195 691L196 692L195 691M804 691L805 692L804 691z"/>
<path style="fill:#89b190; stroke:none;" d="M196 692L197 693L196 692M803 692L804 693L803 692z"/>
<path style="fill:#bdd4c1; stroke:none;" d="M197 694L198 695L197 694M802 694L803 695L802 694z"/>
<path style="fill:#89b190; stroke:none;" d="M198 695L199 696L198 695M801 695L802 696L801 695z"/>
<path style="fill:#bdd4c1; stroke:none;" d="M199 697L200 698L199 697M800 697L801 698L800 697z"/>
<path style="fill:#89b190; stroke:none;" d="M200 698L201 699L200 698z"/>
<path style="fill:#bdd4c1; stroke:none;" d="M201 700L202 701L201 700z"/>
<path style="fill:#89b190; stroke:none;" d="M798 700L799 701L798 700M202 701L203 702L202 701z"/>
<path style="fill:#bdd4c1; stroke:none;" d="M203 703L204 704L203 703z"/>
<path style="fill:#89b190; stroke:none;" d="M796 703L797 704L796 703M795 704L796 705L795 704z"/>
<path style="fill:#bdd4c1; stroke:none;" d="M205 706L206 707L205 706M794 706L795 707L794 706z"/>
<path style="fill:#89b190; stroke:none;" d="M206 707L207 708L206 707M793 707L794 708L793 707z"/>
<path style="fill:#bdd4c1; stroke:none;" d="M207 709L208 710L207 709M562.333 709.667L562.667 710.333L562.333 709.667M792 709L793 710L792 709M208 710L209 711L208 710z"/>
<path style="fill:#89b190; stroke:none;" d="M791 710L792 711L791 710M209 711L210 712L209 711M562 711L562 717L563 717L562 711z"/>
<path style="fill:#bdd4c1; stroke:none;" d="M210 713L211 714L210 713M789 713L790 714L789 713z"/>
<path style="fill:#89b190; stroke:none;" d="M211 714L212 715L211 714M788 714L789 715L788 714z"/>
<path style="fill:#bdd4c1; stroke:none;" d="M439 716L439 720L440 720L439 716M213 717L214 718L213 717M786 717L787 718L786 717z"/>
<path style="fill:#89b190; stroke:none;" d="M214 718L215 719L214 718M785 718L786 719L785 718M215 719L216 720L215 719M439 720L439 723L440 723L439 720z"/>
<path style="fill:#bdd4c1; stroke:none;" d="M561.333 720.667L561.667 721.333L561.333 720.667M216 721L217 722L216 721M783 721L784 722L783 721M217 722L218 723L217 722z"/>
<path style="fill:#89b190; stroke:none;" d="M561 722L562 723L561 722M782 722L783 723L782 722M218 723L219 724L218 723M781 723L782 724L781 723M219 724L220 725L219 724z"/>
<path style="fill:#bdd4c1; stroke:none;" d="M440.333 725.667L440.667 726.333L440.333 725.667M560 725L561 726L560 725M220 726L221 727L220 726z"/>
<path style="fill:#89b190; stroke:none;" d="M560 726L561 727L560 726z"/>
<path style="fill:#bdd4c1; stroke:none;" d="M779 726L780 727L779 726M221 727L222 728L221 727z"/>
<path style="fill:#89b190; stroke:none;" d="M440 727L441 728L440 727M778 727L779 728L778 727M222 728L223 729L222 728z"/>
<path style="fill:#bdd4c1; stroke:none;" d="M559 728L560 729L559 728z"/>
<path style="fill:#89b190; stroke:none;" d="M777 728L778 729L777 728M223 729L224 730L223 729M559 729L560 730L559 729z"/>
<path style="fill:#bdd4c1; stroke:none;" d="M441 730L442 731L441 730z"/>
<path style="fill:#89b190; stroke:none;" d="M441 731L442 732L441 731z"/>
<path style="fill:#bdd4c1; stroke:none;" d="M558 731L559 732L558 731M225 732L226 733L225 732z"/>
<path style="fill:#89b190; stroke:none;" d="M558 732L559 733L558 732z"/>
<path style="fill:#bdd4c1; stroke:none;" d="M774 732L775 733L774 732M226 733L227 734L226 733M442 733L443 734L442 733z"/>
<path style="fill:#89b190; stroke:none;" d="M773 733L774 734L773 733M227 734L228 735L227 734M442 734L443 735L442 734M557 734L558 735L557 734M772 734L773 735L772 734M228 735L229 736L228 735M229 736L230 737L229 736z"/>
<path style="fill:#bdd4c1; stroke:none;" d="M443 736L444 737L443 736z"/>
<path style="fill:#89b190; stroke:none;" d="M556 736L557 737L556 736z"/>
<path style="fill:#bdd4c1; stroke:none;" d="M444 738L445 739L444 738M555 738L556 739L555 738M769 738L770 739L769 738M231 739L232 740L231 739z"/>
<path style="fill:#89b190; stroke:none;" d="M444 739L445 740L444 739z"/>
<path style="fill:#bdd4c1; stroke:none;" d="M768 739L769 740L768 739M232 740L233 741L232 740M445 740L446 741L445 740z"/>
<path style="fill:#89b190; stroke:none;" d="M554 740L555 741L554 740z"/>
<path style="fill:#bdd4c1; stroke:none;" d="M767 740L768 741L767 740M233 741L234 742L233 741z"/>
<path style="fill:#89b190; stroke:none;" d="M445 741L446 742L445 741z"/>
<path style="fill:#bdd4c1; stroke:none;" d="M553 741L554 742L553 741z"/>
<path style="fill:#89b190; stroke:none;" d="M766 741L767 742L766 741M234 742L235 743L234 742z"/>
<path style="fill:#bdd4c1; stroke:none;" d="M446 742L447 743L446 742z"/>
<path style="fill:#89b190; stroke:none;" d="M765 742L766 743L765 742M235 743L236 744L235 743z"/>
<path style="fill:#bdd4c1; stroke:none;" d="M552 743L553 744L552 743z"/>
<path style="fill:#89b190; stroke:none;" d="M764 743L765 744L764 743M236 744L237 745L236 744M447 744L448 745L447 744z"/>
<path style="fill:#bdd4c1; stroke:none;" d="M551 744L552 745L551 744z"/>
<path style="fill:#89b190; stroke:none;" d="M763 744L764 745L763 744M237 745L238 746L237 745M238 746L239 747L238 746M550 746L551 747L550 746M239 747L240 748L239 747M449 747L450 748L449 747z"/>
<path style="fill:#bdd4c1; stroke:none;" d="M549 747L550 748L549 747M761 747L762 748L761 747M450 748L451 749L450 748M548 748L549 749L548 748M760 748L761 749L760 748M759 749L760 750L759 749M758 750L759 751L758 750z"/>
<path style="fill:#89b190; stroke:none;" d="M452 751L453 752L452 751z"/>
<path style="fill:#bdd4c1; stroke:none;" d="M757 751L758 752L757 751z"/>
<path style="fill:#89b190; stroke:none;" d="M453 752L454 753L453 752z"/>
<path style="fill:#bdd4c1; stroke:none;" d="M756 752L757 753L756 752M244 753L245 754L244 753M543 753L544 754L543 753M755 753L756 754L755 753M542 754L543 755L542 754M754 754L755 755L754 754M541 755L542 756L541 755M753 755L754 756L753 755M458 756L459 757L458 756z"/>
<path style="fill:#89b190; stroke:none;" d="M540 756L541 757L540 756z"/>
<path style="fill:#bdd4c1; stroke:none;" d="M752 756L753 757L752 756z"/>
<path style="fill:#89b190; stroke:none;" d="M459 757L460 758L459 757M539 757L540 758L539 757z"/>
<path style="fill:#bdd4c1; stroke:none;" d="M751 757L752 758L751 757z"/>
<path style="fill:#89b190; stroke:none;" d="M250 758L251 759L250 758z"/>
<path style="fill:#bdd4c1; stroke:none;" d="M750 758L751 759L750 758z"/>
<path style="fill:#89b190; stroke:none;" d="M251 759L252 760L251 759z"/>
<path style="fill:#bdd4c1; stroke:none;" d="M462 759L463 760L462 759z"/>
<path style="fill:#89b190; stroke:none;" d="M536 759L537 760L536 759z"/>
<path style="fill:#bdd4c1; stroke:none;" d="M749 759L750 760L749 759z"/>
<path style="fill:#89b190; stroke:none;" d="M252 760L253 761L252 760M463 760L464 761L463 760M253 761L254 762L253 761M465 761L466 762L465 761M533 761L534 762L533 761M254 762L255 763L254 762M467 762L468 763L467 762z"/>
<path style="fill:#bdd4c1; stroke:none;" d="M531 762L532 763L531 762z"/>
<path style="fill:#89b190; stroke:none;" d="M255 763L256 764L255 763M469 763L470 764L469 763z"/>
<path style="fill:#bdd4c1; stroke:none;" d="M529 763L530 764L529 763z"/>
<path style="fill:#89b190; stroke:none;" d="M256 764L257 765L256 764M471 764L472 765L471 764z"/>
<path style="fill:#bdd4c1; stroke:none;" d="M472 764L473 765L472 764M527 764L528 765L527 764z"/>
<path style="fill:#89b190; stroke:none;" d="M743 764L744 765L743 764z"/>
<path style="fill:#bdd4c1; stroke:none;" d="M257 765L258 766L257 765z"/>
<path style="fill:#89b190; stroke:none;" d="M474 765L475 766L474 765z"/>
<path style="fill:#bdd4c1; stroke:none;" d="M475 765L476 766L475 765z"/>
<path style="fill:#89b190; stroke:none;" d="M525 765L526 766L525 765M742 765L743 766L742 765z"/>
<path style="fill:#bdd4c1; stroke:none;" d="M258 766L259 767L258 766z"/>
<path style="fill:#89b190; stroke:none;" d="M477 766L478 767L477 766z"/>
<path style="fill:#bdd4c1; stroke:none;" d="M522 766L523 767L522 766z"/>
<path style="fill:#89b190; stroke:none;" d="M523 766L524 767L523 766M741 766L742 767L741 766z"/>
<path style="fill:#bdd4c1; stroke:none;" d="M259 767L260 768L259 767z"/>
<path style="fill:#89b190; stroke:none;" d="M480 767L481 768L480 767z"/>
<path style="fill:#bdd4c1; stroke:none;" d="M481 767L482 768L481 767M519 767L520 768L519 767z"/>
<path style="fill:#89b190; stroke:none;" d="M520 767L521 768L520 767M740 767L741 768L740 767M484.667 768.333L485.333 768.667L484.667 768.333z"/>
<path style="fill:#bdd4c1; stroke:none;" d="M486 768L487 769L486 768M515 768L516 769L515 768z"/>
<path style="fill:#89b190; stroke:none;" d="M516.667 768.333L517.333 768.667L516.667 768.333M739 768L740 769L739 768M489.667 769.333L490.333 769.667L489.667 769.333z"/>
<path style="fill:#bdd4c1; stroke:none;" d="M491 769L491 770L494 770L491 769M509.667 769.333L510.333 769.667L509.667 769.333z"/>
<path style="fill:#89b190; stroke:none;" d="M511.667 769.333L512.333 769.667L511.667 769.333z"/>
<path style="fill:#bdd4c1; stroke:none;" d="M738 769L739 770L738 769z"/>
<path style="fill:#89b190; stroke:none;" d="M263 770L264 771L263 770M499 770L499 771L507 771L499 770z"/>
<path style="fill:#bdd4c1; stroke:none;" d="M737 770L738 771L737 770z"/>
<path style="fill:#89b190; stroke:none;" d="M264 771L265 772L264 771z"/>
<path style="fill:#bdd4c1; stroke:none;" d="M736 771L737 772L736 771z"/>
<path style="fill:#89b190; stroke:none;" d="M265 772L266 773L265 772z"/>
<path style="fill:#bdd4c1; stroke:none;" d="M266 773L267 774L266 773z"/>
<path style="fill:#89b190; stroke:none;" d="M733 773L734 774L733 773z"/>
<path style="fill:#bdd4c1; stroke:none;" d="M267 774L268 775L267 774z"/>
<path style="fill:#89b190; stroke:none;" d="M732 774L733 775L732 774z"/>
<path style="fill:#bdd4c1; stroke:none;" d="M731 775L732 776L731 775z"/>
<path style="fill:#89b190; stroke:none;" d="M270 776L271 777L270 776z"/>
<path style="fill:#bdd4c1; stroke:none;" d="M730 776L731 777L730 776z"/>
<path style="fill:#89b190; stroke:none;" d="M271 777L272 778L271 777M272 778L273 779L272 778M727 778L728 779L727 778z"/>
<path style="fill:#bdd4c1; stroke:none;" d="M273 779L274 780L273 779z"/>
<path style="fill:#89b190; stroke:none;" d="M726 779L727 780L726 779z"/>
<path style="fill:#bdd4c1; stroke:none;" d="M274 780L275 781L274 780M725 780L726 781L725 780z"/>
<path style="fill:#89b190; stroke:none;" d="M276 781L277 782L276 781z"/>
<path style="fill:#bdd4c1; stroke:none;" d="M724 781L725 782L724 781z"/>
<path style="fill:#89b190; stroke:none;" d="M277 782L278 783L277 782M722 782L723 783L722 782z"/>
<path style="fill:#bdd4c1; stroke:none;" d="M278 783L279 784L278 783z"/>
<path style="fill:#89b190; stroke:none;" d="M721 783L722 784L721 783z"/>
<path style="fill:#bdd4c1; stroke:none;" d="M720 784L721 785L720 784z"/>
<path style="fill:#89b190; stroke:none;" d="M281 785L282 786L281 785z"/>
<path style="fill:#bdd4c1; stroke:none;" d="M282 786L283 787L282 786z"/>
<path style="fill:#89b190; stroke:none;" d="M717 786L718 787L717 786z"/>
<path style="fill:#bdd4c1; stroke:none;" d="M283 787L284 788L283 787M716 787L717 788L716 787z"/>
<path style="fill:#89b190; stroke:none;" d="M285 788L286 789L285 788M714 788L715 789L714 788z"/>
<path style="fill:#bdd4c1; stroke:none;" d="M286 789L287 790L286 789z"/>
<path style="fill:#89b190; stroke:none;" d="M713 789L714 790L713 789z"/>
<path style="fill:#bdd4c1; stroke:none;" d="M712 790L713 791L712 790z"/>
<path style="fill:#89b190; stroke:none;" d="M289 791L290 792L289 791M710 791L711 792L710 791z"/>
<path style="fill:#bdd4c1; stroke:none;" d="M290 792L291 793L290 792M709 792L710 793L709 792z"/>
<path style="fill:#89b190; stroke:none;" d="M292 793L293 794L292 793z"/>
<path style="fill:#bdd4c1; stroke:none;" d="M293 794L294 795L293 794z"/>
<path style="fill:#89b190; stroke:none;" d="M706 794L707 795L706 794M295 795L296 796L295 795z"/>
<path style="fill:#bdd4c1; stroke:none;" d="M705 795L706 796L705 795M296 796L297 797L296 796z"/>
<path style="fill:#89b190; stroke:none;" d="M703 796L704 797L703 796M298 797L299 798L298 797z"/>
<path style="fill:#bdd4c1; stroke:none;" d="M702 797L703 798L702 797M299 798L300 799L299 798z"/>
<path style="fill:#89b190; stroke:none;" d="M700 798L701 799L700 798M301 799L302 800L301 799z"/>
<path style="fill:#bdd4c1; stroke:none;" d="M699 799L700 800L699 799M302 800L303 801L302 800z"/>
<path style="fill:#89b190; stroke:none;" d="M697 800L698 801L697 800M304 801L305 802L304 801z"/>
<path style="fill:#bdd4c1; stroke:none;" d="M696 801L697 802L696 801M305 802L306 803L305 802z"/>
<path style="fill:#89b190; stroke:none;" d="M694 802L695 803L694 802M307 803L308 804L307 803z"/>
<path style="fill:#bdd4c1; stroke:none;" d="M693 803L694 804L693 803M308 804L309 805L308 804z"/>
<path style="fill:#89b190; stroke:none;" d="M691 804L692 805L691 804M310 805L311 806L310 805z"/>
<path style="fill:#bdd4c1; stroke:none;" d="M311 806L312 807L311 806M688 806L689 807L688 806z"/>
<path style="fill:#89b190; stroke:none;" d="M313 807L314 808L313 807M686 807L687 808L686 807M315 808L316 809L315 808z"/>
<path style="fill:#bdd4c1; stroke:none;" d="M685 808L686 809L685 808M316 809L317 810L316 809z"/>
<path style="fill:#89b190; stroke:none;" d="M683 809L684 810L683 809M318 810L319 811L318 810M681 810L682 811L681 810M320 811L321 812L320 811z"/>
<path style="fill:#bdd4c1; stroke:none;" d="M680 811L681 812L680 811M321 812L322 813L321 812M678 812L679 813L678 812M323 813L324 814L323 813z"/>
<path style="fill:#89b190; stroke:none;" d="M676 813L677 814L676 813M325 814L326 815L325 814M674 814L675 815L674 814M327 815L328 816L327 815M672 815L673 816L672 815z"/>
<path style="fill:#bdd4c1; stroke:none;" d="M673 815L674 816L673 815M328 816L329 817L328 816z"/>
<path style="fill:#89b190; stroke:none;" d="M329 816L330 817L329 816M670 816L671 817L670 816z"/>
<path style="fill:#bdd4c1; stroke:none;" d="M671 816L672 817L671 816M330 817L331 818L330 817z"/>
<path style="fill:#89b190; stroke:none;" d="M331 817L332 818L331 817z"/>
<path style="fill:#bdd4c1; stroke:none;" d="M669 817L670 818L669 817M332 818L333 819L332 818M667 818L668 819L667 818M334 819L335 820L334 819M665 819L666 820L665 819M336 820L337 821L336 820M663 820L664 821L663 820M338 821L339 822L338 821M661 821L662 822L661 821M340 822L341 823L340 822M659 822L660 823L659 822M342 823L343 824L342 823M657 823L658 824L657 823M344 824L345 825L344 824z"/>
<path style="fill:#89b190; stroke:none;" d="M345 824L346 825L345 824z"/>
<path style="fill:#bdd4c1; stroke:none;" d="M655 824L656 825L655 824M346 825L347 826L346 825z"/>
<path style="fill:#89b190; stroke:none;" d="M347 825L348 826L347 825z"/>
<path style="fill:#bdd4c1; stroke:none;" d="M653 825L654 826L653 825z"/>
<path style="fill:#89b190; stroke:none;" d="M349 826L350 827L349 826M650 826L651 827L650 826z"/>
<path style="fill:#bdd4c1; stroke:none;" d="M651 826L652 827L651 826z"/>
<path style="fill:#89b190; stroke:none;" d="M351 827L352 828L351 827M648 827L649 828L648 827z"/>
<path style="fill:#bdd4c1; stroke:none;" d="M353 828L354 829L353 828z"/>
<path style="fill:#89b190; stroke:none;" d="M646 828L647 829L646 828z"/>
<path style="fill:#bdd4c1; stroke:none;" d="M355 829L356 830L355 829z"/>
<path style="fill:#89b190; stroke:none;" d="M356 829L357 830L356 829z"/>
<path style="fill:#bdd4c1; stroke:none;" d="M644 829L645 830L644 829M357 830L358 831L357 830z"/>
<path style="fill:#89b190; stroke:none;" d="M358 830L359 831L358 830M641 830L642 831L641 830z"/>
<path style="fill:#bdd4c1; stroke:none;" d="M642 830L643 831L642 830z"/>
<path style="fill:#89b190; stroke:none;" d="M360 831L361 832L360 831M639 831L640 832L639 831z"/>
<path style="fill:#bdd4c1; stroke:none;" d="M362 832L363 833L362 832z"/>
<path style="fill:#89b190; stroke:none;" d="M636 832L637 833L636 832z"/>
<path style="fill:#bdd4c1; stroke:none;" d="M637 832L638 833L637 832M364 833L365 834L364 833z"/>
<path style="fill:#89b190; stroke:none;" d="M365 833L366 834L365 833M634 833L635 834L634 833z"/>
<path style="fill:#bdd4c1; stroke:none;" d="M635 833L636 834L635 833M367 834L368 835L367 834z"/>
<path style="fill:#89b190; stroke:none;" d="M368 834L369 835L368 834z"/>
<path style="fill:#bdd4c1; stroke:none;" d="M632 834L633 835L632 834z"/>
<path style="fill:#89b190; stroke:none;" d="M370 835L371 836L370 835M629 835L630 836L629 835z"/>
<path style="fill:#bdd4c1; stroke:none;" d="M630 835L631 836L630 835M372 836L373 837L372 836z"/>
<path style="fill:#89b190; stroke:none;" d="M373 836L374 837L373 836z"/>
<path style="fill:#bdd4c1; stroke:none;" d="M627 836L628 837L627 836M375 837L376 838L375 837z"/>
<path style="fill:#89b190; stroke:none;" d="M376 837L377 838L376 837M624 837L625 838L624 837z"/>
<path style="fill:#bdd4c1; stroke:none;" d="M378 838L379 839L378 838z"/>
<path style="fill:#89b190; stroke:none;" d="M379 838L380 839L379 838M621 838L622 839L621 838z"/>
<path style="fill:#bdd4c1; stroke:none;" d="M622 838L623 839L622 838z"/>
<path style="fill:#89b190; stroke:none;" d="M381 839L382 840L381 839M618 839L619 840L618 839z"/>
<path style="fill:#bdd4c1; stroke:none;" d="M619 839L620 840L619 839z"/>
<path style="fill:#89b190; stroke:none;" d="M384 840L385 841L384 840M615 840L616 841L615 840z"/>
<path style="fill:#bdd4c1; stroke:none;" d="M616 840L617 841L616 840M386 841L387 842L386 841z"/>
<path style="fill:#89b190; stroke:none;" d="M387 841L388 842L387 841M612 841L613 842L612 841z"/>
<path style="fill:#bdd4c1; stroke:none;" d="M613 841L614 842L613 841M389 842L390 843L389 842z"/>
<path style="fill:#89b190; stroke:none;" d="M390 842L391 843L390 842M609 842L610 843L609 842z"/>
<path style="fill:#bdd4c1; stroke:none;" d="M610 842L611 843L610 842z"/>
<path style="fill:#89b190; stroke:none;" d="M393.667 843.333L394.333 843.667L393.667 843.333M605 843L606 844L605 843z"/>
<path style="fill:#bdd4c1; stroke:none;" d="M606 843L607 844L606 843M396 844L397 845L396 844z"/>
<path style="fill:#89b190; stroke:none;" d="M397 844L398 845L397 844M602 844L603 845L602 844z"/>
<path style="fill:#bdd4c1; stroke:none;" d="M603 844L604 845L603 844M399 845L400 846L399 845z"/>
<path style="fill:#89b190; stroke:none;" d="M400 845L401 846L400 845M599 845L600 846L599 845z"/>
<path style="fill:#bdd4c1; stroke:none;" d="M600 845L601 846L600 845M402 846L403 847L402 846z"/>
<path style="fill:#89b190; stroke:none;" d="M403.667 846.333L404.333 846.667L403.667 846.333M595 846L596 847L595 846z"/>
<path style="fill:#bdd4c1; stroke:none;" d="M596 846L597 847L596 846M406 847L407 848L406 847z"/>
<path style="fill:#89b190; stroke:none;" d="M407.667 847.333L408.333 847.667L407.667 847.333M591.667 847.333L592.333 847.667L591.667 847.333z"/>
<path style="fill:#bdd4c1; stroke:none;" d="M593 847L594 848L593 847M410 848L411 849L410 848z"/>
<path style="fill:#89b190; stroke:none;" d="M411 848L412 849L411 848M588 848L589 849L588 848z"/>
<path style="fill:#bdd4c1; stroke:none;" d="M589 848L590 849L589 848M414 849L415 850L414 849z"/>
<path style="fill:#89b190; stroke:none;" d="M415 849L416 850L415 849M584 849L585 850L584 849z"/>
<path style="fill:#bdd4c1; stroke:none;" d="M585 849L586 850L585 849M418 850L419 851L418 850z"/>
<path style="fill:#89b190; stroke:none;" d="M419.667 850.333L420.333 850.667L419.667 850.333M580 850L581 851L580 850z"/>
<path style="fill:#bdd4c1; stroke:none;" d="M581 850L582 851L581 850M423 851L424 852L423 851z"/>
<path style="fill:#89b190; stroke:none;" d="M424 851L425 852L424 851M575.667 851.333L576.333 851.667L575.667 851.333z"/>
<path style="fill:#bdd4c1; stroke:none;" d="M577 851L578 852L577 851M427 852L428 853L427 852z"/>
<path style="fill:#89b190; stroke:none;" d="M428.667 852.333L429.333 852.667L428.667 852.333M570.667 852.333L571.333 852.667L570.667 852.333z"/>
<path style="fill:#bdd4c1; stroke:none;" d="M572 852L573 853L572 852M432.667 853.333L433.333 853.667L432.667 853.333z"/>
<path style="fill:#89b190; stroke:none;" d="M434 853L435 854L434 853M565.667 853.333L566.333 853.667L565.667 853.333z"/>
<path style="fill:#bdd4c1; stroke:none;" d="M567 853L568 854L567 853M438 854L439 855L438 854z"/>
<path style="fill:#89b190; stroke:none;" d="M439.667 854.333L440.333 854.667L439.667 854.333M559.667 854.333L560.333 854.667L559.667 854.333z"/>
<path style="fill:#bdd4c1; stroke:none;" d="M561.667 854.333L562.333 854.667L561.667 854.333M443.667 855.333L444.333 855.667L443.667 855.333z"/>
<path style="fill:#89b190; stroke:none;" d="M445 855L445 856L448 856L445 855M552.667 855.333L553.333 855.667L552.667 855.333z"/>
<path style="fill:#bdd4c1; stroke:none;" d="M554.667 855.333L555.333 855.667L554.667 855.333M451.667 856.333L452.333 856.667L451.667 856.333z"/>
<path style="fill:#89b190; stroke:none;" d="M453 856L453 857L456 857L453 856M544 856L544 857L547 857L544 856z"/>
<path style="fill:#bdd4c1; stroke:none;" d="M547.667 856.333L548.333 856.667L547.667 856.333M459 857L459 858L462 858L459 857z"/>
<path style="fill:#89b190; stroke:none;" d="M462 857L462 858L465 858L462 857M535 857L535 858L538 858L535 857z"/>
<path style="fill:#bdd4c1; stroke:none;" d="M538.667 857.333L539.333 857.667L538.667 857.333M469.667 858.333L470.333 858.667L469.667 858.333z"/>
<path style="fill:#89b190; stroke:none;" d="M471 858L471 859L477 859L471 858M524 858L524 859L527 859L524 858z"/>
<path style="fill:#bdd4c1; stroke:none;" d="M527 858L527 859L530 859L527 858M493 859L493 860L511 860L493 859z"/>
</svg>
