<?xml version="1.0" standalone="yes"?>
<svg xmlns="http://www.w3.org/2000/svg" width="1000" height="1000">
<path style="fill:#ffffff; stroke:none;" d="M0 0L0 1000L1000 1000L1000 0L0 0z"/>
<path style="fill:#f7a3a3; stroke:none;" d="M639 186L639 187L648 187L639 186z"/>
<path style="fill:#a76662; stroke:none;" d="M648 186L649 187L648 186z"/>
<path style="fill:#dd494f; stroke:none;" d="M240 348L240 349C263.628 342.538 286.025 332.072 311 331C313.215 326.854 315.955 326.34 319 330C337.658 325.558 359.031 326.612 378 327.911C424.977 331.128 470.275 339.241 514 357.576C536.556 367.033 559.483 378.08 575.7 397C609.023 435.879 620.751 496.512 632.873 545C639.396 571.091 644.686 597.468 649.08 624C652.815 646.55 656.104 664.104 643 684C667.251 675.175 691.291 660.59 714 648.309C760.51 623.155 804.215 596.349 847 565.151C879.886 541.172 913.977 515.984 934.573 480C963.751 429.018 947.572 381.995 923.248 333C902.61 291.432 880.834 247.921 841 221.355C824.267 210.195 805.364 202.969 786 197.884C760.845 191.279 734.785 189.678 709 187.911C676.58 185.688 644.166 184.584 612 190.611C564.023 199.6 517.159 218.736 472 236.8C417.163 258.736 363.489 283.167 311 310.258C287.262 322.51 264.19 336.706 240 348z"/>
<path style="fill:#a76662; stroke:none;" d="M687 186L688 187L687 186z"/>
<path style="fill:#f7a3a3; stroke:none;" d="M688 186L688 187L699 187L688 186M629 187L629 188L634 188L629 187z"/>
<path style="fill:#a76662; stroke:none;" d="M705 187L706 188L705 187z"/>
<path style="fill:#f7a3a3; stroke:none;" d="M706 187L706 188L713 188L706 187M622 188L622 189L625 189L622 188z"/>
<path style="fill:#a76662; stroke:none;" d="M625 188L626 189L625 188M719 188L720 189L719 188z"/>
<path style="fill:#f7a3a3; stroke:none;" d="M720 188L720 189L727 189L720 188M616 189L616 190L619 190L616 189M733 189L733 190L739 190L733 189M610 190L610 191L613 191L610 190z"/>
<path style="fill:#a76662; stroke:none;" d="M742 190L743 191L742 190z"/>
<path style="fill:#f7a3a3; stroke:none;" d="M743 190L743 191L747 191L743 190M605.667 191.333L606.333 191.667L605.667 191.333z"/>
<path style="fill:#a76662; stroke:none;" d="M607 191L608 192L607 191z"/>
<path style="fill:#f7a3a3; stroke:none;" d="M750 191L750 192L754 192L750 191M601.667 192.333L602.333 192.667L601.667 192.333M758 192L758 193L762 193L758 192M597.667 193.333L598.333 193.667L597.667 193.333M765 193L765 194L768 194L765 193M593.667 194.333L594.333 194.667L593.667 194.333z"/>
<path style="fill:#a76662; stroke:none;" d="M770 194L771 195L770 194z"/>
<path style="fill:#f7a3a3; stroke:none;" d="M771.667 194.333L772.333 194.667L771.667 194.333M589.667 195.333L590.333 195.667L589.667 195.333z"/>
<path style="fill:#a76662; stroke:none;" d="M775 195L776 196L775 195z"/>
<path style="fill:#f7a3a3; stroke:none;" d="M776.667 195.333L777.333 195.667L776.667 195.333M585.667 196.333L586.333 196.667L585.667 196.333M780.667 196.333L781.333 196.667L780.667 196.333M581.667 197.333L582.333 197.667L581.667 197.333M784.667 197.333L785.333 197.667L784.667 197.333M578.667 198.333L579.333 198.667L578.667 198.333M788.667 198.333L789.333 198.667L788.667 198.333M575 199L576 200L575 199z"/>
<path style="fill:#a76662; stroke:none;" d="M576 199L577 200L576 199M791 199L792 200L791 199z"/>
<path style="fill:#f7a3a3; stroke:none;" d="M792 199L793 200L792 199M571.667 200.333L572.333 200.667L571.667 200.333M795.667 200.333L796.333 200.667L795.667 200.333M568.667 201.333L569.333 201.667L568.667 201.333M798.667 201.333L799.333 201.667L798.667 201.333M565.667 202.333L566.333 202.667L565.667 202.333M801.667 202.333L802.333 202.667L801.667 202.333M562 203L563 204L562 203z"/>
<path style="fill:#a76662; stroke:none;" d="M563 203L564 204L563 203z"/>
<path style="fill:#f7a3a3; stroke:none;" d="M804.667 203.333L805.333 203.667L804.667 203.333M559.667 204.333L560.333 204.667L559.667 204.333M807 204L808 205L807 204M556.667 205.333L557.333 205.667L556.667 205.333M578 205L578 208L580 207L580 206L578 205M810 205L811 206L810 205M553.667 206.333L554.333 206.667L553.667 206.333M812.667 206.333L813.333 206.667L812.667 206.333M550.667 207.333L551.333 207.667L550.667 207.333M815 207L816 208L815 207M547.667 208.333L548.333 208.667L547.667 208.333M817 208L818 209L817 208M544.667 209.333L545.333 209.667L544.667 209.333M732 210C733.806 213.249 735.383 213.599 739 213L732 210M819 209L820 210L819 209M542 210L543 211L542 210M821 210L822 211L821 210M539 211L540 212L539 211M823 211L824 212L823 211M536 212L537 213L536 212M825 212L826 213L825 212M533 213L534 214L533 213M827 213L828 214L827 213M530.667 214.333L531.333 214.667L530.667 214.333M829 214L830 215L829 214M527.667 215.333L528.333 215.667L527.667 215.333M831 215L832 216L831 215M525 216L526 217L525 216M522 217L523 218L522 217M834 217L835 218L834 217M519 218L520 219L519 218z"/>
<path style="fill:#a76662; stroke:none;" d="M520 218L521 219L520 218z"/>
<path style="fill:#f7a3a3; stroke:none;" d="M836 218L837 219L836 218M516.667 219.333L517.333 219.667L516.667 219.333M838 219L839 220L838 219M514 220L515 221L514 220M839 220L840 221L839 220M511 221L512 222L511 221M841 221L842 222L841 221M508 222L509 223L508 222z"/>
<path style="fill:#a76662; stroke:none;" d="M509 222L510 223L509 222z"/>
<path style="fill:#f7a3a3; stroke:none;" d="M842 222L843 223L842 222M505.667 223.333L506.333 223.667L505.667 223.333M844 223L845 224L844 223M503 224L504 225L503 224M845 224L846 225L845 224M500 225L501 226L500 225z"/>
<path style="fill:#a76662; stroke:none;" d="M846 225L847 226L846 225z"/>
<path style="fill:#f7a3a3; stroke:none;" d="M497.667 226.333L498.333 226.667L497.667 226.333M848 226L849 227L848 226M495 227L496 228L495 227M849 227L850 228L849 227M492 228L493 229L492 228M850 228L851 229L850 228M489.667 229.333L490.333 229.667L489.667 229.333M487 230L488 231L487 230M484 231L485 232L484 231z"/>
<path style="fill:#a76662; stroke:none;" d="M485 231L486 232L485 231z"/>
<path style="fill:#f7a3a3; stroke:none;" d="M637 237L642 232C637.975 231.384 637.295 233.201 637 237M854 231L855 232L854 231M482 232L483 233L482 232M855 232L856 233L855 232M479 233L480 234L479 233z"/>
<path style="fill:#a76662; stroke:none;" d="M480 233L481 234L480 233z"/>
<path style="fill:#f7a3a3; stroke:none;" d="M856 233L857 234L856 233M477 234L478 235L477 234M857 234L858 235L857 234M474 235L475 236L474 235z"/>
<path style="fill:#a76662; stroke:none;" d="M475 235L476 236L475 235z"/>
<path style="fill:#f7a3a3; stroke:none;" d="M806 235L808 237L808 235L806 235z"/>
<path style="fill:#a76662; stroke:none;" d="M858 235L859 236L858 235z"/>
<path style="fill:#f7a3a3; stroke:none;" d="M472 236L473 237L472 236z"/>
<path style="fill:#a76662; stroke:none;" d="M859 236L860 237L859 236z"/>
<path style="fill:#f7a3a3; stroke:none;" d="M469 237L470 238L469 237z"/>
<path style="fill:#a76662; stroke:none;" d="M470 237L471 238L470 237z"/>
<path style="fill:#f7a3a3; stroke:none;" d="M467 238L468 239L467 238M464 239L465 240L464 239z"/>
<path style="fill:#a76662; stroke:none;" d="M465 239L466 240L465 239z"/>
<path style="fill:#f7a3a3; stroke:none;" d="M462 240L463 241L462 240M459 241L460 242L459 241z"/>
<path style="fill:#a76662; stroke:none;" d="M460 241L461 242L460 241z"/>
<path style="fill:#f7a3a3; stroke:none;" d="M457 242L458 243L457 242M454 243L455 244L454 243z"/>
<path style="fill:#a76662; stroke:none;" d="M455 243L456 244L455 243z"/>
<path style="fill:#f7a3a3; stroke:none;" d="M839 244L839 245L845 245L839 244M452 244L453 245L452 244M449.667 245.333L450.333 245.667L449.667 245.333M545 247L545 248C548.602 249.842 551.505 250.249 553 246L545 247M447 246L448 247L447 246M822 246L822 248L824 248L824 246L822 246z"/>
<path style="fill:#a76662; stroke:none;" d="M869 246L870 247L869 246z"/>
<path style="fill:#f7a3a3; stroke:none;" d="M444.667 247.333L445.333 247.667L444.667 247.333M870 247L871 248L870 247M442 248L443 249L442 248M871 248L872 249L871 248M440 249L441 250L440 249M509 254C512.692 253.88 514.777 253.687 516 250C511.948 249.463 509.754 249.669 509 254M872 249L873 250L872 249M437.667 250.333L438.333 250.667L437.667 250.333M537 250L539 254L537 250M588 250L589 254L588 250M873 250L874 251L873 250M435 251L436 252L435 251M433 252L434 253L433 252M657 252L657 254L659 254L657 252M430.667 253.333L431.333 253.667L430.667 253.333M428 254L429 255L428 254M876 254L877 255L876 254M426 255L427 256L426 255M877 255L878 256L877 255M423.667 256.333L424.333 256.667L423.667 256.333M878 256L879 257L878 256M421 257L422 258L421 257M419 258L420 259L419 258M417 259L418 260L417 259M628 260L628 262L636 262L636 260L628 260M880 259L881 260L880 259M414.667 260.333L415.333 260.667L414.667 260.333M881 260L882 261L881 260M412 261L413 262L412 261M410 262L411 263L410 262M408 263L409 264L408 263z"/>
<path style="fill:#a76662; stroke:none;" d="M883 263L884 264L883 263z"/>
<path style="fill:#f7a3a3; stroke:none;" d="M405 264L406 265L405 264z"/>
<path style="fill:#a76662; stroke:none;" d="M406 264L407 265L406 264z"/>
<path style="fill:#f7a3a3; stroke:none;" d="M884 264L885 265L884 264M403 265L404 266L403 265M401 266L402 267L401 266M399 267L400 268L399 267M703 267L705 269L705 267L703 267M886 267L887 268L886 267M397 268L398 269L397 268M597 268L597 272L597 268M887 268L888 269L887 268M394 269L395 270L394 269z"/>
<path style="fill:#a76662; stroke:none;" d="M395 269L396 270L395 269z"/>
<path style="fill:#f7a3a3; stroke:none;" d="M392 270L393 271L392 270M888 270L889 271L888 270M390 271L391 272L390 271M889 271L890 272L889 271M388 272L389 273L388 272M386 273L387 274L386 273M383 274L384 275L383 274z"/>
<path style="fill:#a76662; stroke:none;" d="M384 274L385 275L384 274z"/>
<path style="fill:#f7a3a3; stroke:none;" d="M891 274L892 275L891 274M381 275L382 276L381 275M379 276L380 277L379 276z"/>
<path style="fill:#a76662; stroke:none;" d="M892 276L893 277L892 276z"/>
<path style="fill:#f7a3a3; stroke:none;" d="M377 277L378 278L377 277M893 277L894 278L893 277M375 278L376 279L375 278M372 279L373 280L372 279z"/>
<path style="fill:#a76662; stroke:none;" d="M373 279L374 280L373 279z"/>
<path style="fill:#f7a3a3; stroke:none;" d="M894 279L895 280L894 279M370 280L371 281L370 280z"/>
<path style="fill:#a76662; stroke:none;" d="M371 280L372 281L371 280z"/>
<path style="fill:#f7a3a3; stroke:none;" d="M895 280L896 281L895 280M368 281L369 282L368 281M366 282L367 283L366 282M638 282L638 290L640 290L640 282L638 282M896 282L897 283L896 282M364 283L365 284L364 283M362 284L363 285L362 284z"/>
<path style="fill:#a76662; stroke:none;" d="M897 284L898 285L897 284z"/>
<path style="fill:#f7a3a3; stroke:none;" d="M360 285L361 286L360 285M898 285L899 286L898 285M358 286L359 287L358 286M356 287L357 288L356 287M899 287L900 288L899 287M354 288L355 289L354 288M352 289L353 290L352 289M900 289L901 290L900 289M350 290L351 291L350 290M651 292C657.629 305.861 663.307 286.747 651 292M901 290L902 291L901 290M348 291L349 292L348 291M505 291L505 295L507 291L505 291M537 291L537 295L538 295L539 291L537 291M345.667 292.333L346.333 292.667L345.667 292.333M902 292L903 293L902 292M343 293L344 294L343 293z"/>
<path style="fill:#a76662; stroke:none;" d="M344 293L345 294L344 293z"/>
<path style="fill:#f7a3a3; stroke:none;" d="M341 294L342 295L341 294z"/>
<path style="fill:#a76662; stroke:none;" d="M342 294L343 295L342 294z"/>
<path style="fill:#f7a3a3; stroke:none;" d="M903 294L904 295L903 294M339 295L340 296L339 295z"/>
<path style="fill:#a76662; stroke:none;" d="M340 295L341 296L340 295z"/>
<path style="fill:#f7a3a3; stroke:none;" d="M813 295L813 304C816.196 300.856 816.196 298.144 813 295M338 296L339 297L338 296z"/>
<path style="fill:#a76662; stroke:none;" d="M904 296L905 297L904 296z"/>
<path style="fill:#f7a3a3; stroke:none;" d="M336 297L337 298L336 297M905 297L906 298L905 297M334 298L335 299L334 298M332 299L333 300L332 299M906 299L907 300L906 299M330 300L331 301L330 300M670 300L672 304L670 300M328 301L329 302L328 301M907 301L908 302L907 301M326 302L327 303L326 302M324 303L325 304L324 303M908 303L909 304L908 303M322 304L323 305L322 304M320 305L321 306L320 305M909 305L910 306L909 305M318 306L319 307L318 306M316 307L317 308L316 307M910 307L911 308L910 307M314 308L315 309L314 308M312 309L313 310L312 309M911 309L912 310L911 309M310 310L311 311L310 310M912 310L913 311L912 310M308 311L309 312L308 311z"/>
<path style="fill:#a76662; stroke:none;" d="M912 311L913 312L912 311z"/>
<path style="fill:#f7a3a3; stroke:none;" d="M306 312L307 313L306 312M913 312L914 313L913 312z"/>
<path style="fill:#a76662; stroke:none;" d="M305 313L306 314L305 313M913 313L914 314L913 313z"/>
<path style="fill:#f7a3a3; stroke:none;" d="M303 314L304 315L303 314M914 314L915 315L914 314M301 315L302 316L301 315M299 316L300 317L299 316M915 316L916 317L915 316M297 317L298 318L297 317M627 317L627 322L629 322L630 317L627 317M295 318L296 319L295 318M916 318L917 319L916 318M293 319L294 320L293 319M291 320L292 321L291 320M312 323L312 324C315.959 325.068 318.456 324.491 318 320L312 323M917 320L918 321L917 320M289 321L290 322L289 321M287 322L288 323L287 322M918 322L919 323L918 322M285 323L286 324L285 323z"/>
<path style="fill:#a76662; stroke:none;" d="M286 323L287 324L286 323z"/>
<path style="fill:#f7a3a3; stroke:none;" d="M284 324L285 325L284 324M919 324L920 325L919 324M282 325L283 326L282 325M280 326L281 327L280 326M311 330L319 330C316.707 326.179 313.337 326.225 311 330M920 326L921 327L920 326M278 327L279 328L278 327z"/>
<path style="fill:#a76662; stroke:none;" d="M346 327L346 328L375 328L346 327M920 327L921 328L920 327z"/>
<path style="fill:#f7a3a3; stroke:none;" d="M276 328L277 329L276 328z"/>
<path style="fill:#a76662; stroke:none;" d="M330 328L330 329L337 329L330 328z"/>
<path style="fill:#31281f; stroke:none;" d="M259 342L259 343C276.082 340.794 292.664 335.798 310 335.039C362.848 332.725 413.993 342.875 465 355.627C496.116 363.406 529.907 371.296 555 392.439C578.582 412.309 593.061 443.744 603.808 472C618.773 511.348 630.347 551.904 639.424 593C644.82 617.431 650.482 642.91 651 668C655.895 656.651 651.293 640.719 649.411 629C644.718 599.783 639.05 570.712 631.873 542C625.121 514.984 617.138 488.413 608.333 462C600.861 439.582 592.294 416.194 576.7 398C554.859 372.519 521.135 359.047 490 348.667C413.104 323.03 337.087 324.098 259 342z"/>
<path style="fill:#a76662; stroke:none;" d="M386 328L386 329L393 329L386 328z"/>
<path style="fill:#f7a3a3; stroke:none;" d="M274 329L275 330L274 329z"/>
<path style="fill:#a76662; stroke:none;" d="M320 329L320 330L324 330L320 329M401 329L401 330L404 330L401 329z"/>
<path style="fill:#f7a3a3; stroke:none;" d="M432.667 329.333L433.333 329.667L432.667 329.333M687.667 329.333L688.333 329.667L687.667 329.333M921 329L922 330L921 329M272 330L273 331L272 330z"/>
<path style="fill:#a76662; stroke:none;" d="M311 330L311 331L314 331L311 330M409 330L409 331L413 331L409 330z"/>
<path style="fill:#f7a3a3; stroke:none;" d="M270 331L271 332L270 331z"/>
<path style="fill:#a76662; stroke:none;" d="M305 331L305 332L308 332L305 331M417 331L417 332L420 332L417 331z"/>
<path style="fill:#f7a3a3; stroke:none;" d="M922 331L923 332L922 331M268 332L269 333L268 332z"/>
<path style="fill:#a76662; stroke:none;" d="M298 332L298 333L301 333L298 332M423 332L423 333L426 333L423 332z"/>
<path style="fill:#f7a3a3; stroke:none;" d="M455.667 332.333L456.333 332.667L455.667 332.333M877 332L877 335L879 335L879 332L877 332M266 333L267 334L266 333z"/>
<path style="fill:#a76662; stroke:none;" d="M267 333L268 334L267 333M293.667 333.333L294.333 333.667L293.667 333.333M429 333L429 334L432 334L429 333z"/>
<path style="fill:#f7a3a3; stroke:none;" d="M923 333L924 334L923 333M265 334L266 335L265 334z"/>
<path style="fill:#a76662; stroke:none;" d="M287.667 334.333L288.333 334.667L287.667 334.333M435 334L435 335L438 335L435 334z"/>
<path style="fill:#f7a3a3; stroke:none;" d="M263 335L264 336L263 335z"/>
<path style="fill:#a76662; stroke:none;" d="M283.667 335.333L284.333 335.667L283.667 335.333M305 335L305 336L313 336L305 335z"/>
<path style="fill:#f7a3a3; stroke:none;" d="M238 349L237 349L237 352L234 351L232 352C232 354.863 217.371 360.805 214 363.333C199.67 374.081 186.592 387.037 178.167 403C152.566 451.506 141 517.662 141 572C224.668 572 300.155 607.692 382 618.718C440.176 626.554 499.086 616.719 557 626.435C584.793 631.098 606.033 642.192 631 654L631 655C555.42 625.466 476.761 639.756 398 631.917C342.382 626.381 291.45 606.363 237 594.389C206.987 587.789 177.018 580.99 147 574.389C140.66 572.995 135.041 575.096 132.806 582C132.376 583.328 133.555 585.793 132.417 586.778C131.164 587.861 129.716 585.721 129 585C113.964 604.734 95.4329 622.432 78.9498 641C67.9259 653.418 55.872 666.399 51.8989 683C48.2444 698.27 55.9577 711.252 56 726L57 726L57 721L58 721C64.2985 733.141 78.4043 741.049 90 747.413C123.129 765.594 162.922 771.462 200 775.169C246.346 779.803 293.686 778.595 340 774.17C404.895 767.969 470.114 757.551 531 733.2C567.812 718.477 617.299 696.55 636 659L637 659L635 690L636 690L641 684L644 685C645.204 680.263 649.575 677.054 650.298 672C653.158 652.009 646.31 627.553 642.4 608C632.699 559.491 619.386 510.964 601 465C591.381 440.953 578.82 414.563 559.83 396.425C537.138 374.751 506.905 368.182 478 359L477 366L475 366L475 358C460.264 358 443.085 350.521 429 347C409.99 342.247 390.133 341.783 371 337C363.899 335.225 356.152 337.788 349 336C332.271 331.818 305.911 334.022 290 338C275.952 341.512 262.367 342.544 249 347C245.369 348.21 237.098 352.607 238 349z"/>
<path style="fill:#a76662; stroke:none;" d="M348 335L348 336L355 336L348 335M440.667 335.333L441.333 335.667L440.667 335.333z"/>
<path style="fill:#f7a3a3; stroke:none;" d="M924 335L925 336L924 335M261 336L262 337L261 336z"/>
<path style="fill:#a76662; stroke:none;" d="M279.667 336.333L280.333 336.667L279.667 336.333M295 336L295 337L299 337L295 336M361 336L361 337L366 337L361 336M445.667 336.333L446.333 336.667L445.667 336.333z"/>
<path style="fill:#f7a3a3; stroke:none;" d="M259 337L260 338L259 337z"/>
<path style="fill:#a76662; stroke:none;" d="M275 337L276 338L275 337M288 337L288 338L291 338L288 337M371 337L371 338L375 338L371 337M449 337L449 338L452 338L449 337z"/>
<path style="fill:#f7a3a3; stroke:none;" d="M925 337L926 338L925 337M257 338L258 339L257 338z"/>
<path style="fill:#a76662; stroke:none;" d="M271.667 338.333L272.333 338.667L271.667 338.333M282 338L282 339L285 339L282 338M380 338L380 339L383 339L380 338M454.667 338.333L455.333 338.667L454.667 338.333z"/>
<path style="fill:#f7a3a3; stroke:none;" d="M255 339L256 340L255 339z"/>
<path style="fill:#a76662; stroke:none;" d="M267.667 339.333L268.333 339.667L267.667 339.333M276 339L276 340L279 340L276 339M387 339L387 340L391 340L387 339M458.667 339.333L459.333 339.667L458.667 339.333z"/>
<path style="fill:#f7a3a3; stroke:none;" d="M926 339L927 340L926 339M254 340L255 341L254 340z"/>
<path style="fill:#a76662; stroke:none;" d="M264 340L265 341L264 340M271 340L271 341L274 341L271 340z"/>
<path style="fill:#dd494f; stroke:none;" d="M301 343C294.409 336.296 291.305 347.567 301 343z"/>
<path style="fill:#a76662; stroke:none;" d="M394 340L394 341L397 341L394 340M462.667 340.333L463.333 340.667L462.667 340.333z"/>
<path style="fill:#f7a3a3; stroke:none;" d="M554 341L560 342L554 341M252 341L253 342L252 341z"/>
<path style="fill:#a76662; stroke:none;" d="M261 341L262 342L261 341M267.667 341.333L268.333 341.667L267.667 341.333M400.667 341.333L401.333 341.667L400.667 341.333M466.667 341.333L467.333 341.667L466.667 341.333z"/>
<path style="fill:#f7a3a3; stroke:none;" d="M927 341L928 342L927 341M250 342L251 343L250 342z"/>
<path style="fill:#a76662; stroke:none;" d="M258 342L258 344L260 344L258 342M262.667 342.333L263.333 342.667L262.667 342.333M405.667 342.333L406.333 342.667L405.667 342.333M470 342L471 343L470 342z"/>
<path style="fill:#f7a3a3; stroke:none;" d="M248 343L249 344L248 343z"/>
<path style="fill:#a76662; stroke:none;" d="M255 343L255 345L257 345L255 343z"/>
<path style="fill:#31281f; stroke:none;" d="M256.667 343.333L257.333 343.667L256.667 343.333z"/>
<path style="fill:#a76662; stroke:none;" d="M410 343L410 344L413 344L410 343z"/>
<path style="fill:#dd494f; stroke:none;" d="M413 343L412 345L414 345L413 343z"/>
<path style="fill:#a76662; stroke:none;" d="M474 343L475 344L474 343z"/>
<path style="fill:#f7a3a3; stroke:none;" d="M928 343L929 344L928 343M246 344L247 345L246 344z"/>
<path style="fill:#a76662; stroke:none;" d="M252 344L252 346L254 346L252 344z"/>
<path style="fill:#31281f; stroke:none;" d="M253.667 344.333L254.333 344.667L253.667 344.333z"/>
<path style="fill:#a76662; stroke:none;" d="M414 344L414 345L417 345L414 344M477 344L478 345L477 344z"/>
<path style="fill:#f7a3a3; stroke:none;" d="M244 345L245 346L244 345z"/>
<path style="fill:#a76662; stroke:none;" d="M247 346L247 347L251 346L247 346z"/>
<path style="fill:#31281f; stroke:none;" d="M251 345L252 346L251 345z"/>
<path style="fill:#a76662; stroke:none;" d="M419.667 345.333L420.333 345.667L419.667 345.333M480 345L481 346L480 345z"/>
<path style="fill:#f7a3a3; stroke:none;" d="M929 345L930 346L929 345z"/>
<path style="fill:#a76662; stroke:none;" d="M243 346L244 347L243 346z"/>
<path style="fill:#dd494f; stroke:none;" d="M276 346L278 348L278 346L276 346M376 346L376 348L378 348L376 346z"/>
<path style="fill:#a76662; stroke:none;" d="M424.667 346.333L425.333 346.667L424.667 346.333M483 346L484 347L483 346z"/>
<path style="fill:#f7a3a3; stroke:none;" d="M241 347L242 348L241 347z"/>
<path style="fill:#a76662; stroke:none;" d="M242 348L242 349L247 348L242 348M429.667 347.333L430.333 347.667L429.667 347.333M486.667 347.333L487.333 347.667L486.667 347.333z"/>
<path style="fill:#f7a3a3; stroke:none;" d="M930 347L931 348L930 347M239 348L240 349L239 348z"/>
<path style="fill:#a76662; stroke:none;" d="M433.667 348.333L434.333 348.667L433.667 348.333M489.667 348.333L490.333 348.667L489.667 348.333M930 348L931 349L930 348z"/>
<path style="fill:#dd494f; stroke:none;" d="M238 349L239 350L238 349z"/>
<path style="fill:#a76662; stroke:none;" d="M237 350L237 351L242 350L237 350z"/>
<path style="fill:#dd494f; stroke:none;" d="M369 349L369 351L371 351L371 349L369 349M405 349L405 354L408 349L405 349z"/>
<path style="fill:#a76662; stroke:none;" d="M437 349L437 350L440 350L437 349M492.667 349.333L493.333 349.667L492.667 349.333M442.667 350.333L443.333 350.667L442.667 350.333M495 350L496 351L495 350z"/>
<path style="fill:#f7a3a3; stroke:none;" d="M931 350L932 351L931 350z"/>
<path style="fill:#a76662; stroke:none;" d="M235.667 351.333L236.333 351.667L235.667 351.333M446.667 351.333L447.333 351.667L446.667 351.333M498 351L499 352L498 351M233 352L234 353L233 352z"/>
<path style="fill:#dd494f; stroke:none;" d="M217 427L217 428C209.908 430.043 202.538 434.12 198 440L229 452L230 449L232 449L233 450C232.374 457.293 242.404 460.853 248 463.742C262.594 471.275 277.935 476.007 294 469.934C299.663 467.794 305.972 465.505 307 459L310 461C317.493 453.662 326.656 447.374 331.815 438C335.059 432.105 335.884 425.306 338.004 419C342.54 405.509 353.022 392.472 353.906 378C355.459 352.579 320.457 351.085 303 352.831C267.487 356.382 232.113 364.966 203 386.63C192.303 394.59 180.356 405.224 175.468 418C171.035 429.587 177.648 438.324 190 438.185C198.773 438.086 208.435 429.466 217 427z"/>
<path style="fill:#a76662; stroke:none;" d="M450.667 352.333L451.333 352.667L450.667 352.333M500.667 352.333L501.333 352.667L500.667 352.333z"/>
<path style="fill:#f7a3a3; stroke:none;" d="M932 352L933 353L932 352z"/>
<path style="fill:#a76662; stroke:none;" d="M231.667 353.333L232.333 353.667L231.667 353.333M454 353L454 354L457 354L454 353M503 353L504 354L503 353M459.667 354.333L460.333 354.667L459.667 354.333M506 354L507 355L506 354z"/>
<path style="fill:#f7a3a3; stroke:none;" d="M933 354L934 355L933 354M306 355L305 356C306.479 359.68 308.288 360.002 312 359L306 355z"/>
<path style="fill:#a76662; stroke:none;" d="M463.667 355.333L464.333 355.667L463.667 355.333M508.667 355.333L509.333 355.667L508.667 355.333M467.667 356.333L468.333 356.667L467.667 356.333M511 356L512 357L511 356z"/>
<path style="fill:#f7a3a3; stroke:none;" d="M934 356L935 357L934 356z"/>
<path style="fill:#a76662; stroke:none;" d="M471.667 357.333L472.333 357.667L471.667 357.333M513 357L514 358L513 357z"/>
<path style="fill:#dd494f; stroke:none;" d="M475 358L475 366L477 366L477 358L475 358z"/>
<path style="fill:#a76662; stroke:none;" d="M516 358L517 359L516 358z"/>
<path style="fill:#f7a3a3; stroke:none;" d="M935 358L936 359L935 358z"/>
<path style="fill:#a76662; stroke:none;" d="M479 359L480 360L479 359M518 359L519 360L518 359M482.667 360.333L483.333 360.667L482.667 360.333M520.667 360.333L521.333 360.667L520.667 360.333z"/>
<path style="fill:#f7a3a3; stroke:none;" d="M936 360L937 361L936 360z"/>
<path style="fill:#a76662; stroke:none;" d="M487 361L488 362L487 361M523 361L524 362L523 361M936 361L937 362L936 361M490.667 362.333L491.333 362.667L490.667 362.333M525 362L526 363L525 362z"/>
<path style="fill:#f7a3a3; stroke:none;" d="M303 363L303 366L305 365L305 364L303 363M316 364L316 365L322 365L316 364z"/>
<path style="fill:#a76662; stroke:none;" d="M493.667 363.333L494.333 363.667L493.667 363.333M527 363L528 364L527 363z"/>
<path style="fill:#f7a3a3; stroke:none;" d="M937 363L938 364L937 363z"/>
<path style="fill:#a76662; stroke:none;" d="M496.667 364.333L497.333 364.667L496.667 364.333M529 364L530 365L529 364M500 365L501 366L500 365M531 365L532 366L531 365z"/>
<path style="fill:#f7a3a3; stroke:none;" d="M938 365L939 366L938 365z"/>
<path style="fill:#a76662; stroke:none;" d="M503.667 366.333L504.333 366.667L503.667 366.333M533 366L534 367L533 366M506.667 367.333L507.333 367.667L506.667 367.333M535.667 367.333L536.333 367.667L535.667 367.333z"/>
<path style="fill:#f7a3a3; stroke:none;" d="M939.333 367.667L939.667 368.333L939.333 367.667z"/>
<path style="fill:#a76662; stroke:none;" d="M509.667 368.333L510.333 368.667L509.667 368.333M537 368L538 369L537 368M512 369L513 370L512 369M539 369L540 370L539 369M515 370L516 371L515 370M541 370L542 371L541 370z"/>
<path style="fill:#f7a3a3; stroke:none;" d="M940 370L941 371L940 370z"/>
<path style="fill:#a76662; stroke:none;" d="M517.667 371.333L518.333 371.667L517.667 371.333M543 371L544 372L543 371z"/>
<path style="fill:#dd494f; stroke:none;" d="M432 372L432 374L434 374L432 372z"/>
<path style="fill:#a76662; stroke:none;" d="M520 372L521 373L520 372M545 372L546 373L545 372z"/>
<path style="fill:#f7a3a3; stroke:none;" d="M941.333 372.667L941.667 373.333L941.333 372.667z"/>
<path style="fill:#a76662; stroke:none;" d="M522.667 373.333L523.333 373.667L522.667 373.333M546 373L547 374L546 373M525 374L526 375L525 374M548 374L549 375L548 374M527 375L528 376L527 375M550 375L551 376L550 375z"/>
<path style="fill:#f7a3a3; stroke:none;" d="M942 375L943 376L942 375z"/>
<path style="fill:#a76662; stroke:none;" d="M529 376L530 377L529 376M532 377L533 378L532 377M553 377L554 378L553 377M534 378L535 379L534 378z"/>
<path style="fill:#f7a3a3; stroke:none;" d="M943 378L944 379L943 378z"/>
<path style="fill:#dd494f; stroke:none;" d="M578 506L583 506L580 501L577 502C571.007 484.737 566.032 467.175 559.681 450C557.684 444.598 555.383 434.424 550.387 431.028C543.413 426.286 525.025 430.367 517 431L520 436L511 436L514 431L496 433L496 432L540 418C533.461 404.268 509.674 393.25 496 388.064C490.867 386.117 483.951 382.667 479 386L479 383C457.75 382.824 435.598 375.214 415 383.066C397.139 389.873 389.967 410.16 401.613 426C416.902 446.797 446.832 454.132 464.961 473.001C479.394 488.024 486.838 506.907 499.518 523C507.627 533.292 518.855 540.766 530 547.396C539.203 552.87 550.016 557.848 561 557.544C586.802 556.831 581.448 522.714 578 506z"/>
<path style="fill:#a76662; stroke:none;" d="M536 379L537 380L536 379M556 379L557 380L556 379M557 380L558 381L557 380z"/>
<path style="fill:#f7a3a3; stroke:none;" d="M944.333 380.667L944.667 381.333L944.333 380.667M426 382C428.879 387.201 434.26 385.601 437 381L426 382z"/>
<path style="fill:#a76662; stroke:none;" d="M539 381L540 382L539 381M559 381L560 382L559 381M541 382L542 383L541 382M560 382L561 383L560 382M561 383L562 384L561 383z"/>
<path style="fill:#f7a3a3; stroke:none;" d="M763 384L763 386L768 386L768 384L763 384M945.333 383.667L945.667 384.333L945.333 383.667M465 384C466.78 386.374 468.22 386.374 470 384L465 384z"/>
<path style="fill:#a76662; stroke:none;" d="M544 384L545 385L544 384M564 385L565 386L564 385M547 386L548 387L547 386M565 386L566 387L565 386z"/>
<path style="fill:#f7a3a3; stroke:none;" d="M946.333 386.667L946.667 387.333L946.333 386.667z"/>
<path style="fill:#a76662; stroke:none;" d="M566 387L567 388L566 387M550 388L551 389L550 388M567 388L568 389L567 388M551 389L552 390L551 389M568 389L569 390L568 389z"/>
<path style="fill:#f7a3a3; stroke:none;" d="M228 393C231.756 394.692 233.907 394.757 236 391L228 393z"/>
<path style="fill:#a76662; stroke:none;" d="M569 390L570 391L569 390z"/>
<path style="fill:#f7a3a3; stroke:none;" d="M947.333 390.667L947.667 391.333L947.333 390.667z"/>
<path style="fill:#a76662; stroke:none;" d="M570 391L571 392L570 391M555 392L556 393L555 392M571 392L572 393L571 392M556 393L557 394L556 393M572 393L573 394L572 393z"/>
<path style="fill:#f7a3a3; stroke:none;" d="M796 393L796 395L798 395L798 393L796 393M948.333 393.667L948.667 394.333L948.333 393.667z"/>
<path style="fill:#a76662; stroke:none;" d="M557 394L558 395L557 394M573 394L574 395L573 394M558 395L559 396L558 395M574 395L575 396L574 395M948 395L949 396L948 395z"/>
<path style="fill:#f7a3a3; stroke:none;" d="M292 397L292 398L296 397L292 397z"/>
<path style="fill:#a76662; stroke:none;" d="M575 396L576 397L575 396M576 397L577 398L576 397z"/>
<path style="fill:#f7a3a3; stroke:none;" d="M949 397L949 400L950 400L949 397z"/>
<path style="fill:#a76662; stroke:none;" d="M562 399L563 400L562 399M563 400L564 401L563 400M578 400L579 401L578 400M564 401L565 402L564 401M579 401L580 402L579 401M565 402L566 403L565 402z"/>
<path style="fill:#f7a3a3; stroke:none;" d="M667 402L667 404L669 404L669 402L667 402M950.333 403.667L950.667 404.333L950.333 403.667M213 406L219 406L213 406z"/>
<path style="fill:#a76662; stroke:none;" d="M581 404L582 405L581 404M582 405L583 406L582 405M950 405L951 406L950 405M568 406L569 407L568 406M569 407L570 408L569 407z"/>
<path style="fill:#f7a3a3; stroke:none;" d="M263.667 408.333L264.333 408.667L263.667 408.333z"/>
<path style="fill:#a76662; stroke:none;" d="M584 408L585 409L584 408z"/>
<path style="fill:#f7a3a3; stroke:none;" d="M233 409L236 412L233 409M951 409L951 414L952 414L951 409z"/>
<path style="fill:#a76662; stroke:none;" d="M571 410L572 411L571 410M585 410L586 411L585 410M572 411L573 412L572 411M586 411L587 412L586 411z"/>
<path style="fill:#dd494f; stroke:none;" d="M349 413L349 417L349 413M545 413L545 416L546 416L545 413z"/>
<path style="fill:#a76662; stroke:none;" d="M573 413L574 414L573 413M587 413L588 414L587 413M574 414L575 415L574 414z"/>
<path style="fill:#dd494f; stroke:none;" d="M363 416L362 421L365 421L363 416z"/>
<path style="fill:#a76662; stroke:none;" d="M589 416L590 417L589 416M576 417L577 418L576 417z"/>
<path style="fill:#f7a3a3; stroke:none;" d="M458 421L462 419L458 421z"/>
<path style="fill:#a76662; stroke:none;" d="M590 418L591 419L590 418z"/>
<path style="fill:#f7a3a3; stroke:none;" d="M412 419L413 422L417 419L412 419z"/>
<path style="fill:#a76662; stroke:none;" d="M578 420L579 421L578 420M591 420L592 421L591 420z"/>
<path style="fill:#f7a3a3; stroke:none;" d="M759 420L759 421L762 421L759 420M215 422C215.946 425.141 216.708 426.069 220 426L220 425L217 426L215 422M280 422L276 427C280.079 427.534 282.897 425.931 280 422z"/>
<path style="fill:#a76662; stroke:none;" d="M579 422L580 423L579 422M592 422L593 423L592 422M580 423L581 424L580 423M593 424L594 425L593 424M581 425L582 426L581 425M594 426L595 427L594 426M582 427L583 428L582 427z"/>
<path style="fill:#f7a3a3; stroke:none;" d="M951 427L951 433L952 433L951 427z"/>
<path style="fill:#dd494f; stroke:none;" d="M375 430L378 428L375 430z"/>
<path style="fill:#a76662; stroke:none;" d="M583 428L584 429L583 428M595 428L596 429L595 428M584 430L585 431L584 430M596 430L597 431L596 430z"/>
<path style="fill:#f7a3a3; stroke:none;" d="M290 431L290 433L292 431L290 431M634 431L634 433L636 433L636 431L634 431z"/>
<path style="fill:#a76662; stroke:none;" d="M585 432L586 433L585 432M597 432L598 433L597 432z"/>
<path style="fill:#f7a3a3; stroke:none;" d="M494.667 433.333L495.333 433.667L494.667 433.333z"/>
<path style="fill:#a76662; stroke:none;" d="M587 435L588 436L587 435M598 435L599 436L598 435z"/>
<path style="fill:#f7a3a3; stroke:none;" d="M950 436L950 439L951 439L950 436z"/>
<path style="fill:#a76662; stroke:none;" d="M588 437L589 438L588 437M599 437L600 438L599 437M589 439L590 440L589 439z"/>
<path style="fill:#dd494f; stroke:none;" d="M173 441L173 443C176.756 444.692 178.907 444.757 181 441L173 441z"/>
<path style="fill:#a76662; stroke:none;" d="M600 440L601 441L600 440M590 441L591 442L590 441M949 441L950 442L949 441M601 442L602 443L601 442z"/>
<path style="fill:#f7a3a3; stroke:none;" d="M949.333 442.667L949.667 443.333L949.333 442.667z"/>
<path style="fill:#a76662; stroke:none;" d="M591 443L592 444L591 443z"/>
<path style="fill:#f7a3a3; stroke:none;" d="M630 443L630 444L633 444L630 443z"/>
<path style="fill:#dd494f; stroke:none;" d="M378 447L379 451C366.732 449.45 355.509 451.936 353 466L352 466L351 463C345.755 465.529 343.838 470.442 351 471C349.881 479.849 343.038 500.206 348.603 507.867C353.321 514.36 363.193 511.785 369 508.468C375.644 504.672 380.808 498.414 387 493.927C397.174 486.554 418.458 476.676 401.957 462.468C399.834 460.64 397.453 459.13 395 457.792C391.46 455.862 387.872 454.115 384 453L394 447C388.845 444.524 383.3 445.324 378 447z"/>
<path style="fill:#a76662; stroke:none;" d="M592 445L593 446L592 445M602 445L603 446L602 445z"/>
<path style="fill:#f7a3a3; stroke:none;" d="M750 445L752 448L750 445M475 446L477 448L477 446L475 446M796.667 446.333L797.333 446.667L796.667 446.333M948.333 446.667L948.667 447.333L948.333 446.667z"/>
<path style="fill:#a76662; stroke:none;" d="M593 447L594 448L593 447M603.333 447.667L603.667 448.333L603.333 447.667M594 449L595 450L594 449z"/>
<path style="fill:#f7a3a3; stroke:none;" d="M899 452L907 453C905.473 448.403 902.059 448.889 899 452z"/>
<path style="fill:#a76662; stroke:none;" d="M947 449L948 450L947 449M604 450L605 451L604 450z"/>
<path style="fill:#f7a3a3; stroke:none;" d="M947 450L948 451L947 450M495 452L495 453L500 453L495 452z"/>
<path style="fill:#a76662; stroke:none;" d="M595 451L596 452L595 451z"/>
<path style="fill:#f7a3a3; stroke:none;" d="M382 452L383 453L382 452z"/>
<path style="fill:#a76662; stroke:none;" d="M605 453L606 454L605 453z"/>
<path style="fill:#f7a3a3; stroke:none;" d="M946 453L947 454L946 453M528 454L528 456L530 456L528 454z"/>
<path style="fill:#a76662; stroke:none;" d="M596 454L597 455L596 454M597 456L598 457L597 456M606 456L607 457L606 456z"/>
<path style="fill:#f7a3a3; stroke:none;" d="M945 456L946 457L945 456M502 457L501 462L502 457M842 458L842 459L848 459L842 458z"/>
<path style="fill:#a76662; stroke:none;" d="M598 458L599 459L598 458M607.333 458.667L607.667 459.333L607.333 458.667z"/>
<path style="fill:#f7a3a3; stroke:none;" d="M909 462L917 461C913.941 457.889 910.527 457.403 909 462z"/>
<path style="fill:#dd494f; stroke:none;" d="M234 467C240.916 460.201 229.032 457.513 234 467z"/>
<path style="fill:#f7a3a3; stroke:none;" d="M944 459L945 460L944 459z"/>
<path style="fill:#a76662; stroke:none;" d="M599 461L600 462L599 461M608.333 461.667L608.667 462.333L608.333 461.667z"/>
<path style="fill:#f7a3a3; stroke:none;" d="M943.333 461.667L943.667 462.333L943.333 461.667z"/>
<path style="fill:#a76662; stroke:none;" d="M600 463L601 464L600 463M609.333 464.667L609.667 465.333L609.333 464.667z"/>
<path style="fill:#f7a3a3; stroke:none;" d="M942 464L943 465L942 464z"/>
<path style="fill:#a76662; stroke:none;" d="M601.333 465.667L601.667 466.333L601.333 465.667z"/>
<path style="fill:#f7a3a3; stroke:none;" d="M829 466L834 472C835.005 467.585 833.319 466.336 829 466M941 466L942 467L941 466z"/>
<path style="fill:#a76662; stroke:none;" d="M610.333 467.667L610.667 468.333L610.333 467.667M602 468L603 469L602 468z"/>
<path style="fill:#f7a3a3; stroke:none;" d="M940.333 468.667L940.667 469.333L940.333 468.667M664 469L664 471L666 471L664 469z"/>
<path style="fill:#a76662; stroke:none;" d="M611.333 470.667L611.667 471.333L611.333 470.667z"/>
<path style="fill:#f7a3a3; stroke:none;" d="M939 470L940 471L939 470z"/>
<path style="fill:#a76662; stroke:none;" d="M603 471L604 472L603 471z"/>
<path style="fill:#f7a3a3; stroke:none;" d="M680 472C674.369 483.043 692.308 480.967 680 472M938 472L939 473L938 472z"/>
<path style="fill:#a76662; stroke:none;" d="M604 473L605 474L604 473M612.333 473.667L612.667 474.333L612.333 473.667z"/>
<path style="fill:#dd494f; stroke:none;" d="M273 475L273 477L282 480C279.519 476.302 277.543 474.632 273 475z"/>
<path style="fill:#f7a3a3; stroke:none;" d="M832 476L838 477C836.166 474.477 834.619 474.384 832 476M869 475L869 477L874 477L874 475L869 475M937 474L938 475L937 474M564 475L566 477L566 475L564 475M859 475L859 477L861 475L859 475z"/>
<path style="fill:#a76662; stroke:none;" d="M605 476L606 477L605 476M613.333 476.667L613.667 477.333L613.333 476.667z"/>
<path style="fill:#f7a3a3; stroke:none;" d="M936 476L937 477L936 476z"/>
<path style="fill:#dd494f; stroke:none;" d="M296 478L298 480L298 478L296 478z"/>
<path style="fill:#f7a3a3; stroke:none;" d="M935 478L936 479L935 478z"/>
<path style="fill:#a76662; stroke:none;" d="M606 479L607 480L606 479M614 480L615 481L614 480z"/>
<path style="fill:#f7a3a3; stroke:none;" d="M934 480L935 481L934 480z"/>
<path style="fill:#dd494f; stroke:none;" d="M178 543L178 544L164 549C168.949 559.606 181.265 562.841 192 564.05C209.825 566.058 227.629 566.545 245 571.721C261.301 576.578 276.369 585.93 293 589.334C301.772 591.129 324.867 590.619 321 577C315.666 579.365 310.206 581.562 309 574L320 574C315.235 557.05 322.719 531.7 312.298 517.044C308.778 512.094 303.585 511.797 298 512.039C283.126 512.686 265.582 513.293 251 516C247.188 509.746 233.339 506.095 227 501.573C214.68 492.784 196.683 476.652 180 481.803C163.754 486.819 158.613 512.295 158.04 527C157.872 531.316 157.943 541.037 161.728 543.972C165.406 546.825 173.885 543.775 178 543M413 481L415 485L413 481z"/>
<path style="fill:#f7a3a3; stroke:none;" d="M538 481L538 483L540 481L538 481z"/>
<path style="fill:#a76662; stroke:none;" d="M607.333 481.667L607.667 482.333L607.333 481.667z"/>
<path style="fill:#f7a3a3; stroke:none;" d="M933 481L934 482L933 481z"/>
<path style="fill:#a76662; stroke:none;" d="M615 483L616 484L615 483z"/>
<path style="fill:#f7a3a3; stroke:none;" d="M932 483L933 484L932 483z"/>
<path style="fill:#a76662; stroke:none;" d="M608 484L609 485L608 484z"/>
<path style="fill:#f7a3a3; stroke:none;" d="M905 488C910.099 489.493 914.394 488.965 917 484L905 488M931 485L932 486L931 485z"/>
<path style="fill:#a76662; stroke:none;" d="M616 486L617 487L616 486z"/>
<path style="fill:#f7a3a3; stroke:none;" d="M930 486L931 487L930 486z"/>
<path style="fill:#a76662; stroke:none;" d="M609 487L610 488L609 487z"/>
<path style="fill:#f7a3a3; stroke:none;" d="M929 488L930 489L929 488z"/>
<path style="fill:#dd494f; stroke:none;" d="M333 489L329 494C333.205 494.957 335.85 492.939 333 489z"/>
<path style="fill:#a76662; stroke:none;" d="M617.333 489.667L617.667 490.333L617.333 489.667z"/>
<path style="fill:#f7a3a3; stroke:none;" d="M928 489L929 490L928 489z"/>
<path style="fill:#a76662; stroke:none;" d="M610 490L611 491L610 490z"/>
<path style="fill:#dd494f; stroke:none;" d="M323 492L323 495L325 494L325 493L323 492z"/>
<path style="fill:#f7a3a3; stroke:none;" d="M568 492L568 495L570 494L570 493L568 492z"/>
<path style="fill:#a76662; stroke:none;" d="M618.333 492.667L618.667 493.333L618.333 492.667z"/>
<path style="fill:#f7a3a3; stroke:none;" d="M926 492L927 493L926 492z"/>
<path style="fill:#a76662; stroke:none;" d="M611 493L612 494L611 493M612.333 495.667L612.667 496.333L612.333 495.667z"/>
<path style="fill:#f7a3a3; stroke:none;" d="M757 495L760 498L757 495M924 495L925 496L924 495z"/>
<path style="fill:#a76662; stroke:none;" d="M619 496L620 497L619 496z"/>
<path style="fill:#f7a3a3; stroke:none;" d="M918 496L918 497L921 497L918 496M923 496L924 497L923 496z"/>
<path style="fill:#dd494f; stroke:none;" d="M432 498C433.792 500.695 435.318 500.741 438 499L432 498z"/>
<path style="fill:#a76662; stroke:none;" d="M613.333 498.667L613.667 499.333L613.333 498.667M620.333 499.667L620.667 500.333L620.333 499.667z"/>
<path style="fill:#f7a3a3; stroke:none;" d="M921 499L922 500L921 499M920 500L921 501L920 500z"/>
<path style="fill:#dd494f; stroke:none;" d="M313.647 502.042C311.191 504.139 315.078 507.574 317.292 505.357C319.598 503.049 315.851 500.161 313.647 502.042z"/>
<path style="fill:#a76662; stroke:none;" d="M614.333 501.667L614.667 502.333L614.333 501.667M919 501L920 502L919 501M621.333 502.667L621.667 503.333L621.333 502.667M615.333 504.667L615.667 505.333L615.333 504.667z"/>
<path style="fill:#f7a3a3; stroke:none;" d="M916 505L917 506L916 505z"/>
<path style="fill:#dd494f; stroke:none;" d="M399 540L398 540L396 535C393.048 537.905 392.16 542.022 397 543L392 556L389 554L391 556C385.269 566.059 372.414 575.43 372.293 588C372.21 596.646 384.168 600.721 391 602.346C412.427 607.442 433.57 599.442 455 599L448 572C453.297 580.005 457.362 592.526 465.3 598.258C469.046 600.962 475.546 600.344 480 601.08C492.034 603.069 503.973 605.57 516 607.586C526.93 609.419 552.228 610.427 548.456 592C544.508 572.71 514.496 561.161 500 550.964C475.759 533.912 455.661 488.717 419 511.119C414.393 513.934 410.662 517.657 407.49 522.001C403.601 527.326 400.523 533.586 399 540z"/>
<path style="fill:#a76662; stroke:none;" d="M622 506L623 507L622 506z"/>
<path style="fill:#f7a3a3; stroke:none;" d="M915 506L916 507L915 506M190 508L195 513C195.992 508.64 194.36 507.008 190 508z"/>
<path style="fill:#a76662; stroke:none;" d="M616.333 507.667L616.667 508.333L616.333 507.667z"/>
<path style="fill:#f7a3a3; stroke:none;" d="M914 507L915 508L914 507M913 508L914 509L913 508z"/>
<path style="fill:#a76662; stroke:none;" d="M623.333 509.667L623.667 510.333L623.333 509.667M617 511L618 512L617 511M624.333 513.667L624.667 514.333L624.333 513.667M618 514L619 515L618 514M625.333 516.667L625.667 517.333L625.333 516.667M619.333 517.667L619.667 518.333L619.333 517.667z"/>
<path style="fill:#f7a3a3; stroke:none;" d="M903 519L904 520L903 519z"/>
<path style="fill:#a76662; stroke:none;" d="M620.333 520.667L620.667 521.333L620.333 520.667M626.333 520.667L626.667 521.333L626.333 520.667z"/>
<path style="fill:#f7a3a3; stroke:none;" d="M220 522L222 525L220 522M310.333 522.667L310.667 523.333L310.333 522.667z"/>
<path style="fill:#a76662; stroke:none;" d="M627.333 523.667L627.667 524.333L627.333 523.667z"/>
<path style="fill:#dd494f; stroke:none;" d="M495 524L497 527L495 524z"/>
<path style="fill:#a76662; stroke:none;" d="M621 524L622 525L621 524z"/>
<path style="fill:#f7a3a3; stroke:none;" d="M710 527L716 526C713.318 524.259 711.792 524.305 710 527M895 526L896 527L895 526z"/>
<path style="fill:#a76662; stroke:none;" d="M622.333 527.667L622.667 528.333L622.333 527.667M628.333 527.667L628.667 528.333L628.333 527.667z"/>
<path style="fill:#f7a3a3; stroke:none;" d="M894 527L895 528L894 527M893 528L894 529L893 528M892 529L893 530L892 529M204 530L204 533L205 533L204 530M217 530L217 533L219 532L219 531L217 530z"/>
<path style="fill:#a76662; stroke:none;" d="M623.333 530.667L623.667 531.333L623.333 530.667z"/>
<path style="fill:#f7a3a3; stroke:none;" d="M856 530L856 533L858 532L858 531L856 530M891 530L892 531L891 530M303.667 531.333L304.333 531.667L303.667 531.333z"/>
<path style="fill:#dd494f; stroke:none;" d="M349 531L351 533L351 531L349 531z"/>
<path style="fill:#a76662; stroke:none;" d="M629.333 531.667L629.667 532.333L629.333 531.667z"/>
<path style="fill:#f7a3a3; stroke:none;" d="M716 534L716 535L722 536C720.268 533.331 719.058 533.29 716 534M887 533L888 534L887 533M428 534L428 535L431 535L428 534z"/>
<path style="fill:#a76662; stroke:none;" d="M624.333 534.667L624.667 535.333L624.333 534.667z"/>
<path style="fill:#f7a3a3; stroke:none;" d="M766 534C766.92 539.159 768.981 544.871 775 544C773.027 539.294 771.125 535.473 766 534M886 534L887 535L886 534z"/>
<path style="fill:#a76662; stroke:none;" d="M630.333 535.667L630.667 536.333L630.333 535.667z"/>
<path style="fill:#f7a3a3; stroke:none;" d="M776 535L778 539L776 535M885 535L886 536L885 535M465 536L465 538L467 538L465 536M884 536L885 537L884 536M441 537L441 541L444 541L444 537L441 537z"/>
<path style="fill:#a76662; stroke:none;" d="M625.333 537.667L625.667 538.333L625.333 537.667M631.333 539.667L631.667 540.333L631.333 539.667z"/>
<path style="fill:#f7a3a3; stroke:none;" d="M745 539L744 544L745 539M880 539L881 540L880 539M224 540L224 548C227.757 545.907 227.692 543.756 226 540L224 540M879 540L880 541L879 540M397.333 541.667L397.667 542.333L397.333 541.667z"/>
<path style="fill:#a76662; stroke:none;" d="M626.333 541.667L626.667 542.333L626.333 541.667z"/>
<path style="fill:#f7a3a3; stroke:none;" d="M878 541L879 542L878 541M179 542L180 543L179 542z"/>
<path style="fill:#a76662; stroke:none;" d="M632.333 543.667L632.667 544.333L632.333 543.667M875 543L876 544L875 543M627.333 544.667L627.667 545.333L627.333 544.667z"/>
<path style="fill:#f7a3a3; stroke:none;" d="M874 544L875 545L874 544M825 547L829 545L825 547M873 545L874 546L873 545z"/>
<path style="fill:#dd494f; stroke:none;" d="M376 548L376 550L381 550L381 548L376 548z"/>
<path style="fill:#a76662; stroke:none;" d="M633.333 547.667L633.667 548.333L633.333 547.667z"/>
<path style="fill:#f7a3a3; stroke:none;" d="M870 547L871 548L870 547z"/>
<path style="fill:#dd494f; stroke:none;" d="M323 548L323 550L325 550L323 548z"/>
<path style="fill:#f7a3a3; stroke:none;" d="M445 548L447 550L447 548L445 548M458 549L464 549L458 549z"/>
<path style="fill:#a76662; stroke:none;" d="M628.333 548.667L628.667 549.333L628.333 548.667z"/>
<path style="fill:#f7a3a3; stroke:none;" d="M670 548L676 553L676 552L670 548M869 548L870 549L869 548M413 549L413 553L415 549L413 549M866 550L867 551L866 550z"/>
<path style="fill:#a76662; stroke:none;" d="M634 551L634 554L635 554L634 551z"/>
<path style="fill:#f7a3a3; stroke:none;" d="M865 551L866 552L865 551z"/>
<path style="fill:#a76662; stroke:none;" d="M629 552L630 553L629 552z"/>
<path style="fill:#dd494f; stroke:none;" d="M381 553L381 562C384.196 558.856 384.196 556.144 381 553z"/>
<path style="fill:#f7a3a3; stroke:none;" d="M680 554L680 556L686 555L680 554M852 556L852 554C843.589 552.079 844.794 559.248 852 556M862 553L863 554L862 553M174 554L174 556L176 554L174 554M452 554L452 556L457 556L457 554L452 554M861 554L862 555L861 554z"/>
<path style="fill:#a76662; stroke:none;" d="M630.333 555.667L630.667 556.333L630.333 555.667M635 555L635 558L636 558L635 555z"/>
<path style="fill:#f7a3a3; stroke:none;" d="M858 556L859 557L858 556M436 557L435 559L437 559L436 557M857 557L858 558L857 557z"/>
<path style="fill:#dd494f; stroke:none;" d="M334 559L334 561L342 561L342 559L334 559M547 558L545 561L549 561L547 558M600 561L606 562C604.208 559.305 602.682 559.259 600 561z"/>
<path style="fill:#a76662; stroke:none;" d="M631.333 559.667L631.667 560.333L631.333 559.667M636 559L636 562L637 562L636 559z"/>
<path style="fill:#f7a3a3; stroke:none;" d="M854 559L855 560L854 559z"/>
<path style="fill:#dd494f; stroke:none;" d="M164 560L164 562L166 560L164 560z"/>
<path style="fill:#f7a3a3; stroke:none;" d="M233 560L233 561L242 562L242 560L233 560M819 560L821 562L821 560L819 560M853 560L854 561L853 560M850 562L851 563L850 562z"/>
<path style="fill:#dd494f; stroke:none;" d="M159 565L163 564L159 565z"/>
<path style="fill:#a76662; stroke:none;" d="M632.333 563.667L632.667 564.333L632.333 563.667z"/>
<path style="fill:#f7a3a3; stroke:none;" d="M849 563L850 564L849 563z"/>
<path style="fill:#a76662; stroke:none;" d="M637 564L637 567L638 567L637 564M847 564L848 565L847 564z"/>
<path style="fill:#f7a3a3; stroke:none;" d="M293 568L298 568C296.228 565.318 294.772 565.318 293 568M846 565L847 566L846 565M439.333 566.667L439.667 567.333L439.333 566.667z"/>
<path style="fill:#a76662; stroke:none;" d="M633.333 567.667L633.667 568.333L633.333 567.667z"/>
<path style="fill:#f7a3a3; stroke:none;" d="M643 567L643 571L643 567M766 568L766 570L774 570L774 568L766 568M843 567L844 568L843 567M842 568L843 569L842 568z"/>
<path style="fill:#a76662; stroke:none;" d="M638.333 569.667L638.667 570.333L638.333 569.667z"/>
<path style="fill:#f7a3a3; stroke:none;" d="M447.333 570.667L447.667 571.333L447.333 570.667M839 570L840 571L839 570z"/>
<path style="fill:#dd494f; stroke:none;" d="M555 571L555 574L556 574L555 571z"/>
<path style="fill:#a76662; stroke:none;" d="M634.333 571.667L634.667 572.333L634.333 571.667z"/>
<path style="fill:#f7a3a3; stroke:none;" d="M838 571L839 572L838 571z"/>
<path style="fill:#a76662; stroke:none;" d="M141 572L141 573L166 573L141 572z"/>
<path style="fill:#f7a3a3; stroke:none;" d="M651 572L655 574L651 572M836 572L837 573L836 572z"/>
<path style="fill:#31281f; stroke:none;" d="M145 573L145 574C193.258 580.232 243.238 594.423 290 607.71C319.945 616.218 347.951 625.89 379 629.715C462.622 640.017 548.576 622.798 629 654C620.889 645.214 606.95 640.706 596 636.576C561.84 623.694 525.021 623 489 623C446.012 623 403.379 624.026 361 615.551C288.388 601.031 219.969 573 145 573z"/>
<path style="fill:#a76662; stroke:none;" d="M173 573L173 574L179 574L173 573M639 573L639 576L640 576L639 573z"/>
<path style="fill:#f7a3a3; stroke:none;" d="M835 573L836 574L835 573z"/>
<path style="fill:#a76662; stroke:none;" d="M147.667 574.333L148.333 574.667L147.667 574.333M184 574L184 575L188 575L184 574z"/>
<path style="fill:#dd494f; stroke:none;" d="M217 574L217 578L219 574L217 574M363 574L363 577L364 577L363 574z"/>
<path style="fill:#f7a3a3; stroke:none;" d="M783 580L788 575C783.704 573.999 782.188 575.734 783 580z"/>
<path style="fill:#a76662; stroke:none;" d="M151 575L151 576L154 576L151 575M192 575L192 576L195 576L192 575M635.333 575.667L635.667 576.333L635.333 575.667z"/>
<path style="fill:#f7a3a3; stroke:none;" d="M832 575L833 576L832 575z"/>
<path style="fill:#a76662; stroke:none;" d="M156.667 576.333L157.333 576.667L156.667 576.333M199 576L199 577L202 577L199 576z"/>
<path style="fill:#f7a3a3; stroke:none;" d="M831 576L832 577L831 576z"/>
<path style="fill:#a76662; stroke:none;" d="M160 577L160 578L163 578L160 577M205 577L205 578L208 578L205 577z"/>
<path style="fill:#f7a3a3; stroke:none;" d="M522 586L523 586L526 580C524.816 579.77 507.227 574.452 512.086 581.278C513.742 583.603 519.475 584.331 522 586M829 577L830 578L829 577z"/>
<path style="fill:#a76662; stroke:none;" d="M165.667 578.333L166.333 578.667L165.667 578.333M211.667 578.333L212.333 578.667L211.667 578.333M640.333 578.667L640.667 579.333L640.333 578.667z"/>
<path style="fill:#f7a3a3; stroke:none;" d="M828 578L829 579L828 578z"/>
<path style="fill:#a76662; stroke:none;" d="M170.667 579.333L171.333 579.667L170.667 579.333M216 579L216 580L219 580L216 579M636 579L636 582L637 582L636 579M175.667 580.333L176.333 580.667L175.667 580.333M221 580L221 581L224 581L221 580z"/>
<path style="fill:#f7a3a3; stroke:none;" d="M383 580L382 585C384.444 583.392 384.662 582.413 383 580M825 580L826 581L825 580z"/>
<path style="fill:#a76662; stroke:none;" d="M179 581L179 582L182 582L179 581M226.667 581.333L227.333 581.667L226.667 581.333M184.667 582.333L185.333 582.667L184.667 582.333M231.667 582.333L232.333 582.667L231.667 582.333M641 582L641 585L642 585L641 582z"/>
<path style="fill:#f7a3a3; stroke:none;" d="M822 582L823 583L822 582z"/>
<path style="fill:#dd494f; stroke:none;" d="M131 583L130 588C133.433 587.023 133.447 585.357 131 583z"/>
<path style="fill:#a76662; stroke:none;" d="M189.667 583.333L190.333 583.667L189.667 583.333M235.667 583.333L236.333 583.667L235.667 583.333z"/>
<path style="fill:#dd494f; stroke:none;" d="M607 585L610 585L609 583L607 585z"/>
<path style="fill:#f7a3a3; stroke:none;" d="M821 583L822 584L821 583z"/>
<path style="fill:#a76662; stroke:none;" d="M193.667 584.333L194.333 584.667L193.667 584.333M239.667 584.333L240.333 584.667L239.667 584.333z"/>
<path style="fill:#dd494f; stroke:none;" d="M334 593C335.68 593.4 337.291 593.806 339.025 593.905C351.351 594.608 344.779 579.03 336.434 588.28C335.112 589.746 334.63 591.185 334 593z"/>
<path style="fill:#a76662; stroke:none;" d="M637.333 584.667L637.667 585.333L637.333 584.667z"/>
<path style="fill:#f7a3a3; stroke:none;" d="M819 584L820 585L819 584z"/>
<path style="fill:#a76662; stroke:none;" d="M197.667 585.333L198.333 585.667L197.667 585.333M243.667 585.333L244.333 585.667L243.667 585.333z"/>
<path style="fill:#f7a3a3; stroke:none;" d="M818 585L819 586L818 585z"/>
<path style="fill:#a76662; stroke:none;" d="M201 586L201 587L204 587L201 586M247.667 586.333L248.333 586.667L247.667 586.333z"/>
<path style="fill:#f7a3a3; stroke:none;" d="M770 586L770 588L772 588L770 586z"/>
<path style="fill:#a76662; stroke:none;" d="M206 587L206 588L209 588L206 587M251.667 587.333L252.333 587.667L251.667 587.333M642 587L642 590L643 590L642 587z"/>
<path style="fill:#f7a3a3; stroke:none;" d="M815 587L816 588L815 587z"/>
<path style="fill:#a76662; stroke:none;" d="M211.667 588.333L212.333 588.667L211.667 588.333M255.667 588.333L256.333 588.667L255.667 588.333M638.333 588.667L638.667 589.333L638.333 588.667M215.667 589.333L216.333 589.667L215.667 589.333M259.667 589.333L260.333 589.667L259.667 589.333z"/>
<path style="fill:#f7a3a3; stroke:none;" d="M812 589L813 590L812 589z"/>
<path style="fill:#a76662; stroke:none;" d="M219.667 590.333L220.333 590.667L219.667 590.333M263.667 590.333L264.333 590.667L263.667 590.333z"/>
<path style="fill:#f7a3a3; stroke:none;" d="M811 590L812 591L811 590z"/>
<path style="fill:#a76662; stroke:none;" d="M223.667 591.333L224.333 591.667L223.667 591.333M267 591L268 592L267 591z"/>
<path style="fill:#f7a3a3; stroke:none;" d="M809 591L810 592L809 591z"/>
<path style="fill:#a76662; stroke:none;" d="M228.667 592.333L229.333 592.667L228.667 592.333M270.667 592.333L271.333 592.667L270.667 592.333z"/>
<path style="fill:#dd494f; stroke:none;" d="M608 592L607 594L609 594L608 592z"/>
<path style="fill:#a76662; stroke:none;" d="M643 592L643 596L644 596L643 592z"/>
<path style="fill:#f7a3a3; stroke:none;" d="M808 592L809 593L808 592z"/>
<path style="fill:#a76662; stroke:none;" d="M232 593L232 594L235 594L232 593M274.667 593.333L275.333 593.667L274.667 593.333M639.333 593.667L639.667 594.333L639.333 593.667M806 593L807 594L806 593M237.667 594.333L238.333 594.667L237.667 594.333M278 594L279 595L278 594z"/>
<path style="fill:#f7a3a3; stroke:none;" d="M648 594C646.042 597.747 645.92 599.97 649 603C650.7 599.285 650.834 597.065 648 594M805 594L806 595L805 594z"/>
<path style="fill:#dd494f; stroke:none;" d="M152 633C141 626.899 128.125 620.765 120 611L119 611C106.734 622.739 86.6152 632.056 85.1852 651C84.7706 656.492 87.2128 661.65 88 667C94.9707 670.087 100.148 673.69 108 674.711C127.789 677.282 148.129 669.905 168 670.001C183.437 670.075 198.747 675.397 214 670.79C224.698 667.559 221.945 661.188 225.999 653C230.859 643.185 241.529 635.274 232.606 624.015C227.425 617.477 219.275 613.884 212 610.247C194.599 601.546 176.689 594.77 157 595.004C150.902 595.076 132.56 597.029 130.342 604.213C129.412 607.224 133.119 610.8 134.707 613C139.928 620.231 145.701 626.701 152 633z"/>
<path style="fill:#a76662; stroke:none;" d="M241 595L242 596L241 595M281.667 595.333L282.333 595.667L281.667 595.333z"/>
<path style="fill:#f7a3a3; stroke:none;" d="M678 597L682 595L678 597z"/>
<path style="fill:#a76662; stroke:none;" d="M244.667 596.333L245.333 596.667L244.667 596.333M285.667 596.333L286.333 596.667L285.667 596.333z"/>
<path style="fill:#f7a3a3; stroke:none;" d="M802 596L803 597L802 596z"/>
<path style="fill:#a76662; stroke:none;" d="M248.667 597.333L249.333 597.667L248.667 597.333M288.667 597.333L289.333 597.667L288.667 597.333M640.333 597.667L640.667 598.333L640.333 597.667z"/>
<path style="fill:#f7a3a3; stroke:none;" d="M801 597L802 598L801 597z"/>
<path style="fill:#a76662; stroke:none;" d="M253.667 598.333L254.333 598.667L253.667 598.333M268 601L269 601L276 599C272.668 597.617 269.994 597.924 268 601M292.667 598.333L293.333 598.667L292.667 598.333M644 598L644 601L645 601L644 598z"/>
<path style="fill:#f7a3a3; stroke:none;" d="M799 598L800 599L799 598z"/>
<path style="fill:#a76662; stroke:none;" d="M257.667 599.333L258.333 599.667L257.667 599.333z"/>
<path style="fill:#f7a3a3; stroke:none;" d="M269 599L269 601L277 600L269 599z"/>
<path style="fill:#a76662; stroke:none;" d="M296 599L297 600L296 599z"/>
<path style="fill:#dd494f; stroke:none;" d="M320 600L324 601L320 600z"/>
<path style="fill:#f7a3a3; stroke:none;" d="M798 599L799 600L798 599z"/>
<path style="fill:#a76662; stroke:none;" d="M261.667 600.333L262.333 600.667L261.667 600.333M276 600L277 601L276 600M299.667 600.333L300.333 600.667L299.667 600.333M796 600L797 601L796 600M265.667 601.333L266.333 601.667L265.667 601.333M303.667 601.333L304.333 601.667L303.667 601.333z"/>
<path style="fill:#f7a3a3; stroke:none;" d="M795 601L796 602L795 601z"/>
<path style="fill:#a76662; stroke:none;" d="M269.667 602.333L270.333 602.667L269.667 602.333M306.667 602.333L307.333 602.667L306.667 602.333M641.333 602.667L641.667 603.333L641.333 602.667M273.667 603.333L274.333 603.667L273.667 603.333M286 606L287 606C288.617 603.305 290.659 603.365 290 606L291 606L292 604C288.942 603.29 287.732 603.331 286 606M310.667 603.333L311.333 603.667L310.667 603.333M645 603L645 607L646 607L645 603z"/>
<path style="fill:#f7a3a3; stroke:none;" d="M792 603L793 604L792 603z"/>
<path style="fill:#a76662; stroke:none;" d="M277.667 604.333L278.333 604.667L277.667 604.333z"/>
<path style="fill:#f7a3a3; stroke:none;" d="M287 606L291 605L287 606z"/>
<path style="fill:#a76662; stroke:none;" d="M314.667 604.333L315.333 604.667L314.667 604.333z"/>
<path style="fill:#f7a3a3; stroke:none;" d="M791 604L792 605L791 604z"/>
<path style="fill:#a76662; stroke:none;" d="M281 605L282 606L281 605M318.667 605.333L319.333 605.667L318.667 605.333z"/>
<path style="fill:#f7a3a3; stroke:none;" d="M789 605L790 606L789 605z"/>
<path style="fill:#a76662; stroke:none;" d="M284.667 606.333L285.333 606.667L284.667 606.333M322 606L323 607L322 606z"/>
<path style="fill:#f7a3a3; stroke:none;" d="M788 606L789 607L788 606z"/>
<path style="fill:#a76662; stroke:none;" d="M288.667 607.333L289.333 607.667L288.667 607.333M325.667 607.333L326.333 607.667L325.667 607.333M642.333 607.667L642.667 608.333L642.333 607.667z"/>
<path style="fill:#f7a3a3; stroke:none;" d="M786 607L787 608L786 607z"/>
<path style="fill:#a76662; stroke:none;" d="M291.667 608.333L292.333 608.667L291.667 608.333M329 608L329 609L332 609L329 608z"/>
<path style="fill:#dd494f; stroke:none;" d="M453 611L457 609L453 611z"/>
<path style="fill:#f7a3a3; stroke:none;" d="M785 608L786 609L785 608z"/>
<path style="fill:#a76662; stroke:none;" d="M295.667 609.333L296.333 609.667L295.667 609.333M334.667 609.333L335.333 609.667L334.667 609.333M646 609L646 612L647 612L646 609z"/>
<path style="fill:#f7a3a3; stroke:none;" d="M700 612L705 612C703.228 609.318 701.772 609.318 700 612M783 609L784 610L783 609z"/>
<path style="fill:#a76662; stroke:none;" d="M298.667 610.333L299.333 610.667L298.667 610.333M338.667 610.333L339.333 610.667L338.667 610.333z"/>
<path style="fill:#f7a3a3; stroke:none;" d="M781 610L782 611L781 610z"/>
<path style="fill:#a76662; stroke:none;" d="M302 611L303 612L302 611M342.667 611.333L343.333 611.667L342.667 611.333z"/>
<path style="fill:#f7a3a3; stroke:none;" d="M780 611L781 612L780 611z"/>
<path style="fill:#a76662; stroke:none;" d="M305.667 612.333L306.333 612.667L305.667 612.333M347.667 612.333L348.333 612.667L347.667 612.333M643.333 612.667L643.667 613.333L643.333 612.667z"/>
<path style="fill:#f7a3a3; stroke:none;" d="M778 612L779 613L778 612z"/>
<path style="fill:#a76662; stroke:none;" d="M309 613L310 614L309 613M351.667 613.333L352.333 613.667L351.667 613.333z"/>
<path style="fill:#dd494f; stroke:none;" d="M477 613L477 616L480 615L480 614L477 613z"/>
<path style="fill:#a76662; stroke:none;" d="M312.667 614.333L313.333 614.667L312.667 614.333M356.667 614.333L357.333 614.667L356.667 614.333M647 614L647 618L648 618L647 614z"/>
<path style="fill:#f7a3a3; stroke:none;" d="M775 614L776 615L775 614z"/>
<path style="fill:#a76662; stroke:none;" d="M315.667 615.333L316.333 615.667L315.667 615.333M360 615L360 616L363 616L360 615z"/>
<path style="fill:#f7a3a3; stroke:none;" d="M773 615L774 616L773 615z"/>
<path style="fill:#a76662; stroke:none;" d="M319 616L320 617L319 616M366 616L366 617L369 617L366 616z"/>
<path style="fill:#f7a3a3; stroke:none;" d="M772 616L773 617L772 616z"/>
<path style="fill:#dd494f; stroke:none;" d="M317 617L316 621L317 617z"/>
<path style="fill:#a76662; stroke:none;" d="M322 617L323 618L322 617M372 617L372 618L375 618L372 617M644 617L644 620L645 620L644 617z"/>
<path style="fill:#f7a3a3; stroke:none;" d="M770 617L771 618L770 617z"/>
<path style="fill:#a76662; stroke:none;" d="M324.667 618.333L325.333 618.667L324.667 618.333M378 618L378 619L381 619L378 618z"/>
<path style="fill:#f7a3a3; stroke:none;" d="M721 618L720 621L721 618M768 618L769 619L768 618z"/>
<path style="fill:#a76662; stroke:none;" d="M327 619L328 620L327 619M385 619L385 620L389 620L385 619M330 620L331 621L330 620M393 620L393 621L397 621L393 620M648 620L648 624L649 624L648 620z"/>
<path style="fill:#f7a3a3; stroke:none;" d="M765 620L766 621L765 620z"/>
<path style="fill:#a76662; stroke:none;" d="M333 621L334 622L333 621M402 621L402 622L408 622L402 621z"/>
<path style="fill:#f7a3a3; stroke:none;" d="M730 621L730 623L732 623L730 621M763 621L764 622L763 621z"/>
<path style="fill:#dd494f; stroke:none;" d="M293 622L296 625L293 622z"/>
<path style="fill:#a76662; stroke:none;" d="M336.667 622.333L337.333 622.667L336.667 622.333M417 622L417 623L434 623L417 622M466 622L466 623L516 623C503.11 617.591 480.049 622 466 622z"/>
<path style="fill:#f7a3a3; stroke:none;" d="M761 622L762 623L761 622z"/>
<path style="fill:#a76662; stroke:none;" d="M340.667 623.333L341.333 623.667L340.667 623.333M526 623L526 624L534 624L526 623M645.333 623.667L645.667 624.333L645.333 623.667z"/>
<path style="fill:#f7a3a3; stroke:none;" d="M759 623L760 624L759 623z"/>
<path style="fill:#a76662; stroke:none;" d="M344.667 624.333L345.333 624.667L344.667 624.333M540 624L540 625L545 625L540 624z"/>
<path style="fill:#f7a3a3; stroke:none;" d="M758 624L759 625L758 624z"/>
<path style="fill:#a76662; stroke:none;" d="M348.667 625.333L349.333 625.667L348.667 625.333M548 625L548 626L551 626L548 625z"/>
<path style="fill:#f7a3a3; stroke:none;" d="M756 625L757 626L756 625z"/>
<path style="fill:#a76662; stroke:none;" d="M353.667 626.333L354.333 626.667L353.667 626.333M555 626L555 627L558 627L555 626M649 626L649 630L650 630L649 626z"/>
<path style="fill:#f7a3a3; stroke:none;" d="M754 626L755 627L754 626M179 630L187 630C184.732 626.505 181.268 626.505 179 630z"/>
<path style="fill:#a76662; stroke:none;" d="M359 627L359 628L362 628L359 627M561.667 627.333L562.333 627.667L561.667 627.333z"/>
<path style="fill:#f7a3a3; stroke:none;" d="M671 627L670 629L672 629L671 627M700 627L700 629L702 629L702 627L700 627M752 627L753 628L752 627z"/>
<path style="fill:#a76662; stroke:none;" d="M365 628L365 629L370 629L365 628M566.667 628.333L567.333 628.667L566.667 628.333M646 628L646 631L647 631L646 628M750 628L751 629L750 628M374 629L374 630L378 630L374 629M568 629L568 630L573 630L568 629z"/>
<path style="fill:#f7a3a3; stroke:none;" d="M749 629L750 630L749 629z"/>
<path style="fill:#a76662; stroke:none;" d="M383 630L383 631L387 631L383 630M576 630L577 631L576 630z"/>
<path style="fill:#f7a3a3; stroke:none;" d="M747 630L748 631L747 630z"/>
<path style="fill:#a76662; stroke:none;" d="M395 631L395 632L403 632L395 631M579.667 631.333L580.333 631.667L579.667 631.333z"/>
<path style="fill:#f7a3a3; stroke:none;" d="M745 631L746 632L745 631z"/>
<path style="fill:#a76662; stroke:none;" d="M416 632L416 633L432 633L416 632M583.667 632.333L584.333 632.667L583.667 632.333M650 632L650 637L651 637L650 632z"/>
<path style="fill:#f7a3a3; stroke:none;" d="M743 632L744 633L743 632M152 633L153 634L152 633z"/>
<path style="fill:#a76662; stroke:none;" d="M458 633L458 634L495 634C485.202 629.889 468.649 633 458 633M587 633L588 634L587 633M516 634L516 635L526 635L516 634M590 634L591 635L590 634z"/>
<path style="fill:#f7a3a3; stroke:none;" d="M740 634L741 635L740 634z"/>
<path style="fill:#a76662; stroke:none;" d="M536 635L536 636L545 636L536 635M593 635L594 636L593 635M647 635L647 638L648 638L647 635z"/>
<path style="fill:#f7a3a3; stroke:none;" d="M697 640C705.398 655.229 715.706 629.145 702.024 636.684C700.288 637.641 698.661 638.921 697 640M738 635L739 636L738 635z"/>
<path style="fill:#a76662; stroke:none;" d="M552 636L552 637L557 637L552 636M595.667 636.333L596.333 636.667L595.667 636.333z"/>
<path style="fill:#f7a3a3; stroke:none;" d="M736 636L737 637L736 636z"/>
<path style="fill:#a76662; stroke:none;" d="M562 637L562 638L566 638L562 637M598 637L599 638L598 637z"/>
<path style="fill:#f7a3a3; stroke:none;" d="M734 637L735 638L734 637z"/>
<path style="fill:#dd494f; stroke:none;" d="M359 671L357 675L370 677C369.925 681.847 374.326 684.535 378 687.323C389.123 695.765 401.53 697 415 697C438.041 697 461.011 694.668 484 697.166C503.625 699.298 523.073 706.726 543 705.246C557.462 704.172 577.429 701.198 584 686L543 684L543 683L582 677C572.957 666.479 548.047 666.774 535 664.586C509.496 660.31 483.748 654.622 458 652.17C440.428 650.496 422.454 653.479 405 649.575C386.803 645.504 361.807 631.035 343.005 639.653C323.966 648.379 347.885 668.857 359 671z"/>
<path style="fill:#a76662; stroke:none;" d="M570 638L570 639L574 639L570 638M601 638L602 639L601 638z"/>
<path style="fill:#f7a3a3; stroke:none;" d="M732 638L733 639L732 638z"/>
<path style="fill:#a76662; stroke:none;" d="M578 639L578 640L581 640L578 639M603.667 639.333L604.333 639.667L603.667 639.333M651 639L651 644L652 644L651 639z"/>
<path style="fill:#f7a3a3; stroke:none;" d="M730 639L731 640L730 639z"/>
<path style="fill:#a76662; stroke:none;" d="M584 640L584 641L587 641L584 640M606 640L607 641L606 640z"/>
<path style="fill:#f7a3a3; stroke:none;" d="M675 648C678.13 645.742 678.026 643.58 677 640C673.243 642.093 673.308 644.245 675 648M689 640L689 644L691 640L689 640z"/>
<path style="fill:#a76662; stroke:none;" d="M728 640L729 641L728 640z"/>
<path style="fill:#dd494f; stroke:none;" d="M265 641.518C262.277 642.099 259.443 643.074 257 644.417C236.359 655.763 257.802 667.85 264.895 678.039C271.082 686.927 272.361 701.93 287 698.468C290.7 697.592 293.951 695.444 297 693.254C302.487 689.312 308.861 684.198 309.771 677C310.626 670.235 305.24 664.905 301.424 660C291.326 647.017 282.759 637.729 265 641.518z"/>
<path style="fill:#a76662; stroke:none;" d="M589 641L589 642L592 642L589 641M608 641L609 642L608 641M648 641L648 645L649 645L648 641z"/>
<path style="fill:#f7a3a3; stroke:none;" d="M727 641L728 642L727 641z"/>
<path style="fill:#a76662; stroke:none;" d="M594.667 642.333L595.333 642.667L594.667 642.333M610 642L611 643L610 642z"/>
<path style="fill:#f7a3a3; stroke:none;" d="M725 642L726 643L725 642z"/>
<path style="fill:#a76662; stroke:none;" d="M598.667 643.333L599.333 643.667L598.667 643.333M612 643L613 644L612 643z"/>
<path style="fill:#f7a3a3; stroke:none;" d="M723 643L724 644L723 643z"/>
<path style="fill:#a76662; stroke:none;" d="M602.667 644.333L603.333 644.667L602.667 644.333M614 644L615 645L614 644z"/>
<path style="fill:#f7a3a3; stroke:none;" d="M721 644L722 645L721 644z"/>
<path style="fill:#a76662; stroke:none;" d="M606 645L607 646L606 645M616 645L617 646L616 645z"/>
<path style="fill:#f7a3a3; stroke:none;" d="M719 645L720 646L719 645z"/>
<path style="fill:#a76662; stroke:none;" d="M609 646L610 647L609 646M618 646L619 647L618 646M652 646L652 652L653 652L652 646z"/>
<path style="fill:#f7a3a3; stroke:none;" d="M717 646L718 647L717 646z"/>
<path style="fill:#a76662; stroke:none;" d="M612 647L613 648L612 647z"/>
<path style="fill:#f7a3a3; stroke:none;" d="M715 647L716 648L715 647M392 648L394 650L394 648L392 648z"/>
<path style="fill:#a76662; stroke:none;" d="M615 648L616 649L615 648M621 648L622 649L621 648z"/>
<path style="fill:#f7a3a3; stroke:none;" d="M713 648L714 649L713 648z"/>
<path style="fill:#a76662; stroke:none;" d="M617.667 649.333L618.333 649.667L617.667 649.333M623 649L624 650L623 649M711 649L712 650L711 649M620 650L621 651L620 650M649 650L649 654L650 654L649 650z"/>
<path style="fill:#f7a3a3; stroke:none;" d="M710 650L711 651L710 650z"/>
<path style="fill:#dd494f; stroke:none;" d="M303 651L303 653L305 651L303 651z"/>
<path style="fill:#a76662; stroke:none;" d="M622 651L623 652L622 651M626 651L627 652L626 651z"/>
<path style="fill:#f7a3a3; stroke:none;" d="M708 651L709 652L708 651z"/>
<path style="fill:#a76662; stroke:none;" d="M625 652L626 653L625 652z"/>
<path style="fill:#f7a3a3; stroke:none;" d="M706 652L707 653L706 652M371 657L379 656C375.941 652.889 372.527 652.403 371 657M392 654C395.377 658.433 398.632 658.981 404 659C400.51 655.661 396.913 653.081 392 654z"/>
<path style="fill:#a76662; stroke:none;" d="M627 653L628 654L627 653M629.333 653.667L629.667 654.333L629.333 653.667z"/>
<path style="fill:#f7a3a3; stroke:none;" d="M704 653L705 654L704 653z"/>
<path style="fill:#31281f; stroke:none;" d="M630 654L631 655L630 654z"/>
<path style="fill:#f7a3a3; stroke:none;" d="M702 654L703 655L702 654z"/>
<path style="fill:#a76662; stroke:none;" d="M631 655L631 656L635 658L631 655z"/>
<path style="fill:#f7a3a3; stroke:none;" d="M700 655L701 656L700 655M698 656L699 657L698 656M696 657L697 658L696 657M101 658L100 661L101 658M481 659L485 660L481 659M694 658L695 659L694 658z"/>
<path style="fill:#dd494f; stroke:none;" d="M564 663C573.695 669.624 580.79 656.45 569.025 661.155C567.368 661.818 565.674 662.385 564 663z"/>
<path style="fill:#a76662; stroke:none;" d="M636 659L635 662L636 662L636 659z"/>
<path style="fill:#f7a3a3; stroke:none;" d="M692 659L693 660L692 659z"/>
<path style="fill:#dd494f; stroke:none;" d="M636 660C621.722 701.862 569.19 720.668 532 736.011C426.358 779.593 306.391 797.017 193 782.282C147.618 776.384 79.0497 770.787 58 722L57 722C57.1669 782.504 123.936 798.374 172 806.246C263.276 821.195 356.534 812.095 446 790.884C474.371 784.158 503.691 777.535 531 767.192C565.05 754.296 597.73 742.229 622.282 714C633.125 701.533 643.026 676.743 636 660z"/>
<path style="fill:#f7a3a3; stroke:none;" d="M690 660L691 661L690 660z"/>
<path style="fill:#a76662; stroke:none;" d="M650 661L652 670L650 661M652 661L652 666L653 666L652 661z"/>
<path style="fill:#f7a3a3; stroke:none;" d="M688 661L689 662L688 661M431 662L431 666L425 665L430 670L431 666L438 665L438 663L431 662z"/>
<path style="fill:#31281f; stroke:none;" d="M634 662C610.464 699.667 563.012 721.321 523 736.424C422.948 774.188 313.633 780.706 208 776.039C171.242 774.416 131.409 767.134 98 751.297C84.0816 744.699 69.4977 736.431 60 724L59 724C77.0184 765.762 133.825 773.118 173 779.411C284.426 797.308 400.85 782.855 507 745.657C541.926 733.417 582.54 719.059 611 694.7C618.071 688.648 635.733 672.415 634 662z"/>
<path style="fill:#f7a3a3; stroke:none;" d="M686 662L687 663L686 662z"/>
<path style="fill:#a76662; stroke:none;" d="M633 663L634 664L633 663z"/>
<path style="fill:#f7a3a3; stroke:none;" d="M674 663L678 665L674 663M684 663L685 664L684 663z"/>
<path style="fill:#a76662; stroke:none;" d="M632 664L633 665L632 664M634 664L635 665L634 664z"/>
<path style="fill:#f7a3a3; stroke:none;" d="M682 664L683 665L682 664M124 665L130 670L129 665L124 665M680 665L681 666L680 665z"/>
<path style="fill:#a76662; stroke:none;" d="M633 666L634 667L633 666z"/>
<path style="fill:#f7a3a3; stroke:none;" d="M678 666L679 667L678 666z"/>
<path style="fill:#a76662; stroke:none;" d="M630 667L631 668L630 667z"/>
<path style="fill:#f7a3a3; stroke:none;" d="M676 667L677 668L676 667z"/>
<path style="fill:#a76662; stroke:none;" d="M629 668L630 669L629 668M632 668L633 669L632 668z"/>
<path style="fill:#f7a3a3; stroke:none;" d="M674 668L675 669L674 668M672 669L673 670L672 669M670 670L671 671L670 670z"/>
<path style="fill:#a76662; stroke:none;" d="M630 671L631 672L630 671z"/>
<path style="fill:#f7a3a3; stroke:none;" d="M668 671L669 672L668 671z"/>
<path style="fill:#dd494f; stroke:none;" d="M228 679L236 672L228 679z"/>
<path style="fill:#f7a3a3; stroke:none;" d="M385 672L387 675L387 672L385 672z"/>
<path style="fill:#a76662; stroke:none;" d="M626 672L627 673L626 672z"/>
<path style="fill:#f7a3a3; stroke:none;" d="M666 672L667 673L666 672z"/>
<path style="fill:#a76662; stroke:none;" d="M625 673L626 674L625 673M629 673L630 674L629 673z"/>
<path style="fill:#f7a3a3; stroke:none;" d="M664 673L665 674L664 673z"/>
<path style="fill:#a76662; stroke:none;" d="M624 674L625 675L624 674M628 674L629 675L628 674z"/>
<path style="fill:#f7a3a3; stroke:none;" d="M662 674L663 675L662 674z"/>
<path style="fill:#a76662; stroke:none;" d="M623 675L624 676L623 675z"/>
<path style="fill:#f7a3a3; stroke:none;" d="M661 675L662 676L661 675z"/>
<path style="fill:#a76662; stroke:none;" d="M627 676L628 677L627 676z"/>
<path style="fill:#f7a3a3; stroke:none;" d="M659 676L660 677L659 676z"/>
<path style="fill:#dd494f; stroke:none;" d="M95 677L94 679L96 679L95 677z"/>
<path style="fill:#f7a3a3; stroke:none;" d="M475 677L475 678L485 680L475 677z"/>
<path style="fill:#dd494f; stroke:none;" d="M618 677L617 679L619 679L618 677z"/>
<path style="fill:#a76662; stroke:none;" d="M626 677L627 678L626 677M656 677L657 678L656 677z"/>
<path style="fill:#f7a3a3; stroke:none;" d="M657 677L658 678L657 677M654 678L655 679L654 678M652 679L653 680L652 679z"/>
<path style="fill:#a76662; stroke:none;" d="M624 680L625 681L624 680z"/>
<path style="fill:#f7a3a3; stroke:none;" d="M650 680L651 681L650 680M523 681L525 684L525 681L523 681z"/>
<path style="fill:#a76662; stroke:none;" d="M623 681L624 682L623 681z"/>
<path style="fill:#f7a3a3; stroke:none;" d="M648 681L649 682L648 681z"/>
<path style="fill:#a76662; stroke:none;" d="M616 682L617 683L616 682M622 682L623 683L622 682z"/>
<path style="fill:#f7a3a3; stroke:none;" d="M646 682L647 683L646 682z"/>
<path style="fill:#dd494f; stroke:none;" d="M614 683L614 685L616 683L614 683M641 684L642 685L641 684z"/>
<path style="fill:#a76662; stroke:none;" d="M613 685L614 686L613 685M612 686L613 687L612 686M619 686L620 687L619 686M611 687L612 688L611 687M618 687L619 688L618 687M610 688L611 689L610 688M617 688L618 689L617 688z"/>
<path style="fill:#f7a3a3; stroke:none;" d="M564 689L566 691L566 689L564 689z"/>
<path style="fill:#a76662; stroke:none;" d="M616 689L617 690L616 689z"/>
<path style="fill:#f7a3a3; stroke:none;" d="M624 689L624 691L626 691L626 689L624 689z"/>
<path style="fill:#a76662; stroke:none;" d="M615 690L616 691L615 690z"/>
<path style="fill:#dd494f; stroke:none;" d="M204 691L204 694L205 694L204 691z"/>
<path style="fill:#a76662; stroke:none;" d="M606 691L607 692L606 691M605 692L606 693L605 692z"/>
<path style="fill:#f7a3a3; stroke:none;" d="M634.333 692.667L634.667 693.333L634.333 692.667z"/>
<path style="fill:#dd494f; stroke:none;" d="M350 694L349 697L350 694z"/>
<path style="fill:#a76662; stroke:none;" d="M602 694L603 695L602 694M601 695L602 696L601 695M608 696L609 697L608 696z"/>
<path style="fill:#f7a3a3; stroke:none;" d="M633 696L634 697L633 696z"/>
<path style="fill:#dd494f; stroke:none;" d="M86.0008 697.533C78.1056 699.462 78.6569 705.65 83.2137 710.996C90.1863 719.176 99.4141 722.663 109 726.716C143.633 741.36 180.866 749.722 218 754.285C230.324 755.799 249.432 760.692 260.996 754.697C269.782 750.142 268.845 741.135 264.11 734C256.156 722.015 244.156 714.247 231 709C198.806 696.161 166.124 705.179 133 702.911C119.001 701.952 99.4774 694.24 86.0008 697.533z"/>
<path style="fill:#a76662; stroke:none;" d="M598 697L599 698L598 697M597 698L598 699L597 698M632 698L633 699L632 698M604 699L605 700L604 699z"/>
<path style="fill:#f7a3a3; stroke:none;" d="M632 699L633 700L632 699z"/>
<path style="fill:#a76662; stroke:none;" d="M594 700L595 701L594 700z"/>
<path style="fill:#dd494f; stroke:none;" d="M415 701L415 702L418 702L415 701z"/>
<path style="fill:#a76662; stroke:none;" d="M601 701L602 702L601 701z"/>
<path style="fill:#f7a3a3; stroke:none;" d="M631 701L632 702L631 701z"/>
<path style="fill:#a76662; stroke:none;" d="M591 702L592 703L591 702z"/>
<path style="fill:#dd494f; stroke:none;" d="M64 703L64 707L64 703z"/>
<path style="fill:#f7a3a3; stroke:none;" d="M100 703L101 707L102 707L102 703L100 703z"/>
<path style="fill:#dd494f; stroke:none;" d="M254 703C251.153 710.26 261.771 710.571 265 706L254 703M381 703L381 707L381 703M478 703C480.257 706.481 483.269 706.09 487 705L478 703z"/>
<path style="fill:#a76662; stroke:none;" d="M598 703L599 704L598 703z"/>
<path style="fill:#f7a3a3; stroke:none;" d="M630 703L631 704L630 703z"/>
<path style="fill:#a76662; stroke:none;" d="M588 704L589 705L588 704M595 705L596 706L595 705z"/>
<path style="fill:#f7a3a3; stroke:none;" d="M629 705L630 706L629 705z"/>
<path style="fill:#a76662; stroke:none;" d="M585 706L586 707L585 706z"/>
<path style="fill:#f7a3a3; stroke:none;" d="M628 706L629 707L628 706z"/>
<path style="fill:#a76662; stroke:none;" d="M583 707L584 708L583 707M582 708L583 709L582 708M590 708L591 709L590 708z"/>
<path style="fill:#dd494f; stroke:none;" d="M299 714C303.348 714.725 305.169 713.506 305 709L299 714z"/>
<path style="fill:#a76662; stroke:none;" d="M580 709L581 710L580 709z"/>
<path style="fill:#f7a3a3; stroke:none;" d="M626 709L627 710L626 709z"/>
<path style="fill:#dd494f; stroke:none;" d="M383 751L374 746C379.827 746.141 385.202 748.959 391 749.363C397.96 749.847 406.173 746.765 413 745.4C421.97 743.605 430.968 742.04 440 740.589C449.394 739.081 460.572 738.731 467.892 731.787C471.658 728.214 474.249 722.538 469.768 718.43C463.32 712.52 447.341 712.545 439 711.975C412.9 710.193 387.991 713 362 713C352.231 713 336.622 706.791 328.005 712.009C316.498 718.977 320.305 735.175 316.073 746C314.591 749.793 309.644 756.389 314.319 759.721C327.578 769.174 354.249 759.613 368 755.71C372.963 754.301 378.575 753.703 383 751z"/>
<path style="fill:#f7a3a3; stroke:none;" d="M625 710L626 711L625 710z"/>
<path style="fill:#a76662; stroke:none;" d="M577 711L578 712L577 711z"/>
<path style="fill:#f7a3a3; stroke:none;" d="M624 711L625 712L624 711z"/>
<path style="fill:#a76662; stroke:none;" d="M575 712L576 713L575 712M583 712L584 713L583 712z"/>
<path style="fill:#f7a3a3; stroke:none;" d="M623 712L624 713L623 712z"/>
<path style="fill:#a76662; stroke:none;" d="M573 713L574 714L573 713M581 713L582 714L581 713z"/>
<path style="fill:#f7a3a3; stroke:none;" d="M622 713L623 714L622 713z"/>
<path style="fill:#a76662; stroke:none;" d="M571 714L572 715L571 714z"/>
<path style="fill:#f7a3a3; stroke:none;" d="M621 714L622 715L621 714z"/>
<path style="fill:#a76662; stroke:none;" d="M569 715L570 716L569 715M567 716L568 717L567 716M573 717L574 718L573 717z"/>
<path style="fill:#f7a3a3; stroke:none;" d="M217 718L217 720L222 720L222 718L217 718z"/>
<path style="fill:#dd494f; stroke:none;" d="M289 718L292 720L289 718z"/>
<path style="fill:#f7a3a3; stroke:none;" d="M401 718L401 722L401 718z"/>
<path style="fill:#a76662; stroke:none;" d="M564 718L565 719L564 718M571 718L572 719L571 718M562 719L563 720L562 719M569 719L570 720L569 719z"/>
<path style="fill:#f7a3a3; stroke:none;" d="M617 719L618 720L617 719z"/>
<path style="fill:#a76662; stroke:none;" d="M560 720L561 721L560 720M567 720L568 721L567 720z"/>
<path style="fill:#f7a3a3; stroke:none;" d="M616 720L617 721L616 720z"/>
<path style="fill:#a76662; stroke:none;" d="M57 721L58 722L57 721M558 721L559 722L558 721M565 721L566 722L565 721z"/>
<path style="fill:#f7a3a3; stroke:none;" d="M615 721L616 722L615 721z"/>
<path style="fill:#a76662; stroke:none;" d="M58.3333 722.667L58.6667 723.333L58.3333 722.667M555 722L556 723L555 722z"/>
<path style="fill:#f7a3a3; stroke:none;" d="M614 722L615 723L614 722z"/>
<path style="fill:#a76662; stroke:none;" d="M553 723L554 724L553 723z"/>
<path style="fill:#f7a3a3; stroke:none;" d="M613 723L614 724L613 723z"/>
<path style="fill:#a76662; stroke:none;" d="M551 724L552 725L551 724z"/>
<path style="fill:#f7a3a3; stroke:none;" d="M612 724L613 725L612 724z"/>
<path style="fill:#a76662; stroke:none;" d="M59 725L60 726L59 725M549 725L550 726L549 725M556 725L557 726L556 725z"/>
<path style="fill:#f7a3a3; stroke:none;" d="M611 725L612 726L611 725z"/>
<path style="fill:#a76662; stroke:none;" d="M61 726L62 727L61 726M547 726L548 727L547 726M554 726L555 727L554 726z"/>
<path style="fill:#f7a3a3; stroke:none;" d="M610 726L611 727L610 726z"/>
<path style="fill:#a76662; stroke:none;" d="M60 727L61 728L60 727M62 727L63 728L62 727M544 727L545 728L544 727M552 727L553 728L552 727z"/>
<path style="fill:#f7a3a3; stroke:none;" d="M609 727L610 728L609 727z"/>
<path style="fill:#a76662; stroke:none;" d="M63 728L64 729L63 728M542 728L543 729L542 728z"/>
<path style="fill:#f7a3a3; stroke:none;" d="M608 728L609 729L608 728z"/>
<path style="fill:#a76662; stroke:none;" d="M64 729L65 730L64 729M540 729L541 730L540 729z"/>
<path style="fill:#f7a3a3; stroke:none;" d="M57 730L57 733L58 733L57 730z"/>
<path style="fill:#a76662; stroke:none;" d="M62 730L63 731L62 730M65 730L66 731L65 730z"/>
<path style="fill:#dd494f; stroke:none;" d="M96 730L98 734L96 730z"/>
<path style="fill:#a76662; stroke:none;" d="M537 730L538 731L537 730M545 730L546 731L545 730M66 731L67 732L66 731M535 731L536 732L535 731M543 731L544 732L543 731z"/>
<path style="fill:#f7a3a3; stroke:none;" d="M604 731L605 732L604 731z"/>
<path style="fill:#a76662; stroke:none;" d="M532 732L533 733L532 732z"/>
<path style="fill:#f7a3a3; stroke:none;" d="M603 732L604 733L603 732z"/>
<path style="fill:#a76662; stroke:none;" d="M64 733L65 734L64 733z"/>
<path style="fill:#dd494f; stroke:none;" d="M269 733L269 734L272 734L269 733z"/>
<path style="fill:#a76662; stroke:none;" d="M530 733L531 734L530 733M538 733L539 734L538 733M70 734L71 735L70 734M527.667 734.333L528.333 734.667L527.667 734.333M600 734L601 735L600 734z"/>
<path style="fill:#f7a3a3; stroke:none;" d="M58.3333 735.667L58.6667 736.333L58.3333 735.667z"/>
<path style="fill:#a76662; stroke:none;" d="M71 735L72 736L71 735M525 735L526 736L525 735M533 735L534 736L533 735z"/>
<path style="fill:#f7a3a3; stroke:none;" d="M599 735L600 736L599 735z"/>
<path style="fill:#a76662; stroke:none;" d="M72 736L73 737L72 736M522 736L523 737L522 736M67 737L68 738L67 737M519.667 737.333L520.333 737.667L519.667 737.333M528 737L529 738L528 737z"/>
<path style="fill:#f7a3a3; stroke:none;" d="M596 737L597 738L596 737z"/>
<path style="fill:#a76662; stroke:none;" d="M68 738L69 739L68 738M75 738L76 739L75 738M517 738L518 739L517 738M526 738L527 739L526 738z"/>
<path style="fill:#f7a3a3; stroke:none;" d="M59.3333 739.667L59.6667 740.333L59.3333 739.667z"/>
<path style="fill:#a76662; stroke:none;" d="M69 739L70 740L69 739M514 739L515 740L514 739M523 739L524 740L523 739z"/>
<path style="fill:#f7a3a3; stroke:none;" d="M593 739L594 740L593 739z"/>
<path style="fill:#a76662; stroke:none;" d="M70 740L71 741L70 740M78 740L79 741L78 740M511 740L512 741L511 740M591 740L592 741L591 740M79 741L80 742L79 741M508 741L509 742L508 741M518 741L519 742L518 741z"/>
<path style="fill:#f7a3a3; stroke:none;" d="M590 741L591 742L590 741z"/>
<path style="fill:#a76662; stroke:none;" d="M81 742L82 743L81 742M505.667 742.333L506.333 742.667L505.667 742.333M515 742L516 743L515 742z"/>
<path style="fill:#f7a3a3; stroke:none;" d="M588 742L589 743L588 742M60 743L61 744L60 743z"/>
<path style="fill:#a76662; stroke:none;" d="M73 743L74 744L73 743M502.667 743.333L503.333 743.667L502.667 743.333M512 743L513 744L512 743z"/>
<path style="fill:#f7a3a3; stroke:none;" d="M586 743L587 744L586 743z"/>
<path style="fill:#a76662; stroke:none;" d="M74 744L75 745L74 744M84 744L85 745L84 744z"/>
<path style="fill:#f7a3a3; stroke:none;" d="M372 744L373 745L372 744z"/>
<path style="fill:#a76662; stroke:none;" d="M499.667 744.333L500.333 744.667L499.667 744.333M510 744L511 745L510 744M75 745L76 746L75 745M86 745L87 746L86 745M496.667 745.333L497.333 745.667L496.667 745.333M507 745L508 746L507 745z"/>
<path style="fill:#f7a3a3; stroke:none;" d="M583 745L584 746L583 745M61 746L62 747L61 746z"/>
<path style="fill:#a76662; stroke:none;" d="M76 746L77 747L76 746M88 746L89 747L88 746M493 746L494 747L493 746M504 746L505 747L504 746M580 746L581 747L580 746z"/>
<path style="fill:#f7a3a3; stroke:none;" d="M581 746L582 747L581 746z"/>
<path style="fill:#a76662; stroke:none;" d="M90 747L91 748L90 747M489.667 747.333L490.333 747.667L489.667 747.333M501 747L502 748L501 747M578 747L579 748L578 747z"/>
<path style="fill:#f7a3a3; stroke:none;" d="M579 747L580 748L579 747M62.3333 748.667L62.6667 749.333L62.3333 748.667z"/>
<path style="fill:#a76662; stroke:none;" d="M79 748L80 749L79 748M486 748L487 749L486 748M576 748L577 749L576 748z"/>
<path style="fill:#f7a3a3; stroke:none;" d="M577 748L578 749L577 748z"/>
<path style="fill:#a76662; stroke:none;" d="M80 749L81 750L80 749M93 749L94 750L93 749z"/>
<path style="fill:#dd494f; stroke:none;" d="M118 751L121 749L118 751z"/>
<path style="fill:#a76662; stroke:none;" d="M482.667 749.333L483.333 749.667L482.667 749.333M496 749L497 750L496 749z"/>
<path style="fill:#f7a3a3; stroke:none;" d="M574.667 749.333L575.333 749.667L574.667 749.333z"/>
<path style="fill:#a76662; stroke:none;" d="M96 750L97 751L96 750z"/>
<path style="fill:#dd494f; stroke:none;" d="M137 750C138.792 752.695 140.318 752.741 143 751L137 750z"/>
<path style="fill:#f7a3a3; stroke:none;" d="M230 750C231.812 752.505 233.256 752.554 235 750L230 750z"/>
<path style="fill:#a76662; stroke:none;" d="M478.667 750.333L479.333 750.667L478.667 750.333M493 750L494 751L493 750z"/>
<path style="fill:#f7a3a3; stroke:none;" d="M498 750C499.792 752.695 501.318 752.741 504 751L498 750M572 750L573 751L572 750M63 751L64 752L63 751z"/>
<path style="fill:#a76662; stroke:none;" d="M98 751L99 752L98 751M475 751L476 752L475 751M490 751L491 752L490 751z"/>
<path style="fill:#f7a3a3; stroke:none;" d="M570 751L571 752L570 751z"/>
<path style="fill:#a76662; stroke:none;" d="M84 752L85 753L84 752M100 752L101 753L100 752M471.667 752.333L472.333 752.667L471.667 752.333M487 752L488 753L487 752z"/>
<path style="fill:#f7a3a3; stroke:none;" d="M568 752L569 753L568 752M64 753L65 754L64 753z"/>
<path style="fill:#a76662; stroke:none;" d="M102 753L103 754L102 753M467.667 753.333L468.333 753.667L467.667 753.333M483 753L484 754L483 753z"/>
<path style="fill:#f7a3a3; stroke:none;" d="M566 753L567 754L566 753z"/>
<path style="fill:#a76662; stroke:none;" d="M87 754L88 755L87 754M104.667 754.333L105.333 754.667L104.667 754.333M463.667 754.333L464.333 754.667L463.667 754.333M480 754L481 755L480 754z"/>
<path style="fill:#f7a3a3; stroke:none;" d="M564 754L565 755L564 754M65 755L66 756L65 755z"/>
<path style="fill:#a76662; stroke:none;" d="M89 755L90 756L89 755M107 755L108 756L107 755M459.667 755.333L460.333 755.667L459.667 755.333M477 755L478 756L477 755z"/>
<path style="fill:#f7a3a3; stroke:none;" d="M561.667 755.333L562.333 755.667L561.667 755.333z"/>
<path style="fill:#a76662; stroke:none;" d="M110 756L111 757L110 756z"/>
<path style="fill:#dd494f; stroke:none;" d="M134 756L134 758L136 758L136 756L134 756M300.333 756.667L300.667 757.333L300.333 756.667z"/>
<path style="fill:#a76662; stroke:none;" d="M455.667 756.333L456.333 756.667L455.667 756.333M474 756L475 757L474 756z"/>
<path style="fill:#f7a3a3; stroke:none;" d="M559 756L560 757L559 756M66 757L67 758L66 757z"/>
<path style="fill:#a76662; stroke:none;" d="M92 757L93 758L92 757M112.667 757.333L113.333 757.667L112.667 757.333M451.667 757.333L452.333 757.667L451.667 757.333M471 757L472 758L471 757z"/>
<path style="fill:#f7a3a3; stroke:none;" d="M556 757L557 758L556 757M67 758L68 759L67 758z"/>
<path style="fill:#a76662; stroke:none;" d="M94 758L95 759L94 758M115 758L116 759L115 758z"/>
<path style="fill:#dd494f; stroke:none;" d="M238 758L237 759L240 765C242.848 761.729 241.921 759.515 238 758z"/>
<path style="fill:#a76662; stroke:none;" d="M446.667 758.333L447.333 758.667L446.667 758.333M467 758L468 759L467 758z"/>
<path style="fill:#f7a3a3; stroke:none;" d="M554 758L555 759L554 758z"/>
<path style="fill:#a76662; stroke:none;" d="M96 759L97 760L96 759M118 759L119 760L118 759z"/>
<path style="fill:#dd494f; stroke:none;" d="M230 759L230 761L232 761L232 759L230 759z"/>
<path style="fill:#a76662; stroke:none;" d="M442.667 759.333L443.333 759.667L442.667 759.333M464 759L465 760L464 759z"/>
<path style="fill:#f7a3a3; stroke:none;" d="M551.667 759.333L552.333 759.667L551.667 759.333M68 760L69 761L68 760z"/>
<path style="fill:#a76662; stroke:none;" d="M98 760L99 761L98 760M121 760L122 761L121 760M437.667 760.333L438.333 760.667L437.667 760.333M460.667 760.333L461.333 760.667L460.667 760.333z"/>
<path style="fill:#f7a3a3; stroke:none;" d="M549 760L550 761L549 760M69 761L70 762L69 761z"/>
<path style="fill:#a76662; stroke:none;" d="M100 761L101 762L100 761M124 761L125 762L124 761z"/>
<path style="fill:#dd494f; stroke:none;" d="M266 762L266 764L272 764L272 762L266 762z"/>
<path style="fill:#a76662; stroke:none;" d="M431 761L431 762L434 762L431 761M457 761L458 762L457 761z"/>
<path style="fill:#f7a3a3; stroke:none;" d="M546.667 761.333L547.333 761.667L546.667 761.333z"/>
<path style="fill:#a76662; stroke:none;" d="M103 762L104 763L103 762M127.667 762.333L128.333 762.667L127.667 762.333z"/>
<path style="fill:#dd494f; stroke:none;" d="M379 762L379 764L381 764L381 762L379 762z"/>
<path style="fill:#a76662; stroke:none;" d="M426 762L426 763L429 763L426 762M453 762L454 763L453 762z"/>
<path style="fill:#f7a3a3; stroke:none;" d="M544 762L545 763L544 762M70 763L71 764L70 763z"/>
<path style="fill:#a76662; stroke:none;" d="M105 763L106 764L105 763M131.667 763.333L132.333 763.667L131.667 763.333M421.667 763.333L422.333 763.667L421.667 763.333M449 763L450 764L449 763z"/>
<path style="fill:#f7a3a3; stroke:none;" d="M541 763L542 764L541 763M71 764L72 765L71 764z"/>
<path style="fill:#a76662; stroke:none;" d="M108 764L109 765L108 764M135.667 764.333L136.333 764.667L135.667 764.333M415 764L415 765L418 765L415 764M445.667 764.333L446.333 764.667L445.667 764.333z"/>
<path style="fill:#f7a3a3; stroke:none;" d="M538.667 764.333L539.333 764.667L538.667 764.333z"/>
<path style="fill:#a76662; stroke:none;" d="M110 765L111 766L110 765M139.667 765.333L140.333 765.667L139.667 765.333M410.667 765.333L411.333 765.667L410.667 765.333M441.667 765.333L442.333 765.667L441.667 765.333z"/>
<path style="fill:#f7a3a3; stroke:none;" d="M535.667 765.333L536.333 765.667L535.667 765.333z"/>
<path style="fill:#a76662; stroke:none;" d="M113 766L114 767L113 766M143.667 766.333L144.333 766.667L143.667 766.333M403 766L403 767L406 767L403 766M437.667 766.333L438.333 766.667L437.667 766.333M532 766L533 767L532 766z"/>
<path style="fill:#f7a3a3; stroke:none;" d="M533 766L534 767L533 766z"/>
<path style="fill:#a76662; stroke:none;" d="M115.667 767.333L116.333 767.667L115.667 767.333M147.667 767.333L148.333 767.667L147.667 767.333M397 767L397 768L400 768L397 767M433.667 767.333L434.333 767.667L433.667 767.333z"/>
<path style="fill:#f7a3a3; stroke:none;" d="M530 767L531 768L530 767M74 768L75 769L74 768z"/>
<path style="fill:#a76662; stroke:none;" d="M119 768L120 769L119 768M152.667 768.333L153.333 768.667L152.667 768.333M390 768L390 769L393 769L390 768M429.667 768.333L430.333 768.667L429.667 768.333z"/>
<path style="fill:#f7a3a3; stroke:none;" d="M527 768L528 769L527 768M75 769L76 770L75 769z"/>
<path style="fill:#a76662; stroke:none;" d="M122.667 769.333L123.333 769.667L122.667 769.333M157.667 769.333L158.333 769.667L157.667 769.333M383 769L383 770L387 770L383 769M424.667 769.333L425.333 769.667L424.667 769.333z"/>
<path style="fill:#f7a3a3; stroke:none;" d="M524 769L525 770L524 769M76 770L77 771L76 770z"/>
<path style="fill:#a76662; stroke:none;" d="M126 770L127 771L126 770M162.667 770.333L163.333 770.667L162.667 770.333M375 770L375 771L379 771L375 770M420.667 770.333L421.333 770.667L420.667 770.333z"/>
<path style="fill:#f7a3a3; stroke:none;" d="M521 770L522 771L521 770M77 771L78 772L77 771z"/>
<path style="fill:#a76662; stroke:none;" d="M129.667 771.333L130.333 771.667L129.667 771.333M167 771L167 772L170 772L167 771z"/>
<path style="fill:#dd494f; stroke:none;" d="M215 771L217 775L215 771z"/>
<path style="fill:#a76662; stroke:none;" d="M368 771L368 772L371 772L368 771M415.667 771.333L416.333 771.667L415.667 771.333z"/>
<path style="fill:#f7a3a3; stroke:none;" d="M518 771L519 772L518 771M78 772L79 773L78 772z"/>
<path style="fill:#a76662; stroke:none;" d="M133.667 772.333L134.333 772.667L133.667 772.333M174 772L174 773L177 773L174 772M358 772L358 773L363 773L358 772M411 772L412 773L411 772z"/>
<path style="fill:#f7a3a3; stroke:none;" d="M514.667 772.333L515.333 772.667L514.667 772.333M79 773L80 774L79 773z"/>
<path style="fill:#a76662; stroke:none;" d="M138 773L139 774L138 773M181 773L181 774L185 774L181 773M349 773L349 774L353 774L349 773M405 773L405 774L408 774L405 773z"/>
<path style="fill:#f7a3a3; stroke:none;" d="M511.667 773.333L512.333 773.667L511.667 773.333M80 774L81 775L80 774z"/>
<path style="fill:#a76662; stroke:none;" d="M142.667 774.333L143.333 774.667L142.667 774.333M190 774L190 775L193 775L190 774M337 774L337 775L343 775L337 774M400.667 774.333L401.333 774.667L400.667 774.333z"/>
<path style="fill:#f7a3a3; stroke:none;" d="M507 774L507 775L510 775L507 774M81 775L82 776L81 775z"/>
<path style="fill:#a76662; stroke:none;" d="M147 775L147 776L150 776L147 775M198 775L198 776L203 776L198 775M325 775L325 776L331 776L325 775M395.667 775.333L396.333 775.667L395.667 775.333z"/>
<path style="fill:#f7a3a3; stroke:none;" d="M504.667 775.333L505.333 775.667L504.667 775.333M83 776L84 777L83 776z"/>
<path style="fill:#a76662; stroke:none;" d="M153.667 776.333L154.333 776.667L153.667 776.333M212 776L212 777L220 777L212 776M308 776L308 777L316 777L308 776M389 776L389 777L392 777L389 776z"/>
<path style="fill:#f7a3a3; stroke:none;" d="M409 776L409 779L411 778L411 777L409 776M500.667 776.333L501.333 776.667L500.667 776.333M84 777L85 778L84 777z"/>
<path style="fill:#a76662; stroke:none;" d="M159 777L159 778L162 778L159 777M229 777L229 778L238 778L229 777M280 777L280 778L296 778L280 777M383 777L383 778L386 778L383 777z"/>
<path style="fill:#f7a3a3; stroke:none;" d="M497.667 777.333L498.333 777.667L497.667 777.333M86 778L87 779L86 778z"/>
<path style="fill:#a76662; stroke:none;" d="M165 778L165 779L168 779L165 778M376 778L376 779L380 779L376 778z"/>
<path style="fill:#f7a3a3; stroke:none;" d="M494.667 778.333L495.333 778.667L494.667 778.333M87 779L88 780L87 779z"/>
<path style="fill:#a76662; stroke:none;" d="M171 779L171 780L174 780L171 779M370 779L370 780L373 780L370 779z"/>
<path style="fill:#f7a3a3; stroke:none;" d="M490.667 779.333L491.333 779.667L490.667 779.333M89 780L90 781L89 780M137 780L137 781L140 781L137 780z"/>
<path style="fill:#a76662; stroke:none;" d="M178 780L178 781L181 781L178 780M363 780L363 781L366 781L363 780z"/>
<path style="fill:#f7a3a3; stroke:none;" d="M486.667 780.333L487.333 780.667L486.667 780.333z"/>
<path style="fill:#a76662; stroke:none;" d="M91 781L92 782L91 781M186 781L186 782L189 782L186 781M355 781L355 782L359 782L355 781M482 781L483 782L482 781z"/>
<path style="fill:#f7a3a3; stroke:none;" d="M483.667 781.333L484.333 781.667L483.667 781.333M92 782L93 783L92 782z"/>
<path style="fill:#a76662; stroke:none;" d="M194 782L194 783L198 783L194 782M346 782L346 783L350 783L346 782z"/>
<path style="fill:#f7a3a3; stroke:none;" d="M479.667 782.333L480.333 782.667L479.667 782.333M94 783L95 784L94 783z"/>
<path style="fill:#a76662; stroke:none;" d="M203 783L203 784L206 784L203 783M337 783L337 784L341 784L337 783z"/>
<path style="fill:#f7a3a3; stroke:none;" d="M475.667 783.333L476.333 783.667L475.667 783.333M96 784L97 785L96 784z"/>
<path style="fill:#a76662; stroke:none;" d="M214 784L214 785L219 785L214 784M325 784L325 785L331 785L325 784M471 784L472 785L471 784z"/>
<path style="fill:#f7a3a3; stroke:none;" d="M472 784L473 785L472 784M98 785L99 786L98 785z"/>
<path style="fill:#a76662; stroke:none;" d="M227 785L227 786L234 786L227 785M310 785L310 786L318 786L310 785z"/>
<path style="fill:#f7a3a3; stroke:none;" d="M468.667 785.333L469.333 785.667L468.667 785.333M100 786L101 787L100 786z"/>
<path style="fill:#a76662; stroke:none;" d="M248 786L248 787L258 787L248 786M278 786L278 787L297 787L278 786z"/>
<path style="fill:#f7a3a3; stroke:none;" d="M464.667 786.333L465.333 786.667L464.667 786.333M102 787L103 788L102 787M460.667 787.333L461.333 787.667L460.667 787.333M105 788L106 789L105 788M456.667 788.333L457.333 788.667L456.667 788.333M107 789L108 790L107 789M452.667 789.333L453.333 789.667L452.667 789.333M109.667 790.333L110.333 790.667L109.667 790.333z"/>
<path style="fill:#a76662; stroke:none;" d="M447 790L448 791L447 790z"/>
<path style="fill:#f7a3a3; stroke:none;" d="M448.667 790.333L449.333 790.667L448.667 790.333M112.667 791.333L113.333 791.667L112.667 791.333M323 791C324.772 793.682 326.228 793.682 328 791L323 791M376 791L376 793L378 793L376 791M443.667 791.333L444.333 791.667L443.667 791.333M115.667 792.333L116.333 792.667L115.667 792.333M439.667 792.333L440.333 792.667L439.667 792.333M118 793L119 794L118 793M435.667 793.333L436.333 793.667L435.667 793.333M121 794L122 795L121 794z"/>
<path style="fill:#a76662; stroke:none;" d="M122 794L123 795L122 794z"/>
<path style="fill:#f7a3a3; stroke:none;" d="M431.667 794.333L432.333 794.667L431.667 794.333M124.667 795.333L125.333 795.667L124.667 795.333M427.667 795.333L428.333 795.667L427.667 795.333M128 796L129 797L128 796M422 796L422 797L425 797L422 796M131.667 797.333L132.333 797.667L131.667 797.333M417 797L417 798L420 798L417 797M135 798L136 799L135 798z"/>
<path style="fill:#a76662; stroke:none;" d="M136 798L137 799L136 798M412 798L413 799L412 798z"/>
<path style="fill:#f7a3a3; stroke:none;" d="M413.667 798.333L414.333 798.667L413.667 798.333M138.667 799.333L139.333 799.667L138.667 799.333M408.667 799.333L409.333 799.667L408.667 799.333M142.667 800.333L143.333 800.667L142.667 800.333M174 800L174 802L176 802L174 800M250 800L250 802L252 802L250 800M403 800L403 801L406 801L403 800M146.667 801.333L147.333 801.667L146.667 801.333M397 801L397 802L400 802L397 801M151.667 802.333L152.333 802.667L151.667 802.333z"/>
<path style="fill:#a76662; stroke:none;" d="M391 802L392 803L391 802z"/>
<path style="fill:#f7a3a3; stroke:none;" d="M392.667 802.333L393.333 802.667L392.667 802.333M155 803L155 804L158 804L155 803M386 803L386 804L389 804L386 803M160 804L160 805L163 805L160 804z"/>
<path style="fill:#a76662; stroke:none;" d="M379 804L380 805L379 804z"/>
<path style="fill:#f7a3a3; stroke:none;" d="M380 804L380 805L383 805L380 804M166.667 805.333L167.333 805.667L166.667 805.333M373 805L373 806L377 806L373 805M171 806L171 807L174 807L171 806M367 806L367 807L370 807L367 806M177 807L177 808L181 808L177 807z"/>
<path style="fill:#a76662; stroke:none;" d="M359 807L360 808L359 807z"/>
<path style="fill:#f7a3a3; stroke:none;" d="M360 807L360 808L364 808L360 807M184 808L184 809L188 809L184 808z"/>
<path style="fill:#a76662; stroke:none;" d="M351 808L352 809L351 808z"/>
<path style="fill:#f7a3a3; stroke:none;" d="M352 808L352 809L356 809L352 808M191 809L191 810L196 810L191 809M343 809L343 810L348 810L343 809M200 810L200 811L205 811L200 810z"/>
<path style="fill:#a76662; stroke:none;" d="M205 810L206 811L205 810z"/>
<path style="fill:#f7a3a3; stroke:none;" d="M332 810L332 811L338 811L332 810M210 811L210 812L216 812L210 811M320 811L320 812L327 812L320 811M221 812L221 813L227 813L221 812z"/>
<path style="fill:#a76662; stroke:none;" d="M227 812L228 813L227 812z"/>
<path style="fill:#f7a3a3; stroke:none;" d="M307 812L307 813L314 813L307 812M242 813L242 814L296 814L278 813L242 813z"/>
</svg>
