<?xml version="1.0" standalone="yes"?>
<svg xmlns="http://www.w3.org/2000/svg" width="1000" height="1000">
<path style="fill:#ffffff; stroke:none;" d="M0 0L0 1000L1000 1000L1000 0L0 0z"/>
<path style="fill:#e9d0a7; stroke:none;" d="M419 74L419 75L444 75L419 74M403 75L403 76L408 76L403 75z"/>
<path style="fill:#5d913b; stroke:none;" d="M574 95C554.226 87.5399 531.715 85.3105 511 81.5756C464.106 73.1209 409.31 68.9789 363 82.7207C334.257 91.2498 308.517 107.115 285 125.349C263.583 141.955 244.88 163.175 231.864 187C227.176 195.581 221.259 209.055 224.703 218.985C228.007 228.511 240.497 230.805 249 232.87C273.103 238.724 300.486 237.542 325 235.17C356.31 232.14 389.061 229.015 419 218.656C463.577 203.232 501.02 173.98 534 141C548.158 126.842 563.327 112.081 574 95z"/>
<path style="fill:#e9d0a7; stroke:none;" d="M457 75L457 76L463 76L457 75M394 76L394 77L397 77L394 76M471 76L471 77L475 77L471 76M386 77L386 78L390 78L386 77M481 77L481 78L485 78L481 77M381.667 78.3333L382.333 78.6667L381.667 78.3333M490 78L490 79L494 79L490 78M376.667 79.3333L377.333 79.6667L376.667 79.3333M498 79L498 80L501 80L498 79M371.667 80.3333L372.333 80.6667L371.667 80.3333M505.667 80.3333L506.333 80.6667L505.667 80.3333M366.667 81.3333L367.333 81.6667L366.667 81.3333M510 81L510 82L513 82L510 81M363 82L364 83L363 82M516 82L516 83L519 83L516 82M360 83L361 84L360 83M522 83L522 84L525 84L522 83M357 84L358 85L357 84M528.667 84.3333L529.333 84.6667L528.667 84.3333M354 85L355 86L354 85M533.667 85.3333L534.333 85.6667L533.667 85.3333M351 86L352 87L351 86M538 86L538 87L541 87L538 86M349 87L350 88L349 87M543.667 87.3333L544.333 87.6667L543.667 87.3333M346 88L347 89L346 88M548.667 88.3333L549.333 88.6667L548.667 88.3333M344 89L345 90L344 89M552.667 89.3333L553.333 89.6667L552.667 89.3333M341 90L342 91L341 90M556.667 90.3333L557.333 90.6667L556.667 90.3333M339 91L340 92L339 91M560 91L560 92L563 92L560 91M337 92L338 93L337 92M565.667 92.3333L566.333 92.6667L565.667 92.3333M335 93L336 94L335 93M569.667 93.3333L570.333 93.6667L569.667 93.3333M333 94L334 95L333 94M573 94L574 95L573 94M331 95L332 96L331 95M329 96L330 97L329 96M327 97L328 98L327 97M572 97L573 98L572 97M325 98L326 99L325 98M571 98L572 99L571 98M323 99L324 100L323 99M321 100L322 101L321 100M569 101L570 102L569 101M318 102L319 103L318 102M568 102L569 103L568 102M316 103L317 104L316 103M567 103L568 104L567 103M313 105L314 106L313 105M311 106L312 107L311 106M565 106L566 107L565 106M564 107L565 108L564 107M308 108L309 109L308 108M305 110L306 111L305 110M302 112L303 113L302 112M560 112L561 113L560 112M559 113L560 114L559 113M299 114L300 115L299 114M558 114L559 115L558 114M296 116L297 117L296 116M295 117L296 118L295 117M292 119L293 120L292 119M554 119L555 120L554 119M291 120L292 121L291 120M553 120L554 121L553 120M552 121L553 122L552 121M551 122L552 123L551 122M287 123L288 124L287 123M286 124L287 125L286 124M283 126L284 127L283 126M282 127L283 128L282 127M544 130L545 131L544 130M277 131L278 132L277 131M543 131L544 132L543 131M276 132L277 133L276 132M542 132L543 133L542 132M275 133L276 134L275 133M541 133L542 134L541 133M274 134L275 135L274 134M540 134L541 135L540 134M273 135L274 136L273 135M539 135L540 136L539 135M272 136L273 137L272 136M538 136L539 137L538 136M271 137L272 138L271 137M537 137L538 138L537 137M536 138L537 139L536 138M535 139L536 140L535 139M534 140L535 141L534 140M533 141L534 142L533 141M531 143L531 144L554 144L531 143z"/>
<path style="fill:#f5910d; stroke:none;" d="M280 237C285.014 242.471 300.73 256.091 308 257.021C320.238 258.587 331.473 242.666 342.347 258.015C348.078 266.105 343.352 277.202 339.395 285C330.519 302.493 303.746 332.177 281 327.478C269.23 325.046 266.668 314.18 269.721 304C270.732 300.631 274.04 295.625 272.184 292.174C267.493 283.453 251.84 277.696 244 272C228.419 283.468 215.691 304.043 205.001 320C174.628 365.337 153.429 416.34 143.389 470C112.65 634.276 188.537 804.894 333 890.548C370.055 912.518 410.911 928.226 453 937.338C509.263 949.519 567.742 948.648 624 936.997C668.665 927.746 711.036 909.428 750 886C785.12 864.883 816.667 837.04 843.271 806C967.642 660.885 969.54 443.32 851.789 294C827.642 263.379 798.222 236.144 766 214.194C714.728 179.268 656.411 156.503 595 147.729C576.373 145.068 550.536 139.671 532 144.318C522.193 146.777 510.89 162.359 503 168.919C483.653 185.005 462.655 198.781 440 209.742C403.029 227.628 358.566 233.133 318 235.911C305.369 236.776 292.562 235.619 280 237z"/>
<path style="fill:#e9d0a7; stroke:none;" d="M562 144L562 145L570 145L562 144M575 145L575 146L580 146L575 145M585 146L585 147L589 147L585 146M593 147L593 148L596 148L593 147M600 148L600 149L603 149L600 148M606.667 149.333L607.333 149.667L606.667 149.333M258 150L259 151L258 150M611 150L611 151L614 151L611 150M257 151L258 152L257 151M617.667 151.333L618.333 151.667L617.667 151.333M256 152L257 153L256 152M622.667 152.333L623.333 152.667L622.667 152.333M627.667 153.333L628.333 153.667L627.667 153.333M631.667 154.333L632.333 154.667L631.667 154.333M635.667 155.333L636.333 155.667L635.667 155.333M639.667 156.333L640.333 156.667L639.667 156.333M643.667 157.333L644.333 157.667L643.667 157.333M251 158L252 159L251 158M646.667 158.333L647.333 158.667L646.667 158.333M250 159L251 160L250 159M650.667 159.333L651.333 159.667L650.667 159.333M653.667 160.333L654.333 160.667L653.667 160.333M657 161L658 162L657 161M660 162L661 163L660 162M247 163L248 164L247 163M663 163L664 164L663 163M246 164L247 165L246 164M666.667 164.333L667.333 164.667L666.667 164.333M669 165L670 166L669 165M672 166L673 167L672 166M86 167L86 168L91 168L86 167M244 167L245 168L244 167M675 167L676 168L675 167M81 168L82 169L81 168z"/>
<path style="fill:#5d913b; stroke:none;" d="M82 168L83 169L82 168z"/>
<path style="fill:#682213; stroke:none;" d="M83 168.468C61.5967 172.511 56.1218 202.971 76 213.164C92.3853 221.567 115.202 222.353 133 227.427C171.838 238.501 211.773 252.327 246 274.139C253.235 278.75 267.957 284.984 272.007 292.805C273.783 296.234 269.435 303.38 268.669 307C265.931 319.935 274.648 329.917 288 327.535C310.503 323.522 330.905 304.129 340.36 284C344.32 275.568 348.545 262.867 340.786 255.225C329.549 244.155 319.073 258.28 308 256.374C298.12 254.674 288.545 241.353 279 237.225C268.05 232.488 252.844 234.148 241 230.561C234.883 228.708 227.814 225.142 225.09 218.985C223.242 214.81 225.349 209.581 220.852 206.904C192.47 190.009 152.95 181.579 121 174.349C109.295 171.701 95.0766 166.186 83 168.468z"/>
<path style="fill:#5d913b; stroke:none;" d="M93.6667 168.333L94.3333 168.667L93.6667 168.333z"/>
<path style="fill:#e9d0a7; stroke:none;" d="M95 168L96 169L95 168M243 168L244 169L243 168M677.667 168.333L678.333 168.667L677.667 168.333z"/>
<path style="fill:#f5910d; stroke:none;" d="M78 169L79 170L78 169z"/>
<path style="fill:#5d913b; stroke:none;" d="M98 169L99 170L98 169z"/>
<path style="fill:#f5910d; stroke:none;" d="M99 169L100 170L99 169z"/>
<path style="fill:#e9d0a7; stroke:none;" d="M100 169L101 170L100 169M680.667 169.333L681.333 169.667L680.667 169.333M75 170L76 171L75 170z"/>
<path style="fill:#5d913b; stroke:none;" d="M76 170L77 171L76 170M104 170L105 171L104 170z"/>
<path style="fill:#e9d0a7; stroke:none;" d="M105.667 170.333L106.333 170.667L105.667 170.333M683 170L684 171L683 170z"/>
<path style="fill:#f5910d; stroke:none;" d="M74 171L75 172L74 171z"/>
<path style="fill:#5d913b; stroke:none;" d="M109 171L110 172L109 171z"/>
<path style="fill:#e9d0a7; stroke:none;" d="M110 171L111 172L110 171M241 171L242 172L241 171M685 171L686 172L685 171z"/>
<path style="fill:#5d913b; stroke:none;" d="M73 172L74 173L73 172M112 172L113 173L112 172z"/>
<path style="fill:#f5910d; stroke:none;" d="M113 172L114 173L113 172z"/>
<path style="fill:#e9d0a7; stroke:none;" d="M114 172L115 173L114 172M688 172L689 173L688 172M71 173L72 174L71 173z"/>
<path style="fill:#5d913b; stroke:none;" d="M117 173L118 174L117 173z"/>
<path style="fill:#e9d0a7; stroke:none;" d="M118 173L119 174L118 173M690 173L691 174L690 173M70 174L71 175L70 174z"/>
<path style="fill:#5d913b; stroke:none;" d="M121 174L122 175L121 174z"/>
<path style="fill:#f5910d; stroke:none;" d="M122 174L123 175L122 174z"/>
<path style="fill:#e9d0a7; stroke:none;" d="M123 174L124 175L123 174M239 174L240 175L239 174M692.667 174.333L693.333 174.667L692.667 174.333M69 175L70 176L69 175z"/>
<path style="fill:#5d913b; stroke:none;" d="M126 175L127 176L126 175z"/>
<path style="fill:#e9d0a7; stroke:none;" d="M127 175L128 176L127 175M695 175L696 176L695 175M68 176L69 177L68 176z"/>
<path style="fill:#5d913b; stroke:none;" d="M130 176L131 177L130 176z"/>
<path style="fill:#e9d0a7; stroke:none;" d="M131 176L132 177L131 176M697 176L698 177L697 176z"/>
<path style="fill:#5d913b; stroke:none;" d="M133 177L134 178L133 177z"/>
<path style="fill:#f5910d; stroke:none;" d="M134 177L135 178L134 177z"/>
<path style="fill:#e9d0a7; stroke:none;" d="M135 177L136 178L135 177M237 177L238 178L237 177M699.667 177.333L700.333 177.667L699.667 177.333z"/>
<path style="fill:#5d913b; stroke:none;" d="M67 178L68 179L67 178M137 178L138 179L137 178z"/>
<path style="fill:#e9d0a7; stroke:none;" d="M138 178L139 179L138 178M702 178L703 179L702 178M66 179L67 180L66 179z"/>
<path style="fill:#5d913b; stroke:none;" d="M141 179L142 180L141 179z"/>
<path style="fill:#e9d0a7; stroke:none;" d="M142 179L143 180L142 179M704 179L705 180L704 179z"/>
<path style="fill:#5d913b; stroke:none;" d="M144 180L145 181L144 180z"/>
<path style="fill:#f5910d; stroke:none;" d="M145 180L146 181L145 180z"/>
<path style="fill:#e9d0a7; stroke:none;" d="M146 180L147 181L146 180M235 180L236 181L235 180M706 180L707 181L706 180M65 181L66 182L65 181z"/>
<path style="fill:#5d913b; stroke:none;" d="M148 181L149 182L148 181z"/>
<path style="fill:#e9d0a7; stroke:none;" d="M149 181L150 182L149 181M708.667 181.333L709.333 181.667L708.667 181.333z"/>
<path style="fill:#f5910d; stroke:none;" d="M152 182L153 183L152 182z"/>
<path style="fill:#e9d0a7; stroke:none;" d="M153 182L154 183L153 182M234 182L235 183L234 182M711 182L712 183L711 182M64 183L65 184L64 183z"/>
<path style="fill:#5d913b; stroke:none;" d="M155 183L156 184L155 183z"/>
<path style="fill:#e9d0a7; stroke:none;" d="M156 183L157 184L156 183M713 183L714 184L713 183z"/>
<path style="fill:#5d913b; stroke:none;" d="M64 184L65 185L64 184z"/>
<path style="fill:#f5910d; stroke:none;" d="M159 184L160 185L159 184z"/>
<path style="fill:#e9d0a7; stroke:none;" d="M160 184L161 185L160 184M233 184L234 185L233 184M715 184L716 185L715 184z"/>
<path style="fill:#f5910d; stroke:none;" d="M162 185L163 186L162 185z"/>
<path style="fill:#e9d0a7; stroke:none;" d="M163 185L164 186L163 185M717 185L718 186L717 185M63.3333 186.667L63.6667 187.333L63.3333 186.667z"/>
<path style="fill:#5d913b; stroke:none;" d="M165 186L166 187L165 186z"/>
<path style="fill:#e9d0a7; stroke:none;" d="M166 186L167 187L166 186M719 186L720 187L719 186z"/>
<path style="fill:#5d913b; stroke:none;" d="M168 187L169 188L168 187z"/>
<path style="fill:#e9d0a7; stroke:none;" d="M169 187L170 188L169 187M231 187L232 188L231 187M721 187L722 188L721 187z"/>
<path style="fill:#5d913b; stroke:none;" d="M63.3333 188.667L63.6667 189.333L63.3333 188.667M171 188L172 189L171 188z"/>
<path style="fill:#e9d0a7; stroke:none;" d="M172 188L173 189L172 188M723 188L724 189L723 188z"/>
<path style="fill:#5d913b; stroke:none;" d="M174 189L175 190L174 189z"/>
<path style="fill:#e9d0a7; stroke:none;" d="M175 189L176 190L175 189M230 189L231 190L230 189M725 189L726 190L725 189z"/>
<path style="fill:#5d913b; stroke:none;" d="M177 190L178 191L177 190z"/>
<path style="fill:#e9d0a7; stroke:none;" d="M178 190L179 191L178 190M726 190L727 191L726 190z"/>
<path style="fill:#5d913b; stroke:none;" d="M180 191L181 192L180 191z"/>
<path style="fill:#e9d0a7; stroke:none;" d="M181 191L182 192L181 191M229 191L230 192L229 191M728 191L729 192L728 191z"/>
<path style="fill:#5d913b; stroke:none;" d="M183 192L184 193L183 192z"/>
<path style="fill:#e9d0a7; stroke:none;" d="M184 192L185 193L184 192M730 192L731 193L730 192z"/>
<path style="fill:#5d913b; stroke:none;" d="M63 193L63 196L64 196L63 193M186 193L187 194L186 193z"/>
<path style="fill:#e9d0a7; stroke:none;" d="M187 193L188 194L187 193M732 193L733 194L732 193z"/>
<path style="fill:#5d913b; stroke:none;" d="M189 194L190 195L189 194z"/>
<path style="fill:#e9d0a7; stroke:none;" d="M190 194L191 195L190 194M228 194L229 195L228 194M192 195L193 196L192 195M735 195L736 196L735 195M63.3333 196.667L63.6667 197.333L63.3333 196.667z"/>
<path style="fill:#5d913b; stroke:none;" d="M194 196L195 197L194 196z"/>
<path style="fill:#e9d0a7; stroke:none;" d="M195 196L196 197L195 196M227 196L228 197L227 196M737 196L738 197L737 196z"/>
<path style="fill:#5d913b; stroke:none;" d="M197 197L198 198L197 197z"/>
<path style="fill:#e9d0a7; stroke:none;" d="M198 197L199 198L198 197M739 197L740 198L739 197z"/>
<path style="fill:#f5910d; stroke:none;" d="M200 198L201 199L200 198z"/>
<path style="fill:#e9d0a7; stroke:none;" d="M226.333 198.667L226.667 199.333L226.333 198.667z"/>
<path style="fill:#5d913b; stroke:none;" d="M64 199L65 200L64 199M202 199L203 200L202 199z"/>
<path style="fill:#e9d0a7; stroke:none;" d="M203 199L204 200L203 199M742 199L743 200L742 199M64 200L65 201L64 200z"/>
<path style="fill:#5d913b; stroke:none;" d="M205 200L206 201L205 200z"/>
<path style="fill:#e9d0a7; stroke:none;" d="M206 200L207 201L206 200M744 200L745 201L744 200z"/>
<path style="fill:#5d913b; stroke:none;" d="M207 201L208 202L207 201z"/>
<path style="fill:#e9d0a7; stroke:none;" d="M208 201L209 202L208 201M225.333 201.667L225.667 202.333L225.333 201.667M746 201L747 202L746 201M65 202L66 203L65 202z"/>
<path style="fill:#5d913b; stroke:none;" d="M210 202L211 203L210 202z"/>
<path style="fill:#e9d0a7; stroke:none;" d="M211 202L212 203L211 202M747 202L748 203L747 202M213 203L214 204L213 203M749 203L750 204L749 203M66 204L67 205L66 204z"/>
<path style="fill:#5d913b; stroke:none;" d="M215 204L216 205L215 204z"/>
<path style="fill:#e9d0a7; stroke:none;" d="M216 204L217 205L216 204M751 204L752 205L751 204z"/>
<path style="fill:#5d913b; stroke:none;" d="M67 205L68 206L67 205M217 205L218 206L217 205z"/>
<path style="fill:#e9d0a7; stroke:none;" d="M218 205L219 206L218 205M224.333 205.667L224.667 206.333L224.333 205.667M752 205L753 206L752 205M220 206L221 207L220 206M754 206L755 207L754 206M68 207L69 208L68 207z"/>
<path style="fill:#5d913b; stroke:none;" d="M222 207L223 208L222 207z"/>
<path style="fill:#e9d0a7; stroke:none;" d="M223 207L224 208L223 207M755 207L756 208L755 207M69 208L70 209L69 208M757 208L758 209L757 208M70 209L71 210L70 209M758 209L759 210L758 209M71 210L72 211L71 210M760 210L761 211L760 210M761 211L762 212L761 211z"/>
<path style="fill:#f5910d; stroke:none;" d="M74 212L75 213L74 212z"/>
<path style="fill:#e9d0a7; stroke:none;" d="M763 212L764 213L763 212M75 213L76 214L75 213z"/>
<path style="fill:#5d913b; stroke:none;" d="M76 213L77 214L76 213z"/>
<path style="fill:#f5910d; stroke:none;" d="M78 214L79 215L78 214z"/>
<path style="fill:#e9d0a7; stroke:none;" d="M766 214L767 215L766 214M80.6667 215.333L81.3333 215.667L80.6667 215.333z"/>
<path style="fill:#5d913b; stroke:none;" d="M82 215L83 216L82 215z"/>
<path style="fill:#e9d0a7; stroke:none;" d="M767 215L768 216L767 215M84.6667 216.333L85.3333 216.667L84.6667 216.333z"/>
<path style="fill:#5d913b; stroke:none;" d="M86 216L87 217L86 216z"/>
<path style="fill:#e9d0a7; stroke:none;" d="M89.6667 217.333L90.3333 217.667L89.6667 217.333z"/>
<path style="fill:#5d913b; stroke:none;" d="M91 217L92 218L91 217z"/>
<path style="fill:#e9d0a7; stroke:none;" d="M770 217L771 218L770 217M94.6667 218.333L95.3333 218.667L94.6667 218.333z"/>
<path style="fill:#5d913b; stroke:none;" d="M96 218L97 219L96 218z"/>
<path style="fill:#e9d0a7; stroke:none;" d="M99.6667 219.333L100.333 219.667L99.6667 219.333z"/>
<path style="fill:#5d913b; stroke:none;" d="M101 219L102 220L101 219z"/>
<path style="fill:#e9d0a7; stroke:none;" d="M773 219L774 220L773 219M104 220L105 221L104 220z"/>
<path style="fill:#5d913b; stroke:none;" d="M105 220L106 221L105 220z"/>
<path style="fill:#e9d0a7; stroke:none;" d="M774 220L775 221L774 220M108 221L109 222L108 221z"/>
<path style="fill:#f5910d; stroke:none;" d="M109 221L110 222L109 221z"/>
<path style="fill:#5d913b; stroke:none;" d="M110 221L111 222L110 221z"/>
<path style="fill:#e9d0a7; stroke:none;" d="M112 222L113 223L112 222z"/>
<path style="fill:#f5910d; stroke:none;" d="M113 222L114 223L113 222z"/>
<path style="fill:#5d913b; stroke:none;" d="M114 222L115 223L114 222z"/>
<path style="fill:#e9d0a7; stroke:none;" d="M777 222L778 223L777 222M116.667 223.333L117.333 223.667L116.667 223.333z"/>
<path style="fill:#5d913b; stroke:none;" d="M118 223L119 224L118 223z"/>
<path style="fill:#e9d0a7; stroke:none;" d="M778 223L779 224L778 223M120 224L121 225L120 224z"/>
<path style="fill:#f5910d; stroke:none;" d="M121 224L122 225L121 224z"/>
<path style="fill:#5d913b; stroke:none;" d="M122 224L123 225L122 224z"/>
<path style="fill:#e9d0a7; stroke:none;" d="M124 225L125 226L124 225z"/>
<path style="fill:#5d913b; stroke:none;" d="M125 225L126 226L125 225z"/>
<path style="fill:#e9d0a7; stroke:none;" d="M781 225L782 226L781 225M128 226L129 227L128 226z"/>
<path style="fill:#5d913b; stroke:none;" d="M129 226L130 227L129 226z"/>
<path style="fill:#e9d0a7; stroke:none;" d="M782 226L783 227L782 226M132 227L133 228L132 227z"/>
<path style="fill:#5d913b; stroke:none;" d="M133 227L134 228L133 227z"/>
<path style="fill:#e9d0a7; stroke:none;" d="M135 228L136 229L135 228z"/>
<path style="fill:#5d913b; stroke:none;" d="M136 228L137 229L136 228z"/>
<path style="fill:#e9d0a7; stroke:none;" d="M785 228L786 229L785 228M138 229L139 230L138 229z"/>
<path style="fill:#f5910d; stroke:none;" d="M139 229L140 230L139 229z"/>
<path style="fill:#e9d0a7; stroke:none;" d="M786 229L787 230L786 229M142 230L143 231L142 230z"/>
<path style="fill:#5d913b; stroke:none;" d="M143 230L144 231L143 230z"/>
<path style="fill:#e9d0a7; stroke:none;" d="M145 231L146 232L145 231z"/>
<path style="fill:#5d913b; stroke:none;" d="M146 231L147 232L146 231z"/>
<path style="fill:#e9d0a7; stroke:none;" d="M789 231L790 232L789 231M148 232L149 233L148 232z"/>
<path style="fill:#5d913b; stroke:none;" d="M149 232L150 233L149 232z"/>
<path style="fill:#e9d0a7; stroke:none;" d="M790 232L791 233L790 232M151 233L152 234L151 233z"/>
<path style="fill:#f5910d; stroke:none;" d="M152 233L153 234L152 233z"/>
<path style="fill:#e9d0a7; stroke:none;" d="M791 233L792 234L791 233M155 234L156 235L155 234z"/>
<path style="fill:#5d913b; stroke:none;" d="M156 234L157 235L156 234z"/>
<path style="fill:#e9d0a7; stroke:none;" d="M158 235L159 236L158 235z"/>
<path style="fill:#5d913b; stroke:none;" d="M159 235L160 236L159 235z"/>
<path style="fill:#e9d0a7; stroke:none;" d="M161 236L162 237L161 236z"/>
<path style="fill:#5d913b; stroke:none;" d="M162 236L163 237L162 236z"/>
<path style="fill:#e9d0a7; stroke:none;" d="M278 236L278 237L281 237L278 236M795 236L796 237L795 236M164 237L165 238L164 237z"/>
<path style="fill:#5d913b; stroke:none;" d="M165 237L166 238L165 237M279 237L280 238L279 237z"/>
<path style="fill:#e9d0a7; stroke:none;" d="M796 237L797 238L796 237M167 238L168 239L167 238M797 238L798 239L797 238M169 239L170 240L169 239z"/>
<path style="fill:#5d913b; stroke:none;" d="M170 239L171 240L170 239z"/>
<path style="fill:#e9d0a7; stroke:none;" d="M172 240L173 241L172 240z"/>
<path style="fill:#5d913b; stroke:none;" d="M173 240L174 241L173 240z"/>
<path style="fill:#e9d0a7; stroke:none;" d="M175 241L176 242L175 241z"/>
<path style="fill:#5d913b; stroke:none;" d="M176 241L177 242L176 241z"/>
<path style="fill:#e9d0a7; stroke:none;" d="M801 241L802 242L801 241M178 242L179 243L178 242z"/>
<path style="fill:#5d913b; stroke:none;" d="M179 242L180 243L179 242z"/>
<path style="fill:#e9d0a7; stroke:none;" d="M802 242L803 243L802 242M181 243L182 244L181 243z"/>
<path style="fill:#5d913b; stroke:none;" d="M182 243L183 244L182 243z"/>
<path style="fill:#e9d0a7; stroke:none;" d="M803 243L804 244L803 243z"/>
<path style="fill:#f5910d; stroke:none;" d="M184 244L185 245L184 244z"/>
<path style="fill:#e9d0a7; stroke:none;" d="M804 244L805 245L804 244M186 245L187 246L186 245z"/>
<path style="fill:#5d913b; stroke:none;" d="M187 245L188 246L187 245z"/>
<path style="fill:#e9d0a7; stroke:none;" d="M805 245L806 246L805 245z"/>
<path style="fill:#f5910d; stroke:none;" d="M189 246L190 247L189 246z"/>
<path style="fill:#e9d0a7; stroke:none;" d="M806 246L807 247L806 246M191 247L192 248L191 247M193 248L194 249L193 248z"/>
<path style="fill:#5d913b; stroke:none;" d="M194 248L195 249L194 248z"/>
<path style="fill:#e9d0a7; stroke:none;" d="M196 249L197 250L196 249M198 250L199 251L198 250z"/>
<path style="fill:#5d913b; stroke:none;" d="M199 250L200 251L199 250z"/>
<path style="fill:#f5910d; stroke:none;" d="M201 251L202 252L201 251z"/>
<path style="fill:#e9d0a7; stroke:none;" d="M812 251L813 252L812 251M203 252L204 253L203 252z"/>
<path style="fill:#5d913b; stroke:none;" d="M204 252L205 253L204 252z"/>
<path style="fill:#e9d0a7; stroke:none;" d="M813 252L814 253L813 252M205 253L206 254L205 253z"/>
<path style="fill:#5d913b; stroke:none;" d="M206 253L207 254L206 253z"/>
<path style="fill:#e9d0a7; stroke:none;" d="M814 253L815 254L814 253M208 254L209 255L208 254M815 254L816 255L815 254M210 255L211 256L210 255M816 255L817 256L816 255M212 256L213 257L212 256z"/>
<path style="fill:#5d913b; stroke:none;" d="M213 256L214 257L213 256z"/>
<path style="fill:#e9d0a7; stroke:none;" d="M817 256L818 257L817 256M214 257L215 258L214 257z"/>
<path style="fill:#5d913b; stroke:none;" d="M215 257L216 258L215 257z"/>
<path style="fill:#e9d0a7; stroke:none;" d="M818 257L819 258L818 257M216 258L217 259L216 258z"/>
<path style="fill:#5d913b; stroke:none;" d="M217 258L218 259L217 258z"/>
<path style="fill:#e9d0a7; stroke:none;" d="M819 258L820 259L819 258z"/>
<path style="fill:#5d913b; stroke:none;" d="M219 259L220 260L219 259z"/>
<path style="fill:#e9d0a7; stroke:none;" d="M820 259L821 260L820 259z"/>
<path style="fill:#5d913b; stroke:none;" d="M221 260L222 261L221 260z"/>
<path style="fill:#e9d0a7; stroke:none;" d="M821 260L822 261L821 260z"/>
<path style="fill:#5d913b; stroke:none;" d="M223 261L224 262L223 261z"/>
<path style="fill:#e9d0a7; stroke:none;" d="M822 261L823 262L822 261M224 262L225 263L224 262z"/>
<path style="fill:#5d913b; stroke:none;" d="M225 262L226 263L225 262z"/>
<path style="fill:#e9d0a7; stroke:none;" d="M823 262L824 263L823 262M226 263L227 264L226 263z"/>
<path style="fill:#5d913b; stroke:none;" d="M227 263L228 264L227 263z"/>
<path style="fill:#e9d0a7; stroke:none;" d="M824 263L825 264L824 263M228 264L229 265L228 264M825 264L826 265L825 264M230 265L231 266L230 265M826 265L827 266L826 265M232 266L233 267L232 266M827 266L828 267L827 266M234 267L235 268L234 267M828 267L829 268L828 267z"/>
<path style="fill:#f5910d; stroke:none;" d="M236 268L237 269L236 268z"/>
<path style="fill:#e9d0a7; stroke:none;" d="M829 268L830 269L829 268z"/>
<path style="fill:#5d913b; stroke:none;" d="M238 269L239 270L238 269z"/>
<path style="fill:#e9d0a7; stroke:none;" d="M830 269L831 270L830 269z"/>
<path style="fill:#5d913b; stroke:none;" d="M240 270L241 271L240 270z"/>
<path style="fill:#e9d0a7; stroke:none;" d="M241 271L242 272L241 271z"/>
<path style="fill:#5d913b; stroke:none;" d="M242 271L243 272L242 271z"/>
<path style="fill:#e9d0a7; stroke:none;" d="M836 276L837 277L836 276M238 277L239 278L238 277M837 277L838 278L837 277M237 278L238 279L237 278M838 278L839 279L838 278M236 279L237 280L236 279M839 279L840 280L839 279M235 280L236 281L235 280M840 280L841 281L840 280M843 284L844 285L843 284M231 285L232 286L231 285M844 285L845 286L844 285M230 286L231 287L230 286M845 286L846 287L845 286M229 287L230 288L229 287M846 287L847 288L846 287M226 291L227 292L226 291M849 291L850 292L849 291M225 292L226 293L225 292M850 292L851 293L850 292M222 296L223 297L222 296M853 296L854 297L853 296M221 297L222 298L221 297M854 297L855 298L854 297M856 300L857 301L856 300M218 301L219 302L218 301M857 301L858 302L857 301M217 302L218 303L217 302M858 302L859 303L858 302M859 304L860 305L859 304M215 305L216 306L215 305M860 305L861 306L860 305M214 306L215 307L214 306M861 306L862 307L861 306M862 308L863 309L862 308M212 309L213 310L212 309M863 309L864 310L863 309M211 310L212 311L211 310M210 312L211 313L210 312M865 312L866 313L865 312M209 313L210 314L209 313M866 313L867 314L866 313M207 316L208 317L207 316M868 316L869 317L868 316M205 319L206 320L205 319M870 319L871 320L870 319M204 320L205 321L204 320M203 322L204 323L203 322M872 322L873 323L872 322M202 323L203 324L202 323M201 325L202 326L201 325M874 325L875 326L874 325M875 326L876 327L875 326M199 328L200 329L199 328M876 328L877 329L876 328M877 330L878 331L877 330M197 331L198 332L197 331M878 331L879 332L878 331M196 333L197 334L196 333M879 333L880 334L879 333M195 334L196 335L195 334M194 336L195 337L194 336M881 336L882 337L881 336M193 338L194 339L193 338M882 338L883 339L882 338M192 339L193 340L192 339M883 339L884 340L883 339M191 341L192 342L191 341M884 341L885 342L884 341M190 343L191 344L190 343M885 343L886 344L885 343M189 344L190 345L189 344M188 346L189 347L188 346M887 346L888 347L887 346M187 348L188 349L187 348M888 348L889 349L888 348M186 350L187 351L186 350M889 350L890 351L889 350M185 352L186 353L185 352M890 352L891 353L890 352M184 353L185 354L184 353M891 353L892 354L891 353M183 355L184 356L183 355M892 355L893 356L892 355M182 357L183 358L182 357M893 357L894 358L893 357M181 359L182 360L181 359M894 359L895 360L894 359M180 361L181 362L180 361M895 361L896 362L895 361M179 363L180 364L179 363M896 363L897 364L896 363M178 365L179 366L178 365M897 365L898 366L897 365M177 367L178 368L177 367M898 367L899 368L898 367M176 369L177 370L176 369M899 369L900 370L899 369M175 371L176 372L175 371M900 371L901 372L900 371M174 373L175 374L174 373M901 373L902 374L901 373M173 375L174 376L173 375M902.333 375.667L902.667 376.333L902.333 375.667M172 377L173 378L172 377M903 378L904 379L903 378M171 380L172 381L171 380M904 380L905 381L904 380M170 382L171 383L170 382M905 382L906 383L905 382M169 384L170 385L169 384M906 384L907 385L906 384M168.333 386.667L168.667 387.333L168.333 386.667M907 387L908 388L907 387M167 389L168 390L167 389M908 389L909 390L908 389M166 391L167 392L166 391M909.333 391.667L909.667 392.333L909.333 391.667M165 394L166 395L165 394M910 394L911 395L910 394M164 396L165 397L164 396M911 396L912 397L911 396M163 399L164 400L163 399M912 399L913 400L912 399M162.333 401.667L162.667 402.333L162.333 401.667M913.333 401.667L913.667 402.333L913.333 401.667M161 404L162 405L161 404M914 404L915 405L914 404M160.333 406.667L160.667 407.333L160.333 406.667M915 407L916 408L915 407M159.333 409.667L159.667 410.333L159.333 409.667M916 410L917 411L916 410M158 412L159 413L158 412M917.333 412.667L917.667 413.333L917.333 412.667M157 415L158 416L157 415M918.333 415.667L918.667 416.333L918.333 415.667M156 418L157 419L156 418M919.333 418.667L919.667 419.333L919.333 418.667M155 421L156 422L155 421M920.333 421.667L920.667 422.333L920.333 421.667M154 424L155 425L154 424M921.333 424.667L921.667 425.333L921.333 424.667M153.333 427.667L153.667 428.333L153.333 427.667M922.333 427.667L922.667 428.333L922.333 427.667M152.333 430.667L152.667 431.333L152.333 430.667M923.333 431.667L923.667 432.333L923.333 431.667M151.333 434.667L151.667 435.333L151.333 434.667M924.333 434.667L924.667 435.333L924.333 434.667M150.333 437.667L150.667 438.333L150.333 437.667M925.333 438.667L925.667 439.333L925.333 438.667M149.333 441.667L149.667 442.333L149.333 441.667M926 442L927 443L926 442M148.333 445.667L148.667 446.333L148.333 445.667M927.333 445.667L927.667 446.333L927.333 445.667M147.333 449.667L147.667 450.333L147.333 449.667M928 449L928 452L929 452L928 449M146.333 453.667L146.667 454.333L146.333 453.667M929.333 454.667L929.667 455.333L929.333 454.667M145 457L145 460L146 460L145 457M930.333 458.667L930.667 459.333L930.333 458.667M144.333 462.667L144.667 463.333L144.333 462.667M931 462L931 465L932 465L931 462M143 467L143 470L144 470L143 467M932.333 468.667L932.667 469.333L932.333 468.667M142 472L142 475L143 475L142 472M933 473L933 476L934 476L933 473M141 478L141 481L142 481L141 478M934 479L934 482L935 482L934 479M140 485L140 488L141 488L140 485M935 486L935 489L936 489L935 486M139 491L139 495L140 495L139 491M936 492L936 496L937 496L936 492M138 500L138 504L139 504L138 500M937 501L937 506L938 506L937 501M137 509L137 516L138 516L137 509M938 511L938 518L939 518L938 511M136 523L136 540L137 540L136 523M939 532L939 558L940 558L939 532M136 551L136 566L137 566L136 551M938 572L938 579L939 579L938 572M137 575L137 581L138 581L137 575M937 584L937 589L938 589L937 584M138 586L138 591L139 591L138 586M936 594L936 598L937 598L936 594M139 595L139 599L140 599L139 595M935 601L935 605L936 605L935 601M140 602L140 606L141 606L140 602M934 608L934 611L935 611L934 608M141 609L141 612L142 612L141 609M933 614L933 617L934 617L933 614M142 615L142 618L143 618L142 615M143 620L143 623L144 623L143 620M932.333 620.667L932.667 621.333L932.333 620.667M931.333 625.667L931.667 626.333L931.333 625.667M144.333 626.667L144.667 627.333L144.333 626.667M930 629L930 632L931 632L930 629M145.333 630.667L145.667 631.333L145.333 630.667M929.333 634.667L929.667 635.333L929.333 634.667M146.333 635.667L146.667 636.333L146.333 635.667M928 638L928 641L929 641L928 638M147.333 639.667L147.667 640.333L147.333 639.667M927.333 642.667L927.667 643.333L927.333 642.667M148.333 643.667L148.667 644.333L148.333 643.667M926.333 646.667L926.667 647.333L926.333 646.667M149.333 647.667L149.667 648.333L149.333 647.667M925.333 650.667L925.667 651.333L925.333 650.667M150.333 651.667L150.667 652.333L150.333 651.667M151.333 654.667L151.667 655.333L151.333 654.667M924.333 654.667L924.667 655.333L924.333 654.667M923.333 657.667L923.667 658.333L923.333 657.667M152 658L153 659L152 658M153.333 661.667L153.667 662.333L153.333 661.667M922 661L923 662L922 661M154.333 664.667L154.667 665.333L154.333 664.667M921 664L922 665L921 664M920.333 667.667L920.667 668.333L920.333 667.667M155 668L156 669L155 668M919.333 670.667L919.667 671.333L919.333 670.667M156 671L157 672L156 671M918 673L919 674L918 673M157 674L158 675L157 674M158.333 676.667L158.667 677.333L158.333 676.667M917 676L918 677L917 676M159.333 679.667L159.667 680.333L159.333 679.667M916 679L917 680L916 679M160 682L161 683L160 682M915 682L916 683L915 682M914.333 684.667L914.667 685.333L914.333 684.667M161 685L162 686L161 685M162.333 687.667L162.667 688.333L162.333 687.667M913 687L914 688L913 687M912.333 689.667L912.667 690.333L912.333 689.667M163 690L164 691L163 690M911 692L912 693L911 692M164 693L165 694L164 693M165 695L166 696L165 695M910 695L911 696L910 695M166.333 697.667L166.667 698.333L166.333 697.667M909 697L910 698L909 697M167 700L168 701L167 700M908 700L909 701L908 700M168.333 702.667L168.667 703.333L168.333 702.667M907 702L908 703L907 702M906 704L907 705L906 704M169 705L170 706L169 705M905.333 706.667L905.667 707.333L905.333 706.667M170 707L171 708L170 707M171 709L172 710L171 709M904 709L905 710L904 709M903 711L904 712L903 711M172 712L173 713L172 712M902 713L903 714L902 713M173 714L174 715L173 714M174 716L175 717L174 716M900 717L901 718L900 717M175 718L176 719L175 718M176 720L177 721L176 720M899 720L900 721L899 720M177 722L178 723L177 722M898 722L899 723L898 722M178 724L179 725L178 724M897 724L898 725L897 724M179 726L180 727L179 726M896 726L897 727L896 726M180 728L181 729L180 728M895 728L896 729L895 728M181 730L182 731L181 730M894 730L895 731L894 730M182 732L183 733L182 732M893 732L894 733L893 732M892 733L893 734L892 733M183 734L184 735L183 734M184 735L185 736L184 735M891 735L892 736L891 735M185 737L186 738L185 737M890 737L891 738L890 737M186 739L187 740L186 739M889 739L890 740L889 739M187 741L188 742L187 741M888 741L889 742L888 741M887 742L888 743L887 742M188 743L189 744L188 743M886 744L887 745L886 744M189 745L190 746L189 745M190 746L191 747L190 746M885 746L886 747L885 746M191 748L192 749L191 748M883 749L884 750L883 749M193 751L194 752L193 751M882 751L883 752L882 751M194 753L195 754L194 753M880 754L881 755L880 754M196 756L197 757L196 756M879 756L880 757L879 756M197 758L198 759L197 758M198 759L199 760L198 759M877 759L878 760L877 759M199 761L200 762L199 761M876 761L877 762L876 761M875 762L876 763L875 762M201 764L202 765L201 764M874 764L875 765L874 764M873 765L874 766L873 765M202 766L203 767L202 766M203 767L204 768L203 767M871 768L872 769L871 768M205 770L206 771L205 770M869 771L870 772L869 771M207 773L208 774L207 773M208 774L209 775L208 774M867 774L868 775L867 774M209 776L210 777L209 776M210 777L211 778L210 777M865 777L866 778L865 777M864 778L865 779L864 778M212 780L213 781L212 780M213 781L214 782L213 781M862 781L863 782L862 781M215 784L216 785L215 784M860 784L861 785L860 784M216 785L217 786L216 785M859 785L860 786L859 785M218 788L219 789L218 788M857 788L858 789L857 788M219 789L220 790L219 789M856 789L857 790L856 789M221 792L222 793L221 792M222 793L223 794L222 793M853 793L854 794L853 793M852 794L853 795L852 794M225 797L226 798L225 797M226 798L227 799L226 798M849 798L850 799L849 798M227 799L228 800L227 799M848 799L849 800L848 799M230 803L231 804L230 803M845 803L846 804L845 803M231 804L232 805L231 804M844 804L845 805L844 804M232 805L233 806L232 805M843 805L844 806L843 805M842 806L843 807L842 806M236 810L237 811L236 810M839 810L840 811L839 810M237 811L238 812L237 811M838 811L839 812L838 811M238 812L239 813L238 812M837 812L838 813L837 812M239 813L240 814L239 813M836 813L837 814L836 813M240 814L241 815L240 814M835 814L836 815L835 814M247 822L248 823L247 822M248 823L249 824L248 823M249 824L250 825L249 824M250 825L251 826L250 825M825 825L826 826L825 825M251 826L252 827L251 826M824 826L825 827L824 826M252 827L253 828L252 827M823 827L824 828L823 827M253 828L254 829L253 828M254 829L255 830L254 829M255 830L256 831L255 830M256 831L257 832L256 831M257 832L258 833L257 832M258 833L259 834L258 833M259 834L260 835L259 834M260 835L261 836L260 835M261 836L262 837L261 836M262 837L263 838L262 837M809 840L810 841L809 840M808 841L809 842L808 841M268 842L269 843L268 842M807 842L808 843L807 842M269 843L270 844L269 843M806 843L807 844L806 843M270 844L271 845L270 844M805 844L806 845L805 844M271 845L272 846L271 845M804 845L805 846L804 845M272 846L273 847L272 846M799 849L800 850L799 849M277 850L278 851L277 850M798 850L799 851L798 850M278 851L279 852L278 851M797 851L798 852L797 851M279 852L280 853L279 852M280 853L281 854L280 853M793 854L794 855L793 854M283 855L284 856L283 855M792 855L793 856L792 855M284 856L285 857L284 856M791 856L792 857L791 856M285 857L286 858L285 857M288 859L289 860L288 859M787 859L788 860L787 859M289 860L290 861L289 860M786 860L787 861L786 860M290 861L291 862L290 861M783 862L784 863L783 862M293 863L294 864L293 863M782 863L783 864L782 863M294 864L295 865L294 864M295 865L296 866L295 865M779 865L780 866L779 865M297 866L298 867L297 866M778 866L779 867L778 866M298 867L299 868L298 867M775 868L776 869L775 868M301 869L302 870L301 869M774 869L775 870L774 869M302 870L303 871L302 870M304 871L305 872L304 871M771 871L772 872L771 871M305 872L306 873L305 872M768 873L769 874L768 873M308 874L309 875L308 874M767 874L768 875L767 874M309 875L310 876L309 875M311 876L312 877L311 876M764 876L765 877L764 876M312 877L313 878L312 877M761 878L762 879L761 878M315 879L316 880L315 879M317 880L318 881L317 880M758 880L759 881L758 880M318 881L319 882L318 881M320 882L321 883L320 882M755 882L756 883L755 882M323 884L324 885L323 884M752 884L753 885L752 884M750 885L751 886L750 885M326 886L327 887L326 886M328 887L329 888L328 887M747 887L748 888L747 887M329 888L330 889L329 888M745 888L746 889L745 888M331 889L332 890L331 889M744 889L745 890L744 889M742 890L743 891L742 890M334 891L335 892L334 891M740 891L741 892L740 891M336 892L337 893L336 892M338 893L339 894L338 893M737 893L738 894L737 893M340 894L341 895L340 894M735 894L736 895L735 894M341 895L342 896L341 895M733 895L734 896L733 895M343 896L344 897L343 896M345 897L346 898L345 897M730 897L731 898L730 897M347 898L348 899L347 898M728 898L729 899L728 898M349 899L350 900L349 899M726 899L727 900L726 899M351 900L352 901L351 900M724 900L725 901L724 900M353 901L354 902L353 901M722 901L723 902L722 901M355 902L356 903L355 902M720 902L721 903L720 902M718 903L719 904L718 903M358 904L359 905L358 904M716 904L717 905L716 904M360 905L361 906L360 905M714 905L715 906L714 905M362 906L363 907L362 906M712 906L713 907L712 906M364 907L365 908L364 907M710 907L711 908L710 907M367 908L368 909L367 908M708 908L709 909L708 908M369 909L370 910L369 909M706 909L707 910L706 909M371 910L372 911L371 910M703.667 910.333L704.333 910.667L703.667 910.333M373 911L374 912L373 911M701 911L702 912L701 911M375 912L376 913L375 912M699 912L700 913L699 912M378 913L379 914L378 913M697 913L698 914L697 913M380 914L381 915L380 914M695 914L696 915L695 914M382 915L383 916L382 915M692 915L693 916L692 915M385 916L386 917L385 916M689.667 916.333L690.333 916.667L689.667 916.333M387 917L388 918L387 917M687 917L688 918L687 917M390 918L391 919L390 918M684.667 918.333L685.333 918.667L684.667 918.333M392 919L393 920L392 919M682 919L683 920L682 919M395 920L396 921L395 920M679 920L680 921L679 920M397.667 921.333L398.333 921.667L397.667 921.333M677 921L678 922L677 921M400.667 922.333L401.333 922.667L400.667 922.333M674 922L675 923L674 922M403.667 923.333L404.333 923.667L403.667 923.333M671 923L672 924L671 923M406.667 924.333L407.333 924.667L406.667 924.333M668.667 924.333L669.333 924.667L668.667 924.333M409.667 925.333L410.333 925.667L409.667 925.333M665.667 925.333L666.333 925.667L665.667 925.333M412 926L413 927L412 926M662.667 926.333L663.333 926.667L662.667 926.333M415.667 927.333L416.333 927.667L415.667 927.333M659.667 927.333L660.333 927.667L659.667 927.333M418.667 928.333L419.333 928.667L418.667 928.333M656 928L657 929L656 928M421.667 929.333L422.333 929.667L421.667 929.333M652.667 929.333L653.333 929.667L652.667 929.333M425 930L426 931L425 930M649.667 930.333L650.333 930.667L649.667 930.333M428.667 931.333L429.333 931.667L428.667 931.333M646 931L647 932L646 931M432.667 932.333L433.333 932.667L432.667 932.333M643 932L644 933L643 932M436.667 933.333L437.333 933.667L436.667 933.333M638.667 933.333L639.333 933.667L638.667 933.333M440 934L441 935L440 934M634.667 934.333L635.333 934.667L634.667 934.333M444.667 935.333L445.333 935.667L444.667 935.333M630.667 935.333L631.333 935.667L630.667 935.333M448.667 936.333L449.333 936.667L448.667 936.333M626.667 936.333L627.333 936.667L626.667 936.333M452.667 937.333L453.333 937.667L452.667 937.333M621 937L621 938L624 938L621 937M457 938L457 939L460 939L457 938M616.667 938.333L617.333 938.667L616.667 938.333M462 939L462 940L465 940L462 939M611.667 939.333L612.333 939.667L611.667 939.333M467 940L467 941L470 941L467 940M605 940L605 941L608 941L605 940M473 941L473 942L476 942L473 941M598 941L598 942L601 942L598 941M480 942L480 943L483 943L480 942M592 942L592 943L595 943L592 942M487 943L487 944L491 944L487 943M583 943L583 944L588 944L583 943M495 944L495 945L499 945L495 944M574 944L574 945L579 945L574 944M507 945L507 946L517 946L507 945M560 945L560 946L567 946L560 945M535 946L535 947L541 947L535 946z"/>
</svg>
