<?xml version="1.0" standalone="yes"?>
<svg xmlns="http://www.w3.org/2000/svg" width="1000" height="1000">
<path style="fill:#ffffff; stroke:none;" d="M0 0L0 1000L1000 1000L1000 0L0 0z"/>
<path style="fill:#d6b5a5; stroke:none;" d="M251 55L259 63L256 57L256 56L251 55z"/>
<path style="fill:#77b355; stroke:none;" d="M253 56L254 57L253 56M254 57C269.643 79.2062 294.179 93.7734 309.305 117C317.694 129.882 323.792 144.187 327.848 159C331.055 170.714 331.88 184.088 339.529 194C350.801 208.607 369.616 212.628 387 214L387 215C376.093 218.142 366.078 224.677 356 229.752C333.029 241.319 310.423 253.725 289 268C276.807 276.125 261.557 284.886 253 297C289.975 289.348 326.216 274.778 363 265.627C377.451 262.032 398.122 255.053 413 258.394C430.551 262.334 450.71 280.432 464 291.87C475.513 301.779 486.989 313.309 492 328L493 328C492.986 306.755 485.932 261.759 459 259L459 258C500.326 258 569.902 276.828 574 327L575 327C573.821 299.535 571.368 269.945 561.575 244C556.759 231.242 549.578 218.973 535 217L535 216C549.772 214.009 564.327 208.384 579 205.449C614.06 198.436 648.702 195.397 683 207L683 206C650.899 184.362 614.102 177 576 177C582.867 168.047 595.046 161.742 605 156.753C632.83 142.804 663.943 136 695 136L695 135C651.033 129.322 607.006 119.75 565 140.753C549.09 148.708 531.267 162.101 526 180C496.357 143.927 539.748 104.33 559 77C508.475 87.4287 454 119.611 454 177C438.921 173.4 424.695 171.711 411 163.547C394.229 153.549 382.311 138.09 368 125.17C344.276 103.75 316.533 86.0193 288 71.7531C277.394 66.4502 265.862 58.778 254 57z"/>
<path style="fill:#d6b5a5; stroke:none;" d="M257 57L258 58L257 57M260 58L261 59L260 58M262 59L263 60L262 59M264 60L265 61L264 60M273 64L274 65L273 64M275 65L276 66L275 65M277 66L278 67L277 66M279 67L280 68L279 67M281 68L282 69L281 68M283 69L284 70L283 69M285 70L286 71L285 70M287 71L288 72L287 71M289 72L290 73L289 72M291 73L292 74L291 73M293 74L294 75L293 74M295 75L296 76L295 75M273 76L274 77L273 76M274 77L275 78L274 77M556 77L557 78L556 77M275 78L276 79L275 78M300 78L301 79L300 78M552 78L553 79L552 78M276 79L277 80L276 79M302 79L303 80L302 79M548 79L549 80L548 79M277 80L278 81L277 80M304 80L305 81L304 80M544 80L545 81L544 80M278 81L279 82L278 81M541 81L542 82L541 81M279 82L280 83L279 82M538 82L539 83L538 82M309 83L310 84L309 83M535 83L536 84L535 83M532 84L533 85L532 84M529 85L530 86L529 85M314 86L315 87L314 86M550 86L551 87L550 86M524 87L525 88L524 87M549 87L550 88L549 87M522 88L523 89L522 88M548 88L549 89L548 88M319 89L320 90L319 89M520 89L521 90L520 89M322 91L323 92L322 91M325 93L326 94L325 93M544 93L545 94L544 93M291 94L292 95L291 94M543 94L544 95L543 94M292 95L293 96L292 95M328 95L329 96L328 95M508 95L509 96L508 95M293 96L294 97L293 96M506 96L507 97L506 96M331 97L332 98L331 97M504 97L505 98L504 97M502 98L503 99L502 98M540 98L541 99L540 98M334 99L335 100L334 99M539 99L540 100L539 99M499 100L500 101L499 100M298 102L299 103L298 102M496 102L497 103L496 102M299 103L300 104L299 103M340 103L341 104L340 103M536 103L537 104L536 103M343 105L344 106L343 105M492 105L493 106L492 105M344 106L345 107L344 106M534 106L535 107L534 106M489 107L490 108L489 107M303 108L304 109L303 108M347 108L348 109L347 108M348 109L349 110L348 109M532 109L533 110L532 109M306 112L307 113L306 112M352 112L353 113L352 112M483 112L484 113L483 112M530 112L531 113L530 112M482 113L483 114L482 113M481 114L482 115L481 114M529 114L530 115L529 114M308 115L309 116L308 115M480 115L481 116L480 115M357 116L358 117L357 116M479 116L480 117L479 116M358 117L359 118L358 117M527 117L528 118L527 117M310 118L311 119L310 118M476 119L477 120L476 119M526 119L527 120L526 119M363 121L364 122L363 121M474 121L475 122L474 121M525 121L526 122L525 121M364 122L365 123L364 122M473 122L474 123L473 122M313 123L314 124L313 123M524 123L525 124L524 123M314 125L315 126L314 125M523 125L524 126L523 125M470 126L471 127L470 126M469 127L470 128L469 127M618 127L618 128L623 128L618 127M640 127L640 128L646 128L640 127M371 128L372 129L371 128M522 128L523 129L522 128M608.667 128.333L609.333 128.667L608.667 128.333M654 128L654 129L658 129L654 128M372 129L373 130L372 129M600.667 129.333L601.333 129.667L600.667 129.333M663.667 129.333L664.333 129.667L663.667 129.333M373 130L374 131L373 130M467 130L468 131L467 130M521 130L522 131L521 130M595.667 130.333L596.333 130.667L595.667 130.333M670.667 130.333L671.333 130.667L670.667 130.333M374 131L375 132L374 131M591 131L592 132L591 131M676.667 131.333L677.333 131.667L676.667 131.333M375 132L376 133L375 132M587 132L588 133L587 132M682 132L683 133L682 132M318 133L319 134L318 133M376 133L377 134L376 133M465 133L466 134L465 133M520 133L521 134L520 133M583 133L584 134L583 133M686 133L687 134L686 133M580 134L581 135L580 134M691 134L692 135L691 134M319 135L320 136L319 135M464 135L465 136L464 135M577 135L578 136L577 135M695 135L696 136L695 135M519 136L520 137L519 136M574 136L575 137L574 136M680 136L680 137L685 137L680 136M320 137L321 138L320 137M571 137L572 138L571 137M669 137L669 138L672 138L669 137M381 138L382 139L381 138M569 138L570 139L569 138M663.667 138.333L664.333 138.667L663.667 138.333M382 139L383 140L382 139M567 139L568 140L567 139M656.667 139.333L657.333 139.667L656.667 139.333M383 140L384 141L383 140M518 140L519 141L518 140M565 140L566 141L565 140M651.667 140.333L652.333 140.667L651.667 140.333M384 141L385 142L384 141M563 141L564 142L563 141M647 141L648 142L647 141M322 142L323 143L322 142M385 142L386 143L385 142M561 142L562 143L561 142M642 142L643 143L642 142M386 143L387 144L386 143M559 143L560 144L559 143M639 143L640 144L639 143M517.333 144.667L517.667 145.333L517.333 144.667M635 144L636 145L635 144M323 145L324 146L323 145M459 145L460 146L459 145M556 145L557 146L556 145M632 145L633 146L632 145M629 146L630 147L629 146M553 147L554 148L553 147M626 147L627 148L626 147M324 148L325 149L324 148M623 148L624 149L623 148M550 149L551 150L550 149M457 150L458 151L457 150M618 150L619 151L618 150M325 151L326 152L325 151M394 151L395 152L394 151M616 151L617 152L616 151M395 152L396 153L395 152M546 152L547 153L546 152M613 152L614 153L613 152M396 153L397 154L396 153M545 153L546 154L545 153M611 153L612 154L611 153M326 154L327 155L326 154M456 154L457 155L456 154M609 154L610 155L609 154M607 155L608 156L607 155M400 156L401 157L400 156M605 156L606 157L605 156M327.333 157.667L327.667 158.333L327.333 157.667M603 157L604 158L603 157M455 158L456 159L455 158M601 158L602 159L601 158M404 159L405 160L404 159M599 159L600 160L599 159M538 160L539 161L538 160M597 160L598 161L597 160M328 161L329 162L328 161M407 161L408 162L407 161M517.333 161.667L517.667 162.333L517.333 161.667M537 161L538 162L537 161M594 162L595 163L594 162M410 163L411 164L410 163M454.333 163.667L454.667 164.333L454.333 163.667M412 164L413 165L412 164M329 165L330 166L329 165M414 165L415 166L414 165M589 165L590 166L589 165M416 166L417 167L416 166M518 166L519 167L518 166M533 166L534 167L533 166M418 167L419 168L418 167M586 167L587 168L586 167M420 168L421 169L420 168M330.333 169.667L330.667 170.333L330.333 169.667M423 169L424 170L423 169M519 169L520 170L519 169M531 169L532 170L531 169M425 170L426 171L425 170M582 170L583 171L582 170M428 171L429 172L428 171M431 172L432 173L431 172M529 172L530 173L529 172M435 173L436 174L435 173M578 173L579 174L578 173M331 174L332 175L331 174M439.667 174.333L440.333 174.667L439.667 174.333M577 174L578 175L577 174M444.667 175.333L445.333 175.667L444.667 175.333M452.667 176.333L453.333 176.667L452.667 176.333M576 176L576 177L590 177L576 176M523 177L524 178L523 177M599 177L599 178L603 178L599 177M332 178L333 179L332 178M608.667 178.333L609.333 178.667L608.667 178.333M525 179L526 180L525 179M615 179L616 180L615 179M620.667 180.333L621.333 180.667L620.667 180.333M625 181L626 182L625 181M333 182L334 183L333 182M629.667 182.333L630.333 182.667L629.667 182.333M633 183L634 184L633 183M637 184L638 185L637 184M640 185L641 186L640 185M643 186L644 187L643 186M335 187L336 188L335 187M646 187L647 188L646 187M649 188L650 189L649 188M336 189L337 190L336 189M651 189L652 190L651 189M654 190L655 191L654 190z"/>
<path style="fill:#cb7e72; stroke:none;" d="M656 191L657 192L656 191z"/>
<path style="fill:#d6b5a5; stroke:none;" d="M657.667 191.333L658.333 191.667L657.667 191.333M338 192L339 193L338 192z"/>
<path style="fill:#cb7e72; stroke:none;" d="M658 192L659 193L658 192z"/>
<path style="fill:#dd2f45; stroke:none;" d="M659 192L659 193L685 208C635.662 188.863 586.1 205.838 537 216L537 217C550.721 220.297 557.901 233.628 562.308 246C571.688 272.332 575 302.181 575 330L574 330C572.871 275.595 502.111 261.324 460 258L460 259C487.828 264.022 493.938 311.386 494 334L493 334C491.269 314.175 472.494 297.978 458 286.4C446.03 276.838 428.266 261.709 413 258.39C398.003 255.13 376.578 262.483 362 266.127C324.733 275.441 288.305 289.37 251 298C275.831 273.374 307.666 255.964 338 239.139C353.196 230.711 370.275 219.818 387 215L387 214C369.948 213.953 350.777 207.851 340 194C266.569 209.148 196.504 237.166 145.17 294C98.3988 345.782 76.6577 414.724 69.831 483C59.8426 582.897 79.3548 684.327 137.025 768C222.869 892.549 366.117 946.584 513 942.985C668.616 939.173 826.499 845.038 894.742 704C974.02 540.154 930.857 318.878 762 229.781C729.61 212.69 695.058 198.993 659 192z"/>
<path style="fill:#cb7e72; stroke:none;" d="M661.667 192.333L662.333 192.667L661.667 192.333z"/>
<path style="fill:#d6b5a5; stroke:none;" d="M663 192L664 193L663 192z"/>
<path style="fill:#cb7e72; stroke:none;" d="M660 193L661 194L660 193M666 193L667 194L666 193z"/>
<path style="fill:#d6b5a5; stroke:none;" d="M667 193L668 194L667 193M336 194L337 195L336 194z"/>
<path style="fill:#cb7e72; stroke:none;" d="M337 194L338 195L337 194M662 194L663 195L662 194M670 194L671 195L670 194z"/>
<path style="fill:#d6b5a5; stroke:none;" d="M671.667 194.333L672.333 194.667L671.667 194.333M331 195L332 196L331 195z"/>
<path style="fill:#cb7e72; stroke:none;" d="M332.667 195.333L333.333 195.667L332.667 195.333M664 195L665 196L664 195M674 195L675 196L674 195z"/>
<path style="fill:#d6b5a5; stroke:none;" d="M675 195L676 196L675 195M326.667 196.333L327.333 196.667L326.667 196.333z"/>
<path style="fill:#cb7e72; stroke:none;" d="M328 196L329 197L328 196M341 196L342 197L341 196M678 196L679 197L678 196z"/>
<path style="fill:#d6b5a5; stroke:none;" d="M679 196L680 197L679 196M322 197L323 198L322 197z"/>
<path style="fill:#cb7e72; stroke:none;" d="M323 197L324 198L323 197M342 197L343 198L342 197M681.667 197.333L682.333 197.667L681.667 197.333z"/>
<path style="fill:#d6b5a5; stroke:none;" d="M683 197L684 198L683 197M317 198L318 199L317 198z"/>
<path style="fill:#cb7e72; stroke:none;" d="M318.667 198.333L319.333 198.667L318.667 198.333M343 198L344 199L343 198M670 198L671 199L670 198M685 198L686 199L685 198z"/>
<path style="fill:#d6b5a5; stroke:none;" d="M686 198L687 199L686 198M313 199L314 200L313 199z"/>
<path style="fill:#cb7e72; stroke:none;" d="M314 199L315 200L314 199M344 199L345 200L344 199M619 199L619 200L627 200L619 199M647 199L647 200L652 200L647 199M672 199L673 200L672 199M688 199L689 200L688 199z"/>
<path style="fill:#d6b5a5; stroke:none;" d="M689 199L690 200L689 199M309 200L310 201L309 200z"/>
<path style="fill:#cb7e72; stroke:none;" d="M310 200L311 201L310 200M610 200L610 201L614 201L610 200M657 200L657 201L660 201L657 200M674 200L675 201L674 200M692 200L693 201L692 200z"/>
<path style="fill:#d6b5a5; stroke:none;" d="M693 200L694 201L693 200M305 201L306 202L305 201z"/>
<path style="fill:#cb7e72; stroke:none;" d="M306 201L307 202L306 201M601 201L601 202L605 202L601 201M663 201L663 202L666 202L663 201M695 201L696 202L695 201z"/>
<path style="fill:#d6b5a5; stroke:none;" d="M696 201L697 202L696 201M301 202L302 203L301 202z"/>
<path style="fill:#cb7e72; stroke:none;" d="M302.667 202.333L303.333 202.667L302.667 202.333M348 202L349 203L348 202M595.667 202.333L596.333 202.667L595.667 202.333M668.667 202.333L669.333 202.667L668.667 202.333M677 202L678 203L677 202M698 202L699 203L698 202z"/>
<path style="fill:#d6b5a5; stroke:none;" d="M699 202L700 203L699 202M298 203L299 204L298 203z"/>
<path style="fill:#cb7e72; stroke:none;" d="M299 203L300 204L299 203M589 203L589 204L592 204L589 203M672.667 203.333L673.333 203.667L672.667 203.333M679 203L680 204L679 203M701 203L702 204L701 203z"/>
<path style="fill:#d6b5a5; stroke:none;" d="M702 203L703 204L702 203M294 204L295 205L294 204z"/>
<path style="fill:#cb7e72; stroke:none;" d="M295 204L296 205L295 204M351 204L352 205L351 204M584.667 204.333L585.333 204.667L584.667 204.333M676 204L677 205L676 204M680 204L681 205L680 204M704 204L705 205L704 204z"/>
<path style="fill:#d6b5a5; stroke:none;" d="M705 204L706 205L705 204M291 205L292 206L291 205z"/>
<path style="fill:#cb7e72; stroke:none;" d="M292 205L293 206L292 205M353 205L354 206L353 205M578.667 205.333L579.333 205.667L578.667 205.333M678 205L679 206L678 205M682 205L683 206L682 205M707 205L708 206L707 205z"/>
<path style="fill:#d6b5a5; stroke:none;" d="M708 205L709 206L708 205M287 206L288 207L287 206z"/>
<path style="fill:#cb7e72; stroke:none;" d="M288 206L289 207L288 206M574 206L575 207L574 206M681 206L682 207L681 206M683.333 206.667L683.667 207.333L683.333 206.667M710 206L711 207L710 206z"/>
<path style="fill:#d6b5a5; stroke:none;" d="M284 207L285 208L284 207z"/>
<path style="fill:#cb7e72; stroke:none;" d="M285 207L286 208L285 207M357 207L358 208L357 207M569.667 207.333L570.333 207.667L569.667 207.333z"/>
<path style="fill:#77b355; stroke:none;" d="M684 207L685 208L684 207z"/>
<path style="fill:#cb7e72; stroke:none;" d="M712 207L713 208L712 207z"/>
<path style="fill:#d6b5a5; stroke:none;" d="M713 207L714 208L713 207M281 208L282 209L281 208z"/>
<path style="fill:#cb7e72; stroke:none;" d="M282 208L283 209L282 208M359 208L360 209L359 208M564.667 208.333L565.333 208.667L564.667 208.333M685 208L685 209L688 210L685 208M715 208L716 209L715 208z"/>
<path style="fill:#d6b5a5; stroke:none;" d="M716 208L717 209L716 208M278 209L279 210L278 209z"/>
<path style="fill:#cb7e72; stroke:none;" d="M279 209L280 210L279 209M362 209L363 210L362 209M561 209L562 210L561 209M718 209L719 210L718 209z"/>
<path style="fill:#d6b5a5; stroke:none;" d="M275 210L276 211L275 210z"/>
<path style="fill:#cb7e72; stroke:none;" d="M276 210L277 211L276 210M364 210L365 211L364 210M557 210L558 211L557 210M720 210L721 211L720 210z"/>
<path style="fill:#d6b5a5; stroke:none;" d="M721 210L722 211L721 210M272 211L273 212L272 211z"/>
<path style="fill:#cb7e72; stroke:none;" d="M273 211L274 212L273 211M368 211L369 212L368 211M552.667 211.333L553.333 211.667L552.667 211.333M723 211L724 212L723 211z"/>
<path style="fill:#d6b5a5; stroke:none;" d="M269 212L270 213L269 212z"/>
<path style="fill:#cb7e72; stroke:none;" d="M270 212L271 213L270 212M372 212L372 213L375 213L372 212M549 212L550 213L549 212M725 212L726 213L725 212z"/>
<path style="fill:#d6b5a5; stroke:none;" d="M726 212L727 213L726 212M267 213L268 214L267 213z"/>
<path style="fill:#cb7e72; stroke:none;" d="M378 213L378 214L383 214L378 213M545.667 213.333L546.333 213.667L545.667 213.333M728 213L729 214L728 213z"/>
<path style="fill:#d6b5a5; stroke:none;" d="M264 214L265 215L264 214z"/>
<path style="fill:#cb7e72; stroke:none;" d="M265 214L266 215L265 214M542.667 214.333L543.333 214.667L542.667 214.333M730 214L731 215L730 214z"/>
<path style="fill:#d6b5a5; stroke:none;" d="M731 214L732 215L731 214M261 215L262 216L261 215z"/>
<path style="fill:#cb7e72; stroke:none;" d="M262 215L263 216L262 215M384 215L385 216L384 215M538.667 215.333L539.333 215.667L538.667 215.333M695 215L697 217L695 215M732 215L733 216L732 215z"/>
<path style="fill:#d6b5a5; stroke:none;" d="M733 215L734 216L733 215M259 216L260 217L259 216z"/>
<path style="fill:#cb7e72; stroke:none;" d="M382 216L383 217L382 216M535.667 216.333L536.333 216.667L535.667 216.333z"/>
<path style="fill:#d6b5a5; stroke:none;" d="M735 216L736 217L735 216M256 217L257 218L256 217z"/>
<path style="fill:#cb7e72; stroke:none;" d="M257 217L258 218L257 217M380 217L381 218L380 217M538.667 217.333L539.333 217.667L538.667 217.333z"/>
<path style="fill:#d6b5a5; stroke:none;" d="M737 217L738 218L737 217M254 218L255 219L254 218z"/>
<path style="fill:#cb7e72; stroke:none;" d="M378 218L379 219L378 218M542 218L543 219L542 218M739 218L740 219L739 218z"/>
<path style="fill:#d6b5a5; stroke:none;" d="M252 219L253 220L252 219z"/>
<path style="fill:#cb7e72; stroke:none;" d="M376 219L377 220L376 219M544 219L545 220L544 219M741 219L742 220L741 219M250 220L251 221L250 220M374 220L375 221L374 220M743 220L744 221L743 220z"/>
<path style="fill:#d6b5a5; stroke:none;" d="M247 221L248 222L247 221z"/>
<path style="fill:#cb7e72; stroke:none;" d="M248 221L249 222L248 221M745 221L746 222L745 221z"/>
<path style="fill:#d6b5a5; stroke:none;" d="M245 222L246 223L245 222z"/>
<path style="fill:#cb7e72; stroke:none;" d="M548 222L549 223L548 222M747 222L748 223L747 222z"/>
<path style="fill:#d6b5a5; stroke:none;" d="M748 222L749 223L748 222z"/>
<path style="fill:#cb7e72; stroke:none;" d="M243 223L244 224L243 223M367 223L368 224L367 223M549 223L550 224L549 223M749 223L750 224L749 223z"/>
<path style="fill:#d6b5a5; stroke:none;" d="M750 223L751 224L750 223M240 224L241 225L240 224z"/>
<path style="fill:#cb7e72; stroke:none;" d="M241 224L242 225L241 224M550 224L551 225L550 224M751 224L752 225L751 224z"/>
<path style="fill:#d6b5a5; stroke:none;" d="M752 224L753 225L752 224M238 225L239 226L238 225z"/>
<path style="fill:#cb7e72; stroke:none;" d="M239 225L240 226L239 225M551 225L552 226L551 225M753 225L754 226L753 225z"/>
<path style="fill:#d6b5a5; stroke:none;" d="M754 225L755 226L754 225M236 226L237 227L236 226z"/>
<path style="fill:#cb7e72; stroke:none;" d="M237 226L238 227L237 226M362 226L363 227L362 226M755 226L756 227L755 226z"/>
<path style="fill:#d6b5a5; stroke:none;" d="M234 227L235 228L234 227z"/>
<path style="fill:#cb7e72; stroke:none;" d="M360 227L361 228L360 227M757 227L758 228L757 227z"/>
<path style="fill:#d6b5a5; stroke:none;" d="M232 228L233 229L232 228z"/>
<path style="fill:#cb7e72; stroke:none;" d="M358 228L359 229L358 228M759 228L760 229L759 228z"/>
<path style="fill:#d6b5a5; stroke:none;" d="M230 229L231 230L230 229z"/>
<path style="fill:#cb7e72; stroke:none;" d="M356 229L357 230L356 229M554 229L555 230L554 229M761 229L762 230L761 229z"/>
<path style="fill:#d6b5a5; stroke:none;" d="M228 230L229 231L228 230z"/>
<path style="fill:#cb7e72; stroke:none;" d="M354 230L355 231L354 230z"/>
<path style="fill:#d6b5a5; stroke:none;" d="M763 230L764 231L763 230M226 231L227 232L226 231z"/>
<path style="fill:#cb7e72; stroke:none;" d="M352 231L353 232L352 231M555 231L556 232L555 231z"/>
<path style="fill:#d6b5a5; stroke:none;" d="M765 231L766 232L765 231z"/>
<path style="fill:#cb7e72; stroke:none;" d="M225 232L226 233L225 232M350 232L351 233L350 232M766 232L767 233L766 232M223 233L224 234L223 233M348 233L349 234L348 233M768 233L769 234L768 233M221 234L222 235L221 234M346 234L347 235L346 234M557 234L558 235L557 234z"/>
<path style="fill:#d6b5a5; stroke:none;" d="M770 234L771 235L770 234z"/>
<path style="fill:#cb7e72; stroke:none;" d="M219 235L220 236L219 235M344 235L345 236L344 235z"/>
<path style="fill:#d6b5a5; stroke:none;" d="M772 235L773 236L772 235M217 236L218 237L217 236z"/>
<path style="fill:#cb7e72; stroke:none;" d="M342 236L343 237L342 236M558 236L559 237L558 236M773 236L774 237L773 236z"/>
<path style="fill:#d6b5a5; stroke:none;" d="M215 237L216 238L215 237z"/>
<path style="fill:#cb7e72; stroke:none;" d="M340 237L341 238L340 237z"/>
<path style="fill:#d6b5a5; stroke:none;" d="M775 237L776 238L775 237z"/>
<path style="fill:#cb7e72; stroke:none;" d="M214 238L215 239L214 238M559 238L560 239L559 238M212 239L213 240L212 239M337 239L338 240L337 239M778 239L779 240L778 239z"/>
<path style="fill:#d6b5a5; stroke:none;" d="M210 240L211 241L210 240z"/>
<path style="fill:#cb7e72; stroke:none;" d="M335 240L336 241L335 240z"/>
<path style="fill:#d6b5a5; stroke:none;" d="M780 240L781 241L780 240M208 241L209 242L208 241z"/>
<path style="fill:#cb7e72; stroke:none;" d="M333 241L334 242L333 241M560 241L561 242L560 241M781 241L782 242L781 241M207 242L208 243L207 242M331 242L332 243L331 242z"/>
<path style="fill:#d6b5a5; stroke:none;" d="M783 242L784 243L783 242M205 243L206 244L205 243z"/>
<path style="fill:#cb7e72; stroke:none;" d="M329 243L330 244L329 243M561 243L562 244L561 243M784 243L785 244L784 243z"/>
<path style="fill:#d6b5a5; stroke:none;" d="M786 244L787 245L786 244M202 245L203 246L202 245z"/>
<path style="fill:#cb7e72; stroke:none;" d="M326 245L327 246L326 245M324 246L325 247L324 246M562 246L563 247L562 246z"/>
<path style="fill:#d6b5a5; stroke:none;" d="M789 246L790 247L789 246z"/>
<path style="fill:#cb7e72; stroke:none;" d="M199 247L200 248L199 247M322 247L323 248L322 247z"/>
<path style="fill:#d6b5a5; stroke:none;" d="M197 248L198 249L197 248M792 248L793 249L792 248z"/>
<path style="fill:#cb7e72; stroke:none;" d="M196 249L197 250L196 249M319 249L320 250L319 249M563 249L564 250L563 249M793 249L794 250L793 249z"/>
<path style="fill:#d6b5a5; stroke:none;" d="M194 250L195 251L194 250z"/>
<path style="fill:#cb7e72; stroke:none;" d="M317 250L318 251L317 250z"/>
<path style="fill:#d6b5a5; stroke:none;" d="M795 250L796 251L795 250M193 251L194 252L193 251z"/>
<path style="fill:#cb7e72; stroke:none;" d="M315 251L316 252L315 251M796 251L797 252L796 251M192 252L193 253L192 252M564 252L565 253L564 252z"/>
<path style="fill:#d6b5a5; stroke:none;" d="M798 252L799 253L798 252M190 253L191 254L190 253z"/>
<path style="fill:#cb7e72; stroke:none;" d="M312 253L313 254L312 253z"/>
<path style="fill:#d6b5a5; stroke:none;" d="M799 253L800 254L799 253z"/>
<path style="fill:#cb7e72; stroke:none;" d="M189 254L190 255L189 254M310 254L311 255L310 254M800 254L801 255L800 254M565.333 255.667L565.667 256.333L565.333 255.667z"/>
<path style="fill:#d6b5a5; stroke:none;" d="M802 255L803 256L802 255M186 256L187 257L186 256z"/>
<path style="fill:#cb7e72; stroke:none;" d="M307 256L308 257L307 256z"/>
<path style="fill:#d6b5a5; stroke:none;" d="M803 256L804 257L803 256z"/>
<path style="fill:#cb7e72; stroke:none;" d="M185 257L186 258L185 257M305 257L306 258L305 257M804 257L805 258L804 257z"/>
<path style="fill:#d6b5a5; stroke:none;" d="M183 258L184 259L183 258z"/>
<path style="fill:#cb7e72; stroke:none;" d="M400 258L400 259L403 259L400 258M414 258L415 259L414 258M459 258L460 259L459 258M464 258L464 259L471 259L464 258z"/>
<path style="fill:#d6b5a5; stroke:none;" d="M806 258L807 259L806 258M182 259L183 260L182 259z"/>
<path style="fill:#cb7e72; stroke:none;" d="M302 259L303 260L302 259M393 259L393 260L396 260L393 259M416 259L417 260L416 259M463 259L464 260L463 259M475 259L475 260L478 260L475 259M566.333 259.667L566.667 260.333L566.333 259.667M807 259L808 260L807 259M181 260L182 261L181 260M387 260L387 261L390 261L387 260M418 260L419 261L418 260M465 260L466 261L465 260M482 260L482 261L485 261L482 260M808 260L809 261L808 260M299 261L300 262L299 261M381.667 261.333L382.333 261.667L381.667 261.333M467 261L468 262L467 261M488.667 261.333L489.333 261.667L488.667 261.333z"/>
<path style="fill:#d6b5a5; stroke:none;" d="M810 261L811 262L810 261M178 262L179 263L178 262z"/>
<path style="fill:#cb7e72; stroke:none;" d="M297 262L298 263L297 262M377.667 262.333L378.333 262.667L377.667 262.333M421 262L422 263L421 262M493.667 262.333L494.333 262.667L493.667 262.333z"/>
<path style="fill:#d6b5a5; stroke:none;" d="M811 262L812 263L811 262z"/>
<path style="fill:#cb7e72; stroke:none;" d="M177 263L178 264L177 263M372.667 263.333L373.333 263.667L372.667 263.333M423 263L424 264L423 263M470 263L471 264L470 263M498.667 263.333L499.333 263.667L498.667 263.333M567.333 263.667L567.667 264.333L567.333 263.667M812 263L813 264L812 263M176 264L177 265L176 264M294 264L295 265L294 264M367.667 264.333L368.333 264.667L367.667 264.333M425 264L426 265L425 264M471 264L472 265L471 264M502.667 264.333L503.333 264.667L502.667 264.333M813 264L814 265L813 264z"/>
<path style="fill:#d6b5a5; stroke:none;" d="M174 265L175 266L174 265z"/>
<path style="fill:#cb7e72; stroke:none;" d="M363.667 265.333L364.333 265.667L363.667 265.333M472 265L473 266L472 265M506 265L507 266L506 265z"/>
<path style="fill:#d6b5a5; stroke:none;" d="M173 266L174 267L173 266z"/>
<path style="fill:#cb7e72; stroke:none;" d="M291 266L292 267L291 266M359.667 266.333L360.333 266.667L359.667 266.333M428 266L429 267L428 266M473 266L474 267L473 266M510 266L511 267L510 266z"/>
<path style="fill:#d6b5a5; stroke:none;" d="M816 266L817 267L816 266z"/>
<path style="fill:#cb7e72; stroke:none;" d="M172 267L173 268L172 267M355.667 267.333L356.333 267.667L355.667 267.333M430 267L431 268L430 267M474 267L475 268L474 267M513 267L514 268L513 267z"/>
<path style="fill:#d6b5a5; stroke:none;" d="M817 267L818 268L817 267z"/>
<path style="fill:#cb7e72; stroke:none;" d="M171 268L172 269L171 268M288 268L289 269L288 268M351.667 268.333L352.333 268.667L351.667 268.333M431 268L432 269L431 268M475 268L476 269L475 268M516 268L517 269L516 268M568.333 268.667L568.667 269.333L568.333 268.667M818 268L819 269L818 268M170 269L171 270L170 269M347 269L348 270L347 269M433 269L434 270L433 269M519 269L520 270L519 269M819 269L820 270L819 269M285 270L286 271L285 270M343.667 270.333L344.333 270.667L343.667 270.333M522 270L523 271L522 270z"/>
<path style="fill:#d6b5a5; stroke:none;" d="M167 271L168 272L167 271z"/>
<path style="fill:#cb7e72; stroke:none;" d="M340 271L341 272L340 271M436 271L437 272L436 271M477 271L478 272L477 271M524 271L525 272L524 271z"/>
<path style="fill:#d6b5a5; stroke:none;" d="M166 272L167 273L166 272z"/>
<path style="fill:#cb7e72; stroke:none;" d="M282 272L283 273L282 272M336 272L337 273L336 272M438 272L439 273L438 272M478 272L479 273L478 272M526 272L527 273L526 272z"/>
<path style="fill:#d6b5a5; stroke:none;" d="M823 272L824 273L823 272M165 273L166 274L165 273z"/>
<path style="fill:#cb7e72; stroke:none;" d="M332.667 273.333L333.333 273.667L332.667 273.333M569.333 273.667L569.667 274.333L569.333 273.667z"/>
<path style="fill:#d6b5a5; stroke:none;" d="M824 273L825 274L824 273z"/>
<path style="fill:#cb7e72; stroke:none;" d="M164 274L165 275L164 274M279 274L280 275L279 274M328.667 274.333L329.333 274.667L328.667 274.333M441 274L442 275L441 274M479 274L480 275L479 274M531 274L532 275L531 274z"/>
<path style="fill:#d6b5a5; stroke:none;" d="M825 274L826 275L825 274z"/>
<path style="fill:#cb7e72; stroke:none;" d="M163 275L164 276L163 275M325 275L326 276L325 275M480 275L481 276L480 275M533 275L534 276L533 275M826 275L827 276L826 275M162 276L163 277L162 276M276 276L277 277L276 276M321.667 276.333L322.333 276.667L321.667 276.333M444 276L445 277L444 276M827 276L828 277L827 276M161 277L162 278L161 277M275 277L276 278L275 277M318 277L319 278L318 277M445 277L446 278L445 277M481 277L482 278L481 277M828 277L829 278L828 277M160 278L161 279L160 278M314.667 278.333L315.333 278.667L314.667 278.333M538 278L539 279L538 278M159 279L160 280L159 279M272 279L273 280L272 279M311 279L312 280L311 279M448 279L449 280L448 279M482 279L483 280L482 279M540 279L541 280L540 279M570.333 279.667L570.667 280.333L570.333 279.667M158 280L159 281L158 280M271 280L272 281L271 280M307.667 280.333L308.333 280.667L307.667 280.333M157 281L158 282L157 281M304.667 281.333L305.333 281.667L304.667 281.333M451 281L452 282L451 281M483 281L484 282L483 281M543 281L544 282L543 281M156 282L157 283L156 282M300.667 282.333L301.333 282.667L300.667 282.333z"/>
<path style="fill:#d6b5a5; stroke:none;" d="M834 282L835 283L834 282z"/>
<path style="fill:#cb7e72; stroke:none;" d="M155 283L156 284L155 283M267 283L268 284L267 283M297 283L298 284L297 283M546 283L547 284L546 283z"/>
<path style="fill:#d6b5a5; stroke:none;" d="M835 283L836 284L835 283z"/>
<path style="fill:#cb7e72; stroke:none;" d="M154 284L155 285L154 284M266 284L267 285L266 284M294 284L295 285L294 284M455 284L456 285L455 284M484 284L485 285L484 284M547 284L548 285L547 284z"/>
<path style="fill:#d6b5a5; stroke:none;" d="M836 284L837 285L836 284z"/>
<path style="fill:#cb7e72; stroke:none;" d="M153 285L154 286L153 285M290.667 285.333L291.333 285.667L290.667 285.333M456 285L457 286L456 285M571 285L571 288L572 288L571 285z"/>
<path style="fill:#d6b5a5; stroke:none;" d="M837 285L838 286L837 285z"/>
<path style="fill:#cb7e72; stroke:none;" d="M152 286L153 287L152 286M287 286L288 287L287 286M485 286L486 287L485 286M550 286L551 287L550 286z"/>
<path style="fill:#d6b5a5; stroke:none;" d="M838 286L839 287L838 286z"/>
<path style="fill:#cb7e72; stroke:none;" d="M151 287L152 288L151 287M262 287L263 288L262 287M284 287L285 288L284 287M551 287L552 288L551 287z"/>
<path style="fill:#d6b5a5; stroke:none;" d="M839 287L840 288L839 287z"/>
<path style="fill:#cb7e72; stroke:none;" d="M150 288L151 289L150 288M261 288L262 289L261 288M280.667 288.333L281.333 288.667L280.667 288.333M460 288L461 289L460 288M552 288L553 289L552 288z"/>
<path style="fill:#d6b5a5; stroke:none;" d="M840 288L841 289L840 288M149 289L150 290L149 289z"/>
<path style="fill:#cb7e72; stroke:none;" d="M277.667 289.333L278.333 289.667L277.667 289.333M461 289L462 290L461 289M486 289L487 290L486 289z"/>
<path style="fill:#d6b5a5; stroke:none;" d="M841 289L842 290L841 289M148 290L149 291L148 290z"/>
<path style="fill:#cb7e72; stroke:none;" d="M274 290L275 291L274 290z"/>
<path style="fill:#d6b5a5; stroke:none;" d="M842 290L843 291L842 290M147 291L148 292L147 291z"/>
<path style="fill:#cb7e72; stroke:none;" d="M257 291L258 292L257 291M271.667 291.333L272.333 291.667L271.667 291.333z"/>
<path style="fill:#d6b5a5; stroke:none;" d="M843 291L844 292L843 291M146 292L147 293L146 292z"/>
<path style="fill:#cb7e72; stroke:none;" d="M256 292L257 293L256 292M268 292L269 293L268 292M487.333 292.667L487.667 293.333L487.333 292.667z"/>
<path style="fill:#d6b5a5; stroke:none;" d="M844 292L845 293L844 292M145 293L146 294L145 293z"/>
<path style="fill:#cb7e72; stroke:none;" d="M255 293L256 294L255 293M265 293L266 294L265 293M572 293L572 297L573 297L572 293z"/>
<path style="fill:#d6b5a5; stroke:none;" d="M144 294L145 295L144 294z"/>
<path style="fill:#cb7e72; stroke:none;" d="M254 294L255 295L254 294M262 294L263 295L262 294M467 294L468 295L467 294M253 295L254 296L253 295M259 295L260 296L259 295M468 295L469 296L468 295M559 295L560 296L559 295M251 298L254 298L253 296L251 298M255.667 296.333L256.333 296.667L255.667 296.333M469 296L470 297L469 296M488 296L489 297L488 296M560 296L561 297L560 296M142 297L143 298L142 297M470 297L471 298L470 297M561 297L562 298L561 297M848 297L849 298L848 297M141 298L142 299L141 298M471 298L472 299L471 298M849 298L850 299L849 298z"/>
<path style="fill:#d6b5a5; stroke:none;" d="M140 299L141 300L140 299z"/>
<path style="fill:#cb7e72; stroke:none;" d="M472 299L473 300L472 299M850 299L851 300L850 299z"/>
<path style="fill:#d6b5a5; stroke:none;" d="M139 300L140 301L139 300z"/>
<path style="fill:#cb7e72; stroke:none;" d="M473 300L474 301L473 300M489 300L490 301L489 300M563 300L564 301L563 300z"/>
<path style="fill:#d6b5a5; stroke:none;" d="M851 300L852 301L851 300M852 301L853 302L852 301z"/>
<path style="fill:#cb7e72; stroke:none;" d="M475 302L476 303L475 302M573 302L573 307L574 307L573 302z"/>
<path style="fill:#d6b5a5; stroke:none;" d="M853 302L854 303L853 302z"/>
<path style="fill:#cb7e72; stroke:none;" d="M137 303L138 304L137 303M476 303L477 304L476 303M565 303L566 304L565 303M136 304L137 305L136 304M477 304L478 305L477 304M490.333 304.667L490.667 305.333L490.333 304.667z"/>
<path style="fill:#d6b5a5; stroke:none;" d="M135 305L136 306L135 305z"/>
<path style="fill:#cb7e72; stroke:none;" d="M478 305L479 306L478 305M855 305L856 306L855 305M567 306L568 307L567 306M856 306L857 307L856 306z"/>
<path style="fill:#d6b5a5; stroke:none;" d="M857 307L858 308L857 307z"/>
<path style="fill:#cb7e72; stroke:none;" d="M133 308L134 309L133 308M568 308L569 309L568 308z"/>
<path style="fill:#d6b5a5; stroke:none;" d="M858 308L859 309L858 308M132 309L133 310L132 309z"/>
<path style="fill:#cb7e72; stroke:none;" d="M491 309L491 312L492 312L491 309z"/>
<path style="fill:#d6b5a5; stroke:none;" d="M131 310L132 311L131 310z"/>
<path style="fill:#cb7e72; stroke:none;" d="M482 310L483 311L482 310M569 310L570 311L569 310M860 311L861 312L860 311M130 312L131 313L130 312z"/>
<path style="fill:#d6b5a5; stroke:none;" d="M861 312L862 313L861 312z"/>
<path style="fill:#cb7e72; stroke:none;" d="M129 313L130 314L129 313M484 313L485 314L484 313M570 313L571 314L570 313z"/>
<path style="fill:#d6b5a5; stroke:none;" d="M862 313L863 314L862 313M128 314L129 315L128 314z"/>
<path style="fill:#cb7e72; stroke:none;" d="M485 314L486 315L485 314M571 315L572 316L571 315M574 315L574 322L575 322L574 315M486 316L487 317L486 316M492 316L492 319L493 319L492 316M864 316L865 317L864 316M126 317L127 318L126 317z"/>
<path style="fill:#d6b5a5; stroke:none;" d="M865 317L866 318L865 317M125 318L126 319L125 318z"/>
<path style="fill:#cb7e72; stroke:none;" d="M572.333 318.667L572.667 319.333L572.333 318.667M488 319L489 320L488 319M124 320L125 321L124 320M867 320L868 321L867 320z"/>
<path style="fill:#d6b5a5; stroke:none;" d="M123 321L124 322L123 321z"/>
<path style="fill:#cb7e72; stroke:none;" d="M489 321L490 322L489 321z"/>
<path style="fill:#d6b5a5; stroke:none;" d="M868 321L869 322L868 321z"/>
<path style="fill:#cb7e72; stroke:none;" d="M573.333 322.667L573.667 323.333L573.333 322.667z"/>
<path style="fill:#d6b5a5; stroke:none;" d="M869 322L870 323L869 322z"/>
<path style="fill:#cb7e72; stroke:none;" d="M122 323L123 324L122 323M490 323L491 324L490 323M870 324L871 325L870 324M493 325L493 334L494 334L493 325z"/>
<path style="fill:#d6b5a5; stroke:none;" d="M871 325L872 326L871 325M120 326L121 327L120 326z"/>
<path style="fill:#cb7e72; stroke:none;" d="M491 326L492 327L491 326M574 327L574 330L575 330L574 327M872 327L873 328L872 327z"/>
<path style="fill:#d6b5a5; stroke:none;" d="M873 328L874 329L873 328M118 329L119 330L118 329z"/>
<path style="fill:#cb7e72; stroke:none;" d="M874 330L875 331L874 330M117 331L118 332L117 331z"/>
<path style="fill:#d6b5a5; stroke:none;" d="M875 331L876 332L875 331M116 332L117 333L116 332z"/>
<path style="fill:#cb7e72; stroke:none;" d="M115 334L116 335L115 334z"/>
<path style="fill:#d6b5a5; stroke:none;" d="M877 334L878 335L877 334z"/>
<path style="fill:#cb7e72; stroke:none;" d="M114 336L115 337L114 336M878 336L879 337L878 336z"/>
<path style="fill:#d6b5a5; stroke:none;" d="M113 337L114 338L113 337M879 337L880 338L879 337z"/>
<path style="fill:#cb7e72; stroke:none;" d="M112 339L113 340L112 339M880 339L881 340L880 339z"/>
<path style="fill:#d6b5a5; stroke:none;" d="M881 340L882 341L881 340z"/>
<path style="fill:#cb7e72; stroke:none;" d="M111 341L112 342L111 341z"/>
<path style="fill:#d6b5a5; stroke:none;" d="M110 342L111 343L110 342z"/>
<path style="fill:#cb7e72; stroke:none;" d="M882 342L883 343L882 342z"/>
<path style="fill:#d6b5a5; stroke:none;" d="M883 343L884 344L883 343M109 344L110 345L109 344M884 345L885 346L884 345M108 346L109 347L108 346z"/>
<path style="fill:#cb7e72; stroke:none;" d="M885 347L886 348L885 347z"/>
<path style="fill:#d6b5a5; stroke:none;" d="M107 348L108 349L107 348z"/>
<path style="fill:#cb7e72; stroke:none;" d="M886 349L887 350L886 349z"/>
<path style="fill:#d6b5a5; stroke:none;" d="M106 350L107 351L106 350M887 350L888 351L887 350M105 352L106 353L105 352z"/>
<path style="fill:#cb7e72; stroke:none;" d="M888 352L889 353L888 352M104 354L105 355L104 354M889 354L890 355L889 354z"/>
<path style="fill:#d6b5a5; stroke:none;" d="M890 355L891 356L890 355M103 356L104 357L103 356M891 357L892 358L891 357M102 358L103 359L102 358M892 359L893 360L892 359M101 360L102 361L101 360M893 361L894 362L893 361M100 362L101 363L100 362z"/>
<path style="fill:#cb7e72; stroke:none;" d="M100 363L101 364L100 363M894 363L895 364L894 363M99 365L100 366L99 365M895 365L896 366L895 365M98 367L99 368L98 367M896 367L897 368L896 367z"/>
<path style="fill:#d6b5a5; stroke:none;" d="M97 369L98 370L97 369z"/>
<path style="fill:#cb7e72; stroke:none;" d="M897 369L898 370L897 369z"/>
<path style="fill:#d6b5a5; stroke:none;" d="M96 371L97 372L96 371z"/>
<path style="fill:#cb7e72; stroke:none;" d="M898 371L899 372L898 371M96 372L97 373L96 372M899 373L900 374L899 373M95 374L96 375L95 374M900 375L901 376L900 375z"/>
<path style="fill:#d6b5a5; stroke:none;" d="M94 376L95 377L94 376z"/>
<path style="fill:#cb7e72; stroke:none;" d="M94 377L95 378L94 377z"/>
<path style="fill:#d6b5a5; stroke:none;" d="M901 377L902 378L901 377z"/>
<path style="fill:#cb7e72; stroke:none;" d="M93 379L94 380L93 379z"/>
<path style="fill:#d6b5a5; stroke:none;" d="M902 379L903 380L902 379z"/>
<path style="fill:#cb7e72; stroke:none;" d="M902 380L903 381L902 380z"/>
<path style="fill:#d6b5a5; stroke:none;" d="M92 381L93 382L92 381M903 381L904 382L903 381z"/>
<path style="fill:#cb7e72; stroke:none;" d="M92 382L93 383L92 382M903 382L904 383L903 382M91 384L92 385L91 384M904 384L905 385L904 384z"/>
<path style="fill:#d6b5a5; stroke:none;" d="M90 386L91 387L90 386M905 386L906 387L905 386z"/>
<path style="fill:#cb7e72; stroke:none;" d="M90 387L91 388L90 387M905 387L906 388L905 387z"/>
<path style="fill:#d6b5a5; stroke:none;" d="M89 389L90 390L89 389z"/>
<path style="fill:#cb7e72; stroke:none;" d="M906 389L907 390L906 389M89 390L90 391L89 390z"/>
<path style="fill:#d6b5a5; stroke:none;" d="M907 391L908 392L907 391M88 392L89 393L88 392z"/>
<path style="fill:#cb7e72; stroke:none;" d="M88 393L89 394L88 393z"/>
<path style="fill:#d6b5a5; stroke:none;" d="M908 393L909 394L908 393z"/>
<path style="fill:#cb7e72; stroke:none;" d="M908 394L909 395L908 394z"/>
<path style="fill:#d6b5a5; stroke:none;" d="M87 395L88 396L87 395z"/>
<path style="fill:#cb7e72; stroke:none;" d="M87 396L88 397L87 396z"/>
<path style="fill:#d6b5a5; stroke:none;" d="M909 396L910 397L909 396z"/>
<path style="fill:#cb7e72; stroke:none;" d="M909 397L910 398L909 397z"/>
<path style="fill:#d6b5a5; stroke:none;" d="M86 398L87 399L86 398z"/>
<path style="fill:#cb7e72; stroke:none;" d="M86 399L87 400L86 399z"/>
<path style="fill:#d6b5a5; stroke:none;" d="M910 399L911 400L910 399M85 401L86 402L85 401M911 401L912 402L911 401z"/>
<path style="fill:#cb7e72; stroke:none;" d="M85 402L86 403L85 402M911 402L912 403L911 402z"/>
<path style="fill:#d6b5a5; stroke:none;" d="M84 404L85 405L84 404M912 404L913 405L912 404z"/>
<path style="fill:#cb7e72; stroke:none;" d="M84 405L85 406L84 405M912 405L913 406L912 405z"/>
<path style="fill:#d6b5a5; stroke:none;" d="M913 407L914 408L913 407M83 408L84 409L83 408z"/>
<path style="fill:#cb7e72; stroke:none;" d="M913 408L914 409L913 408M83 409L84 410L83 409z"/>
<path style="fill:#d6b5a5; stroke:none;" d="M914 410L915 411L914 410M82 411L83 412L82 411z"/>
<path style="fill:#cb7e72; stroke:none;" d="M914 411L915 412L914 411M82 412L83 413L82 412z"/>
<path style="fill:#d6b5a5; stroke:none;" d="M915 413L916 414L915 413z"/>
<path style="fill:#cb7e72; stroke:none;" d="M915 414L916 415L915 414z"/>
<path style="fill:#d6b5a5; stroke:none;" d="M81 415L82 416L81 415z"/>
<path style="fill:#cb7e72; stroke:none;" d="M81 416L82 417L81 416z"/>
<path style="fill:#d6b5a5; stroke:none;" d="M916 416L917 417L916 416z"/>
<path style="fill:#cb7e72; stroke:none;" d="M916 417L917 418L916 417z"/>
<path style="fill:#d6b5a5; stroke:none;" d="M80 419L81 420L80 419z"/>
<path style="fill:#cb7e72; stroke:none;" d="M80 420L81 421L80 420z"/>
<path style="fill:#d6b5a5; stroke:none;" d="M917 420L918 421L917 420z"/>
<path style="fill:#cb7e72; stroke:none;" d="M917 421L918 422L917 421z"/>
<path style="fill:#d6b5a5; stroke:none;" d="M79.3333 422.667L79.6667 423.333L79.3333 422.667M918 423L919 424L918 423z"/>
<path style="fill:#cb7e72; stroke:none;" d="M79 424L80 425L79 424M918 424L919 425L918 424z"/>
<path style="fill:#d6b5a5; stroke:none;" d="M78 427L79 428L78 427M919 427L920 428L919 427z"/>
<path style="fill:#cb7e72; stroke:none;" d="M78 428L79 429L78 428M919 428L920 429L919 428z"/>
<path style="fill:#d6b5a5; stroke:none;" d="M920.333 430.667L920.667 431.333L920.333 430.667M77 431L78 432L77 431z"/>
<path style="fill:#cb7e72; stroke:none;" d="M77.3333 432.667L77.6667 433.333L77.3333 432.667M920 432L921 433L920 432z"/>
<path style="fill:#d6b5a5; stroke:none;" d="M921 434L922 435L921 434z"/>
<path style="fill:#cb7e72; stroke:none;" d="M921.333 435.667L921.667 436.333L921.333 435.667z"/>
<path style="fill:#d6b5a5; stroke:none;" d="M76 436L77 437L76 436z"/>
<path style="fill:#cb7e72; stroke:none;" d="M76 437L77 438L76 437z"/>
<path style="fill:#d6b5a5; stroke:none;" d="M922.333 438.667L922.667 439.333L922.333 438.667M75.3333 440.667L75.6667 441.333L75.3333 440.667z"/>
<path style="fill:#cb7e72; stroke:none;" d="M922 440L923 441L922 440M75 442L76 443L75 442z"/>
<path style="fill:#d6b5a5; stroke:none;" d="M923.333 442.667L923.667 443.333L923.333 442.667z"/>
<path style="fill:#cb7e72; stroke:none;" d="M923 444L924 445L923 444z"/>
<path style="fill:#d6b5a5; stroke:none;" d="M74.3333 445.667L74.6667 446.333L74.3333 445.667z"/>
<path style="fill:#cb7e72; stroke:none;" d="M74.3333 447.667L74.6667 448.333L74.3333 447.667z"/>
<path style="fill:#d6b5a5; stroke:none;" d="M924.333 447.667L924.667 448.333L924.333 447.667z"/>
<path style="fill:#cb7e72; stroke:none;" d="M924 449L925 450L924 449z"/>
<path style="fill:#d6b5a5; stroke:none;" d="M73.3333 451.667L73.6667 452.333L73.3333 451.667M925 452L926 453L925 452z"/>
<path style="fill:#cb7e72; stroke:none;" d="M73 453L74 454L73 453M925.333 453.667L925.667 454.333L925.333 453.667z"/>
<path style="fill:#d6b5a5; stroke:none;" d="M72.3333 457.667L72.6667 458.333L72.3333 457.667M926.333 457.667L926.667 458.333L926.333 457.667z"/>
<path style="fill:#cb7e72; stroke:none;" d="M72.3333 459.667L72.6667 460.333L72.3333 459.667M926 459L927 460L926 459z"/>
<path style="fill:#d6b5a5; stroke:none;" d="M927.333 462.667L927.667 463.333L927.333 462.667M71.3333 464.667L71.6667 465.333L71.3333 464.667z"/>
<path style="fill:#cb7e72; stroke:none;" d="M927.333 464.667L927.667 465.333L927.333 464.667M71.3333 466.667L71.6667 467.333L71.3333 466.667z"/>
<path style="fill:#d6b5a5; stroke:none;" d="M928 468L928 471L929 471L928 468M70 471L70 474L71 474L70 471z"/>
<path style="fill:#cb7e72; stroke:none;" d="M928 471L929 472L928 471M70.3333 474.667L70.6667 475.333L70.3333 474.667z"/>
<path style="fill:#d6b5a5; stroke:none;" d="M929.333 475.667L929.667 476.333L929.333 475.667z"/>
<path style="fill:#cb7e72; stroke:none;" d="M929 477L929 480L930 480L929 477z"/>
<path style="fill:#d6b5a5; stroke:none;" d="M69 480L69 483L70 483L69 480z"/>
<path style="fill:#cb7e72; stroke:none;" d="M69 483L69 486L70 486L69 483z"/>
<path style="fill:#d6b5a5; stroke:none;" d="M930 483L930 486L931 486L930 483z"/>
<path style="fill:#cb7e72; stroke:none;" d="M930.333 486.667L930.667 487.333L930.333 486.667z"/>
<path style="fill:#d6b5a5; stroke:none;" d="M68 490L68 494L69 494L68 490M931 492L931 495L932 495L931 492z"/>
<path style="fill:#cb7e72; stroke:none;" d="M68 494L68 497L69 497L68 494M931 495L931 499L932 499L931 495z"/>
<path style="fill:#d6b5a5; stroke:none;" d="M67 503L67 509L68 509L67 503M932 504L932 508L933 508L932 504z"/>
<path style="fill:#cb7e72; stroke:none;" d="M932 508L932 513L933 513L932 508M67 509L67 515L68 515L67 509z"/>
<path style="fill:#d6b5a5; stroke:none;" d="M933 523L933 535L934 535L933 523z"/>
<path style="fill:#cb7e72; stroke:none;" d="M933 535L933 545L934 545L933 535z"/>
<path style="fill:#d6b5a5; stroke:none;" d="M933 545L933 555L934 555L933 545z"/>
<path style="fill:#cb7e72; stroke:none;" d="M67 555L67 562L68 562L67 555z"/>
<path style="fill:#d6b5a5; stroke:none;" d="M67 562L67 567L68 567L67 562z"/>
<path style="fill:#cb7e72; stroke:none;" d="M932 562L932 566L933 566L932 562z"/>
<path style="fill:#d6b5a5; stroke:none;" d="M932 566L932 570L933 570L932 566z"/>
<path style="fill:#cb7e72; stroke:none;" d="M68 572L68 576L69 576L68 572M931 574L931 577L932 577L931 574z"/>
<path style="fill:#d6b5a5; stroke:none;" d="M68 576L68 579L69 579L68 576M931 577L931 580L932 580L931 577z"/>
<path style="fill:#cb7e72; stroke:none;" d="M69 583L69 586L70 586L69 583M930 583L930 586L931 586L930 583z"/>
<path style="fill:#d6b5a5; stroke:none;" d="M69.3333 586.667L69.6667 587.333L69.3333 586.667M930.333 586.667L930.667 587.333L930.333 586.667z"/>
<path style="fill:#cb7e72; stroke:none;" d="M929.333 591.667L929.667 592.333L929.333 591.667M70.3333 592.667L70.6667 593.333L70.3333 592.667z"/>
<path style="fill:#d6b5a5; stroke:none;" d="M929.333 593.667L929.667 594.333L929.333 593.667M70.3333 594.667L70.6667 595.333L70.3333 594.667z"/>
<path style="fill:#cb7e72; stroke:none;" d="M928.333 597.667L928.667 598.333L928.333 597.667M71.3333 599.667L71.6667 600.333L71.3333 599.667z"/>
<path style="fill:#d6b5a5; stroke:none;" d="M928.333 599.667L928.667 600.333L928.333 599.667M71.3333 601.667L71.6667 602.333L71.3333 601.667z"/>
<path style="fill:#cb7e72; stroke:none;" d="M927.333 603.667L927.667 604.333L927.333 603.667M72.3333 605.667L72.6667 606.333L72.3333 605.667z"/>
<path style="fill:#d6b5a5; stroke:none;" d="M927.333 605.667L927.667 606.333L927.333 605.667M72.3333 607.667L72.6667 608.333L72.3333 607.667z"/>
<path style="fill:#cb7e72; stroke:none;" d="M926 609L927 610L926 609z"/>
<path style="fill:#d6b5a5; stroke:none;" d="M926.333 610.667L926.667 611.333L926.333 610.667z"/>
<path style="fill:#cb7e72; stroke:none;" d="M73 612L74 613L73 612z"/>
<path style="fill:#d6b5a5; stroke:none;" d="M73.3333 613.667L73.6667 614.333L73.3333 613.667z"/>
<path style="fill:#cb7e72; stroke:none;" d="M925 614L926 615L925 614z"/>
<path style="fill:#d6b5a5; stroke:none;" d="M925.333 615.667L925.667 616.333L925.333 615.667z"/>
<path style="fill:#cb7e72; stroke:none;" d="M74 617L75 618L74 617z"/>
<path style="fill:#d6b5a5; stroke:none;" d="M74.3333 618.667L74.6667 619.333L74.3333 618.667z"/>
<path style="fill:#cb7e72; stroke:none;" d="M924 619L925 620L924 619z"/>
<path style="fill:#d6b5a5; stroke:none;" d="M924 620L925 621L924 620z"/>
<path style="fill:#cb7e72; stroke:none;" d="M75 622L76 623L75 622z"/>
<path style="fill:#d6b5a5; stroke:none;" d="M75 623L76 624L75 623z"/>
<path style="fill:#cb7e72; stroke:none;" d="M923 623L924 624L923 623z"/>
<path style="fill:#d6b5a5; stroke:none;" d="M923.333 624.667L923.667 625.333L923.333 624.667z"/>
<path style="fill:#cb7e72; stroke:none;" d="M76.3333 626.667L76.6667 627.333L76.3333 626.667M922 627L923 628L922 627z"/>
<path style="fill:#d6b5a5; stroke:none;" d="M76 628L77 629L76 628M922.333 628.667L922.667 629.333L922.333 628.667z"/>
<path style="fill:#cb7e72; stroke:none;" d="M77 631L78 632L77 631M921 631L922 632L921 631z"/>
<path style="fill:#d6b5a5; stroke:none;" d="M77 632L78 633L77 632M921 632L922 633L921 632z"/>
<path style="fill:#cb7e72; stroke:none;" d="M78 635L79 636L78 635M920 635L921 636L920 635z"/>
<path style="fill:#d6b5a5; stroke:none;" d="M78.3333 636.667L78.6667 637.333L78.3333 636.667M920 636L921 637L920 636z"/>
<path style="fill:#cb7e72; stroke:none;" d="M79 639L80 640L79 639M919 639L920 640L919 639z"/>
<path style="fill:#d6b5a5; stroke:none;" d="M79.3333 640.667L79.6667 641.333L79.3333 640.667M919 640L920 641L919 640z"/>
<path style="fill:#cb7e72; stroke:none;" d="M918 642L919 643L918 642M80 643L81 644L80 643z"/>
<path style="fill:#d6b5a5; stroke:none;" d="M918 643L919 644L918 643M80 644L81 645L80 644z"/>
<path style="fill:#cb7e72; stroke:none;" d="M917 646L918 647L917 646M81 647L82 648L81 647z"/>
<path style="fill:#d6b5a5; stroke:none;" d="M917 647L918 648L917 647M81 648L82 649L81 648z"/>
<path style="fill:#cb7e72; stroke:none;" d="M916 649L917 650L916 649z"/>
<path style="fill:#d6b5a5; stroke:none;" d="M916 650L917 651L916 650z"/>
<path style="fill:#cb7e72; stroke:none;" d="M82 651L83 652L82 651z"/>
<path style="fill:#d6b5a5; stroke:none;" d="M82 652L83 653L82 652z"/>
<path style="fill:#cb7e72; stroke:none;" d="M915 652L916 653L915 652z"/>
<path style="fill:#d6b5a5; stroke:none;" d="M915 653L916 654L915 653z"/>
<path style="fill:#cb7e72; stroke:none;" d="M83 654L84 655L83 654z"/>
<path style="fill:#d6b5a5; stroke:none;" d="M83 655L84 656L83 655z"/>
<path style="fill:#cb7e72; stroke:none;" d="M914 655L915 656L914 655z"/>
<path style="fill:#d6b5a5; stroke:none;" d="M914 656L915 657L914 656z"/>
<path style="fill:#cb7e72; stroke:none;" d="M84 658L85 659L84 658M913 658L914 659L913 658z"/>
<path style="fill:#d6b5a5; stroke:none;" d="M84 659L85 660L84 659M913 659L914 660L913 659z"/>
<path style="fill:#cb7e72; stroke:none;" d="M85 661L86 662L85 661M912 661L913 662L912 661z"/>
<path style="fill:#d6b5a5; stroke:none;" d="M85 662L86 663L85 662z"/>
<path style="fill:#cb7e72; stroke:none;" d="M86 664L87 665L86 664z"/>
<path style="fill:#d6b5a5; stroke:none;" d="M911 664L912 665L911 664M86 665L87 666L86 665z"/>
<path style="fill:#cb7e72; stroke:none;" d="M910 666L911 667L910 666M87 667L88 668L87 667z"/>
<path style="fill:#d6b5a5; stroke:none;" d="M910 667L911 668L910 667M87 668L88 669L87 668z"/>
<path style="fill:#cb7e72; stroke:none;" d="M909 669L910 670L909 669M88 670L89 671L88 670z"/>
<path style="fill:#d6b5a5; stroke:none;" d="M909 670L910 671L909 670M88 671L89 672L88 671z"/>
<path style="fill:#cb7e72; stroke:none;" d="M908 672L909 673L908 672M89 673L90 674L89 673z"/>
<path style="fill:#d6b5a5; stroke:none;" d="M89 674L90 675L89 674z"/>
<path style="fill:#cb7e72; stroke:none;" d="M907 674L908 675L907 674z"/>
<path style="fill:#d6b5a5; stroke:none;" d="M907 675L908 676L907 675z"/>
<path style="fill:#cb7e72; stroke:none;" d="M90 676L91 677L90 676z"/>
<path style="fill:#d6b5a5; stroke:none;" d="M90 677L91 678L90 677z"/>
<path style="fill:#cb7e72; stroke:none;" d="M906 677L907 678L906 677M91 679L92 680L91 679M905 679L906 680L905 679z"/>
<path style="fill:#d6b5a5; stroke:none;" d="M905 680L906 681L905 680z"/>
<path style="fill:#cb7e72; stroke:none;" d="M92 681L93 682L92 681z"/>
<path style="fill:#d6b5a5; stroke:none;" d="M92 682L93 683L92 682z"/>
<path style="fill:#cb7e72; stroke:none;" d="M904 682L905 683L904 682M93 684L94 685L93 684M903 684L904 685L903 684z"/>
<path style="fill:#d6b5a5; stroke:none;" d="M93 685L94 686L93 685z"/>
<path style="fill:#cb7e72; stroke:none;" d="M902 686L903 687L902 686z"/>
<path style="fill:#d6b5a5; stroke:none;" d="M94 687L95 688L94 687M902 687L903 688L902 687z"/>
<path style="fill:#cb7e72; stroke:none;" d="M95 689L96 690L95 689z"/>
<path style="fill:#d6b5a5; stroke:none;" d="M901 689L902 690L901 689M95 690L96 691L95 690z"/>
<path style="fill:#cb7e72; stroke:none;" d="M900 691L901 692L900 691z"/>
<path style="fill:#d6b5a5; stroke:none;" d="M96 692L97 693L96 692z"/>
<path style="fill:#cb7e72; stroke:none;" d="M899 693L900 694L899 693M97 694L98 695L97 694z"/>
<path style="fill:#d6b5a5; stroke:none;" d="M97 695L98 696L97 695z"/>
<path style="fill:#cb7e72; stroke:none;" d="M898 695L899 696L898 695z"/>
<path style="fill:#d6b5a5; stroke:none;" d="M898 696L899 697L898 696M98 697L99 698L98 697z"/>
<path style="fill:#cb7e72; stroke:none;" d="M897 697L898 698L897 697z"/>
<path style="fill:#d6b5a5; stroke:none;" d="M897 698L898 699L897 698z"/>
<path style="fill:#cb7e72; stroke:none;" d="M99 699L100 700L99 699z"/>
<path style="fill:#d6b5a5; stroke:none;" d="M896 700L897 701L896 700z"/>
<path style="fill:#cb7e72; stroke:none;" d="M100 701L101 702L100 701z"/>
<path style="fill:#d6b5a5; stroke:none;" d="M100 702L101 703L100 702M895 702L896 703L895 702M101 704L102 705L101 704M894 704L895 705L894 704M102 706L103 707L102 706M893 706L894 707L893 706z"/>
<path style="fill:#cb7e72; stroke:none;" d="M103 708L104 709L103 708z"/>
<path style="fill:#d6b5a5; stroke:none;" d="M892 708L893 709L892 708z"/>
<path style="fill:#cb7e72; stroke:none;" d="M104 710L105 711L104 710z"/>
<path style="fill:#d6b5a5; stroke:none;" d="M891 710L892 711L891 710z"/>
<path style="fill:#cb7e72; stroke:none;" d="M105 712L106 713L105 712z"/>
<path style="fill:#d6b5a5; stroke:none;" d="M890 712L891 713L890 712M105 713L106 714L105 713z"/>
<path style="fill:#cb7e72; stroke:none;" d="M106 714L107 715L106 714z"/>
<path style="fill:#d6b5a5; stroke:none;" d="M889 714L890 715L889 714M106 715L107 716L106 715M888 716L889 717L888 716M107 717L108 718L107 717z"/>
<path style="fill:#cb7e72; stroke:none;" d="M887 717L888 718L887 717z"/>
<path style="fill:#d6b5a5; stroke:none;" d="M108 719L109 720L108 719z"/>
<path style="fill:#cb7e72; stroke:none;" d="M886 719L887 720L886 719z"/>
<path style="fill:#d6b5a5; stroke:none;" d="M109 721L110 722L109 721M885 721L886 722L885 721M110 723L111 724L110 723M884 723L885 724L884 723z"/>
<path style="fill:#cb7e72; stroke:none;" d="M883 724L884 725L883 724z"/>
<path style="fill:#d6b5a5; stroke:none;" d="M111 725L112 726L111 725z"/>
<path style="fill:#cb7e72; stroke:none;" d="M882 726L883 727L882 726z"/>
<path style="fill:#d6b5a5; stroke:none;" d="M112 727L113 728L112 727z"/>
<path style="fill:#cb7e72; stroke:none;" d="M113 728L114 729L113 728z"/>
<path style="fill:#d6b5a5; stroke:none;" d="M881 728L882 729L881 728M113 729L114 730L113 729z"/>
<path style="fill:#cb7e72; stroke:none;" d="M114 730L115 731L114 730z"/>
<path style="fill:#d6b5a5; stroke:none;" d="M880 730L881 731L880 730M114 731L115 732L114 731z"/>
<path style="fill:#cb7e72; stroke:none;" d="M879 731L880 732L879 731M115 732L116 733L115 732z"/>
<path style="fill:#d6b5a5; stroke:none;" d="M878 733L879 734L878 733z"/>
<path style="fill:#cb7e72; stroke:none;" d="M116 734L117 735L116 734z"/>
<path style="fill:#d6b5a5; stroke:none;" d="M877 735L878 736L877 735M117 736L118 737L117 736z"/>
<path style="fill:#cb7e72; stroke:none;" d="M876 736L877 737L876 736z"/>
<path style="fill:#d6b5a5; stroke:none;" d="M118 738L119 739L118 738M875 738L876 739L875 738z"/>
<path style="fill:#cb7e72; stroke:none;" d="M119 739L120 740L119 739M874 739L875 740L874 739M120 741L121 742L120 741z"/>
<path style="fill:#d6b5a5; stroke:none;" d="M873 741L874 742L873 741M121 743L122 744L121 743M871 744L872 745L871 744M122 745L123 746L122 745z"/>
<path style="fill:#cb7e72; stroke:none;" d="M123 746L124 747L123 746M869 747L870 748L869 747z"/>
<path style="fill:#d6b5a5; stroke:none;" d="M124 748L125 749L124 748M868 749L869 750L868 749M125 750L126 751L125 750z"/>
<path style="fill:#cb7e72; stroke:none;" d="M867 750L868 751L867 750M126 751L127 752L126 751z"/>
<path style="fill:#d6b5a5; stroke:none;" d="M866 752L867 753L866 752M127 753L128 754L127 753z"/>
<path style="fill:#cb7e72; stroke:none;" d="M865 753L866 754L865 753M128 754L129 755L128 754M129 756L130 757L129 756z"/>
<path style="fill:#d6b5a5; stroke:none;" d="M863 756L864 757L863 756z"/>
<path style="fill:#cb7e72; stroke:none;" d="M862 757L863 758L862 757z"/>
<path style="fill:#d6b5a5; stroke:none;" d="M130 758L131 759L130 758z"/>
<path style="fill:#cb7e72; stroke:none;" d="M131 759L132 760L131 759z"/>
<path style="fill:#d6b5a5; stroke:none;" d="M861 759L862 760L861 759z"/>
<path style="fill:#cb7e72; stroke:none;" d="M860 760L861 761L860 760z"/>
<path style="fill:#d6b5a5; stroke:none;" d="M132 761L133 762L132 761z"/>
<path style="fill:#cb7e72; stroke:none;" d="M133 762L134 763L133 762z"/>
<path style="fill:#d6b5a5; stroke:none;" d="M858 763L859 764L858 763M134 764L135 765L134 764z"/>
<path style="fill:#cb7e72; stroke:none;" d="M857 764L858 765L857 764M135 765L136 766L135 765z"/>
<path style="fill:#d6b5a5; stroke:none;" d="M136 767L137 768L136 767M855 767L856 768L855 767z"/>
<path style="fill:#cb7e72; stroke:none;" d="M137 768L138 769L137 768M854 768L855 769L854 768z"/>
<path style="fill:#d6b5a5; stroke:none;" d="M139 771L140 772L139 771M852 771L853 772L852 771z"/>
<path style="fill:#cb7e72; stroke:none;" d="M140 772L141 773L140 772z"/>
<path style="fill:#d6b5a5; stroke:none;" d="M851 772L852 773L851 772z"/>
<path style="fill:#cb7e72; stroke:none;" d="M850 773L851 774L850 773z"/>
<path style="fill:#d6b5a5; stroke:none;" d="M141 774L142 775L141 774z"/>
<path style="fill:#cb7e72; stroke:none;" d="M142 775L143 776L142 775z"/>
<path style="fill:#d6b5a5; stroke:none;" d="M848 776L849 777L848 776z"/>
<path style="fill:#cb7e72; stroke:none;" d="M847 777L848 778L847 777z"/>
<path style="fill:#d6b5a5; stroke:none;" d="M144 778L145 779L144 778z"/>
<path style="fill:#cb7e72; stroke:none;" d="M846 778L847 779L846 778M145 779L146 780L145 779z"/>
<path style="fill:#d6b5a5; stroke:none;" d="M844 781L845 782L844 781M147 782L148 783L147 782z"/>
<path style="fill:#cb7e72; stroke:none;" d="M843 782L844 783L843 782M148 783L149 784L148 783M842 783L843 784L842 783z"/>
<path style="fill:#d6b5a5; stroke:none;" d="M150 786L151 787L150 786M151 787L152 788L151 787M839 787L840 788L839 787z"/>
<path style="fill:#cb7e72; stroke:none;" d="M152 788L153 789L152 788z"/>
<path style="fill:#d6b5a5; stroke:none;" d="M838 788L839 789L838 788z"/>
<path style="fill:#cb7e72; stroke:none;" d="M837 789L838 790L837 789M836 790L837 791L836 790z"/>
<path style="fill:#d6b5a5; stroke:none;" d="M154 791L155 792L154 791z"/>
<path style="fill:#cb7e72; stroke:none;" d="M835 791L836 792L835 791M155 792L156 793L155 792M156 793L157 794L156 793z"/>
<path style="fill:#d6b5a5; stroke:none;" d="M158 796L159 797L158 796M831 796L832 797L831 796z"/>
<path style="fill:#cb7e72; stroke:none;" d="M159 797L160 798L159 797z"/>
<path style="fill:#d6b5a5; stroke:none;" d="M830 797L831 798L830 797z"/>
<path style="fill:#cb7e72; stroke:none;" d="M160 798L161 799L160 798z"/>
<path style="fill:#d6b5a5; stroke:none;" d="M829 798L830 799L829 798z"/>
<path style="fill:#cb7e72; stroke:none;" d="M161 799L162 800L161 799M828 799L829 800L828 799M827 800L828 801L827 800M826 801L827 802L826 801z"/>
<path style="fill:#d6b5a5; stroke:none;" d="M163 802L164 803L163 802M164 803L165 804L164 803z"/>
<path style="fill:#cb7e72; stroke:none;" d="M165 804L166 805L165 804M166 805L167 806L166 805M167 806L168 807L167 806M168 807L169 808L168 807z"/>
<path style="fill:#d6b5a5; stroke:none;" d="M171 811L172 812L171 811M172 812L173 813L172 812M173 813L174 814L173 813M174 814L175 815L174 814M175 815L176 816L175 815M176 816L177 817L176 816z"/>
<path style="fill:#cb7e72; stroke:none;" d="M811 816L812 817L811 816M177 817L178 818L177 817M810 817L811 818L810 817M178 818L179 819L178 818M809 818L810 819L809 818M179 819L180 820L179 819M808 819L809 820L808 819M180 820L181 821L180 820M807 820L808 821L807 820M181 821L182 822L181 821M806 821L807 822L806 821M182 822L183 823L182 822M805 822L806 823L805 822M183 823L184 824L183 823M804 823L805 824L804 823M184 824L185 825L184 824z"/>
<path style="fill:#d6b5a5; stroke:none;" d="M803 824L804 825L803 824z"/>
<path style="fill:#cb7e72; stroke:none;" d="M185 825L186 826L185 825z"/>
<path style="fill:#d6b5a5; stroke:none;" d="M802 825L803 826L802 825z"/>
<path style="fill:#cb7e72; stroke:none;" d="M186 826L187 827L186 826z"/>
<path style="fill:#d6b5a5; stroke:none;" d="M801 826L802 827L801 826z"/>
<path style="fill:#cb7e72; stroke:none;" d="M187 827L188 828L187 827M188 828L189 829L188 828M189 829L190 830L189 829M797 829L798 830L797 829z"/>
<path style="fill:#d6b5a5; stroke:none;" d="M190 830L191 831L190 830z"/>
<path style="fill:#cb7e72; stroke:none;" d="M796 830L797 831L796 830z"/>
<path style="fill:#d6b5a5; stroke:none;" d="M191 831L192 832L191 831M795 831L796 832L795 831M192 832L193 833L192 832M794 832L795 833L794 832M193 833L194 834L193 833M793 833L794 834L793 833M194 834L195 835L194 834z"/>
<path style="fill:#cb7e72; stroke:none;" d="M790 835L791 836L790 835M789 836L790 837L789 836M198 837L199 838L198 837z"/>
<path style="fill:#d6b5a5; stroke:none;" d="M788 837L789 838L788 837z"/>
<path style="fill:#cb7e72; stroke:none;" d="M199 838L200 839L199 838z"/>
<path style="fill:#d6b5a5; stroke:none;" d="M787 838L788 839L787 838M200 839L201 840L200 839M201 840L202 841L201 840z"/>
<path style="fill:#cb7e72; stroke:none;" d="M784 840L785 841L784 840z"/>
<path style="fill:#d6b5a5; stroke:none;" d="M202 841L203 842L202 841z"/>
<path style="fill:#cb7e72; stroke:none;" d="M783 841L784 842L783 841z"/>
<path style="fill:#d6b5a5; stroke:none;" d="M782 842L783 843L782 842z"/>
<path style="fill:#cb7e72; stroke:none;" d="M206 844L207 845L206 844M779 844L780 845L779 844M207 845L208 846L207 845z"/>
<path style="fill:#d6b5a5; stroke:none;" d="M778 845L779 846L778 845M208 846L209 847L208 846M777 846L778 847L777 846M209 847L210 848L209 847z"/>
<path style="fill:#cb7e72; stroke:none;" d="M775 847L776 848L775 847M774 848L775 849L774 848M212 849L213 850L212 849z"/>
<path style="fill:#d6b5a5; stroke:none;" d="M773 849L774 850L773 849z"/>
<path style="fill:#cb7e72; stroke:none;" d="M213 850L214 851L213 850z"/>
<path style="fill:#d6b5a5; stroke:none;" d="M214 851L215 852L214 851z"/>
<path style="fill:#cb7e72; stroke:none;" d="M770 851L771 852L770 851z"/>
<path style="fill:#d6b5a5; stroke:none;" d="M215 852L216 853L215 852M769 852L770 853L769 852z"/>
<path style="fill:#cb7e72; stroke:none;" d="M218 854L219 855L218 854M766 854L767 855L766 854z"/>
<path style="fill:#d6b5a5; stroke:none;" d="M219 855L220 856L219 855M765 855L766 856L765 855z"/>
<path style="fill:#cb7e72; stroke:none;" d="M222 857L223 858L222 857M762 857L763 858L762 857z"/>
<path style="fill:#d6b5a5; stroke:none;" d="M223 858L224 859L223 858M761 858L762 859L761 858M224 859L225 860L224 859z"/>
<path style="fill:#cb7e72; stroke:none;" d="M759 859L760 860L759 859M226 860L227 861L226 860z"/>
<path style="fill:#d6b5a5; stroke:none;" d="M758 860L759 861L758 860M227 861L228 862L227 861z"/>
<path style="fill:#cb7e72; stroke:none;" d="M756 861L757 862L756 861z"/>
<path style="fill:#d6b5a5; stroke:none;" d="M228 862L229 863L228 862M755 862L756 863L755 862z"/>
<path style="fill:#cb7e72; stroke:none;" d="M230 863L231 864L230 863M753 863L754 864L753 863z"/>
<path style="fill:#d6b5a5; stroke:none;" d="M231 864L232 865L231 864M752 864L753 865L752 864z"/>
<path style="fill:#cb7e72; stroke:none;" d="M234 866L235 867L234 866z"/>
<path style="fill:#d6b5a5; stroke:none;" d="M749 866L750 867L749 866M235 867L236 868L235 867z"/>
<path style="fill:#cb7e72; stroke:none;" d="M747 867L748 868L747 867M237 868L238 869L237 868z"/>
<path style="fill:#d6b5a5; stroke:none;" d="M746 868L747 869L746 868M238 869L239 870L238 869z"/>
<path style="fill:#cb7e72; stroke:none;" d="M744 869L745 870L744 869M240 870L241 871L240 870z"/>
<path style="fill:#d6b5a5; stroke:none;" d="M743 870L744 871L743 870M241 871L242 872L241 871z"/>
<path style="fill:#cb7e72; stroke:none;" d="M741 871L742 872L741 871M243 872L244 873L243 872z"/>
<path style="fill:#d6b5a5; stroke:none;" d="M740 872L741 873L740 872M244 873L245 874L244 873z"/>
<path style="fill:#cb7e72; stroke:none;" d="M738 873L739 874L738 873M246 874L247 875L246 874M736 874L737 875L736 874M248 875L249 876L248 875z"/>
<path style="fill:#d6b5a5; stroke:none;" d="M735 875L736 876L735 875M249 876L250 877L249 876z"/>
<path style="fill:#cb7e72; stroke:none;" d="M733 876L734 877L733 876M251 877L252 878L251 877z"/>
<path style="fill:#d6b5a5; stroke:none;" d="M732 877L733 878L732 877M252 878L253 879L252 878M730 878L731 879L730 878z"/>
<path style="fill:#cb7e72; stroke:none;" d="M254 879L255 880L254 879M728 879L729 880L728 879M256 880L257 881L256 880z"/>
<path style="fill:#d6b5a5; stroke:none;" d="M257 881L258 882L257 881M725 881L726 882L725 881z"/>
<path style="fill:#cb7e72; stroke:none;" d="M259 882L260 883L259 882z"/>
<path style="fill:#d6b5a5; stroke:none;" d="M723 882L724 883L723 882z"/>
<path style="fill:#cb7e72; stroke:none;" d="M261 883L262 884L261 883M721 883L722 884L721 883z"/>
<path style="fill:#d6b5a5; stroke:none;" d="M262 884L263 885L262 884z"/>
<path style="fill:#cb7e72; stroke:none;" d="M719 884L720 885L719 884M264 885L265 886L264 885M717 885L718 886L717 885z"/>
<path style="fill:#d6b5a5; stroke:none;" d="M718 885L719 886L718 885M265 886L266 887L265 886z"/>
<path style="fill:#cb7e72; stroke:none;" d="M266 886L267 887L266 886z"/>
<path style="fill:#d6b5a5; stroke:none;" d="M716 886L717 887L716 886M267 887L268 888L267 887M714 887L715 888L714 887M269 888L270 889L269 888M712 888L713 889L712 888z"/>
<path style="fill:#cb7e72; stroke:none;" d="M271 889L272 890L271 889M710 889L711 890L710 889M273 890L274 891L273 890M708 890L709 891L708 890M275 891L276 892L275 891M706 891L707 892L706 891z"/>
<path style="fill:#d6b5a5; stroke:none;" d="M276 892L277 893L276 892z"/>
<path style="fill:#cb7e72; stroke:none;" d="M704 892L705 893L704 892z"/>
<path style="fill:#d6b5a5; stroke:none;" d="M278 893L279 894L278 893z"/>
<path style="fill:#cb7e72; stroke:none;" d="M702 893L703 894L702 893z"/>
<path style="fill:#d6b5a5; stroke:none;" d="M280 894L281 895L280 894z"/>
<path style="fill:#cb7e72; stroke:none;" d="M700 894L701 895L700 894z"/>
<path style="fill:#d6b5a5; stroke:none;" d="M282 895L283 896L282 895z"/>
<path style="fill:#cb7e72; stroke:none;" d="M698 895L699 896L698 895z"/>
<path style="fill:#d6b5a5; stroke:none;" d="M284 896L285 897L284 896z"/>
<path style="fill:#cb7e72; stroke:none;" d="M696 896L697 897L696 896z"/>
<path style="fill:#d6b5a5; stroke:none;" d="M286 897L287 898L286 897z"/>
<path style="fill:#cb7e72; stroke:none;" d="M694 897L695 898L694 897z"/>
<path style="fill:#d6b5a5; stroke:none;" d="M288 898L289 899L288 898M692 898L693 899L692 898M290 899L291 900L290 899M690 899L691 900L690 899M292 900L293 901L292 900z"/>
<path style="fill:#cb7e72; stroke:none;" d="M687 900L688 901L687 900z"/>
<path style="fill:#d6b5a5; stroke:none;" d="M688 900L689 901L688 900M294 901L295 902L294 901z"/>
<path style="fill:#cb7e72; stroke:none;" d="M295 901L296 902L295 901M685 901L686 902L685 901z"/>
<path style="fill:#d6b5a5; stroke:none;" d="M686 901L687 902L686 901M296 902L297 903L296 902z"/>
<path style="fill:#cb7e72; stroke:none;" d="M297 902L298 903L297 902M683 902L684 903L683 902M299 903L300 904L299 903z"/>
<path style="fill:#d6b5a5; stroke:none;" d="M681 903L682 904L681 903z"/>
<path style="fill:#cb7e72; stroke:none;" d="M301 904L302 905L301 904M678 904L679 905L678 904z"/>
<path style="fill:#d6b5a5; stroke:none;" d="M679 904L680 905L679 904M303 905L304 906L303 905z"/>
<path style="fill:#cb7e72; stroke:none;" d="M676 905L677 906L676 905z"/>
<path style="fill:#d6b5a5; stroke:none;" d="M677 905L678 906L677 905M305 906L306 907L305 906z"/>
<path style="fill:#cb7e72; stroke:none;" d="M674 906L675 907L674 906z"/>
<path style="fill:#d6b5a5; stroke:none;" d="M307 907L308 908L307 907z"/>
<path style="fill:#cb7e72; stroke:none;" d="M308 907L309 908L308 907z"/>
<path style="fill:#d6b5a5; stroke:none;" d="M672 907L673 908L672 907z"/>
<path style="fill:#cb7e72; stroke:none;" d="M310 908L311 909L310 908M669 908L670 909L669 908z"/>
<path style="fill:#d6b5a5; stroke:none;" d="M670 908L671 909L670 908M312 909L313 910L312 909M667 909L668 910L667 909M314 910L315 911L314 910z"/>
<path style="fill:#cb7e72; stroke:none;" d="M315 910L316 911L315 910M664 910L665 911L664 910z"/>
<path style="fill:#d6b5a5; stroke:none;" d="M665 910L666 911L665 910M317 911L318 912L317 911z"/>
<path style="fill:#cb7e72; stroke:none;" d="M661 911L662 912L661 911z"/>
<path style="fill:#d6b5a5; stroke:none;" d="M662 911L663 912L662 911M319 912L320 913L319 912z"/>
<path style="fill:#cb7e72; stroke:none;" d="M320 912L321 913L320 912M659 912L660 913L659 912z"/>
<path style="fill:#d6b5a5; stroke:none;" d="M322 913L323 914L322 913z"/>
<path style="fill:#cb7e72; stroke:none;" d="M656 913L657 914L656 913z"/>
<path style="fill:#d6b5a5; stroke:none;" d="M657 913L658 914L657 913M324 914L325 915L324 914z"/>
<path style="fill:#cb7e72; stroke:none;" d="M325 914L326 915L325 914M653 914L654 915L653 914z"/>
<path style="fill:#d6b5a5; stroke:none;" d="M654 914L655 915L654 914M327 915L328 916L327 915z"/>
<path style="fill:#cb7e72; stroke:none;" d="M328 915L329 916L328 915z"/>
<path style="fill:#d6b5a5; stroke:none;" d="M651 915L652 916L651 915M330 916L331 917L330 916z"/>
<path style="fill:#cb7e72; stroke:none;" d="M648 916L649 917L648 916z"/>
<path style="fill:#d6b5a5; stroke:none;" d="M332 917L333 918L332 917z"/>
<path style="fill:#cb7e72; stroke:none;" d="M333 917L334 918L333 917M645 917L646 918L645 917z"/>
<path style="fill:#d6b5a5; stroke:none;" d="M646 917L647 918L646 917M335 918L336 919L335 918z"/>
<path style="fill:#cb7e72; stroke:none;" d="M336 918L337 919L336 918M642 918L643 919L642 918z"/>
<path style="fill:#d6b5a5; stroke:none;" d="M643 918L644 919L643 918M338 919L339 920L338 919z"/>
<path style="fill:#cb7e72; stroke:none;" d="M339 919L340 920L339 919M639 919L640 920L639 919z"/>
<path style="fill:#d6b5a5; stroke:none;" d="M640 919L641 920L640 919M341 920L342 921L341 920z"/>
<path style="fill:#cb7e72; stroke:none;" d="M342 920L343 921L342 920M636 920L637 921L636 920z"/>
<path style="fill:#d6b5a5; stroke:none;" d="M637 920L638 921L637 920M344 921L345 922L344 921z"/>
<path style="fill:#cb7e72; stroke:none;" d="M345 921L346 922L345 921M633 921L634 922L633 921z"/>
<path style="fill:#d6b5a5; stroke:none;" d="M634 921L635 922L634 921M347 922L348 923L347 922z"/>
<path style="fill:#cb7e72; stroke:none;" d="M348 922L349 923L348 922M630 922L631 923L630 922z"/>
<path style="fill:#d6b5a5; stroke:none;" d="M631 922L632 923L631 922M350 923L351 924L350 923z"/>
<path style="fill:#cb7e72; stroke:none;" d="M351 923L352 924L351 923M626 923L627 924L626 923z"/>
<path style="fill:#d6b5a5; stroke:none;" d="M627 923L628 924L627 923M353 924L354 925L353 924z"/>
<path style="fill:#cb7e72; stroke:none;" d="M354 924L355 925L354 924M623 924L624 925L623 924z"/>
<path style="fill:#d6b5a5; stroke:none;" d="M624 924L625 925L624 924M357 925L358 926L357 925z"/>
<path style="fill:#cb7e72; stroke:none;" d="M358 925L359 926L358 925M619 925L620 926L619 925z"/>
<path style="fill:#d6b5a5; stroke:none;" d="M620.667 925.333L621.333 925.667L620.667 925.333M360 926L361 927L360 926z"/>
<path style="fill:#cb7e72; stroke:none;" d="M361 926L362 927L361 926M616 926L617 927L616 926z"/>
<path style="fill:#d6b5a5; stroke:none;" d="M617 926L618 927L617 926M364 927L365 928L364 927z"/>
<path style="fill:#cb7e72; stroke:none;" d="M365 927L366 928L365 927M612 927L613 928L612 927z"/>
<path style="fill:#d6b5a5; stroke:none;" d="M613.667 927.333L614.333 927.667L613.667 927.333M367.667 928.333L368.333 928.667L367.667 928.333z"/>
<path style="fill:#cb7e72; stroke:none;" d="M369 928L370 929L369 928M608 928L609 929L608 928z"/>
<path style="fill:#d6b5a5; stroke:none;" d="M609.667 928.333L610.333 928.667L609.667 928.333M371 929L372 930L371 929z"/>
<path style="fill:#cb7e72; stroke:none;" d="M372 929L373 930L372 929M604 929L605 930L604 929z"/>
<path style="fill:#d6b5a5; stroke:none;" d="M605.667 929.333L606.333 929.667L605.667 929.333M375 930L376 931L375 930z"/>
<path style="fill:#cb7e72; stroke:none;" d="M376 930L377 931L376 930M600.667 930.333L601.333 930.667L600.667 930.333z"/>
<path style="fill:#d6b5a5; stroke:none;" d="M602 930L603 931L602 930M379 931L380 932L379 931z"/>
<path style="fill:#cb7e72; stroke:none;" d="M380.667 931.333L381.333 931.667L380.667 931.333M596 931L597 932L596 931z"/>
<path style="fill:#d6b5a5; stroke:none;" d="M597.667 931.333L598.333 931.667L597.667 931.333M384 932L385 933L384 932z"/>
<path style="fill:#cb7e72; stroke:none;" d="M385 932L386 933L385 932M591 932L592 933L591 932z"/>
<path style="fill:#d6b5a5; stroke:none;" d="M592.667 932.333L593.333 932.667L592.667 932.333M388.667 933.333L389.333 933.667L388.667 933.333z"/>
<path style="fill:#cb7e72; stroke:none;" d="M390 933L391 934L390 933M587 933L588 934L587 933z"/>
<path style="fill:#d6b5a5; stroke:none;" d="M588 933L589 934L588 933M393.667 934.333L394.333 934.667L393.667 934.333z"/>
<path style="fill:#cb7e72; stroke:none;" d="M395 934L396 935L395 934M581.667 934.333L582.333 934.667L581.667 934.333z"/>
<path style="fill:#d6b5a5; stroke:none;" d="M583 934L584 935L583 934M398.667 935.333L399.333 935.667L398.667 935.333z"/>
<path style="fill:#cb7e72; stroke:none;" d="M400 935L401 936L400 935M576 935L577 936L576 935z"/>
<path style="fill:#d6b5a5; stroke:none;" d="M577.667 935.333L578.333 935.667L577.667 935.333M403.667 936.333L404.333 936.667L403.667 936.333z"/>
<path style="fill:#cb7e72; stroke:none;" d="M405 936L406 937L405 936M570.667 936.333L571.333 936.667L570.667 936.333z"/>
<path style="fill:#d6b5a5; stroke:none;" d="M572 936L573 937L572 936M409.667 937.333L410.333 937.667L409.667 937.333z"/>
<path style="fill:#cb7e72; stroke:none;" d="M411.667 937.333L412.333 937.667L411.667 937.333M564.667 937.333L565.333 937.667L564.667 937.333z"/>
<path style="fill:#d6b5a5; stroke:none;" d="M566.667 937.333L567.333 937.667L566.667 937.333M416.667 938.333L417.333 938.667L416.667 938.333z"/>
<path style="fill:#cb7e72; stroke:none;" d="M418.667 938.333L419.333 938.667L418.667 938.333M558.667 938.333L559.333 938.667L558.667 938.333z"/>
<path style="fill:#d6b5a5; stroke:none;" d="M560 938L561 939L560 938M422 939L422 940L425 940L422 939z"/>
<path style="fill:#cb7e72; stroke:none;" d="M425.667 939.333L426.333 939.667L425.667 939.333M550 939L550 940L553 940L550 939z"/>
<path style="fill:#d6b5a5; stroke:none;" d="M553.667 939.333L554.333 939.667L553.667 939.333M430 940L430 941L433 941L430 940z"/>
<path style="fill:#cb7e72; stroke:none;" d="M433.667 940.333L434.333 940.667L433.667 940.333M541 940L541 941L544 941L541 940z"/>
<path style="fill:#d6b5a5; stroke:none;" d="M544 940L544 941L547 941L544 940M438 941L438 942L442 942L438 941z"/>
<path style="fill:#cb7e72; stroke:none;" d="M442 941L442 942L446 942L442 941M531 941L531 942L534 942L531 941z"/>
<path style="fill:#d6b5a5; stroke:none;" d="M534 941L534 942L537 942L534 941M451 942L451 943L455 943L451 942z"/>
<path style="fill:#cb7e72; stroke:none;" d="M455 942L455 943L460 943L455 942M518 942L518 943L523 943L518 942z"/>
<path style="fill:#d6b5a5; stroke:none;" d="M523 942L523 943L527 943L523 942M466 943L466 944L472 944L466 943z"/>
<path style="fill:#cb7e72; stroke:none;" d="M472 943L472 944L498 944L472 943z"/>
<path style="fill:#d6b5a5; stroke:none;" d="M498 943L498 944L509 944L498 943z"/>
</svg>
